<?xml version="1.0" encoding="UTF-8" standalone="no"?>
<!-- Generator: Adobe Illustrator 19.0.0, SVG Export Plug-In . SVG Version: 6.00 Build 0)  -->

<svg
   xmlns:dc="http://purl.org/dc/elements/1.1/"
   xmlns:cc="http://creativecommons.org/ns#"
   xmlns:rdf="http://www.w3.org/1999/02/22-rdf-syntax-ns#"
   xmlns:svg="http://www.w3.org/2000/svg"
   xmlns="http://www.w3.org/2000/svg"
   xmlns:sodipodi="http://sodipodi.sourceforge.net/DTD/sodipodi-0.dtd"
   xmlns:inkscape="http://www.inkscape.org/namespaces/inkscape"
   version="1.1"
   id="Capa_1"
   x="0px"
   y="0px"
   viewBox="0 0 426.667 426.667"
   style="enable-background:new 0 0 426.667 426.667;"
   xml:space="preserve"
   width="512px"
   height="512px"
   sodipodi:docname="help-white.svg"
   inkscape:version="0.92.2 (unknown)"><metadata
     id="metadata49"><rdf:RDF><cc:Work
         rdf:about=""><dc:format>image/svg+xml</dc:format><dc:type
           rdf:resource="http://purl.org/dc/dcmitype/StillImage" /></cc:Work></rdf:RDF></metadata><defs
     id="defs47" /><sodipodi:namedview
     pagecolor="#ffffff"
     bordercolor="#666666"
     borderopacity="1"
     objecttolerance="10"
     gridtolerance="10"
     guidetolerance="10"
     inkscape:pageopacity="0"
     inkscape:pageshadow="2"
     inkscape:window-width="1920"
     inkscape:window-height="1021"
     id="namedview45"
     showgrid="false"
     inkscape:zoom="0.921875"
     inkscape:cx="417.80908"
     inkscape:cy="239.87979"
     inkscape:window-x="1080"
     inkscape:window-y="420"
     inkscape:window-maximized="1"
     inkscape:current-layer="Capa_1" /><g
     id="g12"><g
       id="g10"><g
         id="g8"><rect
           x="192"
           y="298.667"
           width="42.667"
           height="42.667"
           fill="#FFFFFF"
           id="rect2" /><path
           d="M213.333,85.333c-47.147,0-85.333,38.187-85.333,85.333h42.667c0-23.467,19.2-42.667,42.667-42.667     S256,147.2,256,170.667c0,42.667-64,37.333-64,106.667h42.667c0-48,64-53.333,64-106.667     C298.667,123.52,260.48,85.333,213.333,85.333z"
           fill="#FFFFFF"
           id="path4" /><path
           d="M 213.333,0 C 95.573,0 0,95.573 0,213.333 c 0,117.76 95.573,213.333 213.333,213.333 117.76,0 213.333,-95.573 213.333,-213.333 C 426.666,95.573 331.093,0 213.333,0 Z m 0,390.66667 c -94.08,0 -177.333672,-83.25367 -177.333672,-177.33367 0,-94.08 83.253672,-177.332672 177.333672,-177.332672 94.08,0 177.33367,83.252672 177.33367,177.332672 0,94.08 -83.25367,177.33367 -177.33367,177.33367 z"
           id="path6"
           inkscape:connector-curvature="0"
           style="fill:#ffffff"
           sodipodi:nodetypes="ssssssssss" /></g></g></g><g
     id="g14" /><g
     id="g16" /><g
     id="g18" /><g
     id="g20" /><g
     id="g22" /><g
     id="g24" /><g
     id="g26" /><g
     id="g28" /><g
     id="g30" /><g
     id="g32" /><g
     id="g34" /><g
     id="g36" /><g
     id="g38" /><g
     id="g40" /><g
     id="g42" /></svg>