<?xml version="1.0" encoding="iso-8859-1"?>
<svg xmlns="http://www.w3.org/2000/svg" width="512" height="512" x="0" y="0" version="1" viewBox="0 0 486 486" xml:space="preserve">
  <g fill="#e0ab10">
    <path d="M311 251c6-1 18-5 24-22l12-35 5 2c2 1 4-1 5-3l6-19c1-2 0-4-2-5l-155-53c-2 0-4 1-5 3l-7 19c0 2 1 4 3 5l5 2-12 36c-6 16-2 22 5 31l31 37-3 10-48 11c-5 2-18 5-23 22l-11 30-4-1c-3-1-5 0-6 2l-6 19c-1 3 0 5 3 6l154 52c2 1 5 0 6-2l6-19c1-2-1-5-3-6l-5-1 11-31c6-17 2-23-5-31l-32-38 4-10c12-3 43-9 47-11zm-65 28l34 41c3 3 4 4 4 6 1 2 0 5-1 10l-11 31-116-40 10-30c3-9 9-11 13-12l51-12c3 0 5-2 6-5l6-18c1-2 0-5-1-7l-34-41-5-6c0-2 0-6 2-11l12-35 117 39-12 35c-4 10-10 12-14 13l-50 11c-3 1-5 3-6 5l-6 18c-1 3-1 6 1 8z"/>
    <path d="M338 424a191 191 0 0 1-61 22h-1l-11 1h-1l-21 2c-84 0-156-54-182-129l-1-4a192 192 0 0 1 0-121v-1a188 188 0 0 1 2-5c22-60 72-105 135-120v-1h3c13-3 27-5 42-5v20c0 6 4 8 9 4l42-36c4-4 4-10-1-14L250 2c-5-4-9-2-9 4l1 20a228 228 0 0 0-174 80v1c-34 40-53 89-55 142v1a228 228 0 0 0 0 14v1c2 48 19 94 48 131v1l9 10 1 1a235 235 0 0 0 133 74h1a233 233 0 0 0 151-26 18 18 0 0 0-18-32zM403 148a18 18 0 1 0 31-20l-9-12a18 18 0 1 0-29 23l7 9zM426 197l4 11a18 18 0 0 0 36-9l-4-14a18 18 0 1 0-36 12zM415 380c-8-7-20-6-26 2l-8 9a18 18 0 1 0 26 26l10-11c6-8 5-19-2-26zM455 244c-11-1-19 7-19 18l-1 11a18 18 0 0 0 37 4l1-14c0-10-8-19-18-19zM446 315c-9-3-20 1-23 11l-5 11a18 18 0 1 0 33 15l6-13c4-9-1-20-11-24zM384 97c6-8 4-20-4-26l-12-8a18 18 0 0 0-20 31l10 7a18 18 0 0 0 26-4z"/>
  </g>
</svg>
