<?xml version="1.0" encoding="UTF-8" standalone="no"?>
<svg
   xmlns:dc="http://purl.org/dc/elements/1.1/"
   xmlns:cc="http://creativecommons.org/ns#"
   xmlns:rdf="http://www.w3.org/1999/02/22-rdf-syntax-ns#"
   xmlns:svg="http://www.w3.org/2000/svg"
   xmlns="http://www.w3.org/2000/svg"
   xmlns:sodipodi="http://sodipodi.sourceforge.net/DTD/sodipodi-0.dtd"
   xmlns:inkscape="http://www.inkscape.org/namespaces/inkscape"
   viewBox="0 0 426.667 426.667"
   width="512"
   height="512"
   id="svg2"
   version="1.1"
   inkscape:version="0.91 r13725"
   sodipodi:docname="home-yellow.svg">
  <metadata
     id="metadata14">
    <rdf:RDF>
      <cc:Work
         rdf:about="">
        <dc:format>image/svg+xml</dc:format>
        <dc:type
           rdf:resource="http://purl.org/dc/dcmitype/StillImage" />
        <dc:title></dc:title>
      </cc:Work>
    </rdf:RDF>
  </metadata>
  <defs
     id="defs12" />
  <sodipodi:namedview
     pagecolor="#ffffff"
     bordercolor="#666666"
     borderopacity="1"
     objecttolerance="10"
     gridtolerance="10"
     guidetolerance="10"
     inkscape:pageopacity="0"
     inkscape:pageshadow="2"
     inkscape:window-width="1920"
     inkscape:window-height="1021"
     id="namedview10"
     showgrid="false"
     inkscape:zoom="0.4609375"
     inkscape:cx="256"
     inkscape:cy="256"
     inkscape:window-x="1080"
     inkscape:window-y="323"
     inkscape:window-maximized="1"
     inkscape:current-layer="svg2" />
  <path
     d="M213.333 0C95.573 0 0 95.573 0 213.333s95.573 213.333 213.333 213.333 213.333-95.573 213.333-213.333S331.093 0 213.333 0zm0 384c-94.08 0-170.667-76.587-170.667-170.667S119.253 42.667 213.333 42.667 384 119.253 384 213.333 307.413 384 213.333 384z"
     fill="#fff"
     id="path4"
     style="fill:#e0ab10;fill-opacity:1" />
  <path
     d="M210.06 99.673l62.023 55.776 62.022 55.777c2.508 2.34 2.688 6.15.356 8.66-1.253 1.298-2.959 1.904-4.658 1.904v.087h-31.367v109.474c0 3.378-2.869 6.15-6.364 6.15h-49.385c-3.496 0-6.274-2.772-6.274-6.15v-84.183h-61.305v84.183c0 3.378-2.869 6.15-6.364 6.15h-49.385c-3.496 0-6.274-2.772-6.274-6.15V221.877H81.628c-3.495 0-6.273-2.766-6.273-6.144 0-1.904.897-3.64 2.332-4.763l61.751-55.515 62.017-55.87c2.422-2.16 6.183-2.16 8.605.088zm52.198 70.619l-55.28-48.41-51.621 44.863-49.058 44.028-.358-2.368c-.508-3.357 24.811 3.959 24.66 7.333l2.44 109.475h29.43v-84.107c0-3.378 2.778-6.15 6.273-6.15h73.943c3.495 0 6.363 2.772 6.363 6.15v84.096l30.65-1.185-1.22-109.468c-.038-3.378 1.576-4.123 5.053-3.781l20.47-1.184z"
     fill="#fff"
     id="path6"
     style="fill:#e0ab10;fill-opacity:1" />
  <path
     d="M358.443 216.594l-40.84-36.628v-82.11c0-1.878-.558-3.421-1.68-4.63-1.113-1.206-2.544-1.81-4.287-1.81H275.83c-1.741 0-3.17.604-4.291 1.81-1.118 1.209-1.676 2.753-1.676 4.63v39.243L224.36 96.043c-3.974-3.489-8.699-5.233-14.17-5.233-5.47 0-10.195 1.744-14.173 5.233L61.927 216.594c-1.244 1.071-1.925 2.514-2.052 4.325-.126 1.81.309 3.391 1.305 4.732l11.562 14.893c.996 1.207 2.3 1.945 3.917 2.215 1.492.135 2.985-.336 4.477-1.408l129.05-116.126L339.237 241.35c.997.936 2.3 1.403 3.917 1.403h.56c1.614-.265 2.915-1.008 3.916-2.212l11.564-14.89c.994-1.344 1.43-2.922 1.3-4.735-.127-1.806-.81-3.248-2.051-4.322z"
     fill="#fff"
     id="path8"
     style="fill:#e0ab10;fill-opacity:1" />
</svg>
