<?xml version="1.0" encoding="UTF-8" standalone="no"?>
<!-- Generator: Adobe Illustrator 19.0.0, SVG Export Plug-In . SVG Version: 6.00 Build 0)  -->

<svg
   xmlns:dc="http://purl.org/dc/elements/1.1/"
   xmlns:cc="http://creativecommons.org/ns#"
   xmlns:rdf="http://www.w3.org/1999/02/22-rdf-syntax-ns#"
   xmlns:svg="http://www.w3.org/2000/svg"
   xmlns="http://www.w3.org/2000/svg"
   xmlns:sodipodi="http://sodipodi.sourceforge.net/DTD/sodipodi-0.dtd"
   xmlns:inkscape="http://www.inkscape.org/namespaces/inkscape"
   version="1.1"
   id="Layer_1"
   x="0px"
   y="0px"
   viewBox="0 0 512 512"
   style="enable-background:new 0 0 512 512;"
   xml:space="preserve"
   width="512px"
   height="512px"
   sodipodi:docname="logout-white.svg"
   inkscape:version="0.92.2 (unknown)"><metadata
     id="metadata55"><rdf:RDF><cc:Work
         rdf:about=""><dc:format>image/svg+xml</dc:format><dc:type
           rdf:resource="http://purl.org/dc/dcmitype/StillImage" /></cc:Work></rdf:RDF></metadata><defs
     id="defs53" /><sodipodi:namedview
     pagecolor="#ffffff"
     bordercolor="#666666"
     borderopacity="1"
     objecttolerance="10"
     gridtolerance="10"
     guidetolerance="10"
     inkscape:pageopacity="0"
     inkscape:pageshadow="2"
     inkscape:window-width="1920"
     inkscape:window-height="1021"
     id="namedview51"
     showgrid="false"
     inkscape:zoom="0.921875"
     inkscape:cx="638.41353"
     inkscape:cy="288.01409"
     inkscape:window-x="1080"
     inkscape:window-y="420"
     inkscape:window-maximized="1"
     inkscape:current-layer="Layer_1" /><g
     id="g6"><g
       id="g4"><path
         d="M366.473,172.549c-8.552-9.598-23.262-10.44-32.858-1.888c-9.595,8.552-10.44,23.263-1.887,32.858    c16.556,18.576,25.676,42.527,25.676,67.443c-0.002,55.913-45.49,101.402-101.404,101.402s-101.402-45.489-101.402-101.402    c0-24.913,9.118-48.863,25.678-67.443c8.552-9.595,7.705-24.308-1.89-32.86c-9.596-8.552-24.306-7.705-32.858,1.89    c-24.166,27.116-37.474,62.065-37.474,98.413C108.052,352.54,174.421,418.909,256,418.909s147.948-66.369,147.948-147.948    C403.948,234.611,390.639,199.661,366.473,172.549z"
         fill="#FFFFFF"
         id="path2" /></g></g><g
     id="g12"><g
       id="g10"><path
         d="M256,93.091c-12.853,0-23.273,10.42-23.273,23.273v99.739c0,12.853,10.42,23.273,23.273,23.273    c12.853,0,23.273-10.42,23.273-23.273v-99.739C279.273,103.511,268.853,93.091,256,93.091z"
         fill="#FFFFFF"
         id="path8" /></g></g><g
     id="g18"><g
       id="g16"><path
         d="M 256,0 C 114.842,0 0,114.842 0,256 0,397.158 114.842,512 256,512 397.16,512 512,397.158 512,256 512,114.842 397.16,0 256,0 Z m 0,473.455 C 140.507,473.455 38.545,371.494 38.545,256 38.545,140.506 140.507,38.545 256,38.545 371.493,38.545 473.455,140.507 473.455,256 473.455,371.493 371.493,473.455 256,473.455 Z"
         id="path14"
         inkscape:connector-curvature="0"
         style="fill:#ffffff"
         sodipodi:nodetypes="ssssssssss" /></g></g><g
     id="g20" /><g
     id="g22" /><g
     id="g24" /><g
     id="g26" /><g
     id="g28" /><g
     id="g30" /><g
     id="g32" /><g
     id="g34" /><g
     id="g36" /><g
     id="g38" /><g
     id="g40" /><g
     id="g42" /><g
     id="g44" /><g
     id="g46" /><g
     id="g48" /></svg>