<?xml version="1.0" encoding="UTF-8" standalone="no"?>
<!-- Created with Inkscape (http://www.inkscape.org/) -->

<svg
   xmlns:dc="http://purl.org/dc/elements/1.1/"
   xmlns:cc="http://creativecommons.org/ns#"
   xmlns:rdf="http://www.w3.org/1999/02/22-rdf-syntax-ns#"
   xmlns:svg="http://www.w3.org/2000/svg"
   xmlns="http://www.w3.org/2000/svg"
   xmlns:sodipodi="http://sodipodi.sourceforge.net/DTD/sodipodi-0.dtd"
   xmlns:inkscape="http://www.inkscape.org/namespaces/inkscape"
   version="1.1"
   id="svg10"
   width="719.48389"
   height="625.34576"
   viewBox="0 0 719.48389 625.34576"
   sodipodi:docname="noun_75083_cc.svg"
   inkscape:version="0.92.1 r15371">
  <metadata
     id="metadata16">
    <rdf:RDF>
      <cc:Work
         rdf:about="">
        <dc:format>image/svg+xml</dc:format>
        <dc:type
           rdf:resource="http://purl.org/dc/dcmitype/StillImage" />
        <dc:title></dc:title>
      </cc:Work>
    </rdf:RDF>
  </metadata>
  <defs
     id="defs14" />
  <sodipodi:namedview
     pagecolor="#ffffff"
     bordercolor="#666666"
     borderopacity="1"
     objecttolerance="10"
     gridtolerance="10"
     guidetolerance="10"
     inkscape:pageopacity="0"
     inkscape:pageshadow="2"
     inkscape:window-width="1366"
     inkscape:window-height="706"
     id="namedview12"
     showgrid="false"
     inkscape:zoom="0.85872493"
     inkscape:cx="359.74194"
     inkscape:cy="312.67288"
     inkscape:window-x="-8"
     inkscape:window-y="219"
     inkscape:window-maximized="1"
     inkscape:current-layer="svg10" />
  <path
     style="fill:rgb(249, 235, 210);stroke-width:0.96236068"
     d="m 193.03924,589.0281 c -31.06531,-3.20437 -56.02388,-22.17381 -67.51479,-51.31372 -2.97906,-7.5546 -5.56474,-21.09352 -5.57351,-29.18347 l -0.006,-5.60748 H 102.86542 85.785999 l 0.305229,-6.05607 0.305228,-6.05608 16.790744,-0.24659 16.79073,-0.2466 -0.2746,-24.4263 -0.27461,-24.4263 -16.7742,-0.24652 -16.774193,-0.24653 v -5.80955 -5.80955 h 17.032263 17.03226 V 404.70267 380.052 l -16.7742,-0.24653 -16.774194,-0.24652 -0.305228,-6.05607 -0.305229,-6.05608 h 17.079421 17.07943 v -24.67289 -24.6729 H 102.91259 85.880327 v -6.28037 -6.28038 h 17.032263 17.03226 v -24.67289 -24.6729 H 102.91259 85.880327 v -6.28037 -6.28038 h 17.032263 17.03226 v -24.67289 -24.6729 H 102.86542 85.785999 l 0.305229,-6.05607 0.305228,-6.05608 16.790744,-0.24659 16.79073,-0.24659 -0.2746,-24.42631 -0.27461,-24.4263 -16.7742,-0.24652 -16.774193,-0.24652 v -5.80955 -5.80956 h 17.032263 17.03226 l 0.006,-5.60747 c 0.0127,-11.7275 3.62449,-26.430482 9.33893,-38.017451 3.59892,-7.297413 12.88201,-18.56611 20.29725,-24.638742 11.86396,-9.715862 25.69083,-15.668461 41.26514,-17.765033 10.12026,-1.362362 348.85373,-1.401007 358.51196,-0.0409 35.20636,4.957884 61.37273,28.964355 69.36544,63.639692 1.98017,8.590674 1.98017,418.474724 0,427.065394 -7.21391,31.29661 -29.95884,54.54648 -60.79721,62.14692 l -8.05221,1.98453 -174.96774,0.12782 c -96.23226,0.0703 -178.07528,-0.19273 -181.87336,-0.5845 z m 358.81523,-12.98239 c 25.24733,-4.6488 45.29757,-22.47394 53.48813,-47.55219 l 2.3442,-7.17757 0.29788,-204.56073 c 0.2117,-145.37783 -0.0317,-206.76712 -0.8414,-212.18691 -4.04071,-27.047926 -22.89198,-48.000615 -50.55326,-56.188592 -5.4641,-1.617423 -12.46468,-1.680566 -186.32259,-1.680566 -173.8579,0 -180.85848,0.06314 -186.32258,1.680566 -30.61774,9.063118 -50.26272,33.345053 -50.90264,62.917562 l -0.19414,8.97197 13.67742,0.25034 13.67742,0.25034 v 5.77969 5.77969 l -13.67742,0.25034 -13.67742,0.25034 -0.2746,24.42246 -0.2746,24.42246 13.69396,0.25043 13.69395,0.25044 0.30523,6.05608 0.30523,6.05607 h -13.98265 -13.98265 v 24.6729 24.67289 h 13.93549 13.93548 v 6.28038 6.28037 h -13.93548 -13.93549 v 24.6729 24.67289 h 13.93549 13.93548 v 6.28038 6.28037 h -13.93548 -13.93549 v 24.6729 24.67289 h 13.98265 13.98265 l -0.30523,6.05608 -0.30523,6.05607 -13.69395,0.25044 -13.69396,0.25044 0.2746,24.42246 0.2746,24.42245 13.67742,0.25035 13.67742,0.25033 v 5.7797 5.77969 l -13.67742,0.25034 -13.67742,0.25034 -0.2746,24.42245 -0.2746,24.42246 13.69396,0.25044 13.69395,0.25044 0.30523,6.05608 0.30523,6.05607 h -14.13818 -14.13818 l 0.62281,9.19626 c 2.19753,32.44877 24.43529,58.01755 55.56527,63.88845 10.12386,1.90928 353.2878,1.94474 363.64551,0.0376 z M 359.56784,471.48199 c -30.26645,-3.30306 -60.43239,-15.91742 -84.48909,-35.33043 -59.54518,-48.0511 -76.56887,-133.04402 -40.08793,-200.144 24.23293,-44.57202 65.82319,-74.23694 115.8098,-82.60317 50.30663,-8.4198 104.69458,9.56712 140.24078,46.37975 70.84665,73.37075 57.59087,190.71278 -27.87074,246.7158 -17.4825,11.45629 -37.87805,19.41629 -59.67648,23.29064 -12.05727,2.14298 -32.55585,2.9323 -43.92634,1.69141 z m 42.69078,-13.84213 c 18.89476,-3.58042 39.06375,-11.57372 54.3291,-21.53152 4.78389,-3.12061 13.37558,-9.89484 19.09262,-15.05385 38.75382,-34.97111 56.02795,-86.93794 45.86855,-137.9892 -12.00199,-60.31033 -59.2579,-106.11677 -121.34597,-117.62397 -9.78421,-1.81337 -39.4011,-1.54133 -50.06452,0.45985 -43.66831,8.19517 -81.74723,35.40293 -103.14088,73.69517 -13.7902,24.68293 -19.4542,48.65642 -18.37552,77.77644 0.97691,26.37277 6.49926,45.78641 19.38127,68.13416 22.75281,39.47168 62.92245,66.56013 108.32868,73.05157 10.80716,1.54503 35.53545,1.0504 45.92667,-0.91865 z m -37.48713,-44.97409 c -12.08087,-5.23247 -17.72986,-19.23991 -17.72986,-43.96361 0,-18.03553 4.81525,-49.68841 11.87855,-78.08314 1.43267,-5.75942 2.46999,-10.58891 2.30513,-10.73219 -0.16485,-0.14329 -7.92252,10.21311 -17.23926,23.01421 -9.31674,12.80111 -17.25831,23.27474 -17.64793,23.27474 -0.38961,0 -2.71022,-1.54403 -5.1569,-3.43118 l -4.4485,-3.43118 24.18671,-33.28634 c 13.3027,-18.30749 25.20633,-33.77681 26.45252,-34.37626 1.96411,-0.94479 2.96058,-0.70242 7.48387,1.82039 2.86994,1.60068 5.21807,3.43041 5.21807,4.06606 0,0.63566 -1.3672,6.14498 -3.03822,12.24292 -19.14442,69.86251 -22.73754,120.48482 -9.25193,130.3475 8.38043,6.12902 24.90312,-0.71421 48.97021,-20.28209 3.63046,-2.95177 6.9758,-5.16542 7.43409,-4.91925 0.4583,0.24618 2.32387,2.25166 4.14571,4.45661 l 3.31245,4.00899 -8.2073,6.81526 c -18.78276,15.597 -36.9554,24.79099 -49.00136,24.79099 -2.54089,0 -6.46971,-0.94803 -9.66605,-2.33243 z m 20.4988,-181.34786 c -13.01872,-5.78828 -7.64582,-25.51764 6.32869,-23.23903 5.63151,0.91825 9.37195,4.95807 9.92127,10.71534 0.93917,9.84348 -7.55476,16.38968 -16.24996,12.52369 z"
     id="path20"
     inkscape:connector-curvature="0" />
</svg>
