<?xml version="1.0" encoding="UTF-8" standalone="no"?>
<!-- Created with Inkscape (http://www.inkscape.org/) -->

<svg
   xmlns:dc="http://purl.org/dc/elements/1.1/"
   xmlns:cc="http://creativecommons.org/ns#"
   xmlns:rdf="http://www.w3.org/1999/02/22-rdf-syntax-ns#"
   xmlns:svg="http://www.w3.org/2000/svg"
   xmlns="http://www.w3.org/2000/svg"
   xmlns:sodipodi="http://sodipodi.sourceforge.net/DTD/sodipodi-0.dtd"
   xmlns:inkscape="http://www.inkscape.org/namespaces/inkscape"
   version="1.1"
   id="svg10"
   width="720.51611"
   height="610.03638"
   viewBox="0 0 720.51611 610.03638"
   sodipodi:docname="noun_1016629_cc.svg"
   inkscape:version="0.92.1 r15371">
  <metadata
     id="metadata16">
    <rdf:RDF>
      <cc:Work
         rdf:about="">
        <dc:format>image/svg+xml</dc:format>
        <dc:type
           rdf:resource="http://purl.org/dc/dcmitype/StillImage" />
        <dc:title></dc:title>
      </cc:Work>
    </rdf:RDF>
  </metadata>
  <defs
     id="defs14" />
  <sodipodi:namedview
     pagecolor="#ffffff"
     bordercolor="#666666"
     borderopacity="1"
     objecttolerance="10"
     gridtolerance="10"
     guidetolerance="10"
     inkscape:pageopacity="0"
     inkscape:pageshadow="2"
     inkscape:window-width="1366"
     inkscape:window-height="706"
     id="namedview12"
     showgrid="false"
     inkscape:zoom="0.88027537"
     inkscape:cx="360.25806"
     inkscape:cy="305.01819"
     inkscape:window-x="-8"
     inkscape:window-y="219"
     inkscape:window-maximized="1"
     inkscape:current-layer="svg10" />
  <path
     style="fill:rgb(249, 235, 210);stroke-width:0.94914687"
     d="m 200.67136,492.69073 c -10.23654,-4.05279 -19.31435,-14.23764 -25.38592,-28.48174 l -2.418,-5.67273 -0.27565,-147.4596 c -0.27151,-145.24885 -0.2445,-147.56474 1.80127,-154.47273 4.24214,-14.32446 13.64704,-26.18723 24.96278,-31.48653 l 5.5116,-2.58114 74.75101,-0.24048 c 87.566,-0.2817 80.98311,-0.9134 92.57808,8.88397 11.74984,9.92825 18.12411,23.23756 18.35799,38.33102 0.11848,7.64527 0.0947,7.72051 -3.25177,10.25454 -4.34,3.28644 -6.88606,3.22091 -11.0191,-0.2836 -3.1398,-2.66231 -3.38356,-3.31836 -3.97218,-10.69091 -1.04035,-13.03047 -5.77337,-22.34101 -13.30955,-26.18182 -3.32444,-1.69429 -5.52137,-1.75252 -74.95517,-1.98669 -50.4824,-0.17025 -72.79656,0.047 -75.83354,0.73841 -9.48261,2.15879 -15.68517,11.34238 -17.34731,25.68465 -1.30129,11.22855 -1.23014,274.39884 0.0768,284.15306 1.49918,11.18889 5.24835,18.36901 11.90262,22.79502 l 3.00295,1.99738 74.34385,0.23523 c 54.52006,0.17252 75.11304,-0.0341 77.22845,-0.77494 8.0093,-2.80484 13.46364,-12.85111 15.08244,-27.78014 0.80074,-7.38456 1.18298,-8.45709 3.65463,-10.25455 4.76303,-3.46381 10.59356,-2.36937 13.60475,2.55372 1.33755,2.18679 1.55346,4.15374 1.03402,9.41973 -1.43067,14.50371 -8.29886,28.41354 -18.13811,36.73432 -10.58022,8.94736 -2.20476,8.16297 -89.85541,8.41521 l -76.90322,0.22131 -5.22833,-2.06997 z m 243.31009,-82.19545 c -2.94588,-3.16629 -3.60716,-6.70377 -1.8924,-10.12316 0.80724,-1.60972 19.16945,-20.59949 40.80492,-42.19949 21.63546,-21.60001 39.34971,-39.56728 39.36499,-39.92728 0.0153,-0.36 -53.93759,-0.65454 -119.89531,-0.65454 -131.29145,0 -123.02275,0.33901 -125.71404,-5.15422 -1.87631,-3.82973 -0.59147,-8.26212 3.17083,-10.93863 l 3.14087,-2.23443 h 119.66274 c 65.8145,0 119.66272,-0.17494 119.66272,-0.38877 0,-0.21382 -18.07204,-18.44798 -40.16008,-40.52036 -25.59491,-25.57675 -40.40199,-41.06282 -40.8271,-42.69922 -0.97312,-3.74584 0.28306,-6.86639 3.7597,-9.33968 3.97056,-2.82467 7.31105,-2.75782 11.03095,0.22076 2.65305,2.12432 90.00725,89.29718 95.88036,95.68133 1.65051,1.79412 2.31617,3.69873 2.31617,6.62714 v 4.10945 l -46.56133,46.60922 c -25.60874,25.63508 -48.23204,48.08195 -50.27401,49.88195 -4.71176,4.15343 -10.18556,4.58009 -13.46998,1.04993 z"
     id="path29"
     inkscape:connector-curvature="0" />
</svg>
