<?xml version="1.0" encoding="UTF-8" standalone="no"?>
<!-- Generator: Adobe Illustrator 18.1.1, SVG Export Plug-In . SVG Version: 6.00 Build 0)  -->

<svg
   xmlns:dc="http://purl.org/dc/elements/1.1/"
   xmlns:cc="http://creativecommons.org/ns#"
   xmlns:rdf="http://www.w3.org/1999/02/22-rdf-syntax-ns#"
   xmlns:svg="http://www.w3.org/2000/svg"
   xmlns="http://www.w3.org/2000/svg"
   xmlns:sodipodi="http://sodipodi.sourceforge.net/DTD/sodipodi-0.dtd"
   xmlns:inkscape="http://www.inkscape.org/namespaces/inkscape"
   version="1.1"
   id="Capa_1"
   x="0px"
   y="0px"
   viewBox="0 0 612 612"
   style="enable-background:new 0 0 612 612;"
   xml:space="preserve"
   width="512px"
   height="512px"
   sodipodi:docname="notifications.svg"
   inkscape:version="0.91 r13725"><metadata
     id="metadata109"><rdf:RDF><cc:Work
         rdf:about=""><dc:format>image/svg+xml</dc:format><dc:type
           rdf:resource="http://purl.org/dc/dcmitype/StillImage" /><dc:title></dc:title></cc:Work></rdf:RDF></metadata><defs
     id="defs107" /><sodipodi:namedview
     pagecolor="#ffffff"
     bordercolor="#666666"
     borderopacity="1"
     objecttolerance="10"
     gridtolerance="10"
     guidetolerance="10"
     inkscape:pageopacity="0"
     inkscape:pageshadow="2"
     inkscape:window-width="1920"
     inkscape:window-height="1021"
     id="namedview105"
     showgrid="false"
     inkscape:zoom="1.5957031"
     inkscape:cx="63.294983"
     inkscape:cy="256"
     inkscape:window-x="1080"
     inkscape:window-y="420"
     inkscape:window-maximized="1"
     inkscape:current-layer="g72" /><g
     id="g72"><path
       inkscape:connector-curvature="0"
       d="M 306.66129,613.12361 C 137.93337,613.12361 0.66130107,475.85154 0.66130107,307.12362 0.66130107,138.3957 137.93337,1.1236196 306.66129,1.1236196 c 168.72792,0 305.99999,137.2720804 305.99999,306.0000004 0,168.72792 -137.27207,305.99999 -305.99999,305.99999 z M 309.801,59.264875 c -157.47764,0 -251.604144,95.624675 -251.604144,253.102315 0,157.47764 93.377414,242.10602 250.855054,242.10602 157.47764,0 241.32475,-89.12287 241.32475,-246.60051 0,-157.47764 -83.09802,-248.607825 -240.57566,-248.607825 z m 129.45989,390.659135 -265.1992,0 c -16.87064,0 -30.6,-13.72936 -30.6,-30.6 l 0,-15.3 c 0,-26.28492 15.87136,-44.86007 38.85124,-45.85936 4.0796,-1.58139 7.98708,-3.60028 11.63876,-6.00764 6.41524,-3.48792 10.13864,-9.08796 10.76139,-15.43268 l -0.0514,-90.80071 c -0.0311,-47.92964 32.59975,-88.8416 79.33528,-99.5014 14.841,-3.30504 30.48764,-3.3146 45.288,-0.0108 46.77735,10.66936 79.39624,51.58132 79.37592,99.51096 l 0,91.8 c 0,9.95576 15.71836,17.86992 22.14436,20.38008 11.10803,0.19364 21.74632,5.31436 28.80464,13.9744 7.09896,9.47524 10.6586,20.79843 10.24143,32.21128 l 0.01,15.03464 c 0,16.87183 -13.72936,30.60119 -30.6,30.60119 z M 306.67204,164.33398 c -6.12,0 -12.24,0.6634 -18.19624,1.989 -37.332,8.5166 -63.43404,41.24904 -63.41372,79.60064 l 0,91.8 c -1.33636,14.12739 -9.04732,25.704 -20.67532,31.93636 -4.66171,3.12096 -10.53668,6.05903 -16.677,8.27275 -1.11164,0.38728 -2.27468,0.59168 -3.44728,0.59168 -15.0454,0 -20.4004,13.16876 -20.4004,25.4996 l 0,15.3 c 0,5.62993 4.57925,10.19961 10.19961,10.19961 l 265.20039,0 c 5.62992,0 10.1996,-4.56968 10.1996,-10.19961 l 0,-15.4016 c 0.24504,-7.1396 -1.85632,-13.85128 -5.9156,-19.28876 -3.22376,-3.93735 -8.53692,-6.31364 -14.06524,-6.13075 -1.23476,0.092 -2.45876,-0.12193 -3.64092,-0.51996 -3.84532,-1.26464 -37.57704,-13.27993 -37.57704,-40.25932 l 0,-91.8 c 0.0203,-38.3516 -26.08172,-71.0936 -63.47468,-79.6114 -5.91799,-1.31484 -12.00691,-1.97824 -18.11616,-1.97824 z"
       id="path17"
       sodipodi:nodetypes="sssssssssscssscccccccsccccccscccccssssssccccsccs"
       style="fill:#ffffff;fill-opacity:1" /><path
       inkscape:connector-curvature="0"
       d="m 439.26089,449.92401 -265.1992,0 c -16.90172,0 -30.6,-13.69828 -30.6,-30.6 l 0,-15.3 c 0,-26.316 15.912,-44.88039 38.862,-45.9 4.03896,-1.61128 7.89504,-3.6206 11.52639,-6.01839 4.99761,-3.2644 10.81161,-8.4664 10.81161,-14.382 l 0,-91.8 c -0.0406,-47.64396 32.895,-88.97428 79.3556,-99.5516 14.88164,-3.29428 30.30475,-3.29428 45.18639,0 46.50125,10.53668 79.48828,51.87775 79.4584,99.5516 l 0,91.8 c 0,10.1996 15.912,17.95239 22.338,20.40039 11.20008,0.26536 21.70568,5.49725 28.6624,14.2804 6.86468,9.04732 10.46496,20.16492 10.1996,31.518 l 0,15.4016 c -10e-4,16.90053 -13.69947,30.6 -30.60119,30.6 z M 306.66129,164.32322 c -6.14032,0.0311 -12.26032,0.7136 -18.2584,2.0404 -36.95428,8.71024 -63.12804,41.59568 -63.342,79.56 l 0,91.8 c -0.65264,13.23928 -8.20104,25.16371 -19.89,31.41639 -5.53908,3.66125 -11.49532,6.63997 -17.748,8.874 -1.0196,0.33708 -2.0906,0.5104 -3.1616,0.5104 -14.994,0 -20.4004,13.158 -20.4004,25.4996 l 0,15.3 c 0,5.62993 4.56968,10.19961 10.1996,10.19961 l 265.2004,0 c 5.62992,0 10.1996,-4.56968 10.1996,-10.19961 l 0,-15.3 c 0.26536,-6.72124 -1.75472,-13.33132 -5.7124,-18.7676 -3.519,-4.4884 -8.99592,-6.99736 -14.688,-6.732 -1.11164,0.0108 -2.21372,-0.16376 -3.2644,-0.5104 -3.7736,-1.42839 -37.5364,-13.464 -37.5364,-40.29039 l 0,-91.8 c 0.0514,-38.10776 -26.28492,-71.18564 -63.4436,-79.6616 -5.9658,-1.29572 -12.05472,-1.9388 -18.1544,-1.9388 z"
       id="path19"
       style="fill:#ffffff;fill-opacity:1" /><path
       inkscape:connector-curvature="0"
       d="m 306.66129,500.92322 c -28.16276,0 -51.0004,-22.83764 -51.0004,-51.0004 l 0,-10.1996 c 0,-5.62993 4.56968,-10.1996 10.1996,-10.1996 l 81.6004,0 c 5.62992,0 10.1996,4.56967 10.1996,10.1996 l 0,10.1996 c 0.001,28.16276 -22.83645,51.0004 -50.9992,51.0004 z m -30.6,-50.99921 c 0,16.90172 13.69828,30.6 30.6,30.6 16.90171,0 30.6,-13.69828 30.6,-30.6 l -61.2,0 z"
       id="path21"
       style="fill:#ffffff;fill-opacity:1" /><path
       inkscape:connector-curvature="0"
       d="m 327.06168,166.46522 -2.142,0 c -11.99496,-2.64164 -24.41903,-2.64164 -36.41399,0 -5.508,1.18336 -10.93472,-2.31532 -12.11808,-7.82332 -0.16376,-0.77576 -0.24504,-1.57064 -0.22472,-2.37628 l 0,-22.5424 c 0,-16.90172 13.69828,-30.6 30.6,-30.6 16.90172,0 30.6,13.69828 30.6,30.6 l 0,22.644 c 0,5.62992 -4.56968,10.1996 -10.1996,10.1996 l 0,0 -0.10161,-0.1016 z m -20.40039,-22.5412 c 3.366,0 6.8336,0 10.1996,0 l 0,-10.1996 c 0,-5.62993 -4.56968,-10.19961 -10.1996,-10.19961 -5.62993,0 -10.19961,4.56968 -10.19961,10.19961 l 0,10.1996 c 3.366,0 6.83361,0 10.19961,0 z"
       id="path23"
       style="fill:#ffffff;fill-opacity:1" /><g
       id="g25"
       transform="matrix(1.1953125,0,0,1.1953125,0.66130107,1.1236196)" /><g
       id="g27"
       transform="matrix(1.1953125,0,0,1.1953125,0.66130107,1.1236196)" /><g
       id="g29"
       transform="matrix(1.1953125,0,0,1.1953125,0.66130107,1.1236196)" /><g
       id="g31"
       transform="matrix(1.1953125,0,0,1.1953125,0.66130107,1.1236196)" /><g
       id="g33"
       transform="matrix(1.1953125,0,0,1.1953125,0.66130107,1.1236196)" /><g
       id="g35"
       transform="matrix(1.1953125,0,0,1.1953125,0.66130107,1.1236196)" /><g
       id="g37"
       transform="matrix(1.1953125,0,0,1.1953125,0.66130107,1.1236196)" /><g
       id="g39"
       transform="matrix(1.1953125,0,0,1.1953125,0.66130107,1.1236196)" /><g
       id="g41"
       transform="matrix(1.1953125,0,0,1.1953125,0.66130107,1.1236196)" /><g
       id="g43"
       transform="matrix(1.1953125,0,0,1.1953125,0.66130107,1.1236196)" /><g
       id="g45"
       transform="matrix(1.1953125,0,0,1.1953125,0.66130107,1.1236196)" /><g
       id="g47"
       transform="matrix(1.1953125,0,0,1.1953125,0.66130107,1.1236196)" /><g
       id="g49"
       transform="matrix(1.1953125,0,0,1.1953125,0.66130107,1.1236196)" /><g
       id="g51"
       transform="matrix(1.1953125,0,0,1.1953125,0.66130107,1.1236196)" /><g
       id="g53"
       transform="matrix(1.1953125,0,0,1.1953125,0.66130107,1.1236196)" /></g><g
     id="g74" /><g
     id="g76" /><g
     id="g78" /><g
     id="g80" /><g
     id="g82" /><g
     id="g84" /><g
     id="g86" /><g
     id="g88" /><g
     id="g90" /><g
     id="g92" /><g
     id="g94" /><g
     id="g96" /><g
     id="g98" /><g
     id="g100" /><g
     id="g102" /></svg>