<?xml version="1.0" encoding="UTF-8" standalone="no"?>
<!-- Created with Inkscape (http://www.inkscape.org/) -->

<svg
   xmlns:dc="http://purl.org/dc/elements/1.1/"
   xmlns:cc="http://creativecommons.org/ns#"
   xmlns:rdf="http://www.w3.org/1999/02/22-rdf-syntax-ns#"
   xmlns:svg="http://www.w3.org/2000/svg"
   xmlns="http://www.w3.org/2000/svg"
   xmlns:sodipodi="http://sodipodi.sourceforge.net/DTD/sodipodi-0.dtd"
   xmlns:inkscape="http://www.inkscape.org/namespaces/inkscape"
   version="1.1"
   id="svg10"
   width="48.377953"
   height="48.377953"
   viewBox="0 0 48.377953 48.377953"
   sodipodi:docname="settings2.svg"
   inkscape:version="0.92.1 r15371">
  <metadata
     id="metadata16">
    <rdf:RDF>
      <cc:Work
         rdf:about="">
        <dc:format>image/svg+xml</dc:format>
        <dc:type
           rdf:resource="http://purl.org/dc/dcmitype/StillImage" />
        <dc:title></dc:title>
      </cc:Work>
    </rdf:RDF>
  </metadata>
  <defs
     id="defs14" />
  <sodipodi:namedview
     pagecolor="#ffffff"
     bordercolor="#666666"
     borderopacity="1"
     objecttolerance="10"
     gridtolerance="10"
     guidetolerance="10"
     inkscape:pageopacity="0"
     inkscape:pageshadow="2"
     inkscape:window-width="1366"
     inkscape:window-height="706"
     id="namedview12"
     showgrid="false"
     inkscape:zoom="11.100098"
     inkscape:cx="24.188976"
     inkscape:cy="24.188976"
     inkscape:window-x="-8"
     inkscape:window-y="219"
     inkscape:window-maximized="1"
     inkscape:current-layer="svg10" />
  <path
     style="fill:rgb(249, 235, 210);stroke-width:0.09448819"
     d="M 14.711124,47.899726 C 13.925874,47.53731 13.718998,47.112082 13.718998,45.86044 v -0.882735 l -0.92126,-0.301603 c -0.506693,-0.165881 -1.343754,-0.509977 -1.860136,-0.764657 -0.516383,-0.254679 -0.9854296,-0.463054 -1.0423276,-0.463054 -0.0569,0 -0.357239,0.259793 -0.667423,0.577319 -0.6235982,0.638358 -0.9935472,0.84104 -1.5294402,0.837929 -0.6383212,-0.0037 -1.0606117,-0.302862 -2.5506275,-1.806892 -1.4751709,-1.489046 -1.727998,-1.854322 -1.727998,-2.496553 0,-0.503186 0.214174,-0.875359 0.8881409,-1.543335 L 4.9093859,38.420745 4.4095835,37.414884 C 4.1346922,36.861659 3.7743341,35.994454 3.6087876,35.487761 l -0.3009934,-0.92126 h -0.882735 c -1.2516413,0 -1.67686892,-0.206876 -2.03928512,-0.992126 -0.1532228,-0.331989 -0.1744365,-0.6365 -0.1744365,-2.503937 0,-2.415017 0.059075,-2.679244 0.7101461,-3.176323 0.33459032,-0.255453 0.42131342,-0.274506 1.38660052,-0.304643 0.6744843,-0.02106 1.0408636,-0.06995 1.0620857,-0.141733 0.3090334,-1.045282 0.6296331,-1.887641 1.0054898,-2.641872 0.2537969,-0.509294 0.4614489,-0.978341 0.4614489,-1.042328 0,-0.06399 -0.2597938,-0.370126 -0.5773194,-0.68031 C 3.9422636,22.773044 3.6233659,22.382433 3.5511278,22.215205 3.3709593,21.798122 3.3898059,21.269313 3.6009068,20.81847 c 0.236204,-0.504457 2.9612784,-3.204084 3.4300174,-3.397987 0.7720402,-0.31937 1.4285969,-0.09477 2.2838423,0.781261 l 0.556398,0.569923 0.9248255,-0.464793 c 0.508654,-0.255637 1.363788,-0.6119 1.900295,-0.791698 l 0.975469,-0.326905 0.04724,-1.027141 c 0.04371,-0.950378 0.06761,-1.053824 0.31974,-1.384162 0.495703,-0.649463 0.763762,-0.709972 3.155736,-0.712329 1.68446,-0.0017 2.17494,0.02698 2.453235,0.143261 0.788443,0.329433 1.001388,0.73154 1.063415,2.008063 l 0.04724,0.972296 0.975469,0.326911 c 0.536508,0.179801 1.388307,0.534392 1.892886,0.787981 l 0.917419,0.46107 0.719768,-0.690087 c 0.622819,-0.597135 0.779573,-0.699056 1.163762,-0.756668 0.840436,-0.126031 1.07819,0.0173 2.72749,1.644227 1.558431,1.537294 1.849372,1.945252 1.8531,2.598402 0.003,0.523218 -0.20397,0.88789 -0.889446,1.567272 l -0.604839,0.599463 0.464721,0.924681 c 0.255596,0.508576 0.611831,1.363644 0.791631,1.900151 l 0.326911,0.975469 0.972296,0.04724 c 1.276523,0.06203 1.67863,0.274972 2.008063,1.063416 0.116279,0.278294 0.144921,0.768774 0.143261,2.453234 -0.0024,2.391974 -0.06287,2.660034 -0.712328,3.155737 -0.331086,0.252701 -0.432475,0.275927 -1.395725,0.319739 l -1.038704,0.04724 -0.161837,0.575129 c -0.187717,0.667092 -0.81578,2.165035 -1.163242,2.774353 l -0.239702,0.420347 0.696212,0.728716 c 0.602025,0.630133 0.705199,0.78865 0.762646,1.171734 0.125864,0.83932 -0.01788,1.077661 -1.644373,2.726515 -1.533801,1.554888 -1.945686,1.849346 -2.592096,1.8531 -0.535892,0.0031 -0.905842,-0.199571 -1.52944,-0.837929 -0.310184,-0.317526 -0.610525,-0.577319 -0.667422,-0.577319 -0.0569,0 -0.525946,0.208375 -1.042329,0.463054 -0.516382,0.25468 -1.349753,0.597558 -1.851936,0.761952 l -0.913061,0.298899 -0.03182,1.017403 c -0.02977,0.951917 -0.04936,1.040377 -0.304317,1.374317 -0.49708,0.651071 -0.761307,0.710146 -3.176324,0.710146 -1.867437,0 -2.171948,-0.02121 -2.503937,-0.174436 z m 4.393701,-2.818431 c 0.03621,-0.957386 0.08157,-1.283216 0.194258,-1.395607 0.08086,-0.08064 0.547426,-0.253781 1.036819,-0.384751 1.071231,-0.28668 2.420133,-0.851362 3.390198,-1.419216 0.392346,-0.22967 0.791451,-0.417582 0.886898,-0.417582 0.301103,0 0.564445,0.188393 1.366673,0.977712 l 0.780358,0.767799 1.297122,-1.297122 1.297122,-1.297122 -0.767799,-0.780358 c -0.788673,-0.801573 -0.978232,-1.066349 -0.977009,-1.364697 3.78e-4,-0.09436 0.181869,-0.490464 0.403295,-0.880228 0.641945,-1.12998 1.084289,-2.177793 1.382431,-3.274662 0.370779,-1.364108 0.358301,-1.355259 1.911075,-1.355259 h 1.219877 l -0.02562,-1.866142 -0.02562,-1.866142 -1.260634,-0.04724 c -1.487932,-0.05576 -1.501808,-0.06483 -1.766671,-1.154466 -0.28244,-1.161949 -0.625143,-1.977053 -1.561997,-3.715134 -0.413828,-0.767746 -0.362189,-0.923711 0.647439,-1.955468 l 0.816734,-0.834635 -1.292624,-1.292623 -1.292623,-1.292624 -0.834635,0.816735 c -1.073847,1.050815 -1.287798,1.106925 -2.147903,0.563298 -0.962905,-0.608602 -2.362937,-1.195949 -3.522699,-1.477857 -1.089637,-0.264863 -1.098704,-0.278738 -1.154466,-1.76667 L 19.057584,15.8106 h -1.84252 -1.84252 l -0.04724,1.260634 c -0.05576,1.487932 -0.06483,1.501807 -1.154466,1.76667 -1.161949,0.28244 -1.977053,0.625143 -3.715134,1.561997 -0.7677466,0.413828 -0.9237106,0.36219 -1.9554673,-0.647438 l -0.8346348,-0.816735 -1.2926238,1.292624 -1.2926236,1.292623 0.816734,0.834635 c 0.9852246,1.006818 1.0570339,1.200053 0.6915257,1.860858 C 5.7028918,25.817771 5.3447865,26.659987 4.9692054,28.025103 4.8457191,28.473936 4.6791,28.906924 4.5989407,28.987299 4.487628,29.09891 4.1581293,29.144595 3.2042112,29.180678 l -1.2489854,0.04724 -0.025619,1.866142 -0.02562,1.866142 H 3.123863 c 1.0248439,0 1.2509121,0.02644 1.4139972,0.165354 0.1221503,0.10405 0.3027669,0.54383 0.4871638,1.186187 0.3379267,1.177189 0.8464193,2.379729 1.4056021,3.324125 0.5755121,0.971974 0.5587704,1.034699 -0.5869703,2.19918 l -0.7677997,0.780358 1.2971221,1.297122 1.2971223,1.297122 0.780358,-0.767799 c 0.7986569,-0.785804 1.0658809,-0.977712 1.3614249,-0.977712 0.09256,0 0.5311836,0.208887 0.9747156,0.464193 1.020406,0.587367 2.209249,1.079015 3.331321,1.377675 1.199851,0.319361 1.207384,0.33094 1.207384,1.855636 v 1.219877 l 1.866142,-0.02562 1.866142,-0.02562 z m -4.062992,-5.362369 c -0.968367,-0.25365 -2.543055,-0.978229 -2.898585,-1.333758 -0.275827,-0.275828 -0.290309,-0.77406 -0.03204,-1.102392 0.338829,-0.430751 0.571763,-0.40943 1.730694,0.158417 1.292246,0.633166 2.068585,0.823653 3.373163,0.827656 1.201477,0.0037 2.019508,-0.174349 3.060701,-0.666126 1.541973,-0.728304 2.675952,-1.847655 3.410936,-3.366931 0.652279,-1.34832 0.826213,-2.475696 0.671511,-4.352486 l -0.07838,-0.950912 0.301638,-0.253813 c 0.655557,-0.551614 1.230071,-0.157415 1.42109,0.975075 0.166989,0.990023 0.07465,2.869968 -0.185606,3.778987 -0.721143,2.51875 -2.526722,4.643066 -4.864442,5.72316 -1.238696,0.572313 -1.92719,0.719987 -3.548469,0.761103 -1.327401,0.03366 -1.548636,0.01512 -2.362204,-0.19798 z M 9.9003314,36.142251 C 9.5340274,35.775946 8.8166024,34.198491 8.5605726,33.196422 8.3402263,32.334015 8.3229618,32.12783 8.362778,30.834218 8.395664,29.765777 8.45611,29.246492 8.6083382,28.724639 9.3477824,26.18976 11.049421,24.161776 13.377745,23.040543 c 1.158879,-0.558075 1.998312,-0.762041 3.395588,-0.825066 1.5536,-0.07008 2.445059,0.0721 2.823231,0.450274 0.332631,0.332631 0.336015,0.651257 0.01102,1.037492 l -0.253146,0.300847 -0.998822,-0.07293 c -1.362258,-0.09947 -2.072408,-0.06159 -2.92293,0.155925 -2.093219,0.535317 -3.83562,1.973109 -4.741389,3.912489 -0.497878,1.066029 -0.676735,1.880426 -0.67364,3.067335 0.0034,1.310266 0.193094,2.083664 0.829623,3.382717 0.554776,1.132208 0.573265,1.290338 0.198718,1.699554 -0.270287,0.295306 -0.84692,0.29182 -1.1456666,-0.0069 z m 5.9080206,0.07018 c -0.838274,-0.22544 -1.618392,-0.696784 -2.328447,-1.406839 -1.082304,-1.082305 -1.556183,-2.214408 -1.556183,-3.717746 0,-1.52035 0.475707,-2.668981 1.556183,-3.757526 1.049703,-1.057542 2.234739,-1.548979 3.735156,-1.548979 1.497554,0 2.681452,0.490314 3.740117,1.548979 1.054469,1.054469 1.54799,2.240905 1.5501,3.726478 0.0022,1.517021 -0.476015,2.669747 -1.555061,3.748794 -0.725556,0.725555 -1.494545,1.183736 -2.369003,1.411503 -0.692448,0.18036 -2.093636,0.178003 -2.772862,-0.0047 z m 2.706119,-1.760164 c 2.255991,-0.831723 3.046883,-3.72856 1.536035,-5.626106 -0.719609,-0.903791 -1.671455,-1.361195 -2.832608,-1.361195 -2.043457,0 -3.608307,1.56239 -3.608307,3.602634 0,2.572737 2.474867,4.280547 4.90488,3.384667 z m 3.916607,-8.366083 C 21.627664,25.295724 21.46703,25.06668 21.46703,24.71158 c 0,-0.338081 0.432401,-0.727758 0.80755,-0.727758 0.632614,0 2.027095,1.4063 2.027095,2.044276 0,0.443607 -0.348829,0.79037 -0.795082,0.79037 -0.286131,0 -0.43257,-0.09971 -1.075515,-0.732284 z m 19.345295,8.238115 c -0.188314,-0.200451 -0.233565,-0.361627 -0.262521,-0.935037 -0.03471,-0.687363 -0.03727,-0.693294 -0.32435,-0.750709 -0.15915,-0.03183 -0.516124,-0.172693 -0.793274,-0.313026 l -0.503913,-0.255154 -0.401619,0.39218 c -0.663585,0.64799 -1.198535,0.728379 -1.584216,0.238065 -0.344595,-0.43808 -0.231783,-0.828855 0.446035,-1.545039 l 0.321837,-0.340056 -0.195008,-0.330515 c -0.107255,-0.181781 -0.260077,-0.549622 -0.339605,-0.817423 l -0.144597,-0.486911 h -0.688531 c -0.614248,0 -0.712733,-0.02576 -0.912875,-0.238803 -0.146514,-0.155959 -0.224344,-0.351741 -0.224344,-0.564346 0,-0.212605 0.07783,-0.408388 0.224344,-0.564346 0.200142,-0.213041 0.298627,-0.238804 0.912875,-0.238804 h 0.688531 l 0.144597,-0.486911 c 0.07953,-0.2678 0.231366,-0.633972 0.337416,-0.813714 l 0.19282,-0.326805 -0.424396,-0.453713 c -0.677825,-0.72465 -0.69287,-1.310847 -0.04183,-1.629664 0.429159,-0.210161 0.673907,-0.129453 1.267946,0.418114 l 0.431318,0.397574 0.490667,-0.244132 c 0.269868,-0.134273 0.62433,-0.27187 0.787694,-0.30577 0.296422,-0.06151 0.297098,-0.06306 0.332243,-0.759022 0.04307,-0.852904 0.275465,-1.183694 0.828146,-1.178779 0.618217,0.0055 0.857545,0.35683 0.857545,1.258866 v 0.612878 l 0.307087,0.06385 c 0.168897,0.03512 0.527886,0.173706 0.797754,0.307979 l 0.490667,0.244132 0.431318,-0.397574 c 0.237225,-0.218667 0.528812,-0.434643 0.647973,-0.479947 0.532847,-0.202588 1.104729,0.212266 1.104729,0.80139 0,0.239546 -0.105341,0.425612 -0.461729,0.815557 l -0.46173,0.505206 0.214952,0.423669 c 0.118225,0.233018 0.268953,0.604377 0.334954,0.825243 l 0.120001,0.401575 h 0.675888 c 0.541406,0 0.715565,0.03697 0.875299,0.18578 0.387435,0.36095 0.390026,0.871376 0.0062,1.228928 -0.166844,0.15544 -0.333179,0.191591 -0.881536,0.191591 h -0.675888 l -0.120001,0.401575 c -0.066,0.220866 -0.216729,0.592226 -0.334954,0.825244 l -0.214952,0.423669 0.46173,0.505206 c 0.52202,0.571173 0.598565,0.951949 0.274247,1.364252 -0.383765,0.487878 -0.86431,0.418825 -1.562217,-0.224485 l -0.428315,-0.394806 -0.493671,0.248857 c -0.271518,0.136872 -0.631859,0.276153 -0.800756,0.309515 l -0.307087,0.06066 v 0.608574 c 0,0.897614 -0.240236,1.249073 -0.857545,1.254563 -0.242954,0.0022 -0.401775,-0.06503 -0.565395,-0.239195 z m 1.663962,-3.440403 c 1.399375,-0.600089 2.030651,-2.265715 1.379981,-3.64109 -0.567854,-1.200317 -1.740576,-1.78551 -3.041079,-1.517508 -0.954839,0.196769 -1.621055,0.783098 -1.988455,1.750017 -0.232484,0.611848 -0.230884,1.189806 0.005,1.819923 0.564776,1.508444 2.184803,2.214619 3.644515,1.588658 z m -1.660772,-1.942027 c -0.489396,-0.520939 -0.137766,-1.367496 0.56801,-1.367496 0.547244,0 0.940747,0.4829 0.811884,0.99633 -0.15241,0.60725 -0.955235,0.823194 -1.379894,0.371166 z m -8.170801,-8.662115 c -0.505492,-0.175826 -2.234018,-1.246414 -2.408869,-1.491967 -0.234076,-0.328731 -0.396287,-0.979403 -0.323209,-1.296488 0.03339,-0.14486 0.248245,-0.615708 0.477464,-1.04633 l 0.416763,-0.782946 -0.429738,-0.602224 c -0.236357,-0.331222 -0.577108,-0.921184 -0.757226,-1.311026 l -0.327488,-0.708806 -1.024465,-0.03201 c -0.959601,-0.02998 -1.047061,-0.04926 -1.381376,-0.304505 -0.583567,-0.445541 -0.710147,-0.851705 -0.710147,-2.278685 0,-1.4269825 0.12658,-1.8331458 0.710147,-2.2786865 0.334315,-0.2552431 0.421775,-0.2745223 1.381376,-0.3045046 l 1.024465,-0.032009 0.327488,-0.7088047 c 0.180118,-0.3898425 0.522435,-0.9819998 0.760705,-1.315905 L 31.77787,5.1777588 31.381851,4.4603483 c -0.21781,-0.3945758 -0.431369,-0.8722665 -0.474574,-1.0615348 -0.09686,-0.4243042 0.04254,-0.9976792 0.336345,-1.3834944 0.281744,-0.3699726 2.217819,-1.4691262 2.702189,-1.5340938 0.804451,-0.1078994 1.466698,0.3570419 2.06895,1.4525367 l 0.304562,0.553998 h 1.544871 1.544872 l 0.38651,-0.6793306 c 0.586237,-1.0303704 1.19444,-1.4325798 2.002408,-1.3242084 0.479396,0.0643 2.394695,1.1580215 2.681225,1.5310981 0.119737,0.1559055 0.267712,0.4824249 0.328832,0.7255987 0.13491,0.5367554 0.04967,0.8460665 -0.492117,1.7857861 L 43.942187,5.1749427 44.28804,5.626627 c 0.19022,0.2484263 0.537527,0.8449913 0.771794,1.3257 l 0.425939,0.8740157 h 0.882115 c 0.948349,0 1.285816,0.083971 1.639166,0.4078689 0.459265,0.4209859 0.573936,0.8586529 0.573936,2.1905574 0,1.42698 -0.12658,1.833144 -0.710147,2.278685 -0.334315,0.255243 -0.421775,0.274523 -1.381376,0.304505 l -1.024465,0.03201 -0.325802,0.705157 c -0.179192,0.387838 -0.520264,0.983336 -0.757938,1.323333 l -0.432135,0.618175 0.370267,0.64222 c 0.542604,0.941134 0.6212,1.234035 0.484285,1.804761 -0.07061,0.294323 -0.225605,0.58932 -0.410116,0.780543 -0.396905,0.41134 -2.105426,1.361897 -2.585981,1.43874 -0.807626,0.129145 -1.418944,-0.269423 -2.012006,-1.311789 l -0.38651,-0.67933 h -1.544872 -1.544871 l -0.299242,0.544322 c -0.414051,0.753158 -0.732298,1.10663 -1.179064,1.309568 -0.423995,0.192594 -0.805729,0.212448 -1.232255,0.06409 z m 1.157186,-2.576374 c 0.689691,-1.194979 0.802103,-1.264862 1.772363,-1.10183 0.849175,0.142687 2.127724,0.149212 2.597386,0.01326 0.894371,-0.258898 1.173566,-0.08506 1.895233,1.18004 0.266806,0.467716 0.500502,0.86619 0.519326,0.885497 0.03887,0.03986 1.534608,-0.822951 1.591538,-0.918075 0.02038,-0.03405 -0.213068,-0.487108 -0.518771,-1.006793 -0.305702,-0.519685 -0.556215,-1.043346 -0.556695,-1.163692 -0.0012,-0.29567 0.143508,-0.549265 0.612575,-1.073667 0.438284,-0.489987 0.980481,-1.473356 1.220523,-2.213636 0.263197,-0.811685 0.389941,-0.877106 1.759397,-0.908134 l 1.178285,-0.0267 0.02693,-0.968504 0.02693,-0.9685055 h -1.215181 c -1.416118,0 -1.486826,-0.03812 -1.809298,-0.9754006 -0.269343,-0.7828592 -0.741543,-1.6271186 -1.191293,-2.1299495 -0.460778,-0.51516 -0.609737,-0.7739699 -0.609737,-1.0593918 0,-0.114764 0.25616,-0.6550994 0.569246,-1.2007453 0.313082,-0.5456449 0.55757,-1.0015162 0.543303,-1.0130461 -0.01427,-0.01153 -0.381017,-0.2242807 -0.815002,-0.4727795 -0.636999,-0.364744 -0.80574,-0.4264005 -0.875601,-0.3199359 -0.04759,0.072534 -0.302637,0.5057088 -0.56676,0.9626107 -0.646106,1.1176905 -0.739099,1.1723293 -1.720989,1.0111751 -0.976403,-0.1602536 -1.701448,-0.1602536 -2.677851,0 -0.993412,0.1630455 -1.064581,0.1178935 -1.775194,-1.1262562 -0.29902,-0.5235285 -0.567327,-0.95187 -0.596239,-0.95187 -0.05627,0 -0.696353,0.3645014 -1.270169,0.7233134 l -0.350607,0.219237 0.563206,0.9692036 c 0.309762,0.533062 0.563204,1.067878 0.563204,1.1884799 0,0.2966455 -0.144821,0.5502234 -0.613448,1.0741337 -0.438284,0.4899874 -0.980481,1.4733563 -1.220523,2.2136357 -0.263197,0.8116848 -0.389941,0.8771058 -1.759397,0.9081338 l -1.178286,0.0267 v 0.9448835 0.944882 l 1.178286,0.0267 c 1.369456,0.03103 1.4962,0.09645 1.759397,0.908134 0.249526,0.769526 0.755644,1.662419 1.315395,2.320623 0.675503,0.794314 0.672905,0.920842 -0.04425,2.154971 l -0.562824,0.96855 0.208494,0.133102 c 0.615215,0.392754 1.351117,0.80076 1.412924,0.78337 0.03882,-0.01092 0.315194,-0.443693 0.614173,-0.961716 z m 2.068882,-2.982066 c -0.592121,-0.177442 -0.849768,-0.704777 -0.589886,-1.207334 0.190042,-0.367501 0.289215,-0.396283 1.336525,-0.387883 0.74975,0.006 0.968147,-0.02877 1.388216,-0.221082 0.637703,-0.29195 1.081766,-0.738882 1.378816,-1.387723 0.205169,-0.448151 0.233804,-0.63513 0.220812,-1.441891 -0.01302,-0.8083155 0.0089,-0.9508015 0.171275,-1.1131695 0.266856,-0.266856 0.650992,-0.3403858 0.940367,-0.180001 0.406844,0.225493 0.573164,0.690842 0.57333,1.6041225 1.89e-4,1.284154 -0.398086,2.258624 -1.286262,3.146801 -0.58415,0.58415 -1.104165,0.891069 -1.919718,1.133044 -0.545501,0.16185 -1.75667,0.192008 -2.213475,0.05512 z m -2.77174,-2.643911 c -0.383107,-0.154316 -0.53615,-0.530254 -0.578771,-1.421699 -0.124212,-2.598018 1.810834,-4.624963 4.414826,-4.624492 0.913279,1.606e-4 1.378629,0.1664858 1.604121,0.5733297 0.160385,0.289374 0.08685,0.6735109 -0.180001,0.9403671 -0.162369,0.1623683 -0.304854,0.1842914 -1.113169,0.1712746 -0.806761,-0.012992 -0.99374,0.015642 -1.441891,0.2208125 -0.648841,0.2970492 -1.095773,0.7411126 -1.387722,1.3788146 -0.192315,0.42007 -0.227096,0.638467 -0.221083,1.3882175 0.0084,1.042033 -0.02132,1.146968 -0.376293,1.330533 -0.300761,0.15553 -0.422306,0.162762 -0.720017,0.04284 z"
     id="path20"
     inkscape:connector-curvature="0" />
</svg>
