<?xml version="1.0" encoding="UTF-8" standalone="no"?>
<!-- Generator: Adobe Illustrator 18.1.1, SVG Export Plug-In . SVG Version: 6.00 Build 0)  -->

<svg
   xmlns:dc="http://purl.org/dc/elements/1.1/"
   xmlns:cc="http://creativecommons.org/ns#"
   xmlns:rdf="http://www.w3.org/1999/02/22-rdf-syntax-ns#"
   xmlns:svg="http://www.w3.org/2000/svg"
   xmlns="http://www.w3.org/2000/svg"
   xmlns:sodipodi="http://sodipodi.sourceforge.net/DTD/sodipodi-0.dtd"
   xmlns:inkscape="http://www.inkscape.org/namespaces/inkscape"
   version="1.1"
   id="Capa_1"
   x="0px"
   y="0px"
   viewBox="0 0 612 612"
   style="enable-background:new 0 0 612 612;"
   xml:space="preserve"
   width="512px"
   height="512px"
   sodipodi:docname="user_profile.svg"
   inkscape:version="0.92.2 (unknown)"><metadata
     id="metadata109"><rdf:RDF><cc:Work
         rdf:about=""><dc:format>image/svg+xml</dc:format><dc:type
           rdf:resource="http://purl.org/dc/dcmitype/StillImage" /></cc:Work></rdf:RDF></metadata><defs
     id="defs107" /><sodipodi:namedview
     pagecolor="#ffffff"
     bordercolor="#666666"
     borderopacity="1"
     objecttolerance="10"
     gridtolerance="10"
     guidetolerance="10"
     inkscape:pageopacity="0"
     inkscape:pageshadow="2"
     inkscape:window-width="1920"
     inkscape:window-height="1021"
     id="namedview105"
     showgrid="false"
     inkscape:zoom="1.5957031"
     inkscape:cx="256"
     inkscape:cy="256"
     inkscape:window-x="1080"
     inkscape:window-y="420"
     inkscape:window-maximized="1"
     inkscape:current-layer="g72" /><g
     id="g72"><path
       d="M 612,306.036 C 612,137.405 474.595,0 305.964,0 137.333,0 0,137.405 0,306.036 c 0,92.881 42.14,176.437 107.698,232.599 0.795,0.795 1.59,1.59 3.108,2.313 C 163.86,585.473 231.804,612 306.759,612 c 73.365,0 141.309,-26.527 194.363,-69.462 3.108,-0.795 5.493,-3.108 7.011,-5.493 C 571.451,480.088 612,398.122 612,306.036 Z m -564.758,0 c 0,-153.018 105.776,-258.794 258.794,-258.794 153.018,0 258.79399,105.776 258.79399,258.794 0,74.955 -17.68187,130.87287 -66.10987,180.89187 C 490.91412,450.20887 474.667,399.712 402.82,359.163 c 16.408,-20.311 25.732,-46.838 25.732,-74.955 0,-67.149 -54.644,-121.793 -121.793,-121.793 -67.149,0 -121.793,54.644 -121.793,121.793 0,28.117 10.119,53.849 25.732,74.955 -72.497,40.549 -81.57225,88.65625 -88.58425,125.37424 C 72.89075,435.31425 47.242,380.991 47.242,306.036 Z M 212.36,284.93 c 0,-51.536 42.14,-93.676 93.676,-93.676 51.536,0 93.676,42.14 93.676,93.676 0,51.536 -42.14,93.676 -93.676,93.676 -51.536,0 -93.676,-42.14 -93.676,-93.676 z m -67.69988,216.57737 c 1.59,-22.624 4.4595,-87.21587 88.8115,-130.15087 21.106,16.408 44.44738,35.2945 72.56438,35.2945 28.117,0 54.644,-10.119 75.75,-26.527 83.556,42.935 87.22149,108.32749 89.60649,132.54149 -47.633,38.237 -98.93049,52.0925 -164.48949,52.0925 -66.425,0.072 -114.60988,-24.94262 -162.24288,-63.25062 z"
       id="path70"
       inkscape:connector-curvature="0"
       style="fill:#ffffff"
       sodipodi:nodetypes="sssccsccssssccsssccssssssccscccc" /></g><g
     id="g74" /><g
     id="g76" /><g
     id="g78" /><g
     id="g80" /><g
     id="g82" /><g
     id="g84" /><g
     id="g86" /><g
     id="g88" /><g
     id="g90" /><g
     id="g92" /><g
     id="g94" /><g
     id="g96" /><g
     id="g98" /><g
     id="g100" /><g
     id="g102" /></svg>