<?xml version="1.0"?>
<svg xmlns="http://www.w3.org/2000/svg" xmlns:xlink="http://www.w3.org/1999/xlink" version="1.1" id="Layer_1" x="0px" y="0px" viewBox="0 0 512 512" style="enable-background:new 0 0 512 512;" xml:space="preserve" width="512px" height="512px" class=""><g><g>
	<g>
		<path d="M192,182.857h-73.143c-5.047,0-9.143,4.096-9.143,9.143v54.857c0,5.047,4.096,9.143,9.143,9.143v219.429    c0,20.169,16.402,36.571,36.571,36.571S192,495.598,192,475.429V256c5.047,0,9.143-4.096,9.143-9.143V192    C201.143,186.953,197.047,182.857,192,182.857z M173.714,475.429c0,10.085-8.201,18.286-18.286,18.286    s-18.286-8.201-18.286-18.286V329.143h36.571V475.429z M173.714,310.857h-36.571V256h36.571V310.857z M182.857,237.714H128    v-36.571h54.857V237.714z" data-original="#000000" class="active-path" data-old_color="#FDFAFA" fill="#FDFCFC"/>
	</g>
</g><g>
	<g>
		<path d="M301.714,182.857h-73.143c-5.047,0-9.143,4.096-9.143,9.143v54.857c0,5.047,4.096,9.143,9.143,9.143v219.429    c0,20.169,16.402,36.571,36.571,36.571s36.571-16.402,36.571-36.571V256c5.047,0,9.143-4.096,9.143-9.143V192    C310.857,186.953,306.761,182.857,301.714,182.857z M283.429,475.429c0,10.085-8.201,18.286-18.286,18.286    c-10.085,0-18.286-8.201-18.286-18.286V329.143h36.571V475.429z M283.429,310.857h-36.571V256h36.571V310.857z M292.571,237.714    h-54.857v-36.571h54.857V237.714z" data-original="#000000" class="active-path" data-old_color="#FDFAFA" fill="#FDFCFC"/>
	</g>
</g><g>
	<g>
		<path d="M82.286,182.857H9.143C4.096,182.857,0,186.953,0,192v54.857C0,251.904,4.096,256,9.143,256v219.429    C9.143,495.598,25.545,512,45.714,512s36.571-16.402,36.571-36.571V256c5.047,0,9.143-4.096,9.143-9.143V192    C91.429,186.953,87.333,182.857,82.286,182.857z M64,475.429c0,10.085-8.201,18.286-18.286,18.286s-18.286-8.201-18.286-18.286    V329.143H64V475.429z M64,310.857H27.429V256H64V310.857z M73.143,237.714H18.286v-36.571h54.857V237.714z" data-original="#000000" class="active-path" data-old_color="#FDFAFA" fill="#FDFCFC"/>
	</g>
</g><g>
	<g>
		<path d="M502.857,265.143H356.571c-5.047,0-9.143,4.096-9.143,9.143V320c0,5.047,4.096,9.143,9.143,9.143v27.429v109.714    c0,25.207,20.507,45.714,45.714,45.714h54.857c25.207,0,45.714-20.507,45.714-45.714V329.143c5.047,0,9.143-4.096,9.143-9.143    v-45.714C512,269.239,507.904,265.143,502.857,265.143z M484.571,466.286c0,15.122-12.306,27.429-27.429,27.429h-54.857    c-11.904,0-21.961-7.671-25.746-18.286h62.318c5.047,0,9.143-4.096,9.143-9.143V356.571c0-5.047-4.096-9.143-9.143-9.143h-64    v-18.286h109.714V466.286z M374.857,457.143v-91.429h54.857v91.429H374.857z M493.714,310.857h-128v-27.429h128V310.857z" data-original="#000000" class="active-path" data-old_color="#FDFAFA" fill="#FDFCFC"/>
	</g>
</g><g>
	<g>
		<path d="M493.714,0v18.286h-64V0h-18.286v9.143h-192c-5.047,0-9.143,4.096-9.143,9.143v9.143h-27.429    c-11.904,0-21.961,7.671-25.746,18.286H45.714V64h111.397c3.785,10.615,13.842,18.286,25.746,18.286h27.429v9.143    c0,5.047,4.096,9.143,9.143,9.143h192v9.143h18.286V91.429h64v18.286H512V82.286V27.429V0H493.714z M210.286,64h-27.429    c-5.038,0-9.143-4.105-9.143-9.143c0-5.038,4.105-9.143,9.143-9.143h27.429V64z M411.429,82.286H228.571V27.429H256v27.429h18.286    V27.429h27.429v27.429H320V27.429h27.429V64h18.286V27.429h45.714V82.286z M493.714,73.143h-64V36.571h64V73.143z" data-original="#000000" class="active-path" data-old_color="#FDFAFA" fill="#FDFCFC"/>
	</g>
</g><g>
	<g>
		<path d="M51.776,84.59c-3.465-3.063-8.658-3.063-12.123,0c-2.185,1.929-21.367,19.456-21.367,38.19    c0,22.427,14.217,32.649,27.429,32.649s27.429-10.222,27.429-32.649C73.143,104.055,53.961,86.528,51.776,84.59z M45.714,137.143    c-6.738,0-9.143-7.424-9.143-14.363c0-5.504,4.443-12.581,9.134-18.176c4.535,5.431,9.152,12.571,9.152,18.176    C54.857,129.719,52.453,137.143,45.714,137.143z" data-original="#000000" class="active-path" data-old_color="#FDFAFA" fill="#FDFCFC"/>
	</g>
</g><g>
	<g>
		<rect x="393.143" y="384" width="18.286" height="18.286" data-original="#000000" class="active-path" data-old_color="#FDFAFA" fill="#FDFCFC"/>
	</g>
</g><g>
	<g>
		<rect x="393.143" y="420.571" width="18.286" height="18.286" data-original="#000000" class="active-path" data-old_color="#FDFAFA" fill="#FDFCFC"/>
	</g>
</g></g> </svg>
