<?xml version="1.0" encoding="UTF-8" standalone="no"?>
<!-- Created with Inkscape (http://www.inkscape.org/) -->

<svg
   xmlns:dc="http://purl.org/dc/elements/1.1/"
   xmlns:cc="http://creativecommons.org/ns#"
   xmlns:rdf="http://www.w3.org/1999/02/22-rdf-syntax-ns#"
   xmlns:svg="http://www.w3.org/2000/svg"
   xmlns="http://www.w3.org/2000/svg"
   xmlns:sodipodi="http://sodipodi.sourceforge.net/DTD/sodipodi-0.dtd"
   xmlns:inkscape="http://www.inkscape.org/namespaces/inkscape"
   width="44px"
   height="44px"
   viewBox="0 0 44 44"
   version="1.1"
   id="SVGRoot"
   inkscape:version="0.92.1 r15371"
   sodipodi:docname="icon_export.svg">
  <sodipodi:namedview
     id="base"
     pagecolor="#ffffff"
     bordercolor="#666666"
     borderopacity="1.0"
     inkscape:pageopacity="0.0"
     inkscape:pageshadow="2"
     inkscape:zoom="11.636364"
     inkscape:cx="22"
     inkscape:cy="22"
     inkscape:document-units="px"
     inkscape:current-layer="layer1"
     showgrid="false"
     inkscape:window-width="1920"
     inkscape:window-height="1017"
     inkscape:window-x="1432"
     inkscape:window-y="-8"
     inkscape:window-maximized="1" />
  <defs
     id="defs32" />
  <metadata
     id="metadata35">
    <rdf:RDF>
      <cc:Work
         rdf:about="">
        <dc:format>image/svg+xml</dc:format>
        <dc:type
           rdf:resource="http://purl.org/dc/dcmitype/StillImage" />
        <dc:title></dc:title>
      </cc:Work>
    </rdf:RDF>
  </metadata>
  <g
     id="layer1"
     inkscape:groupmode="layer"
     inkscape:label="Layer 1">
    <path
       style="fill:rgb(249, 235, 210);fill-opacity:1;stroke-width:0.07332398"
       d="m 29.247197,39.662202 c -1.841948,-0.220969 -3.302903,-0.806624 -4.665776,-1.870379 -3.143383,-2.453491 -3.882371,-6.614135 -1.746657,-9.83401 0.949976,-1.432204 2.326004,-2.511374 4.037511,-3.166457 l 0.793545,-0.303723 v -6.995986 -6.995983 l -4.139649,-0.0028 c -4.4976,-0.0028 -4.410681,0.0035 -4.736988,-0.362472 C 18.638634,9.961397 18.627774,9.74455 18.58802,6.1139151 L 18.545983,2.2761517 10.539868,2.2598274 2.5337615,2.2435032 V 18.234803 34.226112 l 8.3843535,8.93e-4 c 6.487026,7.41e-4 8.430071,0.01881 8.586382,0.07993 0.541527,0.211782 0.753227,0.841734 0.439928,1.309077 -0.333857,0.498002 0.255363,0.470912 -9.803804,0.450805 C 1.7058195,36.049988 1.218988,36.042852 1.0070192,35.933361 0.8838749,35.869759 0.72311731,35.721466 0.64978882,35.603876 0.52909713,35.41032 0.51646983,33.765852 0.51646983,18.238237 c 0,-18.73928398 -0.0372667,-17.34674725 0.47195077,-17.65154145 L 1.211573,0.4531207 h 9.271124 c 5.334572,0 9.356155,0.0246201 9.471377,0.0578938 0.256602,0.074218 9.485027,8.4396619 9.619223,8.7196657 0.07548,0.1574278 0.101494,2.0347828 0.105063,7.5715328 l 0.0043,7.362203 0.861551,0.03916 c 3.859014,0.175234 6.949791,2.511607 7.938386,6.000773 0.239243,0.844366 0.216042,2.747839 -0.04429,3.63273 -0.70615,2.400451 -2.451957,4.256869 -4.912826,5.224078 -1.255857,0.493595 -3.060384,0.746991 -4.278749,0.600828 z m 2.69705,-2.018226 c 2.100136,-0.531999 3.731875,-1.962741 4.430371,-3.884654 0.266847,-0.734243 0.3653,-2.139296 0.203693,-2.906919 -0.476579,-2.263655 -2.197671,-3.958407 -4.707921,-4.635862 -0.678442,-0.183102 -2.142213,-0.22658 -2.961002,-0.08796 -2.408201,0.407719 -4.274519,1.952562 -5.035564,4.168199 -0.169623,0.493844 -0.195727,0.718961 -0.192338,1.658776 0.0035,0.97175 0.0279,1.155405 0.229076,1.727027 0.751286,2.134301 2.659914,3.683425 5.050081,4.098861 0.813189,0.141345 2.12077,0.08109 2.983604,-0.137473 z m -1.766781,-2.170599 c -0.415592,-0.171869 -0.624208,-0.786988 -0.411372,-1.212985 0.04567,-0.09136 0.42945,-0.438636 0.852893,-0.771734 l 0.769902,-0.60562 -2.681062,-1.52e-4 c -2.946581,-1.5e-4 -3.054073,-0.01266 -3.428567,-0.401303 -0.371002,-0.384999 -0.129618,-1.1904 0.413182,-1.378604 0.151033,-0.05237 1.037952,-0.07493 2.943946,-0.07493 1.500282,0 2.727793,-0.02221 2.727793,-0.04941 0,-0.02712 -0.324237,-0.293411 -0.720521,-0.591658 -0.396281,-0.298256 -0.777675,-0.624646 -0.847545,-0.725314 -0.144897,-0.208801 -0.165568,-0.633825 -0.04272,-0.878049 0.133571,-0.265482 0.57037,-0.50604 0.918846,-0.50604 0.282135,0 0.42029,0.08796 1.933399,1.23131 2.269005,1.714484 2.473036,1.899521 2.521985,2.287213 0.02166,0.171808 0.01447,0.388137 -0.01613,0.480723 -0.06327,0.191968 -3.741294,3.112919 -4.057949,3.222711 -0.271681,0.09421 -0.609437,0.08412 -0.876171,-0.02622 z M 26.058522,8.5287743 C 25.925357,8.3990616 20.786878,3.7136992 20.678024,3.622746 c -0.04108,-0.034343 -0.07272,1.0454063 -0.07272,2.4785935 v 2.5393684 h 2.784064 c 2.639235,0 2.778092,-0.00625 2.669154,-0.1119336 z"
       id="path4495"
       inkscape:connector-curvature="0" />
  </g>
</svg>
