<?xml version="1.0" encoding="UTF-8" standalone="no"?>
<!-- Created with Inkscape (http://www.inkscape.org/) -->

<svg
   xmlns:dc="http://purl.org/dc/elements/1.1/"
   xmlns:cc="http://creativecommons.org/ns#"
   xmlns:rdf="http://www.w3.org/1999/02/22-rdf-syntax-ns#"
   xmlns:svg="http://www.w3.org/2000/svg"
   xmlns="http://www.w3.org/2000/svg"
   xmlns:sodipodi="http://sodipodi.sourceforge.net/DTD/sodipodi-0.dtd"
   xmlns:inkscape="http://www.inkscape.org/namespaces/inkscape"
   version="1.1"
   id="svg10"
   width="69.760002"
   height="69.760002"
   viewBox="0 0 69.760002 69.760002"
   sodipodi:docname="161807 (1).svg"
   inkscape:version="0.92.1 r15371">
  <metadata
     id="metadata16">
    <rdf:RDF>
      <cc:Work
         rdf:about="">
        <dc:format>image/svg+xml</dc:format>
        <dc:type
           rdf:resource="http://purl.org/dc/dcmitype/StillImage" />
        <dc:title></dc:title>
      </cc:Work>
    </rdf:RDF>
  </metadata>
  <defs
     id="defs14" />
  <sodipodi:namedview
     pagecolor="#ffffff"
     bordercolor="#666666"
     borderopacity="1"
     objecttolerance="10"
     gridtolerance="10"
     guidetolerance="10"
     inkscape:pageopacity="0"
     inkscape:pageshadow="2"
     inkscape:window-width="1366"
     inkscape:window-height="706"
     id="namedview12"
     showgrid="false"
     inkscape:zoom="7.6978209"
     inkscape:cx="34.880001"
     inkscape:cy="34.880001"
     inkscape:window-x="-8"
     inkscape:window-y="219"
     inkscape:window-maximized="1"
     inkscape:current-layer="svg10" />
  <path
     style="fill:#000000;stroke-width:0.32000002"
     d="m 6.0906484,68.36493 c 0,-0.646249 -0.438168,-1.323609 -1.590278,-2.458394 -1.571296,-1.54767 -1.598178,-1.559216 -2.252143,-0.967388 -0.649781,0.588044 -0.676589,0.584256 -1.46836788,-0.207524 l -0.8065035,-0.806502 1.29956778,-1.174083 c 0.7147626,-0.645744 1.4463706,-1.17408 1.6257956,-1.17408 0.179426,0 0.971011,0.594339 1.759078,1.320755 l 1.432851,1.320755 v -1.572784 c 0,-1.462601 -0.11141,-1.682518 -1.590278,-3.139149 -1.571296,-1.54767 -1.598178,-1.559216 -2.252143,-0.967389 -0.649781,0.588045 -0.676589,0.584256 -1.46836788,-0.207523 l -0.8065035,-0.806502 1.29956778,-1.174083 c 0.7147626,-0.645744 1.4463706,-1.17408 1.6257956,-1.17408 0.179426,0 0.971011,0.594339 1.759078,1.320755 l 1.432851,1.320755 v -1.302611 c 0,-0.957482 -0.176745,-1.426407 -0.667086,-1.769853 -0.854258,-0.598346 -1.540923,-2.526739 -1.558869,-4.377843 -0.01681,-1.733684 -0.675663,-2.779188 -2.135867,-3.3893 -0.88300708,-0.368944 -1.07817858,-0.623494 -1.07817858,-1.406198 0,-1.202346 0.63533688,-1.247792 2.62848458,-0.188026 l 1.443806,0.767677 0.514671,-1.079277 c 0.522311,-1.095299 1.667674,-1.663129 2.618614,-1.298221 0.267853,0.102788 0.779139,0.68201 1.136191,1.287168 l 0.649184,1.100285 1.3445256,-0.7688 c 1.930632,-1.103939 2.464524,-1.029529 2.464524,0.343488 0,0.849456 -0.135271,1.122458 -0.56,1.130176 -0.606875,0.01104 -1.265487,0.46545 -1.96295,1.354365 -0.243623,0.310496 -0.55138,1.671959 -0.683905,3.025472 -0.205136,2.095114 -0.3652396,2.567837 -1.0770496,3.180109 -0.718411,0.617952 -0.836095,0.974311 -0.836095,2.531767 v 1.812582 l 1.280922,-1.157235 c 0.7045066,-0.63648 1.5402586,-1.157235 1.8572266,-1.157235 0.316967,0 1.052696,0.49151 1.634952,1.092246 1.058171,1.091757 1.058379,1.092614 0.462773,1.909946 -0.725923,0.996157 -0.822856,1.007782 -1.565022,0.187699 -0.585929,-0.647443 -0.59466,-0.643885 -2.1295966,0.867971 -1.425773,1.404333 -1.541255,1.635661 -1.541255,3.087344 v 1.569264 l 1.280922,-1.157235 c 0.7045066,-0.63648 1.5402586,-1.157235 1.8572266,-1.157235 0.316967,0 1.063203,0.502352 1.6583,1.116336 l 1.081996,1.116336 -0.756688,0.805459 -0.756688,0.805456 -0.69648,-0.654307 -0.69648,-0.654311 -1.7891676,1.932516 c -1.288209,1.391421 -2.017891,1.932515 -2.606054,1.932515 -0.680487,0 -0.816887,-0.148947 -0.816887,-0.892029 z m 1.943292,-15.969236 c 0.374253,-0.984358 0.09758,-3.938483 -0.503749,-5.378736 l -0.400818,-0.96 -0.377901,0.949594 c -0.581893,1.462179 -0.801275,4.750045 -0.370637,5.554701 0.508076,0.949347 1.257764,0.874269 1.653105,-0.165559 z M 23.263982,69.043625 c -0.117333,-0.117332 -0.213333,-0.518746 -0.213333,-0.892029 0,-0.390423 -0.675463,-1.344 -1.590278,-2.24506 -1.570605,-1.546988 -1.598455,-1.558966 -2.251294,-0.968153 -0.647287,0.585785 -0.675488,0.583737 -1.357713,-0.09849 l -0.696697,-0.696697 1.252934,-1.28312 c 0.689114,-0.705715 1.370927,-1.28312 1.515141,-1.28312 0.144213,0 0.906989,0.594339 1.695056,1.320755 l 1.432851,1.320755 v -1.572784 c 0,-1.462601 -0.11141,-1.682518 -1.590278,-3.139149 -1.570605,-1.546989 -1.598455,-1.558966 -2.251294,-0.968153 -0.647287,0.585785 -0.675488,0.583737 -1.357713,-0.09849 l -0.696697,-0.696697 1.252934,-1.28312 c 0.689114,-0.705716 1.370927,-1.28312 1.515141,-1.28312 0.144213,0 0.906989,0.594339 1.695056,1.320755 l 1.432851,1.320755 v -1.336106 c 0,-1.043724 -0.182963,-1.493481 -0.836096,-2.055283 -0.71181,-0.612272 -0.871913,-1.084995 -1.077049,-3.180109 -0.132525,-1.353513 -0.440282,-2.714976 -0.683905,-3.025472 -0.697463,-0.888915 -1.356075,-1.343334 -1.96295,-1.354365 -0.428474,-0.0078 -0.56,-0.282624 -0.56,-1.170176 0,-1.125257 0.02956,-1.154086 0.98693,-0.962614 0.542812,0.108563 1.392722,0.486336 1.88869,0.839494 l 0.901759,0.642109 0.665019,-1.127123 c 0.365761,-0.619917 0.884173,-1.211219 1.152026,-1.314007 0.95094,-0.364908 2.096303,0.202922 2.618614,1.298221 l 0.514672,1.079277 1.443805,-0.767677 c 1.993148,-1.059766 2.628485,-1.01432 2.628485,0.188026 0,0.782704 -0.195172,1.037254 -1.078178,1.406198 -1.425895,0.595776 -2.121425,1.653447 -2.123607,3.2293 -0.0026,1.889379 -0.583467,3.668617 -1.464099,4.484758 -0.648657,0.601155 -0.774116,1.020483 -0.774116,2.58736 v 1.869933 l 1.372112,-1.346627 c 0.754662,-0.740647 1.576591,-1.346627 1.826508,-1.346627 0.249918,0 0.99924,0.532025 1.66516,1.182278 l 1.210764,1.182282 -0.694738,0.739513 -0.694738,0.739514 -0.748868,-0.703523 -0.748869,-0.703527 -1.593666,1.569703 c -1.527822,1.504848 -1.593665,1.642361 -1.593665,3.328358 v 1.758656 l 1.372112,-1.346627 c 0.754662,-0.740646 1.576591,-1.346627 1.826508,-1.346627 0.249918,0 0.99924,0.532025 1.66516,1.182278 l 1.210764,1.182282 -0.694738,0.739513 -0.694738,0.739514 -0.748868,-0.703523 -0.748869,-0.703527 -1.593666,1.569703 c -0.876516,0.863334 -1.593665,1.755114 -1.593665,1.981731 0,0.426429 -1.638312,0.58705 -2.026667,0.198695 z m 1.73648,-16.482372 c 0.430637,-0.804656 0.211255,-4.092522 -0.370637,-5.554701 l -0.377902,-0.949594 -0.400817,0.96 c -0.601333,1.440253 -0.878003,4.394378 -0.503749,5.378736 0.39534,1.039828 1.145029,1.114906 1.653105,0.165559 z m 17.463522,16.482372 c -0.117335,-0.117332 -0.213335,-0.518746 -0.213335,-0.892029 0,-0.390423 -0.675462,-1.344 -1.590278,-2.24506 -1.570605,-1.546988 -1.598455,-1.558966 -2.251293,-0.968153 -0.647287,0.585785 -0.675488,0.583737 -1.357712,-0.09849 l -0.696698,-0.696697 1.252935,-1.28312 c 0.689113,-0.705715 1.370925,-1.28312 1.515139,-1.28312 0.144214,0 0.906989,0.594339 1.695056,1.320755 l 1.432851,1.320755 v -1.572784 c 0,-1.462601 -0.111408,-1.682518 -1.590278,-3.139149 -1.570605,-1.546989 -1.598455,-1.558966 -2.251293,-0.968153 -0.647287,0.585785 -0.675488,0.583737 -1.357712,-0.09849 l -0.696698,-0.696697 1.252935,-1.28312 c 0.689113,-0.705716 1.370925,-1.28312 1.515139,-1.28312 0.144214,0 0.906989,0.594339 1.695056,1.320755 l 1.432851,1.320755 v -1.336106 c 0,-1.043724 -0.182963,-1.493481 -0.836096,-2.055283 -0.711811,-0.612272 -0.871913,-1.084995 -1.077049,-3.180109 -0.132525,-1.353513 -0.440282,-2.714976 -0.683904,-3.025472 -0.697463,-0.888915 -1.356074,-1.343334 -1.962951,-1.354365 -0.428474,-0.0078 -0.56,-0.282624 -0.56,-1.170176 0,-1.125257 0.02957,-1.154086 0.986931,-0.962614 0.54281,0.108563 1.39272,0.486336 1.888688,0.839494 l 0.90176,0.642109 0.665021,-1.127123 c 0.36576,-0.619917 0.884173,-1.211219 1.152026,-1.314007 0.950937,-0.364908 2.096301,0.202922 2.618614,1.298221 l 0.514669,1.079277 1.443808,-0.767677 c 1.993146,-1.059766 2.628483,-1.01432 2.628483,0.188026 0,0.782704 -0.195171,1.037254 -1.078179,1.406198 -1.460205,0.610112 -2.119059,1.655616 -2.135865,3.3893 -0.01795,1.851104 -0.704612,3.779497 -1.558871,4.377843 -0.553181,0.387462 -0.667085,0.80336 -0.667085,2.435725 v 1.968483 l 1.372112,-1.346627 c 0.754663,-0.740647 1.576592,-1.346627 1.826509,-1.346627 0.249917,0 0.999239,0.532025 1.665159,1.182278 l 1.210764,1.182282 -0.694739,0.739513 -0.694736,0.739514 -0.74887,-0.703523 -0.748867,-0.703527 -1.593668,1.569703 c -1.527821,1.504848 -1.593664,1.642361 -1.593664,3.328358 v 1.758656 l 1.372112,-1.346627 c 0.754663,-0.740646 1.576592,-1.346627 1.826509,-1.346627 0.249917,0 0.999239,0.532025 1.665159,1.182278 l 1.210764,1.182282 -0.694739,0.739513 -0.694736,0.739514 -0.74887,-0.703523 -0.748867,-0.703527 -1.593668,1.569703 c -0.876515,0.863334 -1.593664,1.755114 -1.593664,1.981731 0,0.426429 -1.63831,0.58705 -2.026665,0.198695 z m 1.73648,-16.482372 c 0.430636,-0.804656 0.211254,-4.092522 -0.37064,-5.554701 l -0.377901,-0.949594 -0.400816,0.96 c -0.601331,1.440253 -0.878003,4.394378 -0.503751,5.378736 0.395341,1.039828 1.145031,1.114906 1.653108,0.165559 z m 17.46352,16.482372 C 61.54665,68.926293 61.45065,68.524879 61.45065,68.151596 c 0,-0.390423 -0.675463,-1.344 -1.590279,-2.24506 -1.570605,-1.546988 -1.598454,-1.558966 -2.251293,-0.968153 -0.647286,0.585785 -0.675488,0.583737 -1.357712,-0.09849 l -0.696697,-0.696697 1.252934,-1.28312 c 0.689114,-0.705715 1.370925,-1.28312 1.515139,-1.28312 0.144215,0 0.906989,0.594339 1.695057,1.320755 l 1.432851,1.320755 v -1.572784 c 0,-1.462601 -0.111408,-1.682518 -1.590279,-3.139149 -1.570605,-1.546989 -1.598454,-1.558966 -2.251293,-0.968153 -0.647286,0.585785 -0.675488,0.583737 -1.357712,-0.09849 l -0.696697,-0.696697 1.252934,-1.28312 c 0.689114,-0.705716 1.370925,-1.28312 1.515139,-1.28312 0.144215,0 0.906989,0.594339 1.695057,1.320755 l 1.432851,1.320755 v -1.336106 c 0,-1.043724 -0.182963,-1.493481 -0.836096,-2.055283 -0.711811,-0.612272 -0.871914,-1.084995 -1.07705,-3.180109 -0.132525,-1.353513 -0.440282,-2.714976 -0.683904,-3.025472 -0.697462,-0.888915 -1.356074,-1.343334 -1.96295,-1.354365 -0.42473,-0.0077 -0.56,-0.28072 -0.56,-1.130176 0,-1.373017 0.533891,-1.447427 2.464524,-0.343488 l 1.344525,0.7688 0.649184,-1.100285 c 0.357053,-0.605158 0.86834,-1.18438 1.136192,-1.287168 0.950938,-0.364908 2.096301,0.202922 2.618615,1.298221 l 0.514669,1.079277 1.443808,-0.767677 c 1.993145,-1.059766 2.628483,-1.01432 2.628483,0.188026 0,0.782704 -0.195171,1.037254 -1.078179,1.406198 -1.460205,0.610112 -2.11906,1.655616 -2.135866,3.3893 -0.01795,1.851104 -0.704611,3.779497 -1.55887,4.377843 -0.553181,0.387462 -0.667085,0.80336 -0.667085,2.435725 v 1.968483 l 1.372112,-1.346627 c 0.754662,-0.740647 1.576592,-1.346627 1.826509,-1.346627 0.249917,0 0.999238,0.532025 1.665158,1.182278 l 1.210765,1.182282 -0.694739,0.739513 -0.694736,0.739514 -0.748871,-0.703523 -0.748867,-0.703527 -1.593667,1.569703 c -1.527821,1.504848 -1.593664,1.642361 -1.593664,3.328358 v 1.758656 l 1.372112,-1.346627 c 0.754662,-0.740646 1.576592,-1.346627 1.826509,-1.346627 0.249917,0 0.999238,0.532025 1.665158,1.182278 l 1.210765,1.182282 -0.694739,0.739513 -0.694736,0.739514 -0.748871,-0.703523 -0.748867,-0.703527 -1.593667,1.569703 c -0.876515,0.863334 -1.593664,1.755114 -1.593664,1.981731 0,0.426429 -1.638311,0.58705 -2.026666,0.198695 z m 1.73648,-16.482372 c 0.430589,-0.804567 0.211287,-4.092279 -0.370518,-5.554701 l -0.377786,-0.949594 -0.414371,0.96 c -0.612038,1.417949 -0.883542,4.344781 -0.49728,5.360727 0.401478,1.055968 1.148829,1.138614 1.659955,0.183568 z M 14.730648,55.11045 c 0,-1.120157 -0.198406,-1.549693 -1.180273,-2.555216 l -1.180273,-1.208711 0.7523,-0.800787 c 0.575245,-0.61232 0.853023,-0.717194 1.180273,-0.4456 0.352839,0.292832 0.427973,-0.256147 0.427973,-3.127021 0,-3.17697 -0.05817,-3.518534 -0.663626,-3.89665 -0.904337,-0.564764 -1.576374,-2.297801 -1.576374,-4.06512 0,-1.970483 -0.697023,-3.217869 -2.076933,-3.716848 -0.9768566,-0.353238 -1.1230666,-0.544342 -1.1230666,-1.46792 0,-0.994365 0.0559,-1.04888 0.8799996,-0.858217 0.484,0.111974 1.356231,0.47472 1.938292,0.806096 0.58206,0.331376 1.10459,0.602502 1.161177,0.602502 0.05659,0 0.284106,-0.437504 0.505597,-0.97223 0.798009,-1.926563 2.782851,-2.045945 3.709811,-0.223133 0.289584,0.569449 0.562054,1.077216 0.60549,1.128368 0.04344,0.05115 0.565122,-0.183975 1.159303,-0.522506 0.594182,-0.338528 1.476331,-0.707123 1.960331,-0.819097 0.8241,-0.190663 0.88,-0.136148 0.88,0.858217 0,0.923578 -0.146211,1.114682 -1.123067,1.46792 -1.43379,0.518464 -1.947784,1.552688 -2.163016,4.352272 -0.152563,1.984436 -0.280508,2.327277 -1.162672,3.115492 -0.930415,0.831324 -0.991246,1.023788 -0.991246,3.136285 0,2.214009 0.01245,2.247481 0.765748,2.058416 0.562691,-0.141226 1.034439,0.04808 1.779008,0.713904 l 1.013261,0.906092 -0.671474,0.72 c -0.739279,0.792704 -1.139566,0.896698 -1.459426,0.379156 -0.137895,-0.22312 -0.420733,-0.150727 -0.818885,0.209593 -0.499178,0.451751 -0.608232,1.000547 -0.608232,3.060848 v 2.510404 h -0.96 c -0.914569,0 -0.96,-0.06372 -0.96,-1.346509 z M 16.58566,39.266901 c 0.09746,-2.041306 -0.38565,-4.569943 -0.873109,-4.569943 -0.446613,0 -0.703226,0.981987 -0.892145,3.413981 -0.213711,2.751139 -0.02794,3.387162 0.948812,3.248464 0.647941,-0.09201 0.731109,-0.305165 0.816442,-2.092502 z m 16.278323,16.976723 c -0.117334,-0.117331 -0.213334,-0.809085 -0.213334,-1.537225 0,-1.092541 -0.19543,-1.513312 -1.118329,-2.407821 L 30.41399,51.214651 31.104346,50.4798 c 0.526303,-0.560224 0.792057,-0.650445 1.118329,-0.379664 0.352921,0.292899 0.427974,-0.266998 0.427974,-3.192736 0,-3.133347 -0.06965,-3.585203 -0.596112,-3.866954 -0.820365,-0.439046 -1.258899,-1.733254 -1.406559,-4.151056 -0.11132,-1.822758 -0.237169,-2.147747 -1.146238,-2.96 -0.561653,-0.501837 -1.234916,-0.912432 -1.49614,-0.912432 -0.329958,0 -0.474951,-0.343776 -0.474951,-1.126096 0,-1.065366 0.04746,-1.114922 0.88,-0.918893 0.484,0.113962 1.332499,0.478867 1.885553,0.810906 l 1.005554,0.603702 0.657556,-1.114473 c 0.954627,-1.617972 2.150543,-1.831476 3.265996,-0.583069 0.476103,0.532851 0.919571,1.12688 0.985491,1.320064 0.07536,0.220861 0.736196,0.04584 1.780192,-0.471482 1.862849,-0.923072 2.339658,-0.818566 2.339658,0.5128 0,0.756413 -0.166304,0.952218 -0.956099,1.125683 -1.339827,0.294276 -2.24225,1.562426 -2.251536,3.164013 -0.01245,2.147517 -0.537645,3.827149 -1.416112,4.528864 -0.739645,0.590829 -0.816253,0.869207 -0.816253,2.9661 0,2.244665 0.02173,2.308617 0.724944,2.132125 0.53471,-0.134202 0.971722,0.07563 1.66537,0.799644 l 0.940425,0.981594 -0.701814,0.701814 c -0.545027,0.545028 -0.787418,0.616212 -1.085002,0.318628 -0.297581,-0.297581 -0.512841,-0.26585 -0.963555,0.142041 -0.466538,0.422211 -0.580368,1.017603 -0.580368,3.035632 v 2.510404 h -0.906666 c -0.498668,0 -1.002668,-0.096 -1.12,-0.213335 z m 1.713232,-15.314576 c 0.471245,-0.567815 0.265719,-4.204615 -0.325068,-5.75209 -0.484317,-1.268602 -0.817565,-0.685706 -1.298932,2.272006 -0.512777,3.150705 0.35466,5.009543 1.624,3.480084 z m 17.486769,15.314576 c -0.117335,-0.117331 -0.213335,-0.809085 -0.213335,-1.537225 0,-1.092541 -0.19543,-1.513312 -1.118329,-2.407821 L 49.61399,51.214651 50.304345,50.4798 c 0.526304,-0.560224 0.792058,-0.650445 1.11833,-0.379664 0.352922,0.292899 0.427974,-0.266998 0.427974,-3.192736 0,-3.133347 -0.06965,-3.585203 -0.596112,-3.866954 -0.820364,-0.439046 -1.258899,-1.733254 -1.40656,-4.151056 -0.111318,-1.822758 -0.237168,-2.147747 -1.146236,-2.96 -0.561655,-0.501837 -1.234916,-0.912432 -1.496141,-0.912432 -0.329959,0 -0.474951,-0.343776 -0.474951,-1.126096 0,-1.065366 0.04746,-1.114922 0.88,-0.918893 0.484,0.113962 1.3325,0.478867 1.885556,0.810906 l 1.005552,0.603702 0.657555,-1.114473 c 1.150269,-1.94956 3.105664,-1.745133 3.930032,0.410864 0.156883,0.410307 0.392358,0.690956 0.523274,0.623667 1.889254,-0.971043 3.347347,-1.524608 3.601721,-1.367399 0.173972,0.10752 0.316311,0.607552 0.316311,1.111181 0,0.756413 -0.166304,0.952218 -0.9561,1.125683 -1.339827,0.294276 -2.242249,1.562426 -2.251536,3.164013 -0.01245,2.147517 -0.537644,3.827149 -1.416112,4.528864 -0.739644,0.590829 -0.816252,0.869207 -0.816252,2.9661 0,2.244665 0.02173,2.308617 0.724944,2.132125 0.53471,-0.134202 0.971721,0.07563 1.665369,0.799644 l 0.940426,0.981594 -0.701815,0.701814 c -0.545027,0.545028 -0.787417,0.616212 -1.085001,0.318628 -0.297581,-0.297581 -0.512842,-0.26585 -0.963555,0.142041 -0.466538,0.422211 -0.580368,1.017603 -0.580368,3.035632 v 2.510404 h -0.906666 c -0.498669,0 -1.002669,-0.096 -1.12,-0.213335 z M 53.70665,41.032958 c 0.684064,-0.684064 0.236236,-5.533821 -0.596212,-6.456704 -0.275344,-0.305254 -0.778905,1.357494 -1.102582,3.640704 -0.333184,2.350247 0.606646,3.908147 1.698794,2.816 z m -50.8160016,0.384 c 0,-0.883808 0.08889,-0.96 1.12,-0.96 1.031111,0 1.12,0.07619 1.12,0.96 0,0.883808 -0.08889,0.96 -1.12,0.96 -1.031112,0 -1.12,-0.07619 -1.12,-0.96 z m 61.7600016,0 c 0,-0.883808 0.08889,-0.96 1.12,-0.96 1.03111,0 1.12,0.07619 1.12,0.96 0,0.883808 -0.08889,0.96 -1.12,0.96 -1.031111,0 -1.12,-0.07619 -1.12,-0.96 z m -22.340276,-1.04 c 0.08817,-0.91447 0.225805,-1.052102 1.140275,-1.140275 0.99752,-0.09618 1.04,-0.0537 1.04,1.04 0,1.093699 -0.04658,1.140275 -1.140275,1.140275 -1.093699,0 -1.136179,-0.04248 -1.04,-1.04 z M 23.263982,40.243624 c -0.117333,-0.117331 -0.213333,-0.621331 -0.213333,-1.12 0,-0.822858 0.103529,-0.906666 1.12,-0.906666 1.066666,0 1.12,0.05333 1.12,1.12 0,1.016471 -0.08381,1.12 -0.906667,1.12 -0.498667,0 -1.002667,-0.096 -1.12,-0.213334 z M 2.8906484,37.076683 c 0,-1.093699 0.04248,-1.136179 1.04,-1.04 0.914472,0.08817 1.052103,0.225805 1.140274,1.140275 0.09618,0.99752 0.0537,1.04 -1.04,1.04 -1.093699,0 -1.140274,-0.04658 -1.140274,-1.140275 z m 61.8197266,0.100275 c 0.08817,-0.91447 0.225804,-1.052102 1.140275,-1.140275 0.99752,-0.09618 1.04,-0.0537 1.04,1.04 0,1.093699 -0.04658,1.140275 -1.140275,1.140275 -1.0937,0 -1.13618,-0.04248 -1.04,-1.04 z M 42.463984,37.043624 c -0.117335,-0.117332 -0.213335,-0.621332 -0.213335,-1.12 0,-0.822858 0.10353,-0.906666 1.12,-0.906666 1.066666,0 1.12,0.05333 1.12,1.12 0,1.01647 -0.08381,1.12 -0.906665,1.12 -0.498669,0 -1.002669,-0.096 -1.12,-0.213334 z M 2.8906484,32.957233 c 0,-1.0937 0.04658,-1.140275 1.140274,-1.140275 1.0937,0 1.136179,0.04248 1.04,1.04 -0.08817,0.91447 -0.225802,1.052102 -1.140274,1.140275 -0.997521,0.09618 -1.04,0.0537 -1.04,-1.04 z m 61.9733356,0.886391 c -0.117334,-0.117332 -0.213334,-0.621332 -0.213334,-1.12 0,-0.822856 0.103529,-0.906666 1.12,-0.906666 1.066666,0 1.12,0.05333 1.12,1.12 0,1.01647 -0.08381,1.12 -0.906666,1.12 -0.498669,0 -1.002669,-0.096 -1.12,-0.213334 z M 0.65064782,28.616958 v -0.96 H 34.890649 69.13065 v 0.96 0.96 H 34.890649 0.65064782 Z M 41.697356,17.665315 33.945715,9.9136706 29.830682,13.985315 c -2.263267,2.239403 -4.299193,4.071643 -4.52428,4.071643 -0.225087,0 -1.549293,-1.109429 -2.942679,-2.465398 l -2.53343,-2.465397 -4.234113,4.225397 c -2.328761,2.323969 -4.450342,4.225398 -4.714624,4.225398 -0.264281,0 -2.2761906,-1.8 -4.4709076,-4.000001 -3.18578,-3.193447 -4.168807,-4 -4.875199,-4 -0.76977958,0 -0.88480158,-0.124797 -0.88480158,-0.96 0,-0.914725 0.063568,-0.96 1.34788758,-0.96 1.153225,0 1.546308,0.194735 2.721791,1.348385 l 1.373904,1.348384 6.8152196,-6.7883849 c 3.748371,-3.7336113 6.941092,-6.78838448 7.094935,-6.78838448 0.153843,0 2.481506,2.18531638 5.172585,4.85625868 l 4.89287,4.8562587 1.751249,-1.6562584 c 0.963186,-0.910943 1.855496,-1.6562588 1.982904,-1.6562588 0.127411,0 2.079434,1.8282938 4.337827,4.0628752 l 4.10617,4.062874 3.473507,-3.422874 c 1.937258,-1.9090174 3.740023,-3.4228754 4.076106,-3.4228754 0.338595,0 2.107728,1.500464 4.038151,3.4249034 l 3.435555,3.424903 2.553427,-2.484856 c 2.118352,-2.061466 2.65161,-2.430713 3.129671,-2.167096 0.316934,0.174768 1.724553,1.479435 3.128048,2.89926 l 2.551801,2.581501 -0.711955,0.711958 -0.711958,0.711957 -2.238733,-2.221578 -2.238736,-2.221579 -6.179799,6.150314 c -3.398889,3.382672 -6.38776,6.150314 -6.641936,6.150314 -0.254176,0 -3.950378,-3.48824 -8.213783,-7.751643 z m 11.039614,-3.682344 -2.953988,-2.966321 -2.96632,2.953987 -2.96632,2.953986 2.953987,2.966321 2.953988,2.966321 2.96632,-2.953987 2.96632,-2.953986 z m -37.68152,1.012883 c 2.197359,-2.211607 4.254509,-4.164585 4.571443,-4.339953 0.478484,-0.264756 1.009578,0.102847 3.13049,2.166804 l 2.554246,2.485654 1.589828,-1.589829 1.589829,-1.589829 -4.322024,-4.3131284 -4.322024,-4.3131276 -6.151719,6.1517196 -6.1517196,6.1517194 1.581395,1.605537 c 0.869768,0.883045 1.6609696,1.605537 1.7582266,1.605537 0.09726,0 1.97467,-1.809497 4.172029,-4.021104 z M 40.35038,8.8322316 c -2.073952,-1.112272 -2.829581,-3.7567686 -1.633811,-5.717888 0.876208,-1.4370255 2.071066,-2.12405358 3.69408,-2.12405358 2.431955,0 4.106666,1.67470998 4.106666,4.10666668 0,3.2703329 -3.303245,5.2710893 -6.166935,3.7352749 z m 3.642125,-2.3664767 c 0.273978,-0.3911613 0.498144,-0.9938804 0.498144,-1.3393758 0,-0.8790937 -1.245702,-2.1094224 -2.135779,-2.1094224 -1.673882,0 -2.639555,2.3096698 -1.494624,3.574803 0.760848,0.8407267 2.504256,0.7705926 3.132259,-0.1260048 z m 18.54547,1.2919957 -1.754368,-1.659206 0.809584,-0.8095831 0.809584,-0.8095827 1.213302,1.1847581 1.213302,1.1847585 1.188858,-1.1888583 1.188858,-1.1888583 0.711862,0.7118615 0.711859,0.7118614 -1.739152,1.7610276 c -0.956534,0.9685653 -1.932691,1.7610273 -2.169238,1.7610273 -0.236547,0 -1.219552,-0.746643 -2.184451,-1.659206 z m -8.44834,-3.3018214 -1.739152,-1.7610277 0.706963,-0.7069629 0.706964,-0.706963 1.212483,1.1839598 1.212486,1.1839599 1.189664,-1.1896664 1.189667,-1.1896662 0.81449,0.8144909 0.814493,0.8144909 -1.754368,1.6592061 c -0.964899,0.9125633 -1.947904,1.6592062 -2.184451,1.6592062 -0.236548,0 -1.212704,-0.7924624 -2.169239,-1.7610276 z M 0.71037312,1.9769567 c 0.088171,-0.914472 0.2258028,-1.05210318 1.14027528,-1.14027478 0.99752,-0.096179 1.04,-0.0537 1.04,1.03999998 0,1.0936997 -0.04657,1.1402748 -1.140275,1.1402748 -1.09369988,0 -1.13617918,-0.042479 -1.04000028,-1.04 z m 4.42027528,-0.08 c 0,-1.03111118 0.07619,-1.12000008 0.96,-1.12000008 0.883809,0 0.96,0.088889 0.96,1.12000008 0,1.0311111 -0.07619,1.12 -0.96,1.12 -0.88381,0 -0.96,-0.088889 -0.96,-1.12 z m 4.16,-0.020275 c 0,-1.09369958 0.04248,-1.13617898 1.0399996,-1.03999998 0.914472,0.088171 1.052103,0.22580258 1.140275,1.14027458 0.09618,0.9975207 0.0537,1.04 -1.04,1.04 -1.0936996,0 -1.1402746,-0.046575 -1.1402746,-1.1402746 z"
     id="path20"
     inkscape:connector-curvature="0" />
</svg>
