<?xml version="1.0" encoding="UTF-8" standalone="no"?>
<!-- Created with Inkscape (http://www.inkscape.org/) -->

<svg
   xmlns:dc="http://purl.org/dc/elements/1.1/"
   xmlns:cc="http://creativecommons.org/ns#"
   xmlns:rdf="http://www.w3.org/1999/02/22-rdf-syntax-ns#"
   xmlns:svg="http://www.w3.org/2000/svg"
   xmlns="http://www.w3.org/2000/svg"
   xmlns:sodipodi="http://sodipodi.sourceforge.net/DTD/sodipodi-0.dtd"
   xmlns:inkscape="http://www.inkscape.org/namespaces/inkscape"
   version="1.1"
   id="svg10"
   width="266.66666"
   height="266.66666"
   viewBox="0 0 266.66666 266.66666"
   sodipodi:docname="82981-200.svg"
   inkscape:version="0.92.1 r15371">
  <metadata
     id="metadata16">
    <rdf:RDF>
      <cc:Work
         rdf:about="">
        <dc:format>image/svg+xml</dc:format>
        <dc:type
           rdf:resource="http://purl.org/dc/dcmitype/StillImage" />
        <dc:title></dc:title>
      </cc:Work>
    </rdf:RDF>
  </metadata>
  <defs
     id="defs14" />
  <sodipodi:namedview
     pagecolor="#ffffff"
     bordercolor="#666666"
     borderopacity="1"
     objecttolerance="10"
     gridtolerance="10"
     guidetolerance="10"
     inkscape:pageopacity="0"
     inkscape:pageshadow="2"
     inkscape:window-width="1366"
     inkscape:window-height="706"
     id="namedview12"
     showgrid="false"
     inkscape:zoom="2.0137501"
     inkscape:cx="133.33333"
     inkscape:cy="133.33333"
     inkscape:window-x="-8"
     inkscape:window-y="219"
     inkscape:window-maximized="1"
     inkscape:current-layer="svg10" />
  <path
     style="fill:#000000;stroke-width:1.33333325"
     d="m 201.69299,241.10394 -36.25986,-11.03975 -32.20523,9.7128 -32.20523,9.71282 -37.18348,-11.53186 -37.183477,-11.53186 -0.01809,-107.14265 c -0.01612,-95.393872 0.20448,-107.057241 2.011693,-106.363749 1.116385,0.428397 17.786564,5.570873 37.044844,11.427724 l 35.01504,10.648818 32.43724,-9.726172 32.43724,-9.726173 27.9815,8.423432 c 15.38983,4.632888 32.1229,9.65679 37.18459,11.164228 l 9.20307,2.740796 V 145.14922 c 0,59.00228 -0.45,107.21333 -1,107.13567 -0.55,-0.0776 -17.31693,-5.10908 -37.25985,-11.18095 z M 111.1761,224.24823 c -0.77675,-12.85789 -6.66353,-68.24983 -7.37571,-69.40215 -0.67,-1.08408 -9.40269,1.43808 -29.40031,8.49133 l -28.44723,10.03348 -0.372441,18.42183 c -0.204843,10.13199 0.118986,18.91325 0.719625,19.51389 0.600634,0.60062 13.068236,4.8806 27.705776,9.51102 24.94337,7.89058 26.94844,8.31962 31.94704,6.83586 2.97605,-0.88339 5.28468,-2.38848 5.22325,-3.40526 z m 110.11008,-21.74345 c 0,-12.79005 -0.45,-23.51381 -1,-23.83057 -0.55,-0.31676 -7.3,0.42896 -15,1.65715 l -14,2.23308 -0.37045,17.37125 -0.37047,17.37124 13.7038,4.13141 c 7.53708,2.27227 14.45378,4.17408 15.37045,4.22624 1.27325,0.0724 1.66667,-5.3944 1.66667,-23.1598 z m -71.43933,11.96503 c 8.74169,-2.61018 16.99169,-4.39739 18.33333,-3.97158 2.24776,0.71342 2.43933,-0.22961 2.43933,-12.00769 0,-12.55629 -0.0529,-12.77061 -3,-12.14117 -1.65,0.35241 -11.30662,1.964 -21.45916,3.58131 l -18.45915,2.94056 0.82183,7.44409 c 2.00662,18.17606 2.35652,19.92892 3.87653,19.42016 0.85431,-0.28594 8.70558,-2.6555 17.44729,-5.26568 z m 63.43933,-55.00741 7.33333,-1.05275 v -7.99177 -7.99179 l -42.5722,-0.35239 c -37.38381,-0.30944 -43.2944,-0.0765 -48.49809,1.91074 l -5.9259,2.26312 0.93333,12.7148 c 0.51333,6.99313 1.15967,13.08101 1.43631,13.52862 0.27664,0.44762 18.38078,-2.06384 40.23143,-5.581 21.85066,-3.51716 43.02845,-6.86857 47.06179,-7.44758 z M 62.60459,146.9351 c 12.03981,-4.12805 16.01493,-6.05421 16.01493,-7.76012 0,-1.994 -14.96235,-74.502696 -18.76763,-90.949399 -1.35308,-5.848104 -1.76555,-6.28384 -7.257258,-7.666667 -3.202449,-0.806386 -6.156943,-1.466157 -6.565542,-1.466157 -0.408599,0 -0.742907,25.499999 -0.742907,56.666665 0,31.166668 0.293283,56.666668 0.651739,56.666668 0.358456,0 7.858456,-2.47095 16.666668,-5.49099 z m 52.27614,-18.49756 c 11.84132,-4.18112 17.00132,-5.32435 24.07212,-5.33334 6.3371,-0.008 8.98233,-0.50457 8.94029,-1.67811 -0.0328,-0.91667 -2.63201,-18.46667 -5.77593,-39.000001 -5.0571,-33.028335 -5.98404,-37.285549 -8.03868,-36.918956 -1.27735,0.227905 -9.23436,2.509724 -17.68226,5.070706 l -15.3598,4.656334 -9.89673,-2.938014 c -5.4432,-1.615908 -10.1449,-2.689841 -10.44822,-2.386518 -0.30332,0.303321 3.30639,18.802631 8.02159,41.109576 4.71519,22.306953 8.57307,41.049063 8.57307,41.649143 0,1.77949 1.7955,1.34774 17.59455,-4.23082 z m 106.12819,-16.34478 0.38943,-10.33334 h -28.23966 -28.23966 l 0.89452,7.61096 c 0.49199,4.18603 1.24276,8.99849 1.6684,10.69435 l 0.77388,3.08339 26.18184,-0.36102 26.18184,-0.36101 z m -0.012,-45.239184 0.37748,-14.239178 -11.04414,-3.331108 C 161.96218,34.694624 165.62851,35.515865 159.0717,37.801584 l -3.94575,1.375494 3.00604,18.957839 c 1.65334,10.426811 3.03939,20.019318 3.08012,21.316682 0.0689,2.194449 2.14159,2.333833 29.74074,2 l 29.66666,-0.358843 0.37749,-14.23918 z"
     id="path20"
     inkscape:connector-curvature="0" />
</svg>
