<?xml version="1.0" encoding="UTF-8" standalone="no"?>
<!-- Created with Inkscape (http://www.inkscape.org/) -->

<svg
   xmlns:dc="http://purl.org/dc/elements/1.1/"
   xmlns:cc="http://creativecommons.org/ns#"
   xmlns:rdf="http://www.w3.org/1999/02/22-rdf-syntax-ns#"
   xmlns:svg="http://www.w3.org/2000/svg"
   xmlns="http://www.w3.org/2000/svg"
   xmlns:sodipodi="http://sodipodi.sourceforge.net/DTD/sodipodi-0.dtd"
   xmlns:inkscape="http://www.inkscape.org/namespaces/inkscape"
   version="1.1"
   id="svg10"
   width="100"
   height="100"
   viewBox="0 0 100 100"
   sodipodi:docname="icons8-Farm 2-100.svg"
   inkscape:version="0.92.1 r15371">
  <metadata
     id="metadata16">
    <rdf:RDF>
      <cc:Work
         rdf:about="">
        <dc:format>image/svg+xml</dc:format>
        <dc:type
           rdf:resource="http://purl.org/dc/dcmitype/StillImage" />
        <dc:title></dc:title>
      </cc:Work>
    </rdf:RDF>
  </metadata>
  <defs
     id="defs14" />
  <sodipodi:namedview
     pagecolor="#ffffff"
     bordercolor="#666666"
     borderopacity="1"
     objecttolerance="10"
     gridtolerance="10"
     guidetolerance="10"
     inkscape:pageopacity="0"
     inkscape:pageshadow="2"
     inkscape:window-width="1366"
     inkscape:window-height="706"
     id="namedview12"
     showgrid="false"
     inkscape:zoom="5.37"
     inkscape:cx="50"
     inkscape:cy="50"
     inkscape:window-x="-8"
     inkscape:window-y="219"
     inkscape:window-maximized="1"
     inkscape:current-layer="svg10" />
  <path
     style="fill:#000000"
     d="M 4.877055,95.745842 C 3.743974,94.612761 4.065212,26.200905 5.20032,26.90244 c 0.55,0.339919 1,-0.335081 1,-1.5 0,-1.164919 0.45,-1.839919 1,-1.5 0.55,0.339919 1,1.752231 1,3.138472 0,2.311082 0.269956,2.466106 3.25,1.866326 6.399672,-1.288031 6.75,-1.529136 6.75,-4.64551 0,-2.323193 0.397481,-2.930179 1.75,-2.672396 0.9625,0.183446 1.893798,1.341442 2.069551,2.573324 0.240833,1.688035 0.979853,2.236012 3,2.224471 3.404274,-0.01945 4.85056,-0.965284 5.328462,-3.484687 0.525997,-2.772953 3.279075,-2.514997 3.684011,0.345182 0.263868,1.863776 0.777054,2.225809 2.5,1.763654 1.192387,-0.31984 2.902992,-0.587671 3.801345,-0.595181 0.898352,-0.0075 1.868724,-0.913655 2.15638,-2.013655 0.674597,-2.579662 2.745905,-2.579662 3.420502,0 0.729127,2.788186 5.850371,2.788186 6.579498,0 0.674597,-2.579662 2.745905,-2.579662 3.420502,0 0.289465,1.106915 1.364016,2 2.40638,2 1.557347,0 1.883369,-0.756928 1.883369,-4.37264 0,-3.865185 0.493222,-4.825737 4.25,-8.276884 2.3375,-2.1473362 6.406599,-4.7241607 9.042443,-5.726278 4.723085,-1.7956624 4.86928,-1.7908456 10.101681,0.3328306 2.920081,1.1851741 6.956227,3.8415274 8.969207,5.9030084 l 3.65996,3.748144 -0.26164,39.94591 -0.26165,39.945909 -45.073265,0.260069 C 25.83676,96.305547 5.24926,96.118047 4.877055,95.745842 Z m 22.774404,-12.32163 c 2.723127,-4.902672 7.741781,-12.65071 11.152566,-17.217861 5.974553,-8.00012 20.68477,-23.07944 26.896295,-27.571167 l 3,-2.169384 -4.5,-0.01497 C 55.261993,36.421091 33.487718,50.311278 17.539548,66.216543 L 8.20032,75.530645 v 8.435898 8.435897 l 7.25,-0.03214 7.25,-0.03214 4.951139,-8.91395 z M 51.103336,86.15244 C 56.823588,71.211335 66.566601,54.634892 76.311761,43.263654 l 4.832444,-5.638787 -2.721943,-0.520439 C 74.938871,36.438398 65.929308,42.70571 55.779933,52.855085 45.556843,63.078175 38.601352,72.410433 29.844871,87.65244 l -2.728859,4.75 h 10.797246 10.797245 z m 22.757538,0.25 c 2.327987,-9.249252 9.424907,-30.008802 13.435727,-39.301512 3.25289,-7.536658 3.57126,-8.888835 2.21534,-9.409148 -0.87091,-0.334199 -2.309801,-0.162491 -3.197544,0.381573 -2.725103,1.670115 -16.507164,19.891732 -21.048033,27.828148 -3.704281,6.474247 -12.066044,24.529136 -12.066044,26.053247 0,0.286064 4.337152,0.391321 9.638116,0.233904 L 72.476553,91.90244 Z M 92.200321,69.235773 c 0,-12.741666 -0.17606,-22.979166 -0.39125,-22.75 -1.05833,1.127103 -10.748468,28.555806 -12.953761,36.666667 l -2.515017,9.25 h 7.930013 7.930015 z M 37.949128,44.318706 48.70032,37.16033 43.437432,37.817538 C 35.44169,38.816012 21.484054,43.140527 14.734825,46.710509 L 8.70032,49.90244 8.412242,59.807083 8.124165,69.711725 17.661051,60.594403 C 22.906338,55.579876 32.035973,48.255812 37.949128,44.318706 Z M 18.20032,35.778605 c 0,-3.567903 -0.31824,-4.468022 -1.428986,-4.041789 -0.785943,0.301594 -3.035943,0.84982 -5,1.21828 L 8.20032,33.625022 v 5.905555 5.905555 l 5,-2.533692 c 4.905816,-2.485965 5,-2.620155 5,-7.123835 z m 11.25,0.947221 c 0.4125,-0.242781 0.75,-2.038007 0.75,-3.989392 0,-2.824443 -0.32257,-3.42419 -1.581787,-2.940983 -0.869984,0.333844 -2.669984,0.606989 -4,0.606989 -2.162432,0 -2.418213,0.431496 -2.418213,4.079455 0,4.078781 5.37e-4,4.07934 3.25,3.382403 1.7875,-0.383379 3.5875,-0.895691 4,-1.138472 z m 11,-2.309731 c 1.274743,-0.0099 1.75,-0.828381 1.75,-3.013655 0,-3.23384 -0.16904,-3.316192 -4.875,-2.375 -2.664336,0.532867 -3.125,1.066004 -3.125,3.616631 0,2.614426 0.283696,2.915604 2.25,2.388655 1.2375,-0.331637 3.0375,-0.609121 4,-0.616631 z M 90.491091,15.131851 C 89.506171,14.021854 86.349667,12.06456 83.476646,10.78231 L 78.252972,8.4509457 73.476646,10.494043 c -8.265114,3.535442 -9.276326,5.070597 -9.276326,14.082711 0,7.092265 0.182762,7.825686 1.950096,7.825686 1.672592,0 1.992773,-0.818241 2.25,-5.75 l 0.299904,-5.75 h 9.5 9.500001 l 0.29604,6.185543 c 0.23376,4.884202 0.65453,6.255117 2,6.516241 1.47843,0.286928 1.74244,-0.780101 1.99473,-8.061748 0.23985,-6.922487 -0.0229,-8.745935 -1.5,-10.410625 z m -13.844622,0.183457 c -1.030521,-1.667418 1.287209,-3.579509 2.666719,-2.199999 1.153924,1.153924 0.431721,3.287131 -1.112868,3.287131 -0.485081,0 -1.184314,-0.48921 -1.553851,-1.087132 z M 51.45032,32.416095 c 0.4125,-0.0075 0.75,-0.913655 0.75,-2.013655 0,-1.555556 -0.666667,-2 -3,-2 -2.568992,0 -3,0.37593 -3,2.616631 0,2.225537 0.336296,2.526508 2.25,2.013655 1.2375,-0.331637 2.5875,-0.609121 3,-0.616631 z m 32.75,-3.513655 v -4.5 h -6 -6 v 3.936642 c 0,3.691939 0.20202,3.961711 3.25,4.339962 8.88823,1.10302 8.75,1.162682 8.75,-3.776604 z m -24,1.5 c 0,-1.333333 -0.666667,-2 -2,-2 -1.333333,0 -2,0.666667 -2,2 0,1.333333 0.666667,2 2,2 1.333333,0 2,-0.666667 2,-2 z"
     id="path20"
     inkscape:connector-curvature="0" />
</svg>
