<?xml version="1.0" encoding="UTF-8" standalone="no"?>
<!-- Created with Inkscape (http://www.inkscape.org/) -->

<svg
   xmlns:dc="http://purl.org/dc/elements/1.1/"
   xmlns:cc="http://creativecommons.org/ns#"
   xmlns:rdf="http://www.w3.org/1999/02/22-rdf-syntax-ns#"
   xmlns:svg="http://www.w3.org/2000/svg"
   xmlns="http://www.w3.org/2000/svg"
   xmlns:sodipodi="http://sodipodi.sourceforge.net/DTD/sodipodi-0.dtd"
   xmlns:inkscape="http://www.inkscape.org/namespaces/inkscape"
   version="1.1"
   id="svg4485"
   width="721.5484"
   height="619.15594"
   viewBox="0 0 721.5484 619.15594"
   sodipodi:docname="lpis_final.svg"
   inkscape:version="0.92.1 r15371">
  <metadata
     id="metadata4491">
    <rdf:RDF>
      <cc:Work
         rdf:about="">
        <dc:format>image/svg+xml</dc:format>
        <dc:type
           rdf:resource="http://purl.org/dc/dcmitype/StillImage" />
        <dc:title></dc:title>
      </cc:Work>
    </rdf:RDF>
  </metadata>
  <defs
     id="defs4489" />
  <sodipodi:namedview
     pagecolor="#ffffff"
     bordercolor="#666666"
     borderopacity="1"
     objecttolerance="10"
     gridtolerance="10"
     guidetolerance="10"
     inkscape:pageopacity="0"
     inkscape:pageshadow="2"
     inkscape:window-width="1920"
     inkscape:window-height="1017"
     id="namedview4487"
     showgrid="false"
     inkscape:zoom="0.86730977"
     inkscape:cx="173.41323"
     inkscape:cy="309.57797"
     inkscape:window-x="1432"
     inkscape:window-y="-8"
     inkscape:window-maximized="1"
     inkscape:current-layer="svg4485" />
  <path
     style="fill:rgb(249, 235, 210);stroke-width:0.95349079;fill-opacity:0.96862745"
     d="m 648.53671,590.84427 c -5.10968,-1.66392 -14.4,-4.58274 -20.64516,-6.48628 -6.24516,-1.90354 -29.93548,-9.26003 -52.64516,-16.34776 -22.70968,-7.08772 -46.4,-14.44791 -52.64516,-16.35597 -6.24517,-1.90805 -23.85876,-7.35139 -39.14132,-12.0963 l -27.78649,-8.62711 -22.27803,6.9286 c -12.25292,3.81074 -28.54901,8.84918 -36.21352,11.19654 -7.66452,2.34736 -20.90323,6.42947 -29.41936,9.07136 -8.51613,2.64189 -28.95484,8.97197 -45.41935,14.06685 -16.46452,5.09488 -37.17771,11.51367 -46.02932,14.26398 l -16.09382,5.00057 -36.03521,-11.18292 c -58.22142,-18.06804 -61.71101,-19.14933 -87.6481,-27.15902 -13.6258,-4.20781 -27.79355,-8.6274 -31.48387,-9.82129 -3.69032,-1.19391 -16.23226,-5.10096 -27.87097,-8.68234 L 56.02058,528.10158 55.76073,276.13069 C 55.61782,137.5467 55.89678,24.159793 56.38064,24.159793 c 0.48386,0 11.74917,3.397357 25.03403,7.549681 13.28486,4.152325 29.03172,9.045397 34.99301,10.873492 5.96129,1.828096 40.36274,12.500463 76.44766,23.716373 36.08494,11.215908 66.38124,20.392561 67.32512,20.392561 0.94389,0 5.56179,-1.222751 10.26201,-2.717225 4.70021,-1.494473 12.26198,-3.838667 16.80391,-5.20932 4.54194,-1.370653 14.06452,-4.34248 21.16129,-6.60406 7.09678,-2.261581 15.92258,-5.03789 19.61291,-6.169576 3.69032,-1.131686 12.98064,-4.028168 20.64516,-6.436627 17.67718,-5.554787 75.72487,-23.683216 93.62804,-29.240253 l 13.62804,-4.230063 25.08163,7.846873 c 13.79491,4.315781 28.101,8.812948 31.79132,9.993705 3.69033,1.180758 11.35484,3.599982 17.03226,5.376055 5.67742,1.776074 14.50323,4.545812 19.61291,6.154974 15.91615,5.012384 37.76926,11.854039 48,15.027583 5.39354,1.673062 12.8258,4.002453 16.51613,5.176426 3.69032,1.173972 13.2129,4.1518 21.16129,6.617395 7.94838,2.465595 16.89032,5.306112 19.87096,6.312262 l 5.41936,1.829373 V 342.20702 c 0,200.87628 -0.2609,251.77496 -1.29032,251.72508 -0.70968,-0.0344 -5.47097,-1.42391 -10.58065,-3.08783 z M 252.66574,417.31057 V 266.27174 l -3.81329,-1.35942 c -2.0973,-0.74768 -10.80698,-3.47004 -19.35484,-6.04968 -8.54785,-2.57964 -21.95905,-6.66123 -29.80265,-9.0702 l -14.26109,-4.37994 -1.02516,2.32777 c -0.56384,1.28028 -9.7919,21.74795 -20.50683,45.48373 -10.71491,23.73578 -19.96021,44.2317 -20.54511,45.54648 -1.18756,2.66946 -2.54935,1.87013 31.88961,18.71856 7.66452,3.74968 14.99506,7.68934 16.29009,8.75481 5.01345,4.12473 5.41196,2.80065 -26.03015,86.48696 -16.21714,43.16362 -29.48574,78.86301 -29.48574,79.33199 0,0.46899 4.76129,2.34855 10.58065,4.17681 5.81935,1.82826 14.99354,4.71413 20.38709,6.41306 5.39354,1.69893 13.98709,4.40188 19.09677,6.00658 5.10968,1.6047 13.70323,4.30844 19.09677,6.00832 5.39355,1.69988 16.30968,5.11764 24.25807,7.59502 7.94839,2.47738 16.07742,5.0407 18.06452,5.69626 1.98709,0.65556 3.96129,1.01161 4.38709,0.79123 0.42581,-0.22038 0.7742,-68.36816 0.7742,-151.43951 z m 31.73367,147.17926 c 5.54003,-1.66559 16.80826,-5.14849 25.04052,-7.73976 l 14.96774,-4.71142 -0.3362,-22.83852 c -0.73568,-49.97405 6.0996,-83.70981 21.29859,-105.11991 4.1117,-5.79194 12.33084,-13.41053 17.01415,-15.77093 2.15076,-1.084 2.74706,-1.92267 2.29576,-3.22895 -2.86435,-8.29095 -4.84585,-16.09199 -5.69696,-22.42851 -0.57116,-4.25227 -1.01369,-36.47711 -1.01848,-74.16432 l -0.008,-66.64476 -44.1295,12.55429 -44.12904,12.55428 -0.26497,150.09046 c -0.14573,82.54976 -0.0365,150.60297 0.24275,151.22936 0.38243,0.85786 1.01892,0.90547 2.57929,0.19297 1.13937,-0.52026 6.60433,-2.30869 12.14435,-3.97428 z m 356.66398,-76.2765 c -1.03929,-0.84716 -37.75219,-11.2848 -53.42991,-15.19036 -40.17771,-10.0089 -84.40513,-17.06596 -115.35484,-18.40637 l -6.96774,-0.30178 v 30.01322 30.01322 l 22.45161,6.93266 c 29.14124,8.99829 45.61591,14.12232 53.93549,16.77526 3.69032,1.17677 18.32258,5.72242 32.51613,10.10145 14.19355,4.37903 35.09677,10.8423 46.45161,14.36283 l 20.64516,6.40094 0.26862,-40.0307 c 0.14773,-22.01689 -0.0845,-40.31856 -0.51613,-40.67037 z M 388.9238,531.73392 c 22.42581,-7.00811 44.83871,-13.96788 49.80646,-15.46615 l 9.03225,-2.72414 v -30.13189 -30.1319 l -8.18712,-1.02138 c -24.43197,-3.04804 -41.25172,-10.17672 -55.91266,-23.69735 l -7.55885,-6.97094 -3.93747,2.22321 c -7.44528,4.20383 -15.40755,15.71778 -19.78788,28.61458 -3.3089,9.74224 -6.4921,26.50652 -7.80763,41.11887 -1.20103,13.34054 -1.4511,50.50494 -0.34617,51.44767 0.39615,0.338 1.44131,0.35959 2.32258,0.048 0.88126,-0.31161 19.95069,-6.30046 42.37649,-13.30857 z m -270.4516,-5.07076 c 0,-0.21764 12.55252,-33.77778 27.89451,-74.57808 15.34197,-40.80031 27.53552,-74.44879 27.09676,-74.77439 -0.43876,-0.32561 -21.00418,-10.40803 -45.70095,-22.40539 -24.69678,-11.99736 -46.68779,-22.78766 -48.86892,-23.97846 -2.18112,-1.19078 -4.15532,-2.00327 -4.38709,-1.80552 -0.23178,0.19776 -0.42142,41.59544 -0.42142,91.99483 0,72.27136 0.27267,91.81346 1.29033,92.47847 0.70967,0.46376 4.77419,1.89726 9.03226,3.18555 4.25806,1.28829 13.31613,4.09287 20.12903,6.2324 12.80528,4.02138 13.93549,4.31744 13.93549,3.65059 z M 641.82703,325.726 V 183.40232 l -50.01948,57.9934 -50.01948,57.99342 -0.0346,72.22018 -0.0346,72.22018 14.69921,2.94176 c 19.29438,3.86141 45.68695,10.29074 66.82826,16.27964 9.36774,2.65369 17.38064,4.86401 17.80645,4.91184 0.42581,0.0478 0.77419,-63.95872 0.77419,-142.23674 z m -118.70968,41.97735 c 0,-40.77572 0.4074,-73.94432 0.9222,-75.08257 0.50722,-1.12144 12.11665,-14.91972 25.79874,-30.66283 13.6821,-15.74312 24.88,-29.0713 24.88426,-29.6182 0.004,-0.54688 -13.82707,-20.33693 -30.73623,-43.9779 l -30.74395,-42.98357 -24.22379,-5.97492 c -13.3231,-3.2862 -24.34127,-5.98789 -24.48482,-6.00374 -0.14356,-0.0159 -0.14356,67.84273 0,150.79686 l 0.26101,150.82568 4.64516,0.2242 c 10.23616,0.49405 37.27827,2.99836 44.47728,4.11894 4.20846,0.65509 8.00014,1.23394 8.42595,1.28634 0.42581,0.0524 0.77419,-32.77433 0.77419,-72.94829 z m -76.38709,-83.4329 c 0,-119.82156 -0.26103,-150.11528 -1.29033,-149.75211 -21.6229,7.6293 -46.3075,16.39606 -51.87097,18.42201 -9.96111,3.62737 -14.13372,4.57982 -17.19347,3.92459 -1.99207,-0.42658 -9.32438,-8.65197 -30.70097,-34.4404 L 317.59068,88.544577 307.57982,91.54404 c -5.50597,1.649702 -16.28182,4.959007 -23.94634,7.354004 l -13.93549,4.354536 -0.26406,72.30681 c -0.14524,39.76875 -0.12621,72.30681 0.0423,72.30681 0.16848,0 22.51439,-6.33097 49.65758,-14.06882 46.85523,-13.35728 49.49632,-14.00482 52.21972,-12.80322 1.57768,0.69609 3.27317,1.97385 3.76778,2.83947 0.4946,0.86563 1.14256,37.04542 1.4399,80.39954 0.53642,78.21176 0.55859,78.88017 2.84717,85.82046 6.98146,21.17184 23.4027,36.05416 46.1606,41.83462 7.32256,1.85992 18.97016,3.52906 20.38709,2.92153 0.42581,-0.18257 0.7742,-67.92527 0.7742,-150.53933 z m -300.26846,3.1831 c 11.24344,-24.92167 20.4615,-45.74409 20.48456,-46.27205 0.023,-0.52796 -8.43546,-3.57385 -18.79674,-6.76863 -10.36129,-3.19479 -30.99378,-9.59952 -45.84997,-14.23273 -14.85619,-4.63322 -27.28199,-8.42403 -27.6129,-8.42403 -0.33091,0 -0.60166,21.73955 -0.60166,48.3101 v 48.31009 l 25.03227,12.39712 c 13.76774,6.81841 25.45291,12.30602 25.96704,12.19468 0.51412,-0.11133 10.13396,-20.59288 21.3774,-45.51455 z m 103.88739,-112.40865 -0.2641,-71.94055 -14.96774,-4.689538 c -49.24176,-15.427914 -91.7015,-28.456856 -92.73748,-28.456856 -0.86459,0 -1.22275,4.718433 -1.28694,16.954128 -0.0489,9.32477 -0.65192,41.328436 -1.34,71.119256 -0.68808,29.79083 -1.17514,54.27689 -1.08238,54.41346 0.19197,0.28261 32.26064,10.26376 62.89841,19.57669 11.35484,3.45152 26.68387,8.1887 34.06452,10.52706 7.38064,2.33837 13.77046,4.29328 14.19959,4.34425 0.42912,0.051 0.66137,-32.28058 0.51612,-71.8479 z m 364.54955,11.83048 26.86687,-31.04587 -0.22735,-26.36286 -0.22736,-26.36286 -14.96774,-4.695601 C 618.1109,95.825604 599.06574,89.900255 584.02058,85.240753 568.97542,80.581247 550.62703,74.898775 543.24639,72.613039 c -7.38065,-2.285737 -27.62129,-8.574167 -44.9792,-13.97429 -17.35792,-5.400124 -31.87964,-9.818407 -32.27049,-9.818407 -0.39084,0 -0.58891,14.920037 -0.44015,33.155637 l 0.27048,33.155631 5.16129,1.29751 c 2.83871,0.71363 15.3009,3.79329 27.69377,6.8437 12.39287,3.0504 23.43269,6.24128 24.53296,7.09083 1.10025,0.84957 15.80749,20.89757 32.68273,44.55113 16.87526,23.65356 31.00894,43.00647 31.40819,43.00647 0.39925,0 12.81599,-13.97064 27.59277,-31.04587 z m -493.27002,6.16514 c 0.0328,-7.38716 0.66206,-39.39083 1.3982,-71.11927 0.73615,-31.728432 1.21001,-57.822279 1.05305,-57.986318 -0.57513,-0.601034 -47.80094,-15.11459 -49.18152,-15.11459 -0.44735,0 -0.81336,32.258881 -0.81336,71.686398 v 71.68641 l 21.93549,7.04886 c 12.06452,3.87687 22.74839,7.08955 23.74194,7.13928 1.64365,0.0823 1.81184,-1.12003 1.8662,-13.34077 z m 294.37166,-66.97429 30.68946,-10.75048 0.0202,-32.954125 c 0.0111,-18.124769 -0.16385,-33.111162 -0.3888,-33.303095 -0.38577,-0.329139 -8.51509,2.112831 -38.81681,11.6602 -15.33636,4.832132 -24.96988,7.846077 -50.86341,15.91314 -13.17913,4.105926 -19.21999,6.392387 -18.88087,7.146399 0.27427,0.609814 10.38747,13.013183 22.47378,27.563041 15.85572,19.08758 22.40699,26.31799 23.52602,25.96483 0.85302,-0.26919 15.36119,-5.32715 32.24041,-11.23991 z"
     id="path4495"
     inkscape:connector-curvature="0" />
</svg>
