<?xml version="1.0" encoding="UTF-8" standalone="no"?>
<!-- Created with Inkscape (http://www.inkscape.org/) -->

<svg
   xmlns:dc="http://purl.org/dc/elements/1.1/"
   xmlns:cc="http://creativecommons.org/ns#"
   xmlns:rdf="http://www.w3.org/1999/02/22-rdf-syntax-ns#"
   xmlns:svg="http://www.w3.org/2000/svg"
   xmlns="http://www.w3.org/2000/svg"
   xmlns:sodipodi="http://sodipodi.sourceforge.net/DTD/sodipodi-0.dtd"
   xmlns:inkscape="http://www.inkscape.org/namespaces/inkscape"
   version="1.1"
   id="svg10"
   width="720.51611"
   height="621.33331"
   viewBox="0 0 720.51611 621.33331"
   sodipodi:docname="noun_629597_cc.svg"
   inkscape:version="0.92.1 r15371">
  <metadata
     id="metadata16">
    <rdf:RDF>
      <cc:Work
         rdf:about="">
        <dc:format>image/svg+xml</dc:format>
        <dc:type
           rdf:resource="http://purl.org/dc/dcmitype/StillImage" />
        <dc:title></dc:title>
      </cc:Work>
    </rdf:RDF>
  </metadata>
  <defs
     id="defs14" />
  <sodipodi:namedview
     pagecolor="#ffffff"
     bordercolor="#666666"
     borderopacity="1"
     objecttolerance="10"
     gridtolerance="10"
     guidetolerance="10"
     inkscape:pageopacity="0"
     inkscape:pageshadow="2"
     inkscape:window-width="1366"
     inkscape:window-height="706"
     id="namedview12"
     showgrid="false"
     inkscape:zoom="0.86427041"
     inkscape:cx="360.25806"
     inkscape:cy="310.66666"
     inkscape:window-x="-8"
     inkscape:window-y="219"
     inkscape:window-maximized="1"
     inkscape:current-layer="svg10" />
  <path
     style="fill:#000000;stroke-width:0.95789492"
     d="m 338.46808,586.33121 c -4.25807,-0.16565 -11.14509,-0.77253 -15.3045,-1.34863 -6.84075,-0.94747 -7.51004,-1.22039 -7.01224,-2.85956 1.3207,-4.34895 50.76579,-118.80181 51.32394,-118.80195 0.34106,-8e-5 7.54106,4.27183 16,9.49312 8.45894,5.2213 38.14118,23.06263 65.96054,39.64739 27.81935,16.58475 51.27742,30.73492 52.12903,31.44482 1.36932,1.14145 1.13057,1.58672 -2.06452,3.85035 -5.71039,4.04565 -31.36832,16.33846 -44.4162,21.27997 -28.38849,10.75132 -58.49898,16.51539 -89.77734,17.18615 -10.50323,0.22524 -22.58065,0.274 -26.83871,0.10834 z m -65.54839,-12.07392 c -8.77915,-2.61742 -32.55671,-12.51444 -44.43301,-18.4945 -12.53533,-6.31191 -26.61055,-15.07002 -37.6315,-23.41569 -7.92863,-6.004 -23.819,-19.50944 -27.5634,-23.42651 l -3.56907,-3.73365 23.96486,-28.93301 c 13.18068,-15.91315 24.24999,-28.91837 24.59849,-28.9005 0.3485,0.0179 9.92396,4.15501 21.2788,9.19361 l 20.64516,9.16111 11.99717,24.80638 c 6.59845,13.64352 15.54038,31.58358 19.87096,39.86681 4.3306,8.28323 7.8738,15.62659 7.8738,16.31859 0,2.52419 -11.6999,28.61894 -12.80111,28.55081 -0.62391,-0.0386 -2.52792,-0.48564 -4.23115,-0.99345 z m 22.22319,-60.93461 c -13.10899,-25.02697 -25.84261,-50.42715 -25.59194,-51.04904 0.14958,-0.3711 10.02682,-6.20632 21.9494,-12.96716 34.48732,-19.55645 41.22645,-23.28171 42.28419,-23.37382 0.54663,-0.0476 2.00383,2.24528 3.23821,5.0953 l 2.24436,5.18185 -18.75838,43.29051 c -10.31711,23.80978 -19.01393,43.51057 -19.32628,43.77953 -0.31235,0.26896 -3.03015,-4.21176 -6.03956,-9.95717 z m 175.45423,-31.01785 c -34.91613,-20.82641 -63.71613,-38.05519 -64,-38.28616 -0.53947,-0.43894 70.83925,-61.24774 80.23783,-68.35604 l 5.39912,-4.08344 41.56862,19.32698 c 34.095,15.8522 72.51954,33.89157 73.86484,34.67774 0.16293,0.0952 -2.4668,5.43156 -5.84385,11.85855 -8.17993,15.56758 -19.69777,33.01422 -30.66151,46.44447 -12.1994,14.94393 -33.42985,36.34991 -36.00579,36.3035 -0.59146,-0.0107 -29.64313,-17.05917 -64.55926,-37.8856 z m -338.83874,-9.30545 c -7.02857,-9.58582 -17.27603,-26.3668 -22.40798,-36.69471 -2.88923,-5.8145 -5.12616,-10.66169 -4.97096,-10.77153 0.15521,-0.10985 21.8822,-10.09637 48.2822,-22.19227 26.4,-12.0959 52.37449,-24.04871 57.7211,-26.5618 5.34661,-2.51309 9.87564,-4.46925 10.06452,-4.34703 0.18887,0.12222 0.45954,0.36847 0.60148,0.54722 0.14193,0.17874 -3.65495,5.07874 -8.43753,10.88888 -4.78257,5.81015 -23.54198,28.7639 -41.68759,51.00834 -18.1456,22.24444 -33.59082,40.99975 -34.32271,41.67845 -1.11352,1.03262 -1.90385,0.45234 -4.84253,-3.55555 z m 106.06455,-32.61579 c -9.65161,-4.25114 -17.54839,-7.98075 -17.54839,-8.28803 0,-0.30729 8.33539,-10.80729 18.5231,-23.33334 17.19132,-21.13717 18.74988,-22.77983 21.67742,-22.84693 1.73487,-0.0397 14.87868,-0.53977 29.20844,-1.11111 22.95048,-0.91507 26.12762,-0.87998 26.6711,0.29452 2.81609,6.08574 9.72639,22.45671 9.72639,23.04248 0,0.84095 -68.49614,40.09425 -69.83433,40.02019 -0.48143,-0.0267 -8.77212,-3.52665 -18.42373,-7.77778 z m 142.75585,-11.89578 -7.86906,-4.61088 -8.82893,-20.50023 c -4.8559,-11.27512 -10.28537,-23.96634 -12.06547,-28.20272 l -3.23656,-7.7025 38.45286,-57.18639 c 21.14907,-31.45251 39.48714,-58.58638 40.75126,-60.29749 1.71283,-2.31847 3.86773,-3.6253 8.45794,-5.12929 l 6.15954,-2.01818 10.74353,3.61818 c 5.90896,1.99 13.61586,4.64687 17.12646,5.90416 l 6.3829,2.28598 0.56198,5.44735 c 0.30909,2.99605 1.03894,20.84735 1.6219,39.66957 0.58294,18.82223 1.33191,39.22223 1.66437,45.33334 l 0.60447,11.11111 -45.4702,38.44444 c -25.00861,21.14444 -45.85669,38.44444 -46.32908,38.44444 -0.47237,0 -4.39993,-2.0749 -8.72791,-4.61089 z m 209.24414,-30.58378 c -13.05806,-6.13322 -30.70968,-14.46077 -39.2258,-18.50568 -8.51613,-4.04491 -23.45477,-11.06963 -33.19697,-15.6105 l -17.7131,-8.25612 -0.59151,-9.88318 c -0.85043,-14.20969 -3.49095,-83.61137 -3.19301,-83.9235 0.13784,-0.1444 4.13921,1.10321 8.89195,2.77246 4.75274,1.66925 17.00264,5.85697 27.22199,9.30603 10.21935,3.44905 28.8,9.73409 41.29032,13.96674 12.49032,4.23266 31.21358,10.56309 41.60724,14.06764 l 18.89754,6.3719 -0.6686,12.88889 c -0.94656,18.24705 -4.97536,44.38374 -9.30993,60.39791 -4.0932,15.12237 -8.41348,27.61386 -9.5389,27.58039 -0.40111,-0.0119 -11.41316,-5.03976 -24.47122,-11.17298 z m -495.46732,3.23743 c -4.199236,-10.85788 -9.590529,-31.62691 -12.586472,-48.4872 -2.422296,-13.63198 -2.696325,-17.7793 -2.799531,-42.37 -0.06293,-14.99238 0.211813,-27.53995 0.610523,-27.8835 0.39871,-0.34354 8.452816,4.32296 17.89801,10.37 9.4452,6.04704 26.07382,16.69932 36.95249,23.67172 10.87868,6.9724 30.57941,19.56742 43.77941,27.9889 13.2,8.42149 23.98318,15.51679 23.96264,15.76733 -0.0431,0.52501 -101.75444,47.4289 -103.73464,47.83692 -0.82275,0.16953 -2.34438,-2.40013 -4.08243,-6.89417 z m 163.02807,-53.59831 c 0.27682,-1.1 1.95366,-12 3.72631,-24.22222 2.83749,-19.56415 3.48961,-22.44 5.45185,-24.04292 1.22586,-1.00139 6.75194,-5.57008 12.28017,-10.15263 9.91982,-8.22289 10.09542,-8.31947 13.41936,-7.38116 5.70178,1.60955 54.93126,19.00221 55.77525,19.70526 0.65854,0.54857 -26.60511,42.37988 -29.25418,44.88541 -0.84083,0.79528 -40.372,3.09905 -54.39852,3.1702 -7.25198,0.0368 -7.48667,-0.029 -7.00024,-1.96194 z m -23.17364,-9.87936 c -3.12258,-2.04058 -19.95876,-12.83719 -37.41375,-23.99246 -17.45498,-11.15527 -32.01394,-20.6691 -32.35323,-21.14186 -0.3393,-0.47274 2.98943,-5.4252 7.39717,-11.00544 l 8.0141,-10.1459 17.11333,7.66107 c 24.27602,10.86755 47.95142,21.73468 48.82716,22.41191 0.65895,0.50957 -4.75311,38.96605 -5.58027,39.6517 -0.1799,0.14913 -2.88193,-1.39843 -6.00451,-3.43902 z m -4.64516,-63.70318 c -13.62581,-6.25047 -28.83871,-13.21294 -33.80646,-15.47218 l -9.03225,-4.10769 v -5.64102 c 0,-9.97539 0.40655,-10.67597 9.16065,-15.78553 4.32938,-2.52696 13.67806,-8.02143 20.77483,-12.20993 31.18484,-18.40523 40.76327,-23.95125 41.00552,-23.74265 0.14235,0.12258 4.66045,15.88456 10.04022,35.02663 l 9.78141,34.80375 -10.88442,9.13336 c -5.98644,5.02335 -11.19512,9.18429 -11.57487,9.24655 -0.37974,0.0622 -11.83883,-5.00083 -25.46463,-11.25129 z m 96.57581,0.52075 c -16.71556,-5.97311 -30.76767,-11.42775 -31.2269,-12.12142 -0.45923,-0.69368 -5.68107,-18.72932 -11.60408,-40.0792 l -10.76912,-38.81797 1.87044,-4.24312 1.87043,-4.2431 33.66801,-16.66784 c 29.14134,-14.42684 33.79222,-16.46526 34.59182,-15.16113 17.00731,27.73849 51.74868,86.95315 51.52422,87.82005 -0.1689,0.6523 -8.43612,13.18971 -18.37161,27.86091 -11.44595,16.90164 -18.63182,26.64526 -19.6129,26.59397 -0.85161,-0.0445 -15.22475,-4.96804 -31.94031,-10.94115 z M 121.08602,264.5273 C 106.94293,255.41303 93.449049,246.62289 91.099617,244.99366 l -4.271695,-2.96222 2.052831,-8.24414 c 1.97957,-7.94994 13.317037,-39.00508 15.124527,-41.42852 0.6557,-0.87913 9.15484,4.6188 32.97875,21.33334 l 32.0954,22.5177 0.0491,9.90397 0.0491,9.90397 -10.35143,12.54047 c -5.69323,6.89726 -10.72807,12.54048 -11.18845,12.54048 -0.4604,0 -12.4087,-7.45714 -26.5518,-16.57141 z m 507.44657,3.42982 c -4.4106,-1.29254 -100.52697,-34.01589 -100.92853,-34.36167 -0.7378,-0.63534 61.96833,-73.34919 62.84958,-72.88019 2.90099,1.5439 18.43908,32.40165 25.03436,49.71678 5.29115,13.89128 11.26271,35.26959 13.6086,48.71902 0.85096,4.87872 1.42058,8.95801 1.26579,9.06511 -0.15478,0.10709 -0.97819,-0.01 -1.8298,-0.25905 z m -138.5393,-46.71921 c -8.91921,-3.05222 -16.50132,-5.79455 -16.84916,-6.09407 -0.49438,-0.42572 71.15563,-104.04 73.78269,-106.69836 0.86929,-0.87965 11.87737,10.58938 23.09905,24.0663 7.04897,8.46562 8.96557,11.3734 8.28943,12.57637 -2.47736,4.40769 -69.23246,81.7105 -70.5569,81.70531 -0.85162,-0.004 -8.84592,-2.50334 -17.76511,-5.55555 z M 145.01956,198.37712 c -17.9388,-12.74131 -32.61599,-23.45469 -32.61599,-23.8075 0,-0.35282 4.30817,-7.2281 9.57371,-15.27842 11.41267,-17.44848 23.41013,-32.42148 36.65667,-45.74804 9.5841,-9.642 30.1334,-27.024791 37.60177,-31.80757 l 3.83215,-2.454132 1.49001,2.019742 c 0.8195,1.110857 14.08411,21.38736 29.47689,45.05892 l 27.98688,43.03917 -1.66848,3.76209 c -1.22259,2.75666 -3.08973,4.59797 -6.98647,6.88981 -29.74469,17.49414 -71.37261,41.49197 -71.97421,41.49197 -0.41632,0 -15.43414,-10.42472 -33.37293,-23.16604 z m 280.80396,9.56702 c -2.47317,-3.45583 -25.41996,-42.50769 -25.41996,-43.26083 0,-0.79151 98.71049,-91.875386 99.99733,-92.271293 1.19036,-0.366222 18.71234,11.250336 18.71234,12.405734 0,0.55294 -19.39354,28.522799 -43.09677,62.155249 -35.28035,50.0592 -43.6133,61.31112 -45.94475,62.0388 -2.4386,0.76112 -3.04926,0.60764 -4.24819,-1.06766 z M 270.58936,153.81976 c -7.53844,-10.76731 -53.92485,-83.351578 -53.91267,-84.361163 0.0191,-1.578958 23.04339,-13.019382 37.80641,-18.785399 13.77869,-5.381565 28.39088,-9.809802 29.40297,-8.910599 1.69663,1.507392 50.41796,83.405271 50.10573,84.225001 -0.27659,0.72619 -56.24579,28.96518 -60.17469,30.36085 -0.6419,0.22802 -2.09439,-0.90989 -3.22775,-2.52869 z M 387.07524,142.58734 C 385.36722,139.6737 369.98651,113.98597 352.8959,85.503509 331.0396,49.078749 322.19262,33.519997 323.0713,33.052371 c 0.68708,-0.365661 8.72921,-0.947777 17.87139,-1.293592 40.38809,-1.527725 78.86955,4.584558 114.45017,18.17893 14.64974,5.59726 27.56625,11.586818 27.58178,12.790035 0.005,0.407075 -9.8573,9.807075 -21.91679,20.888889 -58.7031,53.943947 -69.42221,63.725157 -70.12171,63.986277 -0.41546,0.15509 -2.15286,-2.10191 -3.8609,-5.01557 z"
     id="path20"
     inkscape:connector-curvature="0" />
</svg>
