<?xml version="1.0" encoding="UTF-8" standalone="no"?>
<!-- Created with Inkscape (http://www.inkscape.org/) -->

<svg
   xmlns:dc="http://purl.org/dc/elements/1.1/"
   xmlns:cc="http://creativecommons.org/ns#"
   xmlns:rdf="http://www.w3.org/1999/02/22-rdf-syntax-ns#"
   xmlns:svg="http://www.w3.org/2000/svg"
   xmlns="http://www.w3.org/2000/svg"
   xmlns:sodipodi="http://sodipodi.sourceforge.net/DTD/sodipodi-0.dtd"
   xmlns:inkscape="http://www.inkscape.org/namespaces/inkscape"
   version="1.1"
   id="svg10"
   width="720.51611"
   height="628.93457"
   viewBox="0 0 720.51611 628.93457"
   sodipodi:docname="noun_1046376_cc.svg"
   inkscape:version="0.92.1 r15371">
  <metadata
     id="metadata16">
    <rdf:RDF>
      <cc:Work
         rdf:about="">
        <dc:format>image/svg+xml</dc:format>
        <dc:type
           rdf:resource="http://purl.org/dc/dcmitype/StillImage" />
        <dc:title></dc:title>
      </cc:Work>
    </rdf:RDF>
  </metadata>
  <defs
     id="defs14" />
  <sodipodi:namedview
     pagecolor="#ffffff"
     bordercolor="#666666"
     borderopacity="1"
     objecttolerance="10"
     gridtolerance="10"
     guidetolerance="10"
     inkscape:pageopacity="0"
     inkscape:pageshadow="2"
     inkscape:window-width="1366"
     inkscape:window-height="706"
     id="namedview12"
     showgrid="false"
     inkscape:zoom="0.85382491"
     inkscape:cx="360.25806"
     inkscape:cy="314.46729"
     inkscape:window-x="-8"
     inkscape:window-y="219"
     inkscape:window-maximized="1"
     inkscape:current-layer="svg10" />
  <path
     style="fill:#000000;stroke-width:0.96236068"
     d="m 76.51047,579.91592 v -7.62617 h 58.32258 c 32.07742,0 58.32258,0.25276 58.32258,0.56167 0,0.30892 -1.97419,3.74031 -4.3871,7.62529 l -4.38709,7.06361 -53.93549,8.8e-4 -53.93548,8.9e-4 z m 121.80645,7.3326 c 0,-0.19988 37.77188,-59.66607 83.93751,-132.14708 l 83.93752,-131.78365 -144.58268,-0.4486 -144.58267,-0.4486 -0.29826,-7.85046 -0.29825,-7.85047 h 281.88683 281.88682 l -0.29826,7.85047 -0.29825,7.85046 -49.80645,0.23292 -49.80645,0.23292 v 132.32782 132.32784 h -7.74194 -7.74193 V 455.17626 322.81043 l -11.55235,0.25368 -11.55234,0.25368 -15.67704,114.84112 c -8.62238,63.16262 -16.73156,122.61308 -18.02041,132.11215 l -2.34336,17.27103 h -8.07886 -8.07886 l 0.52153,-2.46729 c 0.71397,-3.37762 35.55588,-258.86228 35.55588,-260.71995 0,-1.29232 -1.47136,-1.48566 -11.30632,-1.48566 h -11.30631 l -0.91461,2.91589 c -0.50303,1.60374 -16.65329,61.15514 -35.88945,132.33645 l -34.97483,129.42056 h -8.0996 c -7.39014,0 -8.0469,-0.14436 -7.49779,-1.64807 1.168,-3.19855 70.76311,-260.76084 70.76311,-261.88492 0,-0.85132 -2.82009,-1.13991 -11.13943,-1.13991 h -11.13944 l -56.88874,132.11215 -56.88873,132.11215 -8.48617,0.26237 c -7.80282,0.24124 -8.42795,0.13287 -7.76311,-1.3458 0.70222,-1.56177 104.1029,-242.25627 110.05642,-256.1876 l 2.97146,-6.95327 -11.0708,9e-4 -11.07082,0.002 -75.87096,119.07475 c -41.72903,65.49112 -79.5871,124.94099 -84.12903,132.11082 l -8.25807,13.03607 -9.03225,0.25923 c -4.96774,0.14258 -9.03226,0.0957 -9.03226,-0.1042 z m 353.24857,-7.1083 0.29981,-7.40187 44.12903,-0.23394 44.12903,-0.23392 v 7.63579 7.63581 H 595.69452 551.26568 Z M 76.51047,490.20163 v -7.6315 h 87.23845 87.23845 l -4.62677,7.40186 -4.62677,7.40187 -82.61168,0.22964 -82.61168,0.22964 z m 474.8387,-0.005 v -7.64543 l 44.12903,0.23392 44.12903,0.23394 v 7.17757 7.17757 l -44.12903,0.23393 -44.12903,0.23393 z M 76.51047,417.52335 v -7.62617 h 109.93548 c 60.46452,0 109.93548,0.25276 109.93548,0.56168 0,0.30892 -1.97419,3.7403 -4.38709,7.62528 l -4.3871,7.06361 -105.54838,8.8e-4 -105.54839,9.4e-4 V 417.5234 Z M 552.0484,424.561 c -0.38458,-0.33421 -0.69923,-3.77464 -0.69923,-7.64536 v -7.03767 l 44.12903,0.23392 44.12903,0.23394 v 7.17757 7.17757 l -43.4298,0.23391 c -23.88639,0.12865 -43.74445,-0.0396 -44.12903,-0.37383 z M 76.51047,361.00003 v -7.62616 h 128 c 70.4,0 127.99999,0.23494 127.99999,0.5221 0,0.28717 -1.97419,3.71327 -4.38709,7.61358 l -4.3871,7.09147 -123.6129,0.0126 -123.6129,0.0126 z m 475.27602,6.42542 c -0.29631,-0.67115 -0.3998,-4.00638 -0.22997,-7.41162 l 0.30878,-6.19137 h 43.87096 43.87097 v 7.17757 7.17757 l -43.64099,0.23406 c -36.02896,0.19323 -43.73497,0.0212 -44.17975,-0.98621 z m -435.81255,-113.86467 0.36784,-41.49532 2.84829,-8.94041 c 8.3877,-26.3279 26.09385,-45.8599 50.9266,-56.17812 14.96962,-6.22 14.46693,-6.18204 81.87767,-6.18204 66.79744,0 66.78732,-7.2e-4 81.20971,5.79096 24.89812,9.99849 43.63924,30.23713 51.52343,55.64045 3.62821,11.69029 4.53842,23.76476 4.54835,60.33645 l 0.009,32.52336 h -7.72784 -7.72782 l -0.27218,-29.38318 -0.27216,-29.38317 h -41.07397 -41.07397 l -0.21636,29.15887 -0.21635,29.15888 -7.48387,0.26361 -7.48387,0.2636 -0.0179,-33.01127 c -0.0249,-45.97559 -1.13291,-53.4854 -10.29755,-69.79631 -12.81118,-22.80092 -35.98795,-36.33645 -62.21855,-36.33645 -11.61201,0 -16.52185,1.03444 -28.50264,6.00511 -16.09142,6.67613 -29.91786,20.15491 -37.09588,36.16311 -5.74317,12.80822 -5.7432,12.80849 -6.13418,56.29907 l -0.36496,40.59813 h -7.74927 -7.74926 z m 256.23435,-36.33645 c -2.74803,-14.14169 -9.99952,-28.9746 -18.7404,-38.3334 -9.84728,-10.54343 -25.86879,-19.46793 -39.33081,-21.90852 -3.2144,-0.58276 -17.00248,-0.99172 -33.43566,-0.99172 h -27.96549 l 4.66115,3.56608 c 10.4083,7.96302 21.39911,22.92852 26.60057,36.22033 2.61967,6.69432 3.50302,10.06756 5.73384,21.89583 l 0.54995,2.91589 h 41.29032 41.29032 z m -207.71155,47.55141 0.27179,-30.28038 h 38.19355 38.19355 l 0.27179,30.28038 0.27179,30.28037 h -13.43549 -13.4355 l -17.28791,-17.61535 -17.28791,-17.61534 -0.27988,17.61534 -0.27989,17.61535 h -7.73384 -7.73384 z m 61.69115,2.01869 V 250.1963 h -16.64843 -16.64842 l 2.45488,2.67138 c 8.04413,8.75359 29.4171,30.40528 30.06777,30.45989 0.42581,0.0357 0.7742,-7.40417 0.7742,-16.53314 z m 298.32257,-4.56075 c 0,-18.05234 -0.34839,-32.68495 -0.77419,-32.51692 -0.42581,0.16803 -3.67421,1.61916 -7.21869,3.22474 -22.34195,10.12049 -45.64788,6.60956 -64.3897,-9.70001 -9.20565,-8.01097 -15.09803,-17.37073 -18.59722,-29.54079 -3.21316,-11.17523 -2.43551,-26.08788 1.9319,-37.04717 6.60512,-16.57446 19.64386,-29.7389 34.96628,-35.30335 3.05675,-1.11008 3.50008,-1.62034 2.86626,-3.29896 -1.47257,-3.90001 -0.7708,-21.520466 1.11533,-28.004448 5.58309,-19.193035 19.42481,-34.235487 37.71293,-40.984417 10.49688,-3.873697 24.22862,-4.569942 34.78197,-1.76356 29.12236,7.744322 47.59017,33.810641 45.34584,64.003235 l -0.64628,8.69451 6.45278,2.9302 c 13.6756,6.21008 27.43698,21.53826 32.20105,35.8673 7.63695,22.96994 0.55572,49.05244 -17.62803,64.92975 -17.94459,15.66849 -43.6836,19.19557 -65.18802,8.93289 -3.56794,-1.70274 -6.70342,-3.0959 -6.96774,-3.0959 -0.26433,0 -0.4806,14.73645 -0.4806,32.74767 v 32.74766 h -7.74194 -7.74193 z m -17.25463,-41.60823 c 6.84123,-2.27213 16.0956,-9.22177 21.49921,-16.14499 1.92354,-2.46448 3.80497,-4.49129 4.18094,-4.50401 0.37597,-0.0127 2.81776,2.57632 5.42619,5.75344 5.71217,6.95752 11.56865,11.27961 19.7688,14.5894 5.2378,2.11412 7.4697,2.47378 15.4618,2.49164 8.73977,0.0196 9.84548,-0.196 17.19541,-3.35184 30.51952,-13.10422 37.0918,-53.07102 12.34229,-75.05492 -6.95139,-6.17463 -13.9147,-9.45806 -23.21769,-10.94792 -9.60752,-1.53863 -9.55264,-1.47869 -7.06794,-7.71904 6.29861,-15.819 5.35439,-30.080719 -2.93011,-44.25696 -3.71844,-6.362927 -15.13984,-15.528603 -22.30367,-17.898711 -24.16713,-7.995547 -47.93235,3.180642 -57.22999,26.913831 -1.76857,4.514437 -2.29478,7.95978 -2.32951,15.25234 -0.0395,8.3087 0.33715,10.36962 3.19192,17.46172 1.78024,4.42263 3.05482,8.19931 2.83241,8.39263 -0.22242,0.19331 -3.74697,0.90505 -7.83234,1.58163 -10.24896,1.69734 -15.89538,4.28472 -23.27707,10.66633 -10.54712,9.11821 -15.19553,19.41909 -15.19553,33.67338 0,9.69627 1.87814,16.40951 6.8956,24.64772 5.80986,9.53928 17.5122,17.77191 28.8441,20.2919 5.48412,1.21956 17.2916,0.30581 23.74518,-1.83757 z m 62.76153,-31.21559 c -6.7689,-3.01199 -9.42841,-12.00072 -5.29426,-17.89379 7.31583,-10.42843 22.72863,-6.17609 22.7483,6.27618 0.008,5.31278 -2.16372,9.13567 -6.49493,11.43102 -4.0797,2.16207 -6.42966,2.20208 -10.95911,0.18659 z m -43.14557,-76.11608 c -3.39713,-1.49281 -7.54323,-7.43294 -7.49995,-10.74522 0.0444,-3.39831 3.91729,-9.230545 7.07076,-10.647896 8.57732,-3.855159 16.62801,1.439338 16.6417,10.944336 0.006,4.09313 -0.44089,5.14106 -3.34803,7.85289 -4.0161,3.74626 -8.28592,4.60786 -12.86448,2.59589 z m -333.71643,81.05205 c 1.5e-4,-3.8243 2.7e-4,-7.25607 2.7e-4,-7.62617 0,-0.37009 4.76129,-0.67289 10.58064,-0.67289 h 10.58065 v 7.46927 7.46928 l -10.58091,0.15689 -10.58091,0.15689 z"
     id="path20"
     inkscape:connector-curvature="0" />
</svg>
