<?xml version="1.0" encoding="UTF-8" standalone="no"?>
<!-- Created with Inkscape (http://www.inkscape.org/) -->

<svg
   xmlns:dc="http://purl.org/dc/elements/1.1/"
   xmlns:cc="http://creativecommons.org/ns#"
   xmlns:rdf="http://www.w3.org/1999/02/22-rdf-syntax-ns#"
   xmlns:svg="http://www.w3.org/2000/svg"
   xmlns="http://www.w3.org/2000/svg"
   xmlns:sodipodi="http://sodipodi.sourceforge.net/DTD/sodipodi-0.dtd"
   xmlns:inkscape="http://www.inkscape.org/namespaces/inkscape"
   version="1.1"
   id="svg10"
   width="720.51611"
   height="620.03668"
   viewBox="0 0 720.51611 620.03668"
   sodipodi:docname="noun_1046372_cc.svg"
   inkscape:version="0.92.1 r15371">
  <metadata
     id="metadata16">
    <rdf:RDF>
      <cc:Work
         rdf:about="">
        <dc:format>image/svg+xml</dc:format>
        <dc:type
           rdf:resource="http://purl.org/dc/dcmitype/StillImage" />
        <dc:title></dc:title>
      </cc:Work>
    </rdf:RDF>
  </metadata>
  <defs
     id="defs14" />
  <sodipodi:namedview
     pagecolor="#ffffff"
     bordercolor="#666666"
     borderopacity="1"
     objecttolerance="10"
     gridtolerance="10"
     guidetolerance="10"
     inkscape:pageopacity="0"
     inkscape:pageshadow="2"
     inkscape:window-width="1366"
     inkscape:window-height="706"
     id="namedview12"
     showgrid="false"
     inkscape:zoom="0.86607779"
     inkscape:cx="360.25806"
     inkscape:cy="310.01834"
     inkscape:window-x="-8"
     inkscape:window-y="219"
     inkscape:window-maximized="1"
     inkscape:current-layer="svg10" />
  <path
     style="fill:#000000;stroke-width:0.95349079"
     d="m 83.86453,526.32676 v -7.92661 H 99.3484 c 8.51613,0 15.48387,0.23624 15.48387,0.52498 0,0.28875 -2.12794,3.85572 -4.72875,7.92661 l -4.72877,7.40162 H 94.61964 83.86453 Z m 36.12903,7.09267 c 0,-0.45866 18.17148,-29.09352 40.38106,-63.63302 22.20958,-34.53951 48.5107,-75.48167 58.44693,-90.98258 9.93623,-15.50092 18.47444,-28.56 18.97378,-29.02019 0.49935,-0.46018 0.9079,-1.15376 0.9079,-1.54128 0,-0.38752 -34.8387,-0.70459 -77.41935,-0.70459 H 83.86453 v -7.92821 -7.92823 l 277.41935,0.2218 277.41934,0.2218 0.29825,7.70642 0.29827,7.70642 h -77.45955 c -42.60275,0 -77.45954,0.20447 -77.45954,0.45438 0,0.24992 26.70967,41.8394 59.35483,92.42108 32.64517,50.58168 59.35484,92.38822 59.35484,92.90341 0,0.58741 -3.23107,0.93672 -8.66444,0.93672 h -8.66444 L 554.47941,485.59281 C 537.2743,458.82951 510.31389,416.91759 494.5674,392.4552 l -28.62998,-44.47706 -5.75097,-0.26426 -5.75097,-0.26426 2.03945,4.66793 c 23.65378,54.13911 78.48636,180.87884 78.48636,181.41293 0,1.11304 -15.25193,0.87487 -16.06739,-0.25089 -0.38796,-0.53558 -18.72537,-42.44751 -40.7498,-93.13761 l -40.04444,-92.16384 -5.76274,-0.26413 c -4.42026,-0.20261 -5.76272,0.0255 -5.76272,0.9792 0,0.68384 11.38064,42.57931 25.29032,93.10104 13.90968,50.52173 25.29032,91.99301 25.29032,92.1584 0,0.1654 -3.49537,0.30071 -7.76748,0.30071 -7.11777,0 -7.83784,-0.16575 -8.60864,-1.98165 -0.46264,-1.08991 -12.14209,-43.10091 -25.95434,-93.35779 l -25.1132,-91.37615 h -6.0201 c -4.58611,0 -6.02011,0.3059 -6.02011,1.28418 0,0.7063 5.5742,42.02368 12.3871,91.81641 6.8129,49.79272 12.3871,91.22585 12.3871,92.07361 0,1.32189 -1.03362,1.54139 -7.2582,1.54139 -4.88005,0 -7.40464,-0.36071 -7.70511,-1.10091 -0.45139,-1.11201 -25.30788,-182.43708 -25.29935,-184.55579 0.003,-0.84313 -1.68777,-1.07416 -6.44702,-0.88073 l -6.45161,0.26221 -0.26279,93.17612 -0.26278,93.17611 -7.47915,-0.25868 -7.47915,-0.25869 -0.26279,-93.13762 -0.26277,-93.13761 h -5.7051 c -3.63198,0 -5.8713,0.40005 -6.16247,1.10092 -0.47068,1.13298 -25.28429,182.03391 -25.28429,184.33238 0,1.00859 -1.65252,1.28229 -7.74194,1.28229 h -7.74193 V 531.659 c 0,-2.30122 22.7978,-170.98145 24.37881,-180.37811 l 0.6298,-3.74312 h -6.31077 c -3.47091,0 -6.31373,0.0991 -6.31737,0.22019 -0.004,0.1211 -11.52335,42.03302 -25.59934,93.13761 l -25.59272,92.91743 -7.97975,0.2577 c -7.85657,0.25372 -7.97112,0.22653 -7.42068,-1.76147 21.32206,-77.00834 50.08298,-182.30082 50.08298,-183.35156 0,-2.15677 -10.84546,-2.04562 -11.84458,0.12139 -0.39084,0.8477 -18.33817,42.11402 -39.88292,91.70293 -21.54476,49.5889 -39.63941,90.90633 -40.21033,91.81651 -0.8756,1.39593 -2.26253,1.65486 -8.86398,1.65486 -7.57233,0 -7.81013,-0.0642 -7.33758,-1.98165 0.26861,-1.08991 18.20663,-42.74224 39.86227,-92.56073 21.65564,-49.81849 39.3739,-90.93776 39.3739,-91.37614 0,-0.43839 -2.27254,-0.79707 -5.05009,-0.79707 h -5.05009 l -60.23932,93.3578 -60.23931,93.35779 h -8.51704 c -4.68438,0 -8.51705,-0.37527 -8.51705,-0.83393 z m 497.80542,-0.26698 c -2.41847,-2.58999 -9.30478,-13.78497 -8.76354,-14.24676 0.32588,-0.27804 7.25058,-0.50554 15.38822,-0.50554 h 14.79569 v 7.92661 7.9266 h -10.19619 c -6.9205,0 -10.52644,-0.35368 -11.22418,-1.10091 z M 83.86453,462.92683 v -7.93952 h 35.6129 c 19.5871,0 35.60421,0.29725 35.59359,0.66055 -0.0106,0.3633 -2.0097,3.83119 -4.44242,7.70642 l -4.42309,7.04587 -31.17049,0.2331 -31.17049,0.2331 z m 491.60256,5.05131 c -5.09837,-7.35128 -7.47354,-11.17986 -7.47354,-12.04674 0,-0.65339 10.96598,-0.94409 35.6129,-0.94409 h 35.6129 v 7.92661 7.9266 H 608.3358 577.45225 Z m -491.60257,-56.36697 1e-5,-7.70643 h 52.12903 c 28.67097,0 52.12903,0.24846 52.12903,0.55213 0,0.8521 -8.55309,13.94874 -9.28552,14.21817 -0.35614,0.131 -21.87065,0.32916 -47.81003,0.44037 l -47.16252,0.20218 z m 455.48387,0.33031 c -2.41291,-3.8137 -4.3871,-7.18212 -4.3871,-7.48537 0,-0.30325 23.45807,-0.55137 52.12903,-0.55137 h 52.12903 v 7.48624 7.48624 l -47.74193,-8.7e-4 -47.74194,-8.6e-4 z M 83.86453,372.19832 v -7.9266 h 65.03226 c 35.76774,0 65.03225,0.19749 65.03225,0.43888 0,0.24138 -2.20645,3.80712 -4.90322,7.92387 l -4.90323,7.485 -60.12903,0.003 -60.12903,0.003 z m 430.4516,0.67426 c -2.55484,-3.98784 -4.8,-7.55443 -4.98924,-7.92575 -0.18926,-0.3713 28.95913,-0.67511 64.77419,-0.67511 h 65.11827 v 7.9266 7.92661 l -60.12903,-8.7e-4 -60.12903,-8.7e-4 z M 130.31614,309.22585 c 0,-6.05505 -0.26111,-11.00918 -0.58023,-11.00918 -0.31913,0 -2.90074,0.64759 -5.73691,1.43908 -10.10733,2.82067 -21.59611,0.13159 -30.79158,-7.20712 -19.07237,-15.22126 -17.34304,-45.37074 3.35685,-58.5239 4.51567,-2.86936 4.84988,-3.35321 4.86657,-7.04587 0.068,-15.04401 8.89577,-28.83798 21.97001,-34.3296 8.22589,-3.45516 15.16285,-4.18326 22.50507,-2.36213 16.40343,4.06863 27.41537,17.5331 28.00569,34.24298 l 0.2157,6.10583 4.88074,3.05689 c 5.79221,3.62773 12.62873,12.00456 14.73429,18.054 3.75654,10.79281 2.97509,20.52808 -2.44034,30.40188 -7.70059,14.04025 -24.65977,21.66057 -39.18485,17.60704 -2.83617,-0.79149 -5.41777,-1.43908 -5.73691,-1.43908 -0.31912,0 -0.58023,4.95413 -0.58023,11.00918 v 11.00917 h -7.74193 -7.74194 z m -6.15421,-26.20184 c 3.04781,-1.31131 6.23252,-3.85107 9.41466,-7.50802 l 4.80885,-5.52639 4.48585,5.52639 c 7.14372,8.80074 15.77981,11.47097 25.2421,7.80472 11.47782,-4.44717 16.2926,-18.56459 9.94468,-29.15882 -3.7522,-6.26219 -8.60131,-9.43613 -16.52262,-10.81476 -3.47829,-0.60536 -6.58484,-1.32306 -6.90344,-1.5949 -0.31861,-0.27184 0.40399,-2.83817 1.60576,-5.70297 6.5843,-15.69576 -2.44021,-31.21945 -18.12372,-31.17589 -10.51414,0.0292 -18.34778,6.503 -20.43217,16.88534 -1.07947,5.37687 -0.96712,6.26657 1.60781,12.73159 1.52262,3.82291 2.76839,7.18929 2.76839,7.48086 0,0.29155 -2.87021,1.01189 -6.37823,1.60075 -9.88444,1.65918 -15.85316,5.85298 -18.93419,13.3037 -4.15941,10.05853 0.8502,21.93909 11.0711,26.25569 5.69425,2.40485 10.58092,2.37278 16.34517,-0.10729 z m 338.51266,36.55046 c -0.0158,-0.3633 -0.003,-12.37482 0.0274,-26.69225 0.0308,-14.31744 -0.21574,-26.26356 -0.54786,-26.54693 -0.33213,-0.28337 -3.24766,0.84311 -6.47897,2.50331 -15.52722,7.97763 -34.66938,8.35078 -51.18811,0.99784 -9.81159,-4.3674 -21.87426,-15.2268 -27.17449,-24.4638 -6.37295,-11.10647 -7.90305,-16.94965 -7.95672,-30.38532 -0.0546,-13.6741 1.42209,-19.21453 8.31087,-31.18113 5.94639,-10.32959 16.96712,-20.36819 26.77157,-24.38578 l 6.25113,-2.56153 -0.44799,-11.11919 c -0.54177,-13.44688 1.22987,-21.5289 7.0669,-32.23816 23.73179,-43.541035 85.71907,-41.616458 106.99331,3.32192 4.34097,9.1696 5.73863,16.84806 5.28344,29.02625 l -0.41148,11.00918 6.24872,2.64108 c 3.93324,1.66243 9.17454,5.11808 14.14463,9.32571 20.46521,17.3257 26.89181,45.60536 15.99439,70.38183 -13.75049,31.26323 -51.47001,44.99749 -81.37832,29.6311 -3.23131,-1.6602 -6.13453,-2.79719 -6.45161,-2.52665 -0.31709,0.27053 -0.57652,12.51389 -0.57652,27.20748 v 26.71559 h -7.22581 c -3.97419,0 -7.23869,-0.29725 -7.25444,-0.66055 z m -17.33895,-62.90331 c 7.06172,-2.81273 13.98293,-8.0917 19.65606,-14.99214 2.31231,-2.81254 4.48529,-5.10728 4.82883,-5.09942 0.34355,0.008 2.86911,2.74193 5.61236,6.07568 5.58378,6.78572 9.987,10.11808 18.27372,13.82953 5.16694,2.31418 6.55403,2.52737 16.48049,2.53302 9.9038,0.005 11.37294,-0.21686 17.03226,-2.57962 16.64014,-6.94726 27.51468,-23.27372 27.61269,-41.45625 0.048,-8.9094 -1.5347,-14.90076 -6.12278,-23.17768 -6.58006,-11.87044 -18.76915,-19.93002 -33.68893,-22.27557 -3.79377,-0.59641 -6.89776,-1.40623 -6.89776,-1.79958 0,-0.39336 1.19756,-4.18907 2.66123,-8.43493 3.28161,-9.51936 3.72061,-21.53326 1.09912,-30.079 -3.8764,-12.63663 -13.97913,-23.60339 -26.3513,-28.60502 -6.16529,-2.49239 -7.78308,-2.76047 -16.65911,-2.76047 -8.99107,0 -10.40838,0.24273 -16.59427,2.842 -23.32427,9.80069 -33.87687,36.30477 -23.87995,59.97729 2.05964,4.87718 2.70489,7.44067 1.92665,7.65441 -0.64356,0.17675 -3.9572,0.78778 -7.36366,1.35785 -17.06565,2.85598 -29.62211,13.20946 -36.25377,29.89321 -2.71293,6.82515 -2.7039,23.15925 0.0166,29.94496 5.77242,14.3982 16.22233,24.28415 30.39894,28.75836 2.39894,0.75712 7.15831,1.10645 13.06407,0.95889 7.5128,-0.18773 10.41118,-0.67859 15.14854,-2.56552 z m 62.00331,-30.66991 c -12.1203,-6.30509 -8.50994,-23.78457 4.91266,-23.78457 13.54661,0 17.28117,19.04514 4.73096,24.12642 -4.48826,1.81718 -5.5668,1.77895 -9.64362,-0.34185 z m -43.38963,-76.16173 c -4.65788,-1.77365 -7.89036,-7.91444 -6.87235,-13.05551 1.03668,-5.23541 6.14602,-9.42972 11.48689,-9.42972 7.35732,0 11.68776,4.55709 11.68776,12.29948 0,3.81486 -0.4855,4.9049 -3.35484,7.53235 -3.93117,3.59975 -8.17706,4.46988 -12.94746,2.6534 z"
     id="path20"
     inkscape:connector-curvature="0" />
</svg>
