<?xml version="1.0" encoding="utf-8"?>
<!-- Generator: Adobe Illustrator 20.1.0, SVG Export Plug-In . SVG Version: 6.00 Build 0)  -->
<svg version="1.1" id="Capa_1" xmlns="http://www.w3.org/2000/svg" xmlns:xlink="http://www.w3.org/1999/xlink" x="0px" y="0px"
	 viewBox="0 0 512 512" style="enable-background:new 0 0 512 512;" xml:space="preserve">
<style type="text/css">
	.st0{fill:#F9EBD2;}
</style>
<g>
	<g>
		<g>
			<path class="st0" d="M437,75C388.7,26.6,324.4,0,256,0S123.3,26.6,75,75C26.6,123.3,0,187.6,0,256s26.6,132.7,75,181
				c48.4,48.4,112.6,75,181,75s132.7-26.6,181-75c48.4-48.4,75-112.6,75-181S485.4,123.3,437,75z M256,497
				C123.1,497,15,388.9,15,256S123.1,15,256,15s241,108.1,241,241S388.9,497,256,497z"/>
		</g>
	</g>
	<g>
		<g>
			<path class="st0" d="M256,233.5c-12.4,0-22.5,10.1-22.5,22.5c0,12.4,10.1,22.5,22.5,22.5s22.5-10.1,22.5-22.5
				C278.5,243.6,268.4,233.5,256,233.5z M256,263.5c-4.1,0-7.5-3.4-7.5-7.5s3.4-7.5,7.5-7.5c4.1,0,7.5,3.4,7.5,7.5
				C263.5,260.1,260.1,263.5,256,263.5z"/>
		</g>
	</g>
	<g>
		<g>
			<path class="st0" d="M446.9,296c-3-34.4-22.7-65.3-52.6-82.5c-12.7-7.3-26.7-11.9-41.1-13.6c5.8-13.3,8.8-27.8,8.8-42.4
				c0-34.5-16.9-67-45.2-86.8c-3.2-2.2-7.5-1.7-10,1.3c-2.5,3-2.4,7.3,0.4,10.1c13.1,13.4,20.4,31.2,20.4,49.9
				c0,13.7-3.9,26.4-10.5,37.3c-17.8-12.5-39.1-19.3-61-19.3s-43.2,6.8-61,19.3c-6.7-10.9-10.5-23.6-10.5-37.3
				c0-18.8,7.2-36.5,20.4-49.9c2.7-2.8,2.9-7.1,0.4-10.1c-2.5-3-6.9-3.5-10-1.3C166.9,90.5,150,123,150,157.5
				c0,14.6,3,29.1,8.8,42.4c-14.4,1.6-28.5,6.2-41.1,13.6c-29.9,17.3-49.6,48.1-52.6,82.5c-0.3,3.9,2.3,7.3,6.1,8
				c3.8,0.7,7.5-1.6,8.6-5.4c5.1-18.1,16.8-33.2,33.1-42.6c11.7-6.8,24.7-9.9,37.5-9.5c-1.9,21.6,2.8,43.5,13.8,62.5
				c10.9,18.9,27.5,34,47.2,43.2c-6.1,11.3-15.3,21-27,27.8c-16.3,9.4-35.2,12-53.4,7.3c-3.8-1-7.6,1.1-8.9,4.7
				c-1.3,3.6,0.4,7.7,3.9,9.3c31.3,14.6,67.9,13,97.8-4.3c12.7-7.3,23.7-17.2,32.3-28.8c8.6,11.7,19.6,21.5,32.3,28.8
				c16.3,9.4,34.6,14.2,53,14.2c15.3,0,30.6-3.3,44.8-9.9c3.5-1.6,5.2-5.7,3.9-9.3c-1.3-3.6-5.2-5.7-8.9-4.7
				c-18.2,4.6-37.2,2-53.4-7.3c-11.8-6.8-21-16.5-27-27.8c19.7-9.1,36.3-24.2,47.2-43.2c10.9-18.9,15.7-40.8,13.8-62.5
				c12.7-0.3,25.7,2.7,37.5,9.5c16.3,9.4,28,24.5,33.1,42.6c1,3.7,4.8,6.1,8.6,5.4C444.6,303.3,447.2,299.8,446.9,296z M256,165
				c18.5,0,36.7,5.7,51.8,16.2c-13,13.7-31.4,22.3-51.8,22.3s-38.8-8.6-51.8-22.3C219.3,170.7,237.4,165,256,165z M334.8,301.5
				c-9.3,16.1-23.3,28.9-39.9,36.8c-5.4-18.2-3.6-38.4,6.6-56.1c10.2-17.7,26.8-29.3,45.3-33.7C348.2,266.9,344.1,285.4,334.8,301.5
				z M406.6,243.1c-16.7-9.6-35.7-13.4-54.5-10.8c-0.1,0-0.1,0-0.2,0c0,0,0,0,0,0c-3.6,0.5-7.3,1.2-10.9,2.2
				c-22.3,6-41,20.3-52.5,40.3c-23.8,41.3-9.6,94.3,31.7,118.2c0.8,0.5,1.7,0.9,2.5,1.4c-9.3-1.9-18.4-5.4-26.8-10.2
				c-13.9-8-25.4-19.5-33.3-33.3c-1.3-2.3-3.8-3.8-6.5-3.8c-2.7,0-5.2,1.4-6.5,3.8c-7.9,13.8-19.5,25.3-33.3,33.3
				c-8.4,4.9-17.5,8.3-26.8,10.2c0.8-0.4,1.7-0.9,2.5-1.4c16.9-9.8,29.4-24.5,36.5-41.5c0.1-0.2,0.1-0.3,0.2-0.4
				c0-0.1,0.1-0.2,0.1-0.4c7.7-18.9,8.7-40.4,1.7-60.8c-1.4-3.9-5.6-6-9.5-4.6c-3.9,1.4-6,5.6-4.6,9.5c5,14.5,5.1,29.7,0.9,43.6
				c-16.7-7.9-30.7-20.7-40-36.8c-9.3-16.1-13.4-34.6-11.9-53c14.1,3.4,27.3,11,37.3,22.6c2.7,3.1,7.4,3.5,10.6,0.8
				c3.1-2.7,3.5-7.4,0.8-10.6c-27.1-31.3-72.7-38.9-108.6-18.2c-0.8,0.5-1.6,1-2.5,1.5c6.3-7.1,13.8-13.2,22.3-18.1
				c13.8-8,29.5-12.2,45.4-12.2c0,0,0,0,0.1,0c2.7,0,5.2-1.4,6.5-3.8c1.3-2.3,1.3-5.2,0-7.5c-8-13.8-12.2-29.5-12.2-45.5
				c0-9.8,1.6-19.3,4.5-28.4c0,1,0,1.9,0,2.9c0,19.5,6.5,37.5,17.4,52c0.2,0.3,0.4,0.5,0.6,0.8c0.1,0.1,0.2,0.2,0.2,0.3
				c15.8,20.3,40.6,33.4,68.3,33.4c47.7,0,86.5-38.8,86.5-86.5c0-1,0-1.9,0-2.9c3,9,4.5,18.6,4.5,28.4c0,16-4.2,31.7-12.2,45.5
				c-1.3,2.3-1.3,5.2,0,7.5c1.3,2.3,3.8,3.8,6.5,3.8c0,0,0,0,0.1,0c15.9,0,31.6,4.2,45.4,12.2c8.4,4.9,15.9,11,22.3,18.1
				C408.3,244.1,407.5,243.6,406.6,243.1z"/>
		</g>
	</g>
</g>
</svg>
