<?xml version="1.0" encoding="UTF-8" standalone="no"?>
<!-- Created with Inkscape (http://www.inkscape.org/) -->

<svg
   xmlns:dc="http://purl.org/dc/elements/1.1/"
   xmlns:cc="http://creativecommons.org/ns#"
   xmlns:rdf="http://www.w3.org/1999/02/22-rdf-syntax-ns#"
   xmlns:svg="http://www.w3.org/2000/svg"
   xmlns="http://www.w3.org/2000/svg"
   xmlns:sodipodi="http://sodipodi.sourceforge.net/DTD/sodipodi-0.dtd"
   xmlns:inkscape="http://www.inkscape.org/namespaces/inkscape"
   version="1.1"
   id="svg10"
   width="266.66666"
   height="266.66666"
   viewBox="0 0 266.66666 266.66666"
   sodipodi:docname="1046369-200.svg"
   inkscape:version="0.92.1 r15371">
  <metadata
     id="metadata16">
    <rdf:RDF>
      <cc:Work
         rdf:about="">
        <dc:format>image/svg+xml</dc:format>
        <dc:type
           rdf:resource="http://purl.org/dc/dcmitype/StillImage" />
        <dc:title></dc:title>
      </cc:Work>
    </rdf:RDF>
  </metadata>
  <defs
     id="defs14" />
  <sodipodi:namedview
     pagecolor="#ffffff"
     bordercolor="#666666"
     borderopacity="1"
     objecttolerance="10"
     gridtolerance="10"
     guidetolerance="10"
     inkscape:pageopacity="0"
     inkscape:pageshadow="2"
     inkscape:window-width="1366"
     inkscape:window-height="706"
     id="namedview12"
     showgrid="false"
     inkscape:zoom="2.0137501"
     inkscape:cx="133.33333"
     inkscape:cy="133.33333"
     inkscape:window-x="-8"
     inkscape:window-y="219"
     inkscape:window-maximized="1"
     inkscape:current-layer="svg10" />
  <path
     style="fill:#000000;stroke-width:1.33333325"
     d="m 9.73001,245.21794 c 0,-2.51167 0.699663,-3.33334 2.8384,-3.33334 1.561119,0 5.247209,-2.17621 8.191309,-4.83604 l 5.352912,-4.83602 4.229973,5.03837 c 3.725979,4.43807 4.696089,4.91947 8.142022,4.04036 4.215223,-1.07536 6.292015,-1.11748 18.578716,-0.37677 6.184893,0.37284 8.715824,-0.0629 11.15496,-1.92094 3.041949,-2.31712 3.280746,-2.31561 6.666666,0.0421 2.75586,1.91896 5.233597,2.31722 11.511712,1.85033 9.49848,-0.70639 12.40909,-0.64777 21.66666,0.43628 6.37876,0.74696 7,1.11833 7,4.1846 0,3.32689 -0.0941,3.35557 -8.33333,2.53836 -4.58334,-0.4546 -8.93334,-0.81047 -9.66667,-0.79083 -0.73333,0.0196 -5.95446,0.26574 -11.6025,0.5469 -7.58146,0.37738 -10.666929,0.0319 -11.788941,-1.32004 -1.287869,-1.55179 -1.9589,-1.54755 -4.3975,0.0277 -2.014997,1.30168 -5.675811,1.69072 -12.211057,1.29772 -12.331137,-0.74156 -12.429456,-0.74045 -19.089264,0.21547 -4.74233,0.68068 -6.28751,0.32677 -8.774625,-2.00975 l -3.018694,-2.83592 -2.432026,2.68736 c -1.727416,1.90877 -4.110478,2.68736 -8.225373,2.68736 -5.290684,0 -5.79335,-0.28921 -5.79335,-3.33333 z m 112,-13.15352 c 0,-14.66039 -0.30615,-16.87606 -2.76344,-20 -2.51464,-3.19686 -3.60278,-3.51315 -12.08608,-3.51315 -8.74295,0 -9.5341,0.25131 -12.72338,4.04155 -4.56009,5.41936 -14.244319,11.95845 -17.710161,11.95845 -1.541425,0 -4.940545,-0.89329 -7.553599,-1.98509 -4.706362,-1.96646 -4.743262,-2.04476 -3.92667,-8.33334 1.227896,-9.45602 1.334438,-31.34335 0.165576,-34.0149 -1.882177,-4.30191 0.399498,-6.18715 11.636424,-9.61461 10.2517,-3.12696 12.40679,-4.4503 26.19529,-16.08527 8.26352,-6.97291 16.12697,-13.26797 17.47432,-13.98905 1.48968,-0.79726 23.51632,-1.30912 56.20406,-1.30608 50.92936,0.005 53.97824,0.14152 58.01521,2.60301 7.33256,4.47095 8.83687,8.22041 9.85294,24.55832 0.50737,8.15852 1.68292,17.26993 2.61232,20.24757 2.0121,6.4464 1.06312,11.13231 -3.27615,16.177 -3.13869,3.64895 -3.24819,3.67172 -5.94029,1.2354 -5.70212,-5.16036 -6.66447,-16.09332 -2.00602,-22.78964 1.88851,-2.71461 2.5635,-21.1624 0.98926,-27.03665 -1.742,-6.50027 -3.15962,-2.41089 -3.15962,9.11449 0,7.19871 -0.92396,15.58202 -2.27702,20.6599 l -2.27703,8.5454 3.61036,11.08617 c 3.15288,9.68138 3.61036,13.23025 3.61036,28.00677 v 16.9206 H 227.73 219.06334 l -0.0195,-14.33333 -0.0195,-14.33334 -12.31393,-6.38145 -12.31392,-6.38147 -25.37918,0.0481 -25.37919,0.0481 -2.28748,3.87239 c -1.83493,3.10648 -2.28736,7.19402 -2.28736,20.66665 v 16.79428 h -8.66661 -8.66666 z m 10.66666,-4.93958 c 0,-14.2706 0.1347,-14.95554 4.06406,-20.66666 l 4.06405,-5.90691 28.26928,0.0528 28.26928,0.0528 14.66666,7.61383 14.66667,7.61381 0.38161,13 c 0.50139,17.08005 2.95172,17.01097 2.95172,-0.0832 0,-10.9404 -0.63802,-14.97076 -3.89557,-24.60785 l -3.89557,-11.52464 2.55205,-8.39215 c 1.86127,-6.12054 2.55481,-12.45237 2.56224,-23.39214 l 0.0102,-14.99992 h -51.72697 -51.72696 l -16.2949,13.78748 c -14.02567,11.86744 -17.44462,14.10713 -24.55096,16.08286 -5.572727,1.54936 -7.670979,2.657 -6.455853,3.408 1.445115,0.89312 1.213343,1.9368 -1.174958,5.29086 -2.447509,3.43721 -2.834901,5.29437 -2.184227,10.4712 0.435027,3.46111 0.29037,9.73473 -0.321461,13.94135 -1.001197,6.88374 -0.859443,7.72874 1.417792,8.4515 3.241778,1.0289 11.619287,-4.44339 16.402207,-10.71412 l 3.59946,-4.71914 h 12.41915 12.41915 l 4.75593,5.80399 4.75593,5.80399 v 14.19601 c 0,11.72979 0.34746,14.19601 2,14.19601 1.65733,0 2,-2.52886 2,-14.75976 z m 108.97077,-38.24023 c -0.5315,-2.22223 -0.60645,-2.22223 -1.57374,0 -0.55862,1.28333 -0.55862,3.38333 0,4.66666 0.96729,2.22223 1.04224,2.22223 1.57374,0 0.30695,-1.28333 0.30695,-3.38333 0,-4.66666 z m 1.6959,56.33333 c 0,-3.21368 0.3111,-3.33334 8.66666,-3.33334 8.35556,0 8.66667,0.1196 8.66667,3.33334 0,3.21368 -0.31111,3.33333 -8.66667,3.33333 -8.35556,0 -8.66666,-0.1196 -8.66666,-3.33333 z m -99.08984,-6.45052 c -2.32703,-7.38219 -3.16136,-25.07843 -1.07573,-22.81615 0.64226,0.69667 2.79154,6.21667 4.77616,12.26667 1.98462,6.05 4.15913,11 4.83224,11 0.6731,0 1.22384,-0.56903 1.22384,-1.26451 0,-1.15005 -5.93982,-20.62327 -7.65004,-25.08 -0.53174,-1.38569 0.26161,-1.75451 3.07249,-1.42843 3.59543,0.41711 4.04716,1.25831 8.82828,16.4396 2.77143,8.8 5.04877,16.45 5.06077,17 0.012,0.55 -3.7686,1 -8.40134,1 h -8.42318 z m 43.08984,6.14286 c 0,-0.53586 1.88835,-6.25333 4.19635,-12.70546 3.7865,-10.58546 4.01856,-12.08546 2.3761,-15.35902 -1.00112,-1.99533 -2.03946,-4.07786 -2.30745,-4.62786 -1.12765,-2.31444 5.20703,-0.7528 8.52565,2.10177 l 3.60603,3.10177 -3.51903,10.46643 c -3.3174,9.86673 -3.65332,13.40887 -1.00285,10.57447 0.64003,-0.68444 2.52712,-5.14444 4.19352,-9.91111 3.75585,-10.74339 4.66293,-11.84017 7.47042,-9.03268 2.02627,2.02627 1.86715,3.07167 -2.17302,14.27619 l -4.35939,12.08982 h -8.50317 c -4.67673,0 -8.50316,-0.43844 -8.50316,-0.97432 z M 21.423727,134.21794 21.063343,106.55128 15.250324,106.13414 9.437303,105.71698 10.379602,96.917929 C 11.717928,84.420832 14.445478,74.706493 19.808511,63.336285 29.634768,42.503566 42.82975,28.189741 60.145413,19.579095 72.541304,13.414928 87.43379,12.075405 99.91685,16.001808 c 29.61714,9.315733 55.56441,46.000647 58.15153,82.216142 l 0.54769,7.66666 h -5.77637 -5.77636 v 8.66666 8.66667 h 4.66667 c 4.55556,0 4.66666,-0.12699 4.66666,-5.33333 0,-4.79999 0.33334,-5.33333 3.33334,-5.33333 3,0 3.33333,0.53334 3.33333,5.33333 0,5.20635 0.11107,5.33333 4.66667,5.33333 4.55556,0 4.66666,-0.12699 4.66666,-5.33333 0,-4.79999 0.33334,-5.33333 3.33334,-5.33333 3,0 3.33333,0.53334 3.33333,5.33333 0,5.18852 0.12453,5.33333 4.58617,5.33333 4.33714,0 4.60866,-0.27152 5,-5 0.32846,-3.96839 1.01519,-5.08559 3.32848,-5.41487 2.50303,-0.35629 2.97378,0.30276 3.33334,4.66665 0.38168,4.63245 0.79413,5.11792 4.66686,5.49301 4.04345,0.39164 4.26836,0.16674 4.66667,-4.66666 0.33352,-4.04716 1.01021,-5.16235 3.33313,-5.493 2.50303,-0.35629 2.97377,0.30276 3.33333,4.66665 0.38168,4.63245 0.79414,5.11792 4.66687,5.49301 4.04345,0.39164 4.26836,0.16674 4.66667,-4.66666 0.36393,-4.41619 0.85298,-5.07812 3.75181,-5.07812 2.89883,0 3.38788,0.66193 3.75181,5.07812 0.39831,4.8334 0.62322,5.0583 4.66667,4.66666 3.87273,-0.37509 4.28519,-0.86056 4.66687,-5.49301 0.35956,-4.36389 0.8303,-5.02294 3.33333,-4.66665 2.32292,0.33065 2.99961,1.44584 3.33313,5.493 0.39831,4.8334 0.62322,5.0583 4.66667,4.66666 3.87273,-0.37509 4.28519,-0.86056 4.66687,-5.49301 0.35956,-4.36389 0.8303,-5.02294 3.33333,-4.66665 2.8522,0.40599 2.92247,0.90768 3.27947,23.41487 l 0.36482,23 H 257.09482 253.73 v -14.66667 -14.66666 h -4.66666 c -4.56454,0 -4.66667,0.11809 -4.66667,5.39557 v 5.39559 l -3.29144,-2.39559 c -1.81028,-1.31756 -3.31028,-3.74557 -3.33333,-5.39557 -0.0353,-2.5317 -0.77036,-3 -4.70856,-3 -2.56667,0 -4.66667,0.6 -4.66667,1.33333 0,0.73333 -1.8,1.33333 -4,1.33333 -2.2,0 -4,-0.6 -4,-1.33333 0,-0.73333 -2.1,-1.33333 -4.66667,-1.33333 -2.56666,0 -4.66666,0.6 -4.66666,1.33333 0,0.73333 -1.5,1.33333 -3.33334,1.33333 -1.83333,0 -3.33333,-0.6 -3.33333,-1.33333 0,-0.73333 -2.1,-1.33333 -4.66666,-1.33333 -2.56667,0 -4.66667,0.6 -4.66667,1.33333 0,0.73333 -1.5,1.33333 -3.33333,1.33333 -1.83334,0 -3.33334,-0.6 -3.33334,-1.33333 0,-0.73333 -2.1,-1.33333 -4.66666,-1.33333 -2.56667,0 -4.66667,0.6 -4.66667,1.33333 0,0.73333 -1.5,1.33333 -3.33333,1.33333 -1.83334,0 -3.33334,-0.6 -3.33334,-1.33333 0,-0.73333 -2.1,-1.33333 -4.66666,-1.33333 -2.56667,0 -4.66667,0.6 -4.66667,1.33333 0,0.73333 -1.5,1.33333 -3.33333,1.33333 -1.83334,0 -3.33334,-0.6 -3.33334,-1.33333 0,-0.73333 -2.1,-1.33333 -4.66666,-1.33333 -2.56667,0 -4.66667,0.6 -4.66667,1.33333 0,0.73333 -1.5,1.33333 -3.33333,1.33333 h -3.33334 l -0.0232,-17 c -0.0133,-9.82694 -0.85602,-20.938131 -1.99712,-26.333324 -4.71833,-22.308615 -20.38049,-44.430303 -37.38278,-52.800503 -7.62542,-3.75398 -9.41927,-4.113281 -18.19484,-3.644354 -6.882963,0.367794 -11.67706,1.485826 -16.362358,3.81587 -13.597985,6.762408 -28.131618,25.370768 -34.335765,43.962321 -2.58348,7.741743 -2.946402,12.188489 -3.400619,41.66666 l -0.508483,33 h 14.737013 14.737013 l 0.365572,-22.33333 0.365572,-22.33333 h 26.000005 25.99999 l 0.37569,14.06112 c 0.36205,13.55101 0.25321,14.17619 -3,17.23242 l -3.37569,3.17129 v -10.89909 c 0,-5.99449 -0.47255,-10.89908 -1.05012,-10.89908 -0.57757,0 -4.00375,2.99872 -7.61374,6.66382 l -6.56361,6.66382 5.61232,5.71855 c 5.29784,5.39809 5.48441,5.84646 3.32944,8.00142 -2.15497,2.15498 -2.60431,1.96746 -8.0187,-3.34637 l -5.73581,-5.62927 -6.964014,6.96402 -6.964014,6.96401 10.650793,0.0421 10.650795,0.0421 -3.74102,3.2912 -3.74102,3.29127 H 53.016042 21.784112 Z m 52.934047,7.74781 5.294431,-5.46329 -7.627765,-7.62777 -7.627765,-7.62776 v 14.36574 c 0,16.3788 0.151567,16.47547 9.961099,6.35308 z M 97.73001,117.6014 c 0,-0.57757 -5.7,-1.05013 -12.66667,-1.05013 -6.966665,0 -12.666665,0.42939 -12.666665,0.95421 0,0.52481 2.828402,3.82578 6.28534,7.33549 l 6.285345,6.38129 6.38132,-6.28537 c 3.50973,-3.45695 6.38133,-6.75793 6.38133,-7.33549 z M 22.365493,93.551279 c 0.478434,-3.116666 2.070826,-9.514863 3.538648,-14.218217 6.995662,-22.416224 20.754079,-39.84728 38.799959,-49.157125 6.196136,-3.196577 8.521863,-3.624656 19.69258,-3.624656 11.87738,0 13.18765,0.282511 21.02763,4.533829 19.70677,10.68622 36.48068,36.563249 40.92375,63.132836 1.05271,6.295194 4.71528,6.962534 4.71528,0.859127 0,-17.892673 -16.07687,-48.437647 -32.27215,-61.314911 -12.37451,-9.83928 -19.79107,-12.544213 -34.39451,-12.544213 -11.408313,0 -13.527654,0.410276 -21.333338,4.129841 -23.232125,11.070579 -41.355372,38.337533 -45.775219,68.870156 -0.613219,4.236154 -0.34712,4.999994 1.741852,4.999994 1.875413,0 2.673872,-1.356485 3.335518,-5.666661 z M 63.952231,79.66239 C 63.463342,79.173502 63.063342,73.173502 63.063342,66.329057 V 53.884614 H 83.73001 104.39667 V 67.217947 80.55128 H 84.6189 c -10.877781,0 -20.177781,-0.4 -20.666669,-0.88889 z M 97.73001,67.217947 V 60.55128 H 84.39668 71.063342 v 6.666667 6.666666 H 84.39668 97.73001 Z"
     id="path20"
     inkscape:connector-curvature="0" />
</svg>
