<?xml version="1.0" encoding="UTF-8" standalone="no"?>
<!-- Created with Inkscape (http://www.inkscape.org/) -->

<svg
   xmlns:dc="http://purl.org/dc/elements/1.1/"
   xmlns:cc="http://creativecommons.org/ns#"
   xmlns:rdf="http://www.w3.org/1999/02/22-rdf-syntax-ns#"
   xmlns:svg="http://www.w3.org/2000/svg"
   xmlns="http://www.w3.org/2000/svg"
   xmlns:sodipodi="http://sodipodi.sourceforge.net/DTD/sodipodi-0.dtd"
   xmlns:inkscape="http://www.inkscape.org/namespaces/inkscape"
   version="1.1"
   id="svg10"
   width="720.51611"
   height="620.44446"
   viewBox="0 0 720.51611 620.44446"
   sodipodi:docname="noun_1046368_cc.svg"
   inkscape:version="0.92.1 r15371">
  <metadata
     id="metadata16">
    <rdf:RDF>
      <cc:Work
         rdf:about="">
        <dc:format>image/svg+xml</dc:format>
        <dc:type
           rdf:resource="http://purl.org/dc/dcmitype/StillImage" />
        <dc:title></dc:title>
      </cc:Work>
    </rdf:RDF>
  </metadata>
  <defs
     id="defs14" />
  <sodipodi:namedview
     pagecolor="#ffffff"
     bordercolor="#666666"
     borderopacity="1"
     objecttolerance="10"
     gridtolerance="10"
     guidetolerance="10"
     inkscape:pageopacity="0"
     inkscape:pageshadow="2"
     inkscape:window-width="1366"
     inkscape:window-height="706"
     id="namedview12"
     showgrid="false"
     inkscape:zoom="0.86550858"
     inkscape:cx="360.25806"
     inkscape:cy="310.22223"
     inkscape:window-x="-8"
     inkscape:window-y="219"
     inkscape:window-maximized="1"
     inkscape:current-layer="svg10" />
  <path
     style="fill:#ffffff;stroke-width:0.95789492"
     d="m 229.97528,523.87895 -6.68437,-6.76312 -6.70968,6.3292 -6.70968,6.3292 -18.00447,-0.0105 -18.00448,-0.0105 -6.95018,-3.55555 c -3.82261,-1.95556 -7.17657,-3.55556 -7.45324,-3.55556 -0.27668,0 -3.67933,1.52968 -7.56147,3.39928 l -7.05841,3.39929 -33.80645,-0.3792 -33.806458,-0.3792 v -7.46452 -7.46454 h 32.501988 32.50199 l 8.39782,-4 c 4.61881,-2.2 8.58968,-4 8.82414,-4 0.23448,0 4.11023,1.8 8.61277,4 l 8.18645,4 14.22936,-0.0429 14.22935,-0.0429 9.18902,-8.90625 9.18903,-8.90624 5.87494,5.61587 c 3.23122,3.08873 7.07059,6.81587 8.53194,8.28254 l 2.65698,2.66666 7.32135,-3.4006 7.32134,-3.40061 8.66499,4.06727 8.66497,4.06728 14.29272,-9e-5 14.29272,-10e-5 8.48492,-6.22213 c 4.66672,-3.42217 8.79295,-6.22213 9.16941,-6.22213 0.37645,0 4.38048,2.6 8.89783,5.77778 4.51736,3.17778 8.87557,5.77778 9.6849,5.77778 0.80934,0 4.15873,-0.64335 7.44308,-1.42966 5.69975,-1.36457 6.32462,-1.34434 13.72768,0.44445 7.65141,1.8488 9.14031,1.8741 110.28505,1.8741 h 102.52891 l 7.15074,-5.11112 c 11.94138,-8.53529 9.86148,-8.4102 20.13489,-1.21089 l 9.02149,6.32201 h 24.02587 24.02587 v 8 8 h -26.26384 -26.26384 l -6.80522,-4.97144 c -4.7274,-3.45352 -7.18794,-4.71569 -8.05873,-4.13384 -0.68945,0.46067 -3.94258,2.69781 -7.22918,4.97143 l -5.97566,4.13372 H 470.95531 c -101.51664,0 -103.92186,-0.0395 -112.26896,-1.84221 l -8.52984,-1.84222 -8.50964,1.87095 c -4.68032,1.02901 -9.07025,1.58014 -9.7554,1.22472 -0.68515,-0.35543 -3.96299,-2.58424 -7.28409,-4.95294 -3.95788,-2.82286 -6.44748,-4.0344 -7.2258,-3.51635 -0.6531,0.43469 -3.87649,2.65058 -7.1631,4.9242 l -5.97566,4.13385 h -17.16208 -17.1621 l -7.60322,-3.59332 -7.60322,-3.59332 -8.3381,4.03776 c -4.58597,2.22077 -8.64779,4.03777 -9.02627,4.03777 -0.3785,0 -3.69615,-3.0434 -7.37255,-6.76312 z m 180.73089,-44.57021 0.0605,-19.33334 4.40786,-13.33208 4.40787,-13.33209 -2.89731,-9.77902 c -2.66182,-8.98418 -2.89915,-11.13372 -2.91992,-26.4457 -0.0212,-15.60035 -0.14444,-16.66667 -1.92712,-16.66667 -1.04749,0 -2.78943,0.84136 -3.87097,1.8697 -1.82175,1.73213 -2.00442,3.9395 -2.48257,30 l -0.51613,28.13031 -7.53447,0.26204 -7.53447,0.26204 0.30866,-30.48426 c 0.29716,-29.34784 0.39247,-30.61908 2.55649,-34.10046 3.05007,-4.90677 9.65294,-9.86062 14.70413,-11.03186 2.85995,-0.66314 26.41801,-0.88711 75.15528,-0.71449 67.16368,0.23788 71.18426,0.34138 74.60244,1.92054 1.9871,0.91801 11.9742,8.76323 22.19355,17.43381 l 18.58065,15.7647 11.44932,3.25941 c 8.39402,2.38963 12.25049,3.97925 14.45161,5.95692 l 3.00229,2.69751 0.86759,27.33422 c 1.10712,34.88078 1.43847,34.00589 -14.24678,37.6184 -4.20252,0.96789 -5.15445,0.89709 -8.44315,-0.62801 -4.69124,-2.17551 -16.76565,-11.76213 -20.05937,-15.92637 l -2.50538,-3.16755 -9.29033,-0.004 -9.29032,-0.004 -3.35484,4.23886 -3.35484,4.23886 v 16.64831 16.64831 h -7.2258 -7.22581 v -16.82836 -16.82836 l -3.09682,-1.89866 c -1.70323,-1.04435 -3.12479,-1.5716 -3.15904,-1.17163 -0.0343,0.39995 -1.07942,8.72719 -2.32259,18.50497 l -2.26031,17.77777 -7.48387,0.26117 -7.48387,0.26116 v -2.52197 c 0,-1.38708 0.92903,-10.28724 2.06451,-19.77813 1.13549,-9.49089 2.06452,-17.97353 2.06452,-18.85031 0,-1.49321 -1.74901,-1.59414 -27.62668,-1.59414 h -27.62669 l -5.35434,3.10501 c -4.99774,2.89823 -5.29087,3.26824 -4.40114,5.55556 0.76435,1.96501 8.43773,22.82066 11.77596,32.0061 0.71226,1.95986 0.56067,2 -7.55217,2 h -8.279 l -5.46797,-14.69165 -5.46798,-14.69164 -7.22579,3.88038 -7.22582,3.88038 -0.28984,10.81127 -0.28983,10.81126 h -7.71017 -7.71016 l 0.0604,-19.33333 z m 202.72666,-21.78996 c -0.0284,-1.82663 -0.14451,-11.09291 -0.25806,-20.59172 l -0.20645,-17.27057 -10.58065,-2.88982 c -11.81544,-3.22707 -10.60639,-2.4182 -38.02418,-25.4386 l -12.99194,-10.90823 h -61.07258 -61.07258 l 0.0182,14.44445 c 0.0168,13.33391 0.28561,15.39451 3.49618,26.80178 l 3.47799,12.35732 -4.08291,11.95226 c -2.24559,6.57373 -3.92201,12.09079 -3.72536,12.26012 0.19663,0.16933 7.77679,-3.66885 16.84479,-8.52928 l 16.48725,-8.83716 35.45463,-0.003 35.45461,-0.003 8.82515,4.95355 c 4.85382,2.72446 9.10569,4.60524 9.4486,4.17951 0.3429,-0.42572 2.15546,-2.65481 4.02789,-4.95355 l 3.40445,-4.17922 h 16.31981 16.31983 l 3.88648,5.42208 c 4.63108,6.46086 14.63625,15.21099 16.95337,14.82673 1.16936,-0.19393 1.63217,-1.23649 1.59552,-3.59432 z m -502.39998,20.90149 -33.806458,-0.24694 v -7.5434 -7.54342 h 64.345488 c 35.39002,0 102.74484,0.26587 149.67741,0.59082 l 85.33194,0.59081 v 7.40919 7.40918 l -115.87097,-0.20965 c -63.72903,-0.11531 -131.08387,-0.32077 -149.67741,-0.45659 z m 61.84946,-30.14858 c -0.3785,-0.32592 -0.68818,-6.14 -0.68818,-12.92016 0,-15.59522 -0.61429,-16.70946 -9.21216,-16.70946 -5.83981,0 -5.90964,0.0316 -10.76106,4.87051 -2.68572,2.67879 -7.00253,6.1262 -9.59293,7.6609 -3.9366,2.33228 -5.4195,2.72149 -9.03265,2.37081 -5.95441,-0.57794 -11.46656,-2.99912 -12.87107,-5.65355 -1.87354,-3.54086 -1.59085,-42.22711 0.3376,-46.20151 1.57288,-3.2416 6.74996,-5.82357 16.95673,-8.45687 3.45629,-0.89171 7.63058,-3.81181 19.20004,-13.43125 8.13095,-6.76049 16.43763,-12.88694 18.45927,-13.61432 3.09085,-1.11207 12.01672,-1.32171 56.09597,-1.31754 31.42513,0.003 53.89429,0.35756 56.10061,0.88535 5.17305,1.23746 11.90502,6.49741 15.19962,11.87604 l 2.79744,4.56698 v 22.22222 22.22223 h -7.22581 -7.2258 l -0.51613,-20.13119 c -0.46619,-18.1834 -0.7064,-20.312 -2.48257,-22 -1.08154,-1.02785 -2.35896,-1.86881 -2.83871,-1.86881 -0.47974,0 -0.87227,4.96841 -0.87227,11.04092 0,8.03 -0.57501,13.12575 -2.10851,18.68585 l -2.10852,7.64492 3.14078,9.744 c 2.916,9.04668 3.14077,10.79463 3.14077,24.42526 v 14.68127 h -7.74194 -7.74193 v -7.48306 -7.48306 l -3.68847,-1.96298 c -2.0568,-1.09462 -4.05486,-1.61822 -4.51674,-1.18361 -0.45554,0.42866 -2.31791,4.67938 -4.13859,9.44604 l -3.31033,8.66667 h -8.28337 c -6.90085,0 -8.18523,-0.22026 -7.69529,-1.31969 0.32345,-0.72583 2.56321,-6.77259 4.97725,-13.43726 l 4.38916,-12.11757 -2.40052,-1.67385 c -2.16637,-1.51058 -4.35279,-1.67385 -22.4152,-1.67385 h -20.01468 l 0.0103,2 c 0.005,1.1 0.69338,7.2 1.52824,13.55555 0.83487,6.35556 1.527,12.25556 1.53808,13.11111 0.0172,1.33375 -1.00155,1.55556 -7.14474,1.55556 -3.94069,0 -7.40141,-0.32953 -7.69047,-0.73229 -0.28906,-0.40276 -1.09883,-6.00276 -1.79946,-12.44445 -0.70065,-6.44168 -1.65285,-11.71215 -2.116,-11.71215 -0.46316,0 -0.84211,5.6 -0.84211,12.44445 v 12.44444 h -7.05376 c -3.87956,0 -7.36343,-0.26667 -7.74192,-0.5926 z m -31.31598,-35.83364 c 1.44492,-1.47869 3.67088,-4.28771 4.94658,-6.24226 l 2.31945,-3.55372 h 13.67512 13.6751 l 2.31665,2.88889 c 1.27416,1.58888 2.4139,3.00976 2.53276,3.1575 0.11886,0.14773 3.1284,-1.35227 6.68786,-3.33334 l 6.47177,-3.60194 h 25.69768 c 28.72862,0 26.1573,-0.46815 40.34907,7.34624 4.42435,2.43617 8.20152,4.27987 8.39372,4.09713 0.19219,-0.18274 -0.71812,-3.39796 -2.02292,-7.14493 l -2.37235,-6.81267 2.47409,-8.29844 c 1.96812,-6.60139 2.47832,-10.61614 2.49478,-19.63178 l 0.0207,-11.33333 h -43.86799 -43.868 l -4.39006,3.2772 c -2.41453,1.80245 -9.37426,7.48761 -15.46606,12.63366 -10.11569,8.54526 -11.72665,9.552 -18.58065,11.61169 l -7.50465,2.25523 -0.28522,13.59935 c -0.27619,13.16857 -0.22249,13.57043 1.69511,12.6867 1.08918,-0.50195 3.16254,-2.12249 4.60747,-3.60118 z M 77.226392,307.08651 v -7.55556 H 366.25865 655.2909 v 7.55556 7.55555 H 366.25865 77.226392 Z M 104.3428,231.3487 c 0.34942,-46.86043 0.61162,-53.94011 2.21538,-59.81775 6.70508,-24.57356 17.05012,-41.56719 35.0337,-57.54934 51.32888,-45.616351 131.57618,-32.79621 166.71297,26.63371 5.9179,10.00948 10.82493,22.45767 13.27319,33.6716 1.60841,7.36709 1.82517,14.3468 1.83301,59.02181 l 0.009,50.66667 h -7.22581 -7.2258 l -0.55061,-50.66667 c -0.59523,-54.77249 -0.67933,-55.66057 -6.75789,-71.36247 -11.47217,-29.63441 -37.6624,-51.56489 -69.37872,-58.09449 -11.90577,-2.45111 -31.05338,-1.98837 -42.02246,1.01555 -28.39439,7.7759 -51.58502,27.64824 -63.15551,54.11878 -6.92092,15.83343 -6.8447,15.09474 -7.48541,72.54485 l -0.58488,52.44445 -7.54319,0.26219 -7.54319,0.2622 0.39633,-53.15109 z m 62.69004,13.50653 V 206.1795 l 46.70968,0.23128 46.70967,0.23128 0.26903,38.44445 0.26903,38.44444 H 247.7336 234.47695 l -10.20676,-10.25303 c -9.73101,-9.77513 -10.28039,-10.17253 -11.78657,-8.52595 -0.8689,0.94991 -5.51009,5.56377 -10.31377,10.25304 l -8.73394,8.52594 h -13.20154 -13.20153 z m 27.24658,16.10127 c 7.57562,-7.50061 8.6948,-9.0067 7.59615,-10.22222 -3.13303,-3.46625 -18.58165,-18.75888 -18.95024,-18.75888 -0.22474,0 -0.40863,9.08571 -0.40863,20.19048 0,17.29502 0.20637,20.00381 1.43903,18.88889 0.79149,-0.71588 5.43712,-5.2601 10.32369,-10.09827 z m 51.20503,-8.09221 c 0,-10.51112 -0.34838,-19.08668 -0.7742,-19.05681 -1.12656,0.079 -18.32257,17.50741 -18.32257,18.57019 0,0.92592 17.72509,19.59773 18.60406,19.59773 0.27099,0 0.49271,-8.6 0.49271,-19.11111 z m -21.28191,-21.06825 c 4.89215,-4.74308 8.89481,-8.84308 8.89481,-9.11111 0,-0.26801 -8.36128,-0.48731 -18.58064,-0.48731 -10.21935,0 -18.58064,0.22546 -18.58064,0.50103 0,1.01596 17.77935,18.24629 18.56153,17.98835 0.44557,-0.14694 4.8128,-4.14786 9.70494,-8.89096 z m 114.18514,23.29047 v -28.44445 h 7.74193 7.74194 v 10.22222 10.22223 h 9.29031 9.29033 v -10.22223 -10.22222 h 7.74194 7.74193 v 10.22222 10.22223 h 9.29033 9.29032 v -10.22223 -10.22222 h 7.74193 7.74194 v 10.22222 10.22223 h 9.80645 9.80645 v -10.26117 -10.26116 l 7.48387,0.26116 7.48387,0.26117 0.29187,10 0.29188,10 h 9.25651 9.25652 v -10.22223 -10.22222 h 7.74193 7.74194 v 10.22222 10.22223 h 9.29032 9.29032 v -10.22223 -10.22222 h 7.74194 7.74193 v 10.22222 10.22223 h 9.29033 9.29032 v -10.22223 -10.22222 h 7.74193 7.74194 v 10.22222 10.22223 h 9.80645 9.80645 v -10.22223 -10.22222 h 7.74194 7.74193 v 10.22222 10.22223 h 9.29032 9.29033 v -10.22223 -10.22222 h 7.74193 7.74194 v 28.44445 28.44444 h -7.74194 -7.74193 v -10.22222 -10.22222 h -9.29033 -9.29032 v 10.22222 10.22222 h -7.74193 -7.74194 v -10.22222 -10.22222 h -9.80645 -9.80645 v 10.26116 10.26117 l -7.48387,-0.26117 -7.48387,-0.26116 -0.29187,-10 -0.29188,-10 h -9.25651 -9.25652 v 10.22222 10.22222 h -7.74193 -7.74194 v -10.22222 -10.22222 h -9.29033 -9.29032 v 10.22222 10.22222 h -7.74194 -7.74193 v -10.22222 -10.22222 h -9.25652 -9.25651 l -0.29188,10 -0.29187,10 -7.48387,0.26116 -7.48387,0.26117 v -10.26117 -10.26116 h -9.80645 -9.80645 v 10.22222 10.22222 h -7.74194 -7.74193 v -10.22222 -10.22222 h -9.29032 -9.29033 v 10.22222 10.22222 h -7.74193 -7.74194 v -10.22222 -10.22222 h -9.29032 -9.29032 v 10.22222 10.22222 h -7.74194 -7.74193 z M 184.58123,158.64206 v -20 h 30.96774 30.96774 v 20 20 h -30.96774 -30.96774 z m 46.45161,-0.44444 v -4.44445 H 215.54897 200.0651 v 4.44445 4.44444 h 15.48387 15.48387 z"
     id="path20"
     inkscape:connector-curvature="0" />
</svg>
