<?xml version="1.0" encoding="UTF-8" standalone="no"?>
<!-- Created with Inkscape (http://www.inkscape.org/) -->

<svg
   xmlns:dc="http://purl.org/dc/elements/1.1/"
   xmlns:cc="http://creativecommons.org/ns#"
   xmlns:rdf="http://www.w3.org/1999/02/22-rdf-syntax-ns#"
   xmlns:svg="http://www.w3.org/2000/svg"
   xmlns="http://www.w3.org/2000/svg"
   xmlns:sodipodi="http://sodipodi.sourceforge.net/DTD/sodipodi-0.dtd"
   xmlns:inkscape="http://www.inkscape.org/namespaces/inkscape"
   version="1.1"
   id="svg10"
   width="68.160004"
   height="68.160004"
   viewBox="0 0 68.160004 68.160004"
   sodipodi:docname="161810.svg"
   inkscape:version="0.92.1 r15371">
  <metadata
     id="metadata16">
    <rdf:RDF>
      <cc:Work
         rdf:about="">
        <dc:format>image/svg+xml</dc:format>
        <dc:type
           rdf:resource="http://purl.org/dc/dcmitype/StillImage" />
        <dc:title></dc:title>
      </cc:Work>
    </rdf:RDF>
  </metadata>
  <defs
     id="defs14" />
  <sodipodi:namedview
     pagecolor="#ffffff"
     bordercolor="#666666"
     borderopacity="1"
     objecttolerance="10"
     gridtolerance="10"
     guidetolerance="10"
     inkscape:pageopacity="0"
     inkscape:pageshadow="2"
     inkscape:window-width="1366"
     inkscape:window-height="706"
     id="namedview12"
     showgrid="false"
     inkscape:zoom="7.8785207"
     inkscape:cx="34.080002"
     inkscape:cy="34.080002"
     inkscape:window-x="-8"
     inkscape:window-y="219"
     inkscape:window-maximized="1"
     inkscape:current-layer="svg10" />
  <path
     style="fill:#000000;stroke-width:0.32000002"
     d="m -0.00178769,60.779281 v -7.540275 l 1.04000009,0.100275 c 0.914472,0.08817 1.0521032,0.225805 1.1402747,1.140275 l 0.1002748,1.04 h 5.7194508 5.7194513 l 0.100275,-1.04 c 0.08817,-0.91447 0.225803,-1.052102 1.140275,-1.140275 0.997521,-0.09618 1.04,-0.0537 1.04,1.04 v 1.140275 h 5.92 5.920001 v -1.12 c 0,-1.03111 0.07619,-1.12 0.96,-1.12 h 0.96 v 7.520001 7.52 h -0.939726 c -0.8263,0 -0.951828,-0.12553 -1.04,-1.04 l -0.100274,-1.04 -5.840001,-0.08722 -5.84,-0.08722 v 1.12722 c 0,1.074918 -0.05197,1.127219 -1.12,1.127219 -1.066667,0 -1.12,-0.05333 -1.12,-1.12 v -1.12 H 7.9982127 2.2382124 v 1.12 c 0,1.066666 -0.053333,1.12 -1.12,1.12 H -0.00178769 Z M 10.878214,64.013045 c 0,-0.08058 -0.648,-0.526263 -1.4400013,-0.990407 l -1.44,-0.843894 -1.44,0.843894 c -0.792,0.464144 -1.4400001,0.909828 -1.4400001,0.990407 0,0.08058 1.2960001,0.146512 2.8800001,0.146512 1.584,0 2.8800013,-0.06593 2.8800013,-0.146512 z m 13.502601,-0.253488 c -0.18467,-0.22 -0.835536,-0.666724 -1.446369,-0.99272 l -1.110605,-0.59272 -1.472813,0.863126 c -0.810048,0.47472 -1.472814,0.921443 -1.472814,0.99272 0,0.07128 1.313632,0.129594 2.919183,0.129594 2.301087,0 2.848089,-0.0847 2.583418,-0.4 z M 5.6078367,60.943985 c 0.115827,-0.187411 -2.8428541,-2.224429 -3.2308869,-2.224429 -0.076306,0 -0.1387374,1.002052 -0.1387374,2.226785 v 2.22678 l 1.6173374,-1.005392 c 0.8895357,-0.552966 1.6780649,-1.103651 1.7522869,-1.223744 z m 8.0469003,-2.114573 c -0.135154,-0.135155 -3.416523,1.805745 -3.416523,2.020839 0,0.06327 0.756,0.600851 1.68,1.19463 l 1.68,1.0796 0.09548,-2.080313 c 0.05252,-1.14417 0.03498,-2.14081 -0.03896,-2.214756 z m 5.857168,2.077591 c 0.0061,-0.204 -3.039229,-2.187447 -3.358498,-2.187447 -0.08536,0 -0.155193,1.001194 -0.155193,2.224871 v 2.224874 l 1.753691,-1.024874 c 0.96453,-0.563677 1.75653,-1.120518 1.76,-1.237424 z m 8.32631,-0.107446 c 0,-1.144001 -0.114673,-2.080001 -0.254829,-2.080001 -0.140155,0 -1.01547,0.4796 -1.945144,1.065776 l -1.690317,1.065773 1.545145,1.010461 c 2.200717,1.439178 2.345145,1.373773 2.345145,-1.062009 z M 10.851547,57.872728 c 0.07333,-0.06224 -1.2156013,-0.113172 -2.8642983,-0.113172 H 4.9896184 l 1.4242973,0.922349 1.424297,0.922349 1.44,-0.809178 C 10.070214,58.35003 10.778214,57.934971 10.851547,57.872728 Z m 12.526627,-0.0511 c -0.704357,-0.05386 -1.968994,-0.05386 -2.810304,0 l -1.529656,0.09793 1.417506,0.837386 1.417506,0.837389 1.392799,-0.837389 1.392798,-0.837386 z m 9.020041,10.285997 C 32.088445,67.98263 32.001664,65.407744 32.013504,56.692889 l 0.01529,-11.253335 3.264711,-5.920001 3.26471,-5.92 5.440001,-2.785622 c 2.992,-1.532092 5.728,-2.785622 6.08,-2.785622 0.352,0 3.083757,1.25353 6.07057,2.785622 l 5.43057,2.785622 3.28943,6.04888 3.289431,6.048877 v 10.927124 c 0,8.072206 -0.100326,11.027447 -0.384,11.311121 -0.28983,0.28983 -4.625571,0.377805 -17.680001,0.358736 -9.512801,-0.01389 -17.476001,-0.09789 -17.696001,-0.186666 z m 13.361197,-5.62807 c 9.6e-4,-3.027629 0.102295,-3.765818 0.637076,-4.642925 1.353955,-2.220666 3.832765,-2.901156 5.794406,-1.590698 1.771165,1.183216 2.206253,2.44376 2.206826,6.393623 l 4.96e-4,3.44 h 5.760001 5.76 v -9.600001 -9.6 H 50.078216 34.238215 v 9.6 9.600001 h 5.76 5.760001 l 0.0013,-3.6 z m 11.838804,1.52 c 0,-1.031111 0.07619,-1.12 0.96,-1.12 0.883808,0 0.96,0.08889 0.96,1.12 0,1.03111 -0.07619,1.12 -0.96,1.12 -0.883808,0 -0.96,-0.08889 -0.96,-1.12 z m 4.160001,-0.02029 c 0,-1.0937 0.04248,-1.13618 1.04,-1.04 0.91447,0.08817 1.052102,0.225804 1.140275,1.140275 0.09618,0.99752 0.0537,1.04 -1.04,1.04 -1.093699,1.3e-5 -1.140275,-0.04656 -1.140275,-1.140262 z m -25.401759,-7.99546 c -0.409958,-1.068333 -0.21655,-6.130707 0.248983,-6.517066 0.290768,-0.241315 1.550208,-0.338986 3.6,-0.279184 l 3.152775,0.092 v 3.52 3.52 l -3.401757,0.09044 c -2.889869,0.07683 -3.431591,0.0127 -3.600001,-0.426173 z m 5.241757,-3.024253 v -1.6 h -1.6 -1.6 v 1.6 1.6 h 1.6 1.6 z m 15.104001,3.136 c -0.478774,-0.478774 -0.520297,-5.483402 -0.05274,-6.357037 0.293363,-0.548154 0.694765,-0.618963 3.508743,-0.618963 3.810381,0 3.84,0.02925 3.84,3.79279 0,3.72466 0.161113,3.56721 -3.650237,3.56721 -2.11026,0 -3.397328,-0.135565 -3.645764,-0.384 z m 5.056001,-3.136 v -1.6 h -1.6 -1.600001 v 1.6 1.6 h 1.600001 1.6 z m -9.600001,9.600001 c 0,-3.093335 -0.07757,-3.597575 -0.64,-4.160001 -0.777469,-0.777468 -2.141024,-0.828761 -2.934803,-0.110403 -0.501421,0.453779 -0.585197,1.049322 -0.585197,4.16 v 3.630404 h 2.08 2.08 z M 39.838215,42.719555 c -1.22256,-1.232 -2.332624,-2.24 -2.466813,-2.24 -0.189446,0 -1.725958,2.672679 -2.437555,4.240001 -0.05993,0.132 1.519171,0.24 3.50912,0.24 h 3.618084 z m 8.480001,2.149069 c 0,-0.05001 -0.792,-0.873094 -1.76,-1.829068 l -1.76,-1.738138 v 1.829069 1.829069 h 1.76 c 0.968,0 1.76,-0.04092 1.76,-0.09093 z m 7.04,-1.898137 v -1.989069 l -1.76,1.738137 c -0.968,0.955975 -1.76,1.851057 -1.76,1.989069 0,0.138013 0.792,0.250932 1.76,0.250932 h 1.76 z m 9.406494,0.949069 c -0.291472,-0.572 -0.891728,-1.663735 -1.333911,-2.426077 l -0.803962,-1.38608 -2.19431,2.177497 c -1.206871,1.197623 -2.194311,2.289357 -2.194311,2.426077 0,0.13672 1.5877,0.248583 3.528218,0.248583 h 3.528218 z M 42.44803,34.182701 c -0.07182,-0.07182 -0.616407,0.101392 -1.210195,0.384905 -0.669581,0.319703 -1.402317,1.084512 -1.929271,2.013716 l -0.849651,1.498233 1.969651,2.010282 1.969651,2.010282 0.0902,-3.893421 c 0.04961,-2.14138 0.03142,-3.95218 -0.04038,-4.023997 z m 4.446199,1.518793 -2.096013,-2.096013 v 2.228426 2.228429 l 2,2.020096 2,2.020093 0.09601,-2.152509 0.09601,-2.152512 z m 8.463987,0.156551 v -2.24 l -2.08,2.06151 -2.08,2.061511 v 2.24 2.24 l 2.08,-2.061511 2.08,-2.06151 z m 5.467063,0.839286 c -0.520934,-1.112214 -1.05721,-1.72529 -1.832608,-2.09505 -0.602893,-0.2875 -1.163283,-0.522726 -1.245312,-0.522726 -0.08203,0 -0.149143,1.83456 -0.149143,4.0768 v 4.0768 l 1.981751,-1.98175 1.981747,-1.981747 z M 48.845006,30.979678 c -0.126957,-0.126956 -2.028358,0.708885 -2.425997,1.066447 -0.07657,0.06885 0.427434,0.706652 1.12,1.417344 l 1.259207,1.292166 0.09705,-1.81432 c 0.05338,-0.997878 0.03075,-1.880615 -0.05026,-1.961637 z m 4.91321,1.174202 c 0,-0.180188 -2.069965,-1.274325 -2.410858,-1.274325 -0.08203,0 -0.149142,0.893224 -0.149142,1.984944 v 1.984944 l 1.28,-1.249888 c 0.704,-0.687437 1.28,-1.337991 1.28,-1.445675 z m -37.697535,17.685676 0.09753,-1.52 3.12,-0.09159 3.12,-0.09159 v 0.971588 c 0,0.613894 -0.162973,0.971587 -0.442678,0.971587 -0.243472,0 -0.517992,0.288 -0.610041,0.64 -0.121866,0.466016 -0.436486,0.64 -1.157322,0.64 -0.776625,0 -0.989959,-0.137917 -0.989959,-0.64 0,-0.352 -0.199205,-0.64 -0.442678,-0.64 -0.243473,0 -0.517992,0.288 -0.610042,0.64 -0.122657,0.469043 -0.436485,0.64 -1.174855,0.64 -1.002275,0 -1.006986,-0.0079 -0.909958,-1.52 z m -8.7024683,-2.32 c 0,-0.355555 -0.213333,-0.64 -0.48,-0.64 -0.32,0 -0.48,-0.32 -0.48,-0.96 v -0.96 h 3.005764 c 3.3098263,0 3.3942373,0.05238 3.3942373,2.106173 0,1.036755 -0.05844,1.093827 -1.12,1.093827 -0.906667,0 -1.12,-0.121904 -1.12,-0.64 0,-0.355555 -0.213334,-0.64 -0.48,-0.64 -0.2666673,0 -0.4800013,0.284445 -0.4800013,0.64 0,0.518096 -0.213333,0.64 -1.12,0.64 -0.906666,0 -1.12,-0.121904 -1.12,-0.64 z m 15.0400013,-4.32 c 0,-0.264 -0.216,-0.480001 -0.48,-0.480001 -0.337765,0 -0.48,-0.341315 -0.48,-1.15184 v -1.15184 l 2.85373,0.11184 c 1.569552,0.06151 2.94966,0.207949 3.066906,0.325412 0.117247,0.117465 0.292028,0.801465 0.388404,1.52 l 0.175229,1.306429 h -1.162134 c -0.819675,0 -1.162134,-0.141447 -1.162134,-0.48 0,-0.264 -0.216001,-0.480001 -0.480001,-0.480001 -0.264,0 -0.48,0.216001 -0.48,0.480001 0,0.335238 -0.337777,0.48 -1.12,0.48 -0.782222,0 -1.12,-0.144762 -1.12,-0.48 z M 4.1582125,42.239555 c 0,-0.264 -0.216,-0.48 -0.48,-0.48 -0.3352381,0 -0.48,-0.337779 -0.48,-1.12 v -1.12 h 2.8160002 c 3.204386,0 3.584,0.210144 3.584,1.984 0,1.176381 -0.03649,1.216 -1.12,1.216 -0.782222,0 -1.12,-0.144761 -1.12,-0.48 0,-0.264 -0.216,-0.48 -0.48,-0.48 -0.264,0 -0.48,0.216 -0.48,0.48 0,0.335239 -0.337778,0.48 -1.12,0.48 -0.7822222,0 -1.1200002,-0.144761 -1.1200002,-0.48 z m 6.4000015,-7.136 c 0,-1.773856 0.379614,-1.984 3.584,-1.984 h 2.816 v 1.12 c 0,0.782221 -0.144762,1.12 -0.48,1.12 -0.264,0 -0.48,0.216 -0.48,0.48 0,0.335239 -0.337778,0.48 -1.12,0.48 -0.782222,0 -1.12,-0.144761 -1.12,-0.48 0,-0.264 -0.216,-0.48 -0.48,-0.48 -0.264,0 -0.48,0.216 -0.48,0.48 0,0.335239 -0.337778,0.48 -1.12,0.48 -1.083509,0 -1.12,-0.03962 -1.12,-1.216 z m 10.942467,-4.464 0.09753,-1.52 3.12,-0.09159 3.120001,-0.09159 v 1.001546 c 0,0.732425 -0.171972,1.046518 -0.64,1.16891 -0.352,0.09205 -0.64,0.366569 -0.64,0.610042 0,0.278531 -0.355973,0.442678 -0.96,0.442678 -0.640001,0 -0.960001,-0.16 -0.960001,-0.48 0,-0.266667 -0.284444,-0.48 -0.64,-0.48 -0.355555,0 -0.64,0.213333 -0.64,0.48 0,0.321913 -0.321948,0.48 -0.977533,0.48 -0.966536,0 -0.976436,-0.0171 -0.88,-1.52 z m -21.44000189,-0.96 0.097533,-1.52 3.12000019,-0.09159 3.1200002,-0.09159 v 0.971588 c 0,0.613894 -0.162974,0.971588 -0.442678,0.971588 -0.243473,0 -0.517992,0.288 -0.610042,0.64 -0.1218654,0.466015 -0.4364849,0.64 -1.1573218,0.64 -0.776625,0 -0.9899584,-0.137919 -0.9899584,-0.64 0,-0.352 -0.1992051,-0.64 -0.442678,-0.64 -0.2434729,0 -0.5179917,0.288 -0.6100418,0.64 -0.1226575,0.469043 -0.436485,0.64 -1.17485519,0.64 -1.0022753,0 -1.0069866,-0.0079 -0.9099584,-1.52 z m 33.95025589,0.88 c -0.09205,-0.352 -0.36657,-0.64 -0.610042,-0.64 -0.279705,0 -0.442678,-0.357694 -0.442678,-0.971588 v -0.971588 l 3.12,0.09159 3.12,0.09159 0.09753,1.52 c 0.09703,1.51213 0.09232,1.52 -0.909958,1.52 -0.738372,0 -1.052199,-0.170957 -1.174855,-0.64 -0.09205,-0.352 -0.366569,-0.64 -0.610041,-0.64 -0.243472,0 -0.442679,0.288 -0.442679,0.64 0,0.502081 -0.213334,0.64 -0.989958,0.64 -0.720839,0 -1.035456,-0.173985 -1.157322,-0.64 z M -0.00178769,23.679554 v -1.12 H 23.275357 46.552501 l -6.713492,-6.719205 -6.713488,-6.719205 -4.008103,3.999205 c -2.23985,2.234878 -4.269406,3.999205 -4.600401,3.999205 -0.325764,0 -1.697871,-1.075883 -3.049126,-2.390852 l -2.456828,-2.390852 -4.301979,4.310852 c -2.366088,2.370969 -4.45014,4.310852 -4.631226,4.310852 -0.1810873,0 -2.1249273,-1.8 -4.3196453,-4 -3.1857798,-3.193447 -4.1688064,-4 -4.87519839,-4 -0.7978689,0 -0.884802,-0.110042 -0.884802,-1.12 0,-1.083084 0.039994,-1.12 1.21337349,-1.12 1.016036,0 1.4440757,0.235068 2.6318971,1.44537 l 1.4185238,1.44537 6.7308323,-6.7253706 c 3.701958,-3.6989538 6.943915,-6.72537063 7.20435,-6.72537063 0.260436,0 2.638775,2.16187503 5.285198,4.80416673 l 4.811679,4.8041663 1.580045,-1.6041661 c 0.869025,-0.8822916 1.799458,-1.6041665 2.067624,-1.6041665 0.26817,0 2.325446,1.8337866 4.571728,4.0750818 l 4.084148,4.075082 3.605309,-3.595082 c 1.982921,-1.9772951 3.733168,-3.5950818 3.88944,-3.5950818 0.156269,0 1.88759,1.5820161 3.847379,3.5155918 l 3.563255,3.515591 2.379603,-2.395591 c 1.308781,-1.317575 2.596359,-2.3955916 2.86128,-2.3955916 0.264922,0 1.741479,1.2539636 3.281236,2.7865866 l 2.799555,2.786586 -0.697065,0.741992 -0.697063,0.741992 -2.261792,-2.246696 -2.261792,-2.246696 -5.110618,5.118118 -5.110621,5.118118 h 8.23625 8.23625 v 1.12 1.12 H 34.078215 -0.00178769 Z m 52.00225369,-4.64226 2.868905,-2.88226 -2.955577,-2.955578 -2.955578,-2.955578 -2.955578,2.955578 -2.955578,2.955578 2.868906,2.88226 c 1.577898,1.585243 2.946912,2.88226 3.04225,2.88226 0.09534,0 1.464352,-1.297017 3.04225,-2.88226 z M 19.195277,9.7595534 c 0.257828,0 1.556275,1.0811186 2.885438,2.4024866 l 2.41666,2.402486 1.582158,-1.60631 L 27.66169,11.351905 23.353715,7.0350447 19.045741,2.7181848 13.041977,8.7157107 C 9.7399067,12.01435 7.0382127,14.853712 7.0382127,15.025404 c 0,0.171691 0.680346,1.002899 1.511881,1.847128 l 1.5118813,1.534962 4.332262,-4.32397 C 16.77698,11.70534 18.937448,9.7595534 19.195277,9.7595534 Z M 40.619527,8.495873 C 38.340519,7.8050185 37.438215,6.5705554 37.438215,4.1434442 c 0,-1.2602978 0.163539,-1.6514306 1.069139,-2.557029 1.222013,-1.22201523 2.306065,-1.58528503 3.860503,-1.29367083 3.381194,0.6343157 4.529124,4.91969573 1.929309,7.20236443 -0.616672,0.5414445 -1.320432,0.9844445 -1.563914,0.9844445 -0.243481,0 -0.63447,0.059511 -0.868864,0.1322477 -0.234397,0.072736 -0.794582,0.02057 -1.244861,-0.115928 z M 42.807012,6.0614079 C 43.669937,5.4569925 43.765214,3.8428772 42.988619,2.98475 42.289867,2.2126378 40.797787,2.2399821 39.998215,3.039553 c -0.817673,0.8176733 -0.810742,1.6166285 0.02323,2.6768452 0.750647,0.9542907 1.740644,1.0769076 2.785572,0.3450097 z m 11.591204,0.4981453 c 0,-0.8533335 0.106666,-0.9600001 0.96,-0.9600001 0.853335,0 0.96,0.1066666 0.96,0.9600001 0,0.8533335 -0.106665,0.96 -0.96,0.96 -0.853334,0 -0.96,-0.1066665 -0.96,-0.96 z m 6.400001,0 c 0,-0.8533335 0.106665,-0.9600001 0.96,-0.9600001 0.853334,0 0.96,0.1066666 0.96,0.9600001 0,0.8533335 -0.106666,0.96 -0.96,0.96 -0.853335,0 -0.96,-0.1066665 -0.96,-0.96 z M 51.198216,2.2395529 c 0,-1.0311111 0.07619,-1.12 0.96,-1.12 0.883808,0 0.96,0.088889 0.96,1.12 0,1.0311112 -0.07619,1.1200001 -0.96,1.1200001 -0.883808,0 -0.96,-0.088889 -0.96,-1.1200001 z m 6.4,0 c 0,-1.0311111 0.07619,-1.12 0.96,-1.12 0.883808,0 0.96,0.088889 0.96,1.12 0,1.0311112 -0.07619,1.1200001 -0.96,1.1200001 -0.883808,0 -0.96,-0.088889 -0.96,-1.1200001 z m 6.400001,0 c 0,-1.0311111 0.07619,-1.12 0.96,-1.12 0.883808,0 0.96,0.088889 0.96,1.12 0,1.0311112 -0.07619,1.1200001 -0.96,1.1200001 -0.883808,0 -0.96,-0.088889 -0.96,-1.1200001 z"
     id="path20"
     inkscape:connector-curvature="0" />
</svg>
