<?xml version="1.0" encoding="UTF-8" standalone="no"?>
<!-- Created with Inkscape (http://www.inkscape.org/) -->

<svg
   xmlns:dc="http://purl.org/dc/elements/1.1/"
   xmlns:cc="http://creativecommons.org/ns#"
   xmlns:rdf="http://www.w3.org/1999/02/22-rdf-syntax-ns#"
   xmlns:svg="http://www.w3.org/2000/svg"
   xmlns="http://www.w3.org/2000/svg"
   xmlns:sodipodi="http://sodipodi.sourceforge.net/DTD/sodipodi-0.dtd"
   xmlns:inkscape="http://www.inkscape.org/namespaces/inkscape"
   width="300.70081"
   height="305.51971"
   viewBox="0 0 79.560417 80.83543"
   version="1.1"
   id="svg5628"
   inkscape:version="0.92.1 r15371"
   sodipodi:docname="161810_resized3.svg">
  <defs
     id="defs5622" />
  <sodipodi:namedview
     id="base"
     pagecolor="#ffffff"
     bordercolor="#666666"
     borderopacity="1.0"
     inkscape:pageopacity="0.0"
     inkscape:pageshadow="2"
     inkscape:zoom="0.35"
     inkscape:cx="-528.57143"
     inkscape:cy="560"
     inkscape:document-units="mm"
     inkscape:current-layer="layer1"
     showgrid="false"
     units="px"
     inkscape:window-width="1366"
     inkscape:window-height="706"
     inkscape:window-x="-8"
     inkscape:window-y="219"
     inkscape:window-maximized="1" />
  <metadata
     id="metadata5625">
    <rdf:RDF>
      <cc:Work
         rdf:about="">
        <dc:format>image/svg+xml</dc:format>
        <dc:type
           rdf:resource="http://purl.org/dc/dcmitype/StillImage" />
        <dc:title></dc:title>
      </cc:Work>
    </rdf:RDF>
  </metadata>
  <g
     inkscape:label="Layer 1"
     inkscape:groupmode="layer"
     id="layer1"
     transform="translate(0,-216.16455)">
    <path
       style="fill:#000000;stroke-width:0.28006428"
       d="m 9.6005893,280.58611 v -6.39754 l 0.9389077,0.0851 c 0.82558,0.0748 0.949833,0.19159 1.029433,0.96747 l 0.09053,0.88239 h 5.163492 5.16349 l 0.09053,-0.88239 c 0.0796,-0.77588 0.203857,-0.89266 1.029435,-0.96747 0.90056,-0.0816 0.938908,-0.0456 0.938908,0.88239 v 0.96747 h 5.344549 5.344546 v -0.95027 c 0,-0.87484 0.06877,-0.95026 0.866687,-0.95026 h 0.866682 v 6.38034 6.38035 h -0.848384 c -0.74598,0 -0.859305,-0.10651 -0.938903,-0.88239 l -0.09053,-0.88238 -5.272323,-0.074 -5.272323,-0.074 v 0.95639 c 0,0.91201 -0.04694,0.95639 -1.01113,0.95639 -0.962982,0 -1.011129,-0.0452 -1.011129,-0.95026 v -0.95027 h -5.200102 -5.200101 v 0.95027 c 0,0.90501 -0.04814,0.95026 -1.011129,0.95026 H 9.6005933 Z M 19.423,283.3298 c 0,-0.0684 -0.585008,-0.44651 -1.300024,-0.84031 l -1.300025,-0.716 -1.300025,0.716 c -0.715014,0.3938 -1.300025,0.77194 -1.300025,0.84031 0,0.0684 1.170023,0.12431 2.60005,0.12431 1.430027,0 2.600049,-0.0559 2.600049,-0.12431 z m 12.190086,-0.21507 c -0.16672,-0.18666 -0.754318,-0.56568 -1.305774,-0.84228 l -1.002651,-0.50289 -1.32965,0.73232 c -0.731305,0.40278 -1.329646,0.7818 -1.329646,0.84227 0,0.0605 1.185939,0.10996 2.63542,0.10996 2.077411,0 2.571243,-0.0719 2.332301,-0.33938 z m -16.948155,-2.38887 c 0.104568,-0.15901 -2.566515,-1.88732 -2.916829,-1.88732 -0.06889,0 -0.125252,0.85019 -0.125252,1.88931 v 1.88932 l 1.460125,-0.85303 c 0.803068,-0.46916 1.514948,-0.93639 1.581956,-1.03828 z m 7.264702,-1.79411 c -0.122014,-0.11468 -3.084418,1.53208 -3.084418,1.71458 0,0.0537 0.682513,0.50979 1.516692,1.01358 l 1.516697,0.91599 0.0862,-1.76504 c 0.04743,-0.97078 0.03158,-1.81637 -0.03519,-1.87911 z m 5.287822,1.76273 c 0.0055,-0.17309 -2.743801,-1.85594 -3.032034,-1.85594 -0.07708,0 -0.140109,0.84946 -0.140109,1.88769 v 1.88769 l 1.583224,-0.86955 c 0.870773,-0.47825 1.585787,-0.9507 1.588919,-1.04989 z m 7.516952,-0.0912 c 0,-0.97062 -0.103525,-1.76477 -0.230057,-1.76477 -0.126528,0 -0.916763,0.40692 -1.756064,0.90426 l -1.52601,0.90425 1.39495,0.85733 c 1.986794,1.22107 2.117181,1.16558 2.117181,-0.90107 z m -15.335481,-2.48326 c 0.06621,-0.0528 -1.097438,-0.096 -2.585874,-0.096 h -2.706245 l 1.285848,0.78257 1.285848,0.78257 1.300026,-0.68655 c 0.715014,-0.3776 1.354195,-0.72975 1.420397,-0.78256 z m 11.30898,-0.0434 c -0.635892,-0.0457 -1.777599,-0.0457 -2.537128,0 l -1.380969,0.0831 1.279719,0.71048 1.279718,0.71048 1.25741,-0.71048 1.257415,-0.71048 z m 8.143246,8.72715 c -0.279656,-0.10605 -0.358002,-2.29071 -0.347313,-9.68483 l 0.01378,-9.54789 2.947369,-5.02283 2.947369,-5.02282 4.911203,-2.36346 c 2.701163,-1.29991 5.171214,-2.36346 5.488993,-2.36346 0.317788,0 2.784004,1.06355 5.480482,2.36346 l 4.902687,2.36346 2.969683,5.13217 2.969683,5.13217 v 9.27112 c 0,6.84886 -0.09057,9.35624 -0.346672,9.59692 -0.261655,0.24591 -4.175937,0.32055 -15.961415,0.30437 -8.588111,-0.0118 -15.777248,-0.0831 -15.975869,-0.15838 z m 12.062427,-4.77513 c 7.84e-4,-2.5688 0.09235,-3.19511 0.575152,-3.93929 1.222341,-1.88412 3.460201,-2.46149 5.231159,-1.34963 1.599,1.0039 1.991795,2.07341 1.99231,5.42467 l 3.86e-4,2.91867 h 5.200103 5.2001 v -8.1451 -8.14512 H 54.812574 40.512297 v 8.14512 8.14512 h 5.2001 5.2001 l 0.0012,-3.05442 z m 10.688006,1.28964 c 0,-0.87484 0.06878,-0.95026 0.866686,-0.95026 0.797899,0 0.866686,0.0754 0.866686,0.95026 0,0.87485 -0.06878,0.95027 -0.866686,0.95027 -0.797894,0 -0.866686,-0.0754 -0.866686,-0.95027 z m 3.755635,-0.0172 c 0,-0.92795 0.03835,-0.964 0.938905,-0.88239 0.825577,0.0748 0.949833,0.19158 1.02943,0.96747 0.08683,0.84634 0.04848,0.88238 -0.938899,0.88238 -0.987392,1e-5 -1.029436,-0.0395 -1.029436,-0.96745 z m -22.932582,-6.78369 c -0.370112,-0.90643 -0.195502,-5.2016 0.224779,-5.5294 0.262504,-0.20475 1.399517,-0.28762 3.250065,-0.23688 l 2.846309,0.0781 v 2.98654 2.98655 l -3.071094,0.0767 c -2.608955,0.0652 -3.098021,0.0108 -3.250059,-0.36158 z m 4.732232,-2.56592 v -1.35753 h -1.444473 -1.444473 v 1.35753 1.35751 h 1.444473 1.444473 z m 13.63582,2.66073 c -0.432243,-0.40621 -0.469729,-4.65239 -0.04764,-5.39363 0.264847,-0.46508 0.627234,-0.52516 3.167681,-0.52516 3.439989,0 3.466727,0.0248 3.466727,3.218 0,3.16019 0.145456,3.0266 -3.295412,3.0266 -1.905135,0 -3.067095,-0.11502 -3.291376,-0.32581 z m 4.56453,-2.66073 v -1.35753 h -1.444475 -1.444474 v 1.35753 1.35751 h 1.444474 1.444475 z m -8.666832,8.14511 c 0,-2.62454 -0.07001,-3.05236 -0.57779,-3.52955 -0.701896,-0.65964 -1.932904,-0.70316 -2.649524,-0.0937 -0.452678,0.38501 -0.52831,0.8903 -0.52831,3.52955 v 3.08022 h 1.87781 1.877814 z m -11.12244,-16.83324 c -1.10372,-1.0453 -2.10588,-1.90053 -2.227025,-1.90053 -0.171032,0 -1.558185,2.26763 -2.200614,3.59743 -0.05411,0.11199 1.371501,0.20363 3.168019,0.20363 h 3.266388 z m 7.655708,1.82337 c 0,-0.0424 -0.715014,-0.74078 -1.58892,-1.55187 l -1.588917,-1.47472 v 1.55187 1.55188 h 1.588917 c 0.873906,0 1.58892,-0.0347 1.58892,-0.0771 z m 6.355671,-1.61047 v -1.68763 l -1.588913,1.47473 c -0.873905,0.81109 -1.588916,1.57053 -1.588916,1.68762 0,0.1171 0.715011,0.21291 1.588916,0.21291 h 1.588913 z m 8.492141,0.80524 c -0.263139,-0.48532 -0.805048,-1.4116 -1.20425,-2.05841 l -0.725815,-1.17602 -1.981009,1.8475 c -1.089556,1.01612 -1.981021,1.94241 -1.981021,2.05841 0,0.116 1.433374,0.21091 3.185265,0.21091 h 3.185259 z m -20.14739,-8.26124 c -0.06486,-0.0609 -0.556493,0.086 -1.092562,0.32657 -0.604489,0.27126 -1.266001,0.92016 -1.741733,1.70854 l -0.767062,1.27117 1.778194,1.70563 1.778193,1.70562 0.08142,-3.30337 c 0.04477,-1.81685 0.02838,-3.35322 -0.03646,-3.41416 z m 4.014009,1.28862 -1.892268,-1.77836 v 1.89071 1.89071 l 1.805589,1.71395 1.805586,1.71394 0.08667,-1.82629 0.08667,-1.8263 z m 7.64124,0.13283 v -1.90053 l -1.877808,1.74909 -1.87781,1.74908 v 1.90053 1.90053 l 1.87781,-1.74909 1.877808,-1.74908 z m 4.935638,0.71209 c -0.470295,-0.94366 -0.95444,-1.46382 -1.654468,-1.77754 -0.544289,-0.24394 -1.050212,-0.44351 -1.124261,-0.44351 -0.07406,0 -0.134651,1.55653 -0.134651,3.45896 v 3.45896 l 1.78912,-1.68142 1.789109,-1.68141 z m -10.815727,-4.85115 c -0.114615,-0.10771 -1.831192,0.60146 -2.190176,0.90483 -0.06912,0.0584 0.385884,0.59956 1.011132,1.20255 l 1.1368,1.09634 0.08761,-1.53936 c 0.0482,-0.84665 0.02776,-1.59561 -0.04537,-1.66436 z m 4.435624,0.99626 c 0,-0.15288 -1.868751,-1.0812 -2.176512,-1.0812 -0.07406,0 -0.134641,0.75785 -0.134641,1.68412 v 1.68413 l 1.155575,-1.06047 c 0.635567,-0.58326 1.155578,-1.13522 1.155578,-1.22658 z m -34.033153,15.00541 0.08803,-1.28964 2.816719,-0.0777 2.816723,-0.0777 v 0.82434 c 0,0.52086 -0.147131,0.82435 -0.39965,0.82435 -0.219804,0 -0.46764,0.24435 -0.550742,0.543 -0.110017,0.39539 -0.394056,0.54301 -1.044824,0.54301 -0.701132,0 -0.893729,-0.11701 -0.893729,-0.54301 0,-0.29865 -0.179841,-0.543 -0.399647,-0.543 -0.21981,0 -0.467641,0.24435 -0.550743,0.543 -0.110733,0.39797 -0.394058,0.54301 -1.060653,0.54301 -0.904852,0 -0.909102,-0.007 -0.821507,-1.28964 z m -7.856547,-1.9684 c 0,-0.30167 -0.192596,-0.54301 -0.433342,-0.54301 -0.288894,0 -0.433341,-0.2715 -0.433341,-0.81451 v -0.81451 h 2.713589 c 2.988097,0 3.064298,0.0444 3.064298,1.78698 0,0.87963 -0.05278,0.92806 -1.011129,0.92806 -0.818533,0 -1.011129,-0.10343 -1.011129,-0.54301 0,-0.30167 -0.192598,-0.54301 -0.433341,-0.54301 -0.240747,0 -0.433344,0.24134 -0.433344,0.54301 0,0.43958 -0.192596,0.54301 -1.01113,0.54301 -0.818534,0 -1.011131,-0.10343 -1.011131,-0.54301 z m 13.57804,-3.66531 c 0,-0.22399 -0.195004,-0.40725 -0.433341,-0.40725 -0.304934,0 -0.433344,-0.28959 -0.433344,-0.97729 v -0.97727 l 2.576334,0.0949 c 1.416985,0.0522 2.662941,0.17644 2.768789,0.27609 0.10585,0.0997 0.26364,0.68001 0.35065,1.28965 l 0.158195,1.10844 h -1.049168 c -0.740001,0 -1.049169,-0.12002 -1.049169,-0.40726 0,-0.22399 -0.195005,-0.40725 -0.433341,-0.40725 -0.238341,0 -0.433345,0.18326 -0.433345,0.40725 0,0.28444 -0.304942,0.40726 -1.011131,0.40726 -0.706183,0 -1.011129,-0.12282 -1.011129,-0.40726 z m -16.466985,-0.81451 c 0,-0.22399 -0.195003,-0.40726 -0.433342,-0.40726 -0.30265,0 -0.433341,-0.28658 -0.433341,-0.95026 v -0.95027 h 2.542271 c 2.892905,0 3.235618,0.1783 3.235618,1.68333 0,0.9981 -0.03295,1.03172 -1.01113,1.03172 -0.706187,0 -1.011131,-0.12283 -1.011131,-0.40726 0,-0.22399 -0.195003,-0.40726 -0.433342,-0.40726 -0.238338,0 -0.433341,0.18327 -0.433341,0.40726 0,0.28443 -0.304945,0.40726 -1.01113,0.40726 -0.706188,0 -1.011132,-0.12283 -1.011132,-0.40726 z m 5.777891,-6.05454 c 0,-1.50502 0.342713,-1.68332 3.235616,-1.68332 h 2.542273 v 0.95026 c 0,0.66367 -0.130692,0.95026 -0.433344,0.95026 -0.238337,0 -0.433341,0.18327 -0.433341,0.40726 0,0.28443 -0.304941,0.40726 -1.01113,0.40726 -0.706188,0 -1.011129,-0.12283 -1.011129,-0.40726 0,-0.22399 -0.195005,-0.40726 -0.433341,-0.40726 -0.238341,0 -0.433346,0.18327 -0.433346,0.40726 0,0.28443 -0.304941,0.40726 -1.011129,0.40726 -0.978183,0 -1.011129,-0.0336 -1.011129,-1.03172 z m 9.878805,-3.78748 0.08803,-1.28964 2.816723,-0.0777 2.816718,-0.0777 v 0.84976 c 0,0.62143 -0.155253,0.88792 -0.577788,0.99176 -0.317781,0.0781 -0.577788,0.31101 -0.577788,0.51759 0,0.23632 -0.32137,0.37559 -0.866682,0.37559 -0.57779,0 -0.866686,-0.13575 -0.866686,-0.40725 0,-0.22626 -0.256793,-0.40726 -0.577788,-0.40726 -0.320992,0 -0.57779,0.181 -0.57779,0.40726 0,0.27312 -0.290652,0.40725 -0.882511,0.40725 -0.872585,0 -0.88152,-0.0145 -0.79446,-1.28964 z m -19.3559287,-0.81451 0.08805,-1.28965 2.8167207,-0.0777 2.816722,-0.0777 v 0.82435 c 0,0.52086 -0.147133,0.82434 -0.399649,0.82434 -0.219805,0 -0.46764,0.24435 -0.550742,0.54301 -0.110019,0.39539 -0.394056,0.54301 -1.044824,0.54301 -0.701134,0 -0.89373,-0.11702 -0.89373,-0.54301 0,-0.29866 -0.179842,-0.54301 -0.399648,-0.54301 -0.219806,0 -0.46764,0.24435 -0.550743,0.54301 -0.110734,0.39796 -0.394056,0.54301 -1.060653,0.54301 -0.9048487,0 -0.9091017,-0.007 -0.8215057,-1.28965 z m 30.6501227,0.74663 c -0.08308,-0.29865 -0.330933,-0.543 -0.550744,-0.543 -0.252513,0 -0.399642,-0.30349 -0.399642,-0.82435 v -0.82434 l 2.816717,0.0777 2.816724,0.0777 0.08803,1.28964 c 0.08758,1.28297 0.08335,1.28965 -0.821504,1.28965 -0.666599,0 -0.949924,-0.14505 -1.060657,-0.54301 -0.08311,-0.29866 -0.330937,-0.54301 -0.550739,-0.54301 -0.219808,0 -0.399646,0.24435 -0.399646,0.54301 0,0.42599 -0.192599,0.54301 -0.893732,0.54301 -0.650769,0 -0.934807,-0.14762 -1.044828,-0.54301 z M 9.6005893,249.10885 v -0.95027 H 30.615083 51.629576 l -6.060911,-5.70091 -6.060903,-5.70091 -3.618496,3.39313 c -2.022123,1.89618 -3.8544,3.39312 -4.153217,3.39312 -0.294098,0 -1.53283,-0.91283 -2.752738,-2.02852 l -2.21801,-2.02851 -3.883808,3.65754 c -2.136091,2.01165 -4.017565,3.65754 -4.181049,3.65754 -0.163484,0 -1.918373,-1.52721 -3.899754,-3.3938 -2.876107,-2.70948 -3.763579,-3.3938 -4.401306,-3.3938 -0.7203117,0 -0.7987947,-0.0934 -0.7987947,-0.95026 0,-0.91894 0.0361,-0.95027 1.0954287,-0.95027 0.917272,0 1.303704,0.19945 2.376063,1.22633 l 1.280637,1.22632 6.076563,-5.70613 c 3.342108,-3.13839 6.268934,-5.70615 6.504053,-5.70615 0.23512,0 2.382271,1.83424 4.771451,4.0761 l 4.343958,4.07609 1.426456,-1.36106 c 0.784552,-0.74857 1.624542,-1.36105 1.866644,-1.36105 0.242097,0 2.099403,1.55588 4.12733,3.4575 l 3.68715,3.45751 3.25486,-3.05025 c 1.790172,-1.67763 3.370287,-3.05025 3.511366,-3.05025 0.141079,0 1.704105,1.34226 3.473396,2.98281 l 3.216882,2.9828 2.148299,-2.03254 c 1.181559,-1.11789 2.343978,-2.03254 2.583145,-2.03254 0.239173,0 1.572201,1.06392 2.962288,2.36428 l 2.527425,2.36428 -0.62931,0.62954 -0.629305,0.62954 -2.041936,-1.9062 -2.041931,-1.90621 -4.61384,4.34246 -4.613843,4.34247 h 7.43564 7.435644 v 0.95027 0.95026 H 40.367849 9.6005893 Z m 46.9473867,-3.93873 2.590027,-2.44545 -2.668277,-2.50766 -2.66828,-2.50766 -2.668283,2.50766 -2.66828,2.50766 2.590034,2.44545 c 1.424518,1.345 2.660455,2.44546 2.746529,2.44546 0.08607,0 1.322011,-1.10046 2.74653,-2.44546 z m -29.61637,-7.8717 c 0.232766,0 1.404997,0.91727 2.604959,2.03839 l 2.18175,2.03839 1.428364,-1.36288 1.428363,-1.36287 -3.889218,-3.66264 -3.88922,-3.66264 -5.420167,5.0886 c -2.981094,2.79874 -5.420169,5.20779 -5.420169,5.35346 0,0.14568 0.614213,0.85091 1.364918,1.5672 l 1.364919,1.30234 3.911145,-3.66868 c 2.151131,-2.01776 4.101591,-3.66867 4.334356,-3.66867 z m 19.341708,-1.07217 c -2.057475,-0.58616 -2.872072,-1.63353 -2.872072,-3.69282 0,-1.06929 0.147644,-1.40115 0.965213,-2.16951 1.103224,-1.03682 2.081907,-1.34503 3.485241,-1.09761 3.05253,0.53818 4.088875,4.17411 1.741775,6.11084 -0.556727,0.45939 -1.192079,0.83525 -1.411893,0.83525 -0.219819,0 -0.572804,0.0505 -0.784409,0.11221 -0.211613,0.0617 -0.717344,0.0174 -1.123855,-0.0984 z m 1.974855,-2.06552 c 0.779045,-0.51281 0.865058,-1.88231 0.163955,-2.61039 -0.630835,-0.6551 -1.977878,-0.6319 -2.699727,0.0465 -0.738191,0.69376 -0.731938,1.37163 0.02095,2.27117 0.677684,0.80968 1.571448,0.9137 2.514806,0.29273 z m 10.464479,0.42265 c 0,-0.72401 0.09629,-0.81451 0.866679,-0.81451 0.770388,0 0.866686,0.0905 0.866686,0.81451 0,0.72401 -0.0963,0.81451 -0.866686,0.81451 -0.770384,0 -0.866679,-0.0905 -0.866679,-0.81451 z m 5.777886,0 c 0,-0.72401 0.0963,-0.81451 0.866686,-0.81451 0.770389,0 0.866681,0.0905 0.866681,0.81451 0,0.72401 -0.09629,0.81451 -0.866681,0.81451 -0.770389,0 -0.866686,-0.0905 -0.866686,-0.81451 z m -8.666825,-3.6653 c 0,-0.87485 0.06877,-0.95026 0.866679,-0.95026 0.7979,0 0.866686,0.0754 0.866686,0.95026 0,0.87484 -0.06877,0.95026 -0.866686,0.95026 -0.797897,0 -0.866679,-0.0754 -0.866679,-0.95026 z m 5.777876,0 c 0,-0.87485 0.06878,-0.95026 0.866686,-0.95026 0.797899,0 0.866686,0.0754 0.866686,0.95026 0,0.87484 -0.06878,0.95026 -0.866686,0.95026 -0.797894,0 -0.866686,-0.0754 -0.866686,-0.95026 z m 5.777893,0 c 0,-0.87485 0.06878,-0.95026 0.866681,-0.95026 0.797899,0 0.866686,0.0754 0.866686,0.95026 0,0.87484 -0.06878,0.95026 -0.866686,0.95026 -0.797894,0 -0.866681,-0.0754 -0.866681,-0.95026 z"
       id="path20"
       inkscape:connector-curvature="0" />
  </g>
</svg>
