<?xml version="1.0" encoding="UTF-8" standalone="no"?>
<!-- Created with Inkscape (http://www.inkscape.org/) -->

<svg
   xmlns:dc="http://purl.org/dc/elements/1.1/"
   xmlns:cc="http://creativecommons.org/ns#"
   xmlns:rdf="http://www.w3.org/1999/02/22-rdf-syntax-ns#"
   xmlns:svg="http://www.w3.org/2000/svg"
   xmlns="http://www.w3.org/2000/svg"
   xmlns:sodipodi="http://sodipodi.sourceforge.net/DTD/sodipodi-0.dtd"
   xmlns:inkscape="http://www.inkscape.org/namespaces/inkscape"
   width="500.70081"
   height="505.51971"
   viewBox="0 0 132.47708 133.7521"
   version="1.1"
   id="svg5628"
   inkscape:version="0.92.1 r15371"
   sodipodi:docname="161810_resized2.svg">
  <defs
     id="defs5622" />
  <sodipodi:namedview
     id="base"
     pagecolor="#ffffff"
     bordercolor="#666666"
     borderopacity="1.0"
     inkscape:pageopacity="0.0"
     inkscape:pageshadow="2"
     inkscape:zoom="0.35"
     inkscape:cx="-528.57143"
     inkscape:cy="560"
     inkscape:document-units="mm"
     inkscape:current-layer="layer1"
     showgrid="false"
     units="px"
     inkscape:window-width="1366"
     inkscape:window-height="706"
     inkscape:window-x="-8"
     inkscape:window-y="219"
     inkscape:window-maximized="1" />
  <metadata
     id="metadata5625">
    <rdf:RDF>
      <cc:Work
         rdf:about="">
        <dc:format>image/svg+xml</dc:format>
        <dc:type
           rdf:resource="http://purl.org/dc/dcmitype/StillImage" />
        <dc:title></dc:title>
      </cc:Work>
    </rdf:RDF>
  </metadata>
  <g
     inkscape:label="Layer 1"
     inkscape:groupmode="layer"
     id="layer1"
     transform="translate(0,-163.24788)">
    <path
       style="fill:#000000;stroke-width:0.49999234"
       d="M 12.246424,270.27673 V 258.8615 l 1.677115,0.1518 c 1.474686,0.13349 1.696631,0.34185 1.838817,1.72627 l 0.161705,1.57445 h 9.223241 9.223238 l 0.161704,-1.57445 c 0.142189,-1.38442 0.364138,-1.59278 1.83882,-1.72627 1.608617,-0.1456 1.677116,-0.0813 1.677116,1.57446 v 1.72626 h 9.546652 9.546646 v -1.69557 c 0,-1.561 0.122847,-1.69557 1.548111,-1.69557 h 1.548104 v 11.38454 11.38454 H 58.72228 c -1.332501,0 -1.534926,-0.19004 -1.677107,-1.57446 l -0.161715,-1.57445 -9.417639,-0.13204 -9.417639,-0.13205 v 1.7065 c 0,1.62732 -0.08384,1.7065 -1.806123,1.7065 -1.720117,0 -1.80612,-0.0807 -1.80612,-1.69557 v -1.69557 H 25.147302 15.85867 v 1.69557 c 0,1.61483 -0.086,1.69557 -1.806121,1.69557 h -1.806125 z m 17.545192,4.8956 c 0,-0.12199 -1.044965,-0.79672 -2.322156,-1.49938 l -2.322158,-1.27757 -2.322158,1.27757 c -1.277186,0.70266 -2.322157,1.37739 -2.322157,1.49938 0,0.12199 2.089943,0.2218 4.644315,0.2218 2.554374,0 4.644314,-0.0998 4.644314,-0.2218 z m 21.774431,-0.38376 c -0.297802,-0.33306 -1.347394,-1.00935 -2.332428,-1.50288 l -1.790976,-0.89732 -2.375075,1.30669 c -1.306287,0.71868 -2.375068,1.39497 -2.375068,1.50288 0,0.10791 2.118373,0.19619 4.707496,0.19619 3.710755,0 4.592858,-0.12823 4.166051,-0.60556 z m -30.273488,-4.26249 c 0.186783,-0.28373 -4.584414,-3.36757 -5.210159,-3.36757 -0.123053,0 -0.22373,1.51701 -0.22373,3.37113 v 3.37113 l 2.608135,-1.52207 c 1.434473,-0.83713 2.706062,-1.67082 2.825754,-1.85262 z m 12.976508,-3.20126 c -0.217947,-0.20461 -5.509513,2.73372 -5.509513,3.05935 0,0.0958 1.219132,0.90963 2.709176,1.80855 l 2.709187,1.63441 0.153971,-3.14939 c 0.08472,-1.73216 0.0564,-3.24097 -0.06286,-3.35292 z m 9.445324,3.14527 c 0.0098,-0.30884 -4.90109,-3.31158 -5.415943,-3.31158 -0.137682,0 -0.250268,1.51571 -0.250268,3.36824 v 3.36823 l 2.828019,-1.55155 c 1.55541,-0.85336 2.832597,-1.69636 2.838192,-1.87334 z m 13.427087,-0.16267 c 0,-1.7319 -0.184921,-3.14891 -0.410938,-3.14891 -0.226009,0 -1.637559,0.72607 -3.136753,1.61348 l -2.725821,1.61347 2.491716,1.52974 c 3.548894,2.17877 3.781796,2.07976 3.781796,-1.60778 z M 29.748615,265.8765 c 0.118275,-0.0942 -1.960289,-0.17134 -4.618994,-0.17134 h -4.834006 l 2.296834,1.39635 2.296835,1.39635 2.322159,-1.22502 c 1.277188,-0.67376 2.418918,-1.30212 2.537172,-1.39634 z m 20.200563,-0.0774 c -1.135857,-0.0815 -3.17522,-0.0815 -4.531923,0 l -2.466743,0.14825 2.285887,1.26772 2.285885,1.26772 2.246037,-1.26772 2.246045,-1.26772 z m 14.545798,15.57197 c -0.499532,-0.18922 -0.639478,-4.08735 -0.620385,-17.28077 l 0.02462,-17.03644 5.264712,-8.9623 5.26471,-8.96229 8.772593,-4.21716 c 4.824928,-2.31944 9.237034,-4.21715 9.804664,-4.21715 0.567645,0 4.972901,1.89771 9.78946,4.21715 l 8.75738,4.21716 5.30457,9.1574 5.30457,9.15741 v 16.54258 c 0,12.22052 -0.16179,16.69446 -0.61924,17.12392 -0.46738,0.43877 -7.45923,0.57196 -28.510933,0.54309 -15.340436,-0.021 -28.181966,-0.1482 -28.536751,-0.2826 z m 21.546402,-8.52033 c 0.0014,-4.58354 0.164961,-5.70108 1.02736,-7.02893 2.183394,-3.36187 6.180752,-4.39207 9.34411,-2.40816 2.856198,1.79127 3.557825,3.69961 3.558745,9.67931 l 6.9e-4,5.20782 h 9.288637 9.28863 V 263.76737 249.23392 H 93.005921 67.462182 v 14.53345 14.53345 h 9.288631 9.288632 l 0.0021,-5.45004 z m 19.091352,2.30113 c 0,-1.561 0.12286,-1.69557 1.54811,-1.69557 1.42524,0 1.54811,0.13457 1.54811,1.69557 0,1.561 -0.12285,1.69557 -1.54811,1.69557 -1.42523,0 -1.54811,-0.13457 -1.54811,-1.69557 z m 6.70847,-0.0307 c 0,-1.65575 0.0685,-1.72007 1.67711,-1.57446 1.47468,0.13348 1.69663,0.34184 1.83881,1.72627 0.1551,1.51014 0.0866,1.57445 -1.6771,1.57445 -1.76372,2e-5 -1.83882,-0.0705 -1.83882,-1.72624 z M 70.878084,263.01685 c -0.661109,-1.61735 -0.349214,-9.28128 0.401508,-9.86619 0.468897,-0.36533 2.499875,-0.51319 5.8054,-0.42266 l 5.084193,0.13928 v 5.32893 5.32893 l -5.485714,0.13692 c -4.660221,0.11632 -5.533811,0.0192 -5.805387,-0.64518 z m 8.452905,-4.57841 v -2.42225 h -2.580176 -2.580176 v 2.42225 2.42223 h 2.580176 2.580176 z m 24.356861,4.74759 c -0.77209,-0.72482 -0.83905,-8.30133 -0.0851,-9.62393 0.47308,-0.82985 1.12039,-0.93705 5.65824,-0.93705 6.14465,0 6.19241,0.0443 6.19241,5.74191 0,5.63877 0.25982,5.4004 -5.8864,5.4004 -3.40303,0 -5.47857,-0.20523 -5.87919,-0.58133 z m 8.15335,-4.74759 v -2.42225 h -2.58018 -2.58018 v 2.42225 2.42223 h 2.58018 2.58018 z m -15.481051,14.53344 c 0,-4.683 -0.125048,-5.44637 -1.032072,-6.29783 -1.253755,-1.177 -3.452631,-1.25466 -4.732687,-0.16714 -0.808593,0.68698 -0.94369,1.58858 -0.94369,6.29783 v 5.49607 h 3.354221 3.354228 z M 76.492793,242.93609 c -1.971511,-1.86513 -3.761609,-3.39114 -3.978003,-3.39114 -0.305505,0 -2.783295,4.04617 -3.930827,6.41894 -0.09666,0.19984 2.449831,0.36334 5.658844,0.36334 h 5.834557 z m 13.674939,3.25347 c 0,-0.0757 -1.277188,-1.32178 -2.838195,-2.76903 l -2.838189,-2.63136 v 2.76903 2.76903 h 2.838189 c 1.561007,0 2.838195,-0.0619 2.838195,-0.13766 z m 11.352758,-2.87359 v -3.01125 l -2.838181,2.63137 c -1.561004,1.44725 -2.838186,2.80232 -2.838186,3.01125 0,0.20894 1.277182,0.37989 2.838186,0.37989 h 2.838181 z m 15.16901,1.4368 c -0.47003,-0.86595 -1.43801,-2.51873 -2.15108,-3.67284 l -1.29648,-2.09839 -3.53856,3.29651 c -1.94621,1.81309 -3.53858,3.46587 -3.53858,3.67285 0,0.20698 2.56035,0.37633 5.68965,0.37633 h 5.68964 z M 80.701408,230.01214 c -0.115859,-0.10873 -0.99403,0.15349 -1.951579,0.5827 -1.079763,0.484 -2.261383,1.64185 -3.111154,3.04857 l -1.370158,2.26817 3.176282,3.04337 3.176281,3.04337 0.145435,-5.89425 c 0.07997,-3.24184 0.05069,-5.98321 -0.06513,-6.09193 z m 7.169988,2.2993 -3.380048,-3.17316 v 3.37362 3.37362 l 3.225218,3.05823 3.225211,3.05821 0.154823,-3.25868 0.154816,-3.25869 z m 13.649094,0.237 v -3.39114 l -3.354217,3.12092 -3.354221,3.12092 v 3.39114 3.39114 l 3.354221,-3.12092 3.354217,-3.12092 z m 8.81624,1.2706 c -0.84006,-1.68378 -1.70486,-2.61192 -2.95528,-3.1717 -0.97223,-0.43525 -1.87593,-0.79135 -2.0082,-0.79135 -0.13228,0 -0.24052,2.77734 -0.24052,6.17186 v 6.17188 l 3.1958,-3.00018 3.19578,-3.00017 z m -19.319495,-8.65597 c -0.204729,-0.1922 -3.270949,1.07319 -3.912181,1.6145 -0.12346,0.10423 0.689281,1.0698 1.806124,2.14572 l 2.030599,1.95621 0.156488,-2.7467 c 0.08609,-1.51069 0.04959,-2.84707 -0.08104,-2.96973 z m 7.923094,1.77763 c 0,-0.27279 -3.338041,-1.9292 -3.887776,-1.9292 -0.132284,0 -0.240501,1.35225 -0.240501,3.00501 v 3.00501 l 2.064136,-1.89221 c 1.135276,-1.04072 2.064141,-2.02559 2.064141,-2.18861 z m -60.791411,26.77437 0.157248,-2.30113 5.031338,-0.13866 5.031346,-0.13866 v 1.47089 c 0,0.92937 -0.262811,1.47089 -0.71387,1.47089 -0.392624,0 -0.835318,0.436 -0.983758,0.96889 -0.196518,0.7055 -0.70388,0.9689 -1.866308,0.9689 -1.252391,0 -1.596415,-0.20879 -1.596415,-0.9689 0,-0.53289 -0.32124,-0.96889 -0.713866,-0.96889 -0.392633,0 -0.835319,0.436 -0.983759,0.96889 -0.197797,0.71009 -0.703883,0.9689 -1.894583,0.9689 -1.616283,0 -1.623874,-0.012 -1.467408,-2.30113 z m -14.033686,-3.51225 c 0,-0.53828 -0.344023,-0.9689 -0.774053,-0.9689 -0.516035,0 -0.774052,-0.48445 -0.774052,-1.45334 v -1.45335 h 4.847124 c 5.337462,0 5.473575,0.0793 5.473575,3.18854 0,1.56954 -0.09427,1.65595 -1.80612,1.65595 -1.462098,0 -1.806121,-0.18456 -1.806121,-0.9689 0,-0.53828 -0.344025,-0.9689 -0.774051,-0.9689 -0.430032,0 -0.774056,0.43062 -0.774056,0.9689 0,0.78434 -0.344023,0.9689 -1.806123,0.9689 -1.462099,0 -1.806123,-0.18456 -1.806123,-0.9689 z m 24.253651,-6.54006 c 0,-0.39967 -0.348325,-0.72667 -0.774051,-0.72667 -0.544686,0 -0.774058,-0.51672 -0.774058,-1.74378 v -1.74377 l 4.601954,0.16932 c 2.531076,0.0931 4.756654,0.31482 4.945724,0.49264 0.189073,0.17783 0.470925,1.21334 0.626346,2.30113 l 0.282574,1.9778 h -1.874067 c -1.321821,0 -1.874068,-0.21414 -1.874068,-0.72667 0,-0.39967 -0.348326,-0.72667 -0.774052,-0.72667 -0.425735,0 -0.774059,0.327 -0.774059,0.72667 0,0.50752 -0.544699,0.72667 -1.806123,0.72667 -1.261413,0 -1.80612,-0.21915 -1.80612,-0.72667 z M 18.95488,242.20941 c 0,-0.39966 -0.348322,-0.72667 -0.774052,-0.72667 -0.540607,0 -0.774053,-0.51136 -0.774053,-1.69557 v -1.69557 h 4.541109 c 5.167425,0 5.779594,0.31814 5.779594,3.00358 0,1.78093 -0.05885,1.84091 -1.806123,1.84091 -1.261419,0 -1.806123,-0.21916 -1.806123,-0.72668 0,-0.39966 -0.348323,-0.72667 -0.774053,-0.72667 -0.425729,0 -0.774052,0.32701 -0.774052,0.72667 0,0.50752 -0.544704,0.72668 -1.806122,0.72668 -1.261421,0 -1.806125,-0.21916 -1.806125,-0.72668 z m 10.320705,-10.80319 c 0,-2.68544 0.612169,-3.00358 5.779591,-3.00358 h 4.541112 v 1.69557 c 0,1.1842 -0.233448,1.69556 -0.774058,1.69556 -0.425726,0 -0.77405,0.32701 -0.77405,0.72668 0,0.50752 -0.544699,0.72667 -1.806123,0.72667 -1.261422,0 -1.80612,-0.21915 -1.80612,-0.72667 0,-0.39967 -0.348325,-0.72668 -0.774051,-0.72668 -0.425735,0 -0.77406,0.32701 -0.77406,0.72668 0,0.50752 -0.544698,0.72667 -1.80612,0.72667 -1.747271,0 -1.806121,-0.06 -1.806121,-1.8409 z m 17.645927,-6.75805 0.157248,-2.30113 5.031345,-0.13867 5.031338,-0.13865 v 1.51624 c 0,1.10882 -0.277319,1.58433 -1.032069,1.76961 -0.567633,0.13936 -1.032069,0.55495 -1.032069,0.92355 0,0.42166 -0.574044,0.67017 -1.548102,0.67017 -1.032072,0 -1.54811,-0.24223 -1.54811,-0.72667 0,-0.40372 -0.458695,-0.72668 -1.03207,-0.72668 -0.573368,0 -1.032072,0.32296 -1.032072,0.72668 0,0.48734 -0.519174,0.72667 -1.576377,0.72667 -1.558646,0 -1.574607,-0.0259 -1.419097,-2.30113 z m -34.574353,-1.45335 0.157283,-2.30113 5.031342,-0.13866 5.031343,-0.13866 v 1.47089 c 0,0.92938 -0.262815,1.47089 -0.713868,1.47089 -0.392626,0 -0.835318,0.436 -0.983759,0.9689 -0.196521,0.70549 -0.703879,0.96889 -1.866308,0.96889 -1.252394,0 -1.596417,-0.2088 -1.596417,-0.96889 0,-0.5329 -0.32124,-0.9689 -0.713866,-0.9689 -0.392628,0 -0.835319,0.436 -0.98376,0.9689 -0.197798,0.71008 -0.703879,0.96889 -1.894583,0.96889 -1.616277,0 -1.623875,-0.012 -1.467407,-2.30113 z m 54.748503,1.33223 c -0.148406,-0.53289 -0.591126,-0.96889 -0.983761,-0.96889 -0.451049,0 -0.713856,-0.54152 -0.713856,-1.47089 v -1.47089 l 5.031335,0.13865 5.031348,0.13867 0.157244,2.30113 c 0.156446,2.28921 0.148874,2.30113 -1.467405,2.30113 -1.190705,0 -1.696792,-0.25882 -1.894588,-0.9689 -0.148454,-0.5329 -0.591133,-0.9689 -0.983753,-0.9689 -0.392629,0 -0.713864,0.436 -0.713864,0.9689 0,0.7601 -0.344028,0.9689 -1.596421,0.9689 -1.16243,0 -1.669789,-0.2634 -1.866313,-0.9689 z M 12.246424,214.11141 v -1.69557 H 49.783373 87.32032 L 76.494073,202.24363 65.66784,192.07142 l -6.463505,6.0544 c -3.612,3.38339 -6.884887,6.0544 -7.418646,6.0544 -0.52533,0 -2.738004,-1.62878 -4.917054,-3.61952 l -3.9619,-3.6195 -6.937416,6.5262 c -3.815574,3.58941 -7.176339,6.5262 -7.468362,6.5262 -0.292022,0 -3.426676,-2.72503 -6.9659,-6.0556 -5.13742,-4.83457 -6.722658,-6.05561 -7.861792,-6.05561 -1.286651,0 -1.426841,-0.16659 -1.426841,-1.69557 0,-1.63968 0.06449,-1.69557 1.9567,-1.69557 1.638468,0 2.32873,0.35587 4.244221,2.18815 l 2.287526,2.18814 10.854206,-10.18153 c 5.96981,-5.59986 11.197826,-10.18155 11.617805,-10.18155 0.419981,0 4.255311,3.27286 8.522961,7.27303 l 7.759356,7.27303 2.547994,-2.42855 c 1.401398,-1.3357 2.901824,-2.42855 3.334275,-2.42855 0.432445,0 3.750041,2.77618 7.372406,6.16927 l 6.586138,6.16928 5.813964,-5.4426 c 3.197679,-2.99343 6.020145,-5.4426 6.272147,-5.4426 0.252001,0 3.043942,2.39501 6.204322,5.32226 l 5.746125,5.32225 3.83738,-3.62668 c 2.11055,-1.99468 4.18691,-3.62669 4.61412,-3.62669 0.42722,0 2.80833,1.89837 5.29136,4.21861 l 4.51459,4.21862 -1.1241,1.1233 -1.12409,1.1233 -3.64739,-3.40127 -3.64738,-3.40128 -8.24143,7.74832 -8.241435,7.74833 h 13.281845 13.28185 v 1.69557 1.69557 H 67.204162 12.246424 Z m 83.859344,-7.02792 4.626412,-4.36346 -4.766186,-4.47445 -4.76619,-4.47445 -4.766197,4.47445 -4.76619,4.47445 4.626423,4.36346 c 2.544534,2.3999 4.752214,4.36346 4.905964,4.36346 0.153743,0 2.361429,-1.96356 4.905964,-4.36346 z M 43.203796,193.03791 c 0.415775,0 2.509663,1.6367 4.653084,3.63712 l 3.897131,3.63713 2.551403,-2.4318 2.551399,-2.43179 -6.947079,-6.5353 -6.947085,-6.5353 -9.681724,9.07966 c -5.324951,4.99382 -9.681728,9.29233 -9.681728,9.55225 0,0.25993 1.097133,1.51829 2.438074,2.79637 l 2.438074,2.32378 6.986247,-6.54606 c 3.842437,-3.60033 7.32643,-6.54606 7.742204,-6.54606 z m 34.54895,-1.91309 c -3.675147,-1.04589 -5.130213,-2.91474 -5.130213,-6.58915 0,-1.90796 0.263728,-2.5001 1.724104,-3.87109 1.970624,-1.85001 3.718787,-2.39996 6.225479,-1.95848 5.452555,0.96029 7.303716,7.44793 3.11123,10.90366 -0.994449,0.8197 -2.12934,1.49035 -2.521981,1.49035 -0.392649,0 -1.023165,0.0901 -1.401143,0.20022 -0.377992,0.11011 -1.28135,0.0311 -2.007476,-0.17551 z m 3.527566,-3.68554 c 1.391562,-0.91502 1.545202,-3.35863 0.292863,-4.65776 -1.126822,-1.1689 -3.532965,-1.1275 -4.822362,0.083 -1.318587,1.23788 -1.307417,2.44741 0.03742,4.05248 1.210507,1.44471 2.806984,1.63033 4.492049,0.52231 z m 18.692081,0.75414 c 0,-1.29186 0.172007,-1.45334 1.548097,-1.45334 1.3761,0 1.54811,0.16148 1.54811,1.45334 0,1.29187 -0.17201,1.45335 -1.54811,1.45335 -1.37609,0 -1.548097,-0.16148 -1.548097,-1.45335 z m 10.320697,0 c 0,-1.29186 0.17201,-1.45334 1.54811,-1.45334 1.3761,0 1.5481,0.16148 1.5481,1.45334 0,1.29187 -0.172,1.45335 -1.5481,1.45335 -1.3761,0 -1.54811,-0.16148 -1.54811,-1.45335 z m -15.481038,-6.54005 c 0,-1.561 0.122847,-1.69556 1.548097,-1.69556 1.425243,0 1.548111,0.13456 1.548111,1.69556 0,1.561 -0.122847,1.69557 -1.548111,1.69557 -1.425236,0 -1.548097,-0.13457 -1.548097,-1.69557 z m 10.320678,0 c 0,-1.561 0.12286,-1.69556 1.54811,-1.69556 1.42524,0 1.54811,0.13456 1.54811,1.69556 0,1.561 -0.12285,1.69557 -1.54811,1.69557 -1.42523,0 -1.54811,-0.13457 -1.54811,-1.69557 z m 10.32071,0 c 0,-1.561 0.12285,-1.69556 1.5481,-1.69556 1.42524,0 1.54811,0.13456 1.54811,1.69556 0,1.561 -0.12285,1.69557 -1.54811,1.69557 -1.42523,0 -1.5481,-0.13457 -1.5481,-1.69557 z"
       id="path20"
       inkscape:connector-curvature="0" />
  </g>
</svg>
