<?xml version="1.0" encoding="UTF-8" standalone="no"?>
<!-- Created with Inkscape (http://www.inkscape.org/) -->

<svg
   xmlns:dc="http://purl.org/dc/elements/1.1/"
   xmlns:cc="http://creativecommons.org/ns#"
   xmlns:rdf="http://www.w3.org/1999/02/22-rdf-syntax-ns#"
   xmlns:svg="http://www.w3.org/2000/svg"
   xmlns="http://www.w3.org/2000/svg"
   xmlns:sodipodi="http://sodipodi.sourceforge.net/DTD/sodipodi-0.dtd"
   xmlns:inkscape="http://www.inkscape.org/namespaces/inkscape"
   width="300.70081"
   height="305.51971"
   viewBox="0 0 185.39375 186.66877"
   version="1.1"
   id="svg5628"
   inkscape:version="0.92.1 r15371"
   sodipodi:docname="161810_resized.svg">
  <defs
     id="defs5622" />
  <sodipodi:namedview
     id="base"
     pagecolor="#ffffff"
     bordercolor="#666666"
     borderopacity="1.0"
     inkscape:pageopacity="0.0"
     inkscape:pageshadow="2"
     inkscape:zoom="0.35"
     inkscape:cx="-64.285714"
     inkscape:cy="560"
     inkscape:document-units="mm"
     inkscape:current-layer="layer1"
     showgrid="false"
     units="px"
     inkscape:window-width="1366"
     inkscape:window-height="706"
     inkscape:window-x="-8"
     inkscape:window-y="219"
     inkscape:window-maximized="1" />
  <metadata
     id="metadata5625">
    <rdf:RDF>
      <cc:Work
         rdf:about="">
        <dc:format>image/svg+xml</dc:format>
        <dc:type
           rdf:resource="http://purl.org/dc/dcmitype/StillImage" />
        <dc:title></dc:title>
      </cc:Work>
    </rdf:RDF>
  </metadata>
  <g
     inkscape:label="Layer 1"
     inkscape:groupmode="layer"
     id="layer1"
     transform="translate(0,-110.33121)">
    <path
       style="fill:#FFFF;stroke-width:0.72885102"
       d="m 14.136312,263.0427 v -16.6838 l 2.438392,0.22187 c 2.144075,0.19509 2.466766,0.49963 2.673493,2.523 l 0.235106,2.30113 h 13.409856 13.409853 l 0.235104,-2.30113 c 0.206732,-2.02337 0.529428,-2.3279 2.673498,-2.523 2.3388,-0.21281 2.438392,-0.11881 2.438392,2.30113 v 2.523 H 65.530077 79.41014 v -2.47814 c 0,-2.28146 0.178612,-2.47814 2.250828,-2.47814 h 2.250816 v 16.63894 16.63894 h -2.203291 c -1.937343,0 -2.231655,-0.27775 -2.438379,-2.30113 L 79.035,275.12424 65.342503,274.93126 51.650006,274.73827 v 2.49412 c 0,2.37839 -0.121902,2.49411 -2.625958,2.49411 -2.500913,0 -2.625955,-0.118 -2.625955,-2.47814 v -2.47814 H 32.893159 19.38823 v 2.47814 c 0,2.36013 -0.125042,2.47814 -2.625957,2.47814 h -2.625961 z m 25.50931,7.15511 c 0,-0.1783 -1.519297,-1.16443 -3.37623,-2.1914 l -3.376233,-1.86722 -3.376232,1.86722 c -1.856927,1.02697 -3.376231,2.0131 -3.376231,2.1914 0,0.17829 3.03861,0.32417 6.752463,0.32417 3.713857,0 6.752463,-0.14588 6.752463,-0.32417 z m 31.658285,-0.56088 c -0.43298,-0.48678 -1.959004,-1.47521 -3.391165,-2.19651 l -2.603936,-1.31147 -3.45317,1.90977 c -1.899237,1.05038 -3.453159,2.03881 -3.453159,2.19652 0,0.15772 3.079946,0.28674 6.844324,0.28674 5.395142,0 6.677649,-0.18741 6.057106,-0.88505 z m -44.015237,-6.2298 c 0.271568,-0.41467 -6.665372,-4.92183 -7.575155,-4.92183 -0.178909,0 -0.325285,2.21717 -0.325285,4.92704 v 4.92703 l 3.792019,-2.22456 c 2.08561,-1.2235 3.934399,-2.44196 4.108421,-2.70768 z m 18.866808,-4.67876 c -0.316878,-0.29905 -8.010392,3.99544 -8.010392,4.47136 0,0.13999 1.77252,1.32946 3.938925,2.64327 l 3.938942,2.38875 0.223862,-4.60296 c 0.123179,-2.53161 0.082,-4.7368 -0.09139,-4.90042 z m 13.732748,4.59693 c 0.01418,-0.45137 -7.125795,-4.84 -7.874349,-4.84 -0.200179,0 -0.363871,2.21527 -0.363871,4.92281 v 4.92281 l 4.111715,-2.26766 c 2.261441,-1.24721 4.118369,-2.47929 4.126505,-2.73796 z m 19.521914,-0.23774 c 0,-2.53124 -0.268859,-4.60226 -0.597475,-4.60226 -0.328599,0 -2.380877,1.06118 -4.560586,2.35817 l -3.963127,2.35815 3.622757,2.23577 c 5.159804,3.18436 5.498431,3.03965 5.498431,-2.34983 z m -39.827039,-6.47597 c 0.171963,-0.13771 -2.850103,-0.25041 -6.715649,-0.25041 h -7.028259 l 3.339414,2.04081 3.339415,2.04082 3.376234,-1.79041 c 1.856929,-0.98472 3.516913,-1.90309 3.688845,-2.04081 z m 29.370007,-0.11306 c -1.651445,-0.11918 -4.616516,-0.11918 -6.589054,0 l -3.586448,0.21668 3.323497,1.85282 3.323495,1.85282 3.265559,-1.85282 3.265569,-1.85282 z m 21.148431,22.75904 c -0.72628,-0.27656 -0.92975,-5.97382 -0.90199,-25.25652 l 0.0358,-24.89941 7.65447,-13.09874 7.654461,-13.09874 12.75466,-6.16353 c 7.01506,-3.38995 13.42991,-6.16354 14.2552,-6.16354 0.82531,0 7.2302,2.77359 14.2331,6.16354 l 12.73254,6.16353 7.71242,13.3839 7.71242,13.3839 v 24.17762 c 0,17.86076 -0.23523,24.3996 -0.90033,25.02727 -0.67953,0.64128 -10.84513,0.83594 -41.45263,0.79375 -22.30378,-0.0307 -40.974341,-0.2166 -41.490161,-0.41303 z m 31.326751,-12.4528 c 0.002,-6.69901 0.23984,-8.33234 1.4937,-10.27305 3.17448,-4.9135 8.98632,-6.41917 13.58559,-3.51962 4.15269,2.61801 5.1728,5.40713 5.17414,14.14669 l 10e-4,7.61143 h 13.50494 13.50493 v -21.2412 -21.2412 H 131.55418 94.415619 v 21.2412 21.2412 h 13.504931 13.50493 l 0.003,-7.96545 z m 27.75732,3.36319 c 0,-2.28146 0.17862,-2.47814 2.25083,-2.47814 2.07218,0 2.25082,0.19668 2.25082,2.47814 0,2.28146 -0.17861,2.47814 -2.25082,2.47814 -2.07218,0 -2.25083,-0.19668 -2.25083,-2.47814 z m 9.75358,-0.0449 c 0,-2.41994 0.0996,-2.51394 2.43838,-2.30112 2.14407,0.19508 2.46677,0.49961 2.67349,2.523 0.22549,2.20713 0.12593,2.30112 -2.43838,2.30112 -2.5643,3e-5 -2.67349,-0.10302 -2.67349,-2.52297 z M 99.382069,252.43211 c -0.9612,-2.36382 -0.50773,-13.56495 0.58376,-14.41982 0.681741,-0.53394 3.634621,-0.75005 8.440591,-0.61773 l 7.39201,0.20356 v 7.78844 7.78844 l -7.97579,0.20011 c -6.77559,0.17 -8.045721,0.0281 -8.440571,-0.94296 z m 12.289851,-6.69153 v -3.5402 h -3.75137 -3.75137 v 3.5402 3.54019 h 3.75137 3.75137 z m 35.41294,6.93879 c -1.12255,-1.05935 -1.2199,-12.13271 -0.1237,-14.06574 0.68783,-1.21286 1.62896,-1.36953 8.22663,-1.36953 8.93384,0 9.00328,0.0647 9.00328,8.39202 0,8.24127 0.37775,7.89289 -8.55836,7.89289 -4.94773,0 -7.9654,-0.29995 -8.54788,-0.84964 z m 11.85433,-6.93879 v -3.5402 h -3.75138 -3.75137 v 3.5402 3.54019 h 3.75137 3.75138 z m -22.50823,21.24119 c 0,-6.84439 -0.18181,-7.96008 -1.50055,-9.20452 -1.82286,-1.72024 -5.01985,-1.83373 -6.88095,-0.24428 -1.17563,1.00405 -1.37205,2.32176 -1.37205,9.20452 v 8.03272 h 4.87677 4.87678 z M 107.54541,223.0833 c -2.86642,-2.72595 -5.46908,-4.95628 -5.7837,-4.95628 -0.44418,0 -4.046691,5.91364 -5.715111,9.38153 -0.14054,0.29207 3.56186,0.53103 8.227511,0.53103 h 8.48298 z m 19.88227,4.75508 c 0,-0.11065 -1.85693,-1.93183 -4.12651,-4.04704 l -4.1265,-3.84584 v 4.04704 4.04704 h 4.1265 c 2.26958,0 4.12651,-0.0905 4.12651,-0.20119 z m 16.50602,-4.19986 v -4.40106 l -4.1265,3.84584 c -2.26958,2.11522 -4.1265,4.0957 -4.1265,4.40107 0,0.30536 1.85692,0.55521 4.1265,0.55521 h 4.1265 z m 22.05453,2.09993 c -0.68339,-1.26562 -2.09076,-3.68122 -3.1275,-5.36799 l -1.88498,-3.06688 -5.14478,4.81798 c -2.82964,2.6499 -5.14481,5.06549 -5.14481,5.368 0,0.30251 3.72254,0.55002 8.27229,0.55002 h 8.27228 z m -52.32383,-21.544 c -0.16845,-0.15891 -1.44524,0.22434 -2.83744,0.85165 -1.56989,0.70738 -3.28787,2.39962 -4.52337,4.4556 l -1.9921,3.31502 4.61806,4.448 4.61806,4.448 0.21145,-8.61468 c 0.11627,-4.73807 0.0737,-8.74469 -0.0947,-8.90359 z m 10.42459,3.36052 -4.91432,-4.63769 v 4.93067 4.93068 l 4.68921,4.46971 4.6892,4.4697 0.2251,-4.76269 0.22509,-4.7627 z m 19.84471,0.34638 v -4.95627 l -4.87678,4.56134 -4.87677,4.56135 v 4.95628 4.95628 l 4.87677,-4.56135 4.87678,-4.56134 z m 12.81811,1.85703 c -1.22138,-2.46091 -2.47874,-3.81742 -4.29674,-4.63556 -1.41355,-0.63613 -2.72745,-1.15659 -2.91977,-1.15659 -0.19232,0 -0.34969,4.05919 -0.34969,9.02042 v 9.02043 l 4.64643,-4.38487 4.64642,-4.38486 z m -28.08902,-12.65102 c -0.29766,-0.28091 -4.7557,1.5685 -5.688,2.35965 -0.1795,0.15234 1.00216,1.56355 2.62596,3.13605 l 2.95233,2.85908 0.22752,-4.01441 c 0.12517,-2.20793 0.0721,-4.1611 -0.11782,-4.34037 z m 11.51954,2.59807 c 0,-0.39869 -4.85324,-2.8196 -5.65251,-2.8196 -0.19233,0 -0.34967,1.97637 -0.34967,4.39193 v 4.39194 l 3.00109,-2.76553 c 1.6506,-1.52105 3.00109,-2.96048 3.00109,-3.19874 z m -88.385859,39.13177 0.228627,-3.36319 7.315163,-0.20266 7.315176,-0.20265 v 2.14976 c 0,1.35831 -0.382106,2.14976 -1.03791,2.14976 -0.570844,0 -1.214485,0.63723 -1.430306,1.41607 -0.285721,1.03112 -1.023385,1.41608 -2.713463,1.41608 -1.820876,0 -2.32106,-0.30515 -2.32106,-1.41608 0,-0.77884 -0.467056,-1.41607 -1.037903,-1.41607 -0.570857,0 -1.214487,0.63723 -1.430308,1.41607 -0.287581,1.03782 -1.02339,1.41608 -2.754572,1.41608 -2.349947,0 -2.360983,-0.0175 -2.133494,-3.36318 z m -20.403859,-5.13329 c 0,-0.78671 -0.500182,-1.41608 -1.125411,-1.41608 -0.750274,0 -1.12541,-0.70804 -1.12541,-2.12412 v -2.12413 h 7.047331 c 7.760244,0 7.958142,0.1159 7.958142,4.66018 0,2.29395 -0.137054,2.42023 -2.625955,2.42023 -2.125774,0 -2.625956,-0.26973 -2.625956,-1.41608 0,-0.78671 -0.500184,-1.41608 -1.125408,-1.41608 -0.625232,0 -1.125415,0.62937 -1.125415,1.41608 0,1.14635 -0.500182,1.41608 -2.625959,1.41608 -2.125775,0 -2.625959,-0.26973 -2.625959,-1.41608 z m 35.262873,-9.55855 c 0,-0.58413 -0.506437,-1.06206 -1.125408,-1.06206 -0.79193,0 -1.125419,-0.7552 -1.125419,-2.54859 v -2.54859 l 6.690874,0.24746 c 3.679983,0.1361 6.915795,0.46012 7.190689,0.72002 0.2749,0.2599 0.684686,1.77334 0.910656,3.36319 l 0.410843,2.89063 h -2.724746 c -1.921822,0 -2.724745,-0.31297 -2.724745,-1.06206 0,-0.58413 -0.506439,-1.06206 -1.12541,-1.06206 -0.618985,0 -1.125421,0.47793 -1.125421,1.06206 0,0.74176 -0.791949,1.06206 -2.625958,1.06206 -1.833994,0 -2.625955,-0.3203 -2.625955,-1.06206 z m -42.765613,-2.12412 c 0,-0.58413 -0.506433,-1.06206 -1.12541,-1.06206 -0.786,0 -1.125411,-0.74738 -1.125411,-2.47814 v -2.47814 h 6.60241 c 7.513023,0 8.403069,0.46497 8.403069,4.38985 0,2.60289 -0.08556,2.69055 -2.625959,2.69055 -1.834003,0 -2.625959,-0.3203 -2.625959,-1.06206 0,-0.58413 -0.506434,-1.06206 -1.125411,-1.06206 -0.618977,0 -1.12541,0.47793 -1.12541,1.06206 0,0.74176 -0.791957,1.06206 -2.625958,1.06206 -1.834005,0 -2.625961,-0.3203 -2.625961,-1.06206 z m 15.005481,-15.78929 c 0,-3.92487 0.890046,-4.38984 8.403064,-4.38984 h 6.602415 v 2.47814 c 0,1.73076 -0.339415,2.47813 -1.125418,2.47813 -0.618972,0 -1.125408,0.47793 -1.125408,1.06206 0,0.74176 -0.791948,1.06206 -2.625958,1.06206 -1.834007,0 -2.625955,-0.3203 -2.625955,-1.06206 0,-0.58413 -0.506436,-1.06206 -1.125408,-1.06206 -0.618985,0 -1.125421,0.47793 -1.125421,1.06206 0,0.74176 -0.791948,1.06206 -2.625955,1.06206 -2.540393,0 -2.625956,-0.0877 -2.625956,-2.69055 z m 25.655771,-9.87715 0.228626,-3.36319 7.315174,-0.20266 7.315168,-0.20265 v 2.21604 c 0,1.62059 -0.403204,2.31556 -1.50055,2.58636 -0.825294,0.20368 -1.500547,0.81108 -1.500547,1.3498 0,0.61628 -0.834613,0.97948 -2.250816,0.97948 -1.50055,0 -2.250829,-0.35402 -2.250829,-1.06206 0,-0.59004 -0.666906,-1.06206 -1.500547,-1.06206 -0.833631,0 -1.50055,0.47202 -1.50055,1.06206 0,0.71227 -0.754838,1.06206 -2.291927,1.06206 -2.266146,0 -2.289352,-0.0378 -2.063253,-3.36319 z m -50.268352,-2.12412 0.228677,-3.36319 7.315171,-0.20266 7.315171,-0.20265 v 2.14976 c 0,1.35832 -0.382112,2.14976 -1.037908,2.14976 -0.570846,0 -1.214485,0.63723 -1.430306,1.41608 -0.285726,1.03111 -1.023384,1.41608 -2.713463,1.41608 -1.820881,0 -2.321063,-0.30517 -2.321063,-1.41608 0,-0.77885 -0.467058,-1.41608 -1.037904,-1.41608 -0.57085,0 -1.214488,0.63723 -1.430309,1.41608 -0.287583,1.03781 -1.023384,1.41608 -2.754572,1.41608 -2.349939,0 -2.360985,-0.0175 -2.133494,-3.36319 z m 79.599957,1.94711 c -0.21577,-0.77885 -0.85945,-1.41608 -1.43031,-1.41608 -0.65579,0 -1.03789,-0.79145 -1.03789,-2.14976 v -2.14976 l 7.31516,0.20265 7.315181,0.20266 0.22862,3.36319 c 0.22746,3.34577 0.21645,3.36319 -2.13349,3.36319 -1.73119,0 -2.467,-0.37827 -2.75458,-1.41608 -0.21584,-0.77885 -0.85946,-1.41609 -1.430301,-1.41609 -0.57085,0 -1.0379,0.63724 -1.0379,1.41609 0,1.11091 -0.50019,1.41608 -2.32107,1.41608 -1.69008,0 -2.42774,-0.38497 -2.71347,-1.41608 z M 14.136312,180.95493 v -2.47814 h 54.575729 54.575729 l -15.7405,-14.86708 -15.740481,-14.86708 -9.39742,8.84874 c -5.251561,4.94495 -10.010077,8.84874 -10.786121,8.84874 -0.763788,0 -3.980839,-2.38053 -7.149004,-5.29006 L 58.713958,155.86 48.627509,165.39829 c -5.54754,5.24607 -10.433825,9.5383 -10.858403,9.5383 -0.424576,0 -4.982114,-3.98273 -10.127863,-8.8505 -7.469399,-7.0659 -9.774208,-8.8505 -11.430418,-8.8505 -1.870688,0 -2.074513,-0.24348 -2.074513,-2.47814 0,-2.39646 0.09377,-2.47814 2.844885,-2.47814 2.382202,0 3.385788,0.52012 6.17076,3.19806 l 3.325879,3.19806 15.78115,-14.88071 c 8.679627,-8.1844 16.280746,-14.88072 16.891362,-14.88072 0.610619,0 6.186882,4.78341 12.391705,10.62981 l 11.281484,10.62982 3.704582,-3.54942 c 2.03752,-1.95218 4.21902,-3.54942 4.84777,-3.54942 0.62874,0 5.45226,4.05749 10.718891,9.01663 l 9.57572,9.01663 8.45304,-7.95457 c 4.64917,-4.37501 8.75281,-7.95457 9.1192,-7.95457 0.36639,0 4.42565,3.50041 9.02059,7.77869 l 8.35442,7.77868 5.57924,-5.30054 c 3.06857,-2.9153 6.08744,-5.30055 6.70857,-5.30055 0.62114,0 4.08309,2.77455 7.69321,6.16567 l 6.56385,6.16567 -1.63435,1.64175 -1.63433,1.64175 -5.30302,-4.97109 -5.303,-4.9711 -11.98238,11.32447 -11.9824,11.32448 h 19.31076 19.31075 v 2.47814 2.47814 H 94.040479 14.136312 Z m 121.924798,-10.27158 6.72645,-6.37736 -6.92967,-6.53958 -6.92966,-6.53959 -6.92967,6.53959 -6.92966,6.53958 6.72645,6.37736 c 3.69955,3.50755 6.90934,6.37736 7.13288,6.37736 0.22353,0 3.43333,-2.86981 7.13288,-6.37736 z M 59.145861,150.15519 c 0.604504,0 3.64885,2.39211 6.765213,5.3158 l 5.666118,5.3158 3.709535,-3.55416 3.70953,-3.55416 -10.100498,-9.55159 -10.100506,-9.55159 -14.076455,13.27027 c -7.742053,7.29865 -14.07646,13.58109 -14.07646,13.96098 0,0.37989 1.595144,2.21904 3.544765,4.087 l 3.544766,3.3963 10.157445,-9.56732 c 5.586597,-5.26203 10.652045,-9.56733 11.256547,-9.56733 z m 50.231419,-2.79605 c -5.34337,-1.5286 -7.45892,-4.26 -7.45892,-9.63029 0,-2.78856 0.38344,-3.654 2.50671,-5.65775 2.86513,-2.70386 5.40682,-3.50764 9.05135,-2.8624 7.92758,1.4035 10.61902,10.88544 4.52348,15.93613 -1.44585,1.19801 -3.09589,2.1782 -3.66676,2.1782 -0.57088,0 -1.4876,0.13168 -2.03715,0.29262 -0.54957,0.16093 -1.86298,0.0455 -2.91871,-0.25651 z m 5.1288,-5.38655 c 2.02322,-1.33735 2.2466,-4.90878 0.4258,-6.8075 -1.63831,-1.70839 -5.13665,-1.64789 -7.01133,0.12126 -1.91712,1.80921 -1.90088,3.57699 0.0544,5.92286 1.75997,2.11149 4.08112,2.38279 6.53108,0.76338 z m 27.1768,1.1022 c 0,-1.8881 0.25009,-2.12412 2.25082,-2.12412 2.00074,0 2.25082,0.23602 2.25082,2.12412 0,1.88811 -0.25008,2.12412 -2.25082,2.12412 -2.00073,0 -2.25082,-0.23601 -2.25082,-2.12412 z m 15.00548,0 c 0,-1.8881 0.25009,-2.12412 2.25083,-2.12412 2.00073,0 2.25081,0.23602 2.25081,2.12412 0,1.88811 -0.25008,2.12412 -2.25081,2.12412 -2.00074,0 -2.25083,-0.23601 -2.25083,-2.12412 z m -22.50821,-9.55854 c 0,-2.28146 0.17861,-2.47813 2.25081,-2.47813 2.07219,0 2.25083,0.19667 2.25083,2.47813 0,2.28147 -0.17861,2.47814 -2.25083,2.47814 -2.07218,0 -2.25081,-0.19667 -2.25081,-2.47814 z m 15.00546,0 c 0,-2.28146 0.17862,-2.47813 2.25083,-2.47813 2.07218,0 2.25082,0.19667 2.25082,2.47813 0,2.28147 -0.17861,2.47814 -2.25082,2.47814 -2.07218,0 -2.25083,-0.19667 -2.25083,-2.47814 z m 15.00549,0 c 0,-2.28146 0.17861,-2.47813 2.25081,-2.47813 2.07219,0 2.25083,0.19667 2.25083,2.47813 0,2.28147 -0.17861,2.47814 -2.25083,2.47814 -2.07217,0 -2.25081,-0.19667 -2.25081,-2.47814 z"
       id="path20"
       inkscape:connector-curvature="0" />
  </g>
</svg>
