<?xml version="1.0" encoding="UTF-8" standalone="no"?>
<!-- Created with Inkscape (http://www.inkscape.org/) -->

<svg
   xmlns:dc="http://purl.org/dc/elements/1.1/"
   xmlns:cc="http://creativecommons.org/ns#"
   xmlns:rdf="http://www.w3.org/1999/02/22-rdf-syntax-ns#"
   xmlns:svg="http://www.w3.org/2000/svg"
   xmlns="http://www.w3.org/2000/svg"
   xmlns:sodipodi="http://sodipodi.sourceforge.net/DTD/sodipodi-0.dtd"
   xmlns:inkscape="http://www.inkscape.org/namespaces/inkscape"
   version="1.1"
   id="svg10"
   width="266.66666"
   height="266.66666"
   viewBox="0 0 266.66666 266.66666"
   sodipodi:docname="779312-200.svg"
   inkscape:version="0.92.1 r15371">
  <metadata
     id="metadata16">
    <rdf:RDF>
      <cc:Work
         rdf:about="">
        <dc:format>image/svg+xml</dc:format>
        <dc:type
           rdf:resource="http://purl.org/dc/dcmitype/StillImage" />
        <dc:title></dc:title>
      </cc:Work>
    </rdf:RDF>
  </metadata>
  <defs
     id="defs14" />
  <sodipodi:namedview
     pagecolor="#ffffff"
     bordercolor="#666666"
     borderopacity="1"
     objecttolerance="10"
     gridtolerance="10"
     guidetolerance="10"
     inkscape:pageopacity="0"
     inkscape:pageshadow="2"
     inkscape:window-width="1366"
     inkscape:window-height="706"
     id="namedview12"
     showgrid="false"
     inkscape:zoom="2.0137501"
     inkscape:cx="133.33333"
     inkscape:cy="133.33333"
     inkscape:window-x="-8"
     inkscape:window-y="219"
     inkscape:window-maximized="1"
     inkscape:current-layer="svg10" />
  <path
     style="fill:#000000;stroke-width:1.33333325"
     d="M 47.068685,227.46098 C 46.574451,226.96676 46.170079,200.3868 46.170079,168.39443 V 110.22648 L 70.503412,80.949987 94.836745,51.673493 h 37.999995 38 l 24.34699,29.301665 24.34698,29.301672 -0.34699,58.69833 -0.34698,58.69833 -85.43473,0.34305 c -46.989093,0.18868 -85.839092,-0.0613 -86.333325,-0.55556 z m 45.704263,-41.71891 c -0.09808,-19.7623 0.211553,-36.5623 0.688086,-37.33334 1.164282,-1.88385 77.549026,-1.94552 78.712146,-0.0636 0.45493,0.7361 0.77271,17.5361 0.70616,37.33334 l -0.121,35.99502 h 20.0392 20.0392 l -0.0235,-55 -0.0235,-55 L 190.47989,84.749322 168.17007,57.825153 H 132.83674 97.503412 l -22.309815,26.924169 -22.309815,26.924168 -0.02352,55 -0.02352,55 h 20.057273 20.057269 z m 35.147672,-81.53998 c -6.30739,-1.82276 -9.75055,-6.980439 -9.75055,-14.605846 0,-5.351346 0.66378,-7.048062 4.10257,-10.486854 3.20984,-3.209841 5.25986,-4.102564 9.42099,-4.102564 10.27714,0 15.73462,5.223145 15.78012,15.102564 0.0247,5.357201 -0.62358,7.089131 -3.86778,10.33333 -2.14359,2.14359 -4.79451,3.89744 -5.89095,3.89744 -1.09643,0 -2.79259,0.24524 -3.76923,0.54499 -0.97665,0.29974 -3.68797,-0.008 -6.02517,-0.68306 z m 10.97672,-8.467989 c 1.8,-1.8 3.27273,-4.527275 3.27273,-6.060609 0,-1.533333 -1.47273,-4.260606 -3.27273,-6.060606 -1.8,-1.8 -4.52727,-3.272727 -6.0606,-3.272727 -1.53333,0 -4.26061,1.472727 -6.06061,3.272727 -1.8,1.8 -3.27272,4.527273 -3.27272,6.060606 0,1.533334 1.47272,4.260609 3.27272,6.060609 1.8,1.8 4.52728,3.27272 6.06061,3.27272 1.53333,0 4.2606,-1.47272 6.0606,-3.27272 z m 8.26499,111.613799 -14.32559,-14.32557 -14.32558,14.32557 -14.32558,14.32559 h 28.65116 28.65116 z m -33.99966,-34.00033 -14.992592,-14.9926 v 29.98519 29.98518 l 14.992592,-14.9926 14.99259,-14.99258 z m 54.34074,14.66667 v -29.65927 l -14.98492,14.98492 -14.98491,14.98491 14.62884,14.67434 c 8.04587,8.0709 14.78908,14.67435 14.98492,14.67435 0.19584,0 0.35607,-13.34667 0.35607,-29.65925 z m -19.33334,-19.67408 14.62119,-14.66667 h -29.95452 -29.95452 l 14.62119,14.66667 c 8.04165,8.06667 14.94165,14.66667 15.33333,14.66667 0.39168,0 7.29168,-6.6 15.33333,-14.66667 z M 33.50994,97.684051 C 32.349387,95.806241 32.400417,95.737291 58.027963,64.5566 L 81.219179,36.34016 h 51.603511 51.6035 l 23.72308,28.884624 c 13.04769,15.886542 23.79007,29.813557 23.87195,30.948917 0.0819,1.13536 -0.8159,2.26485 -1.99503,2.50999 -1.43009,0.2973 -9.81048,-8.897097 -25.17069,-27.615585 L 181.82869,43.006827 H 132.83319 83.837705 L 60.836746,71.006826 c -12.650528,15.4 -23.790334,27.999995 -24.755124,27.999995 -0.96479,0 -2.122048,-0.59524 -2.571682,-1.32277 z"
     id="path20"
     inkscape:connector-curvature="0" />
</svg>
