<?xml version="1.0" encoding="UTF-8" standalone="no"?>
<!-- Created with Inkscape (http://www.inkscape.org/) -->

<svg
   xmlns:dc="http://purl.org/dc/elements/1.1/"
   xmlns:cc="http://creativecommons.org/ns#"
   xmlns:rdf="http://www.w3.org/1999/02/22-rdf-syntax-ns#"
   xmlns:svg="http://www.w3.org/2000/svg"
   xmlns="http://www.w3.org/2000/svg"
   xmlns:sodipodi="http://sodipodi.sourceforge.net/DTD/sodipodi-0.dtd"
   xmlns:inkscape="http://www.inkscape.org/namespaces/inkscape"
   version="1.1"
   id="svg10"
   width="266.66666"
   height="266.66666"
   viewBox="0 0 266.66666 266.66666"
   sodipodi:docname="915583-200.svg"
   inkscape:version="0.92.1 r15371">
  <metadata
     id="metadata16">
    <rdf:RDF>
      <cc:Work
         rdf:about="">
        <dc:format>image/svg+xml</dc:format>
        <dc:type
           rdf:resource="http://purl.org/dc/dcmitype/StillImage" />
        <dc:title></dc:title>
      </cc:Work>
    </rdf:RDF>
  </metadata>
  <defs
     id="defs14" />
  <sodipodi:namedview
     pagecolor="#ffffff"
     bordercolor="#666666"
     borderopacity="1"
     objecttolerance="10"
     gridtolerance="10"
     guidetolerance="10"
     inkscape:pageopacity="0"
     inkscape:pageshadow="2"
     inkscape:window-width="1366"
     inkscape:window-height="706"
     id="namedview12"
     showgrid="false"
     inkscape:zoom="2.0137501"
     inkscape:cx="133.33333"
     inkscape:cy="133.33333"
     inkscape:window-x="-8"
     inkscape:window-y="219"
     inkscape:window-maximized="1"
     inkscape:current-layer="svg10" />
  <path
     style="fill:#000000;stroke-width:1.33333325"
     d="m 53.894089,242.07746 c -1.81095,-1.81095 -2.095238,-7.48261 -2.095238,-41.80076 v -39.70552 l -7.34864,-5.86389 c -4.041752,-3.22515 -7.629769,-6.7648 -7.973373,-7.86591 -0.343603,-1.1011 4.313284,-15.44071 10.348639,-31.86579 L 57.798851,85.11181 84.781973,72.308923 111.76509,59.506041 l 0.0169,-10.066667 c 0.0101,-6.030082 0.65845,-10.708242 1.61688,-11.666666 0.88,-0.88 4.4455,-1.6 7.92333,-1.6 h 6.32334 l 0.41,-5.530873 c 0.78593,-10.602309 9.36739,-10.602309 10.15333,0 l 0.41,5.530873 h 6.32333 c 3.47783,0 7.04333,0.72 7.92333,1.6 0.96002,0.960019 1.60364,5.62655 1.60911,11.666666 l 0.009,10.066667 26.9909,12.857483 26.99089,12.857486 10.97546,30.0974 c 6.03651,16.55357 10.6734,30.88456 10.30422,31.84664 -0.36919,0.96208 -3.95815,4.37204 -7.97547,7.57769 l -7.30444,5.82844 v 39.70552 c 0,34.31815 -0.28429,39.98981 -2.09524,41.80076 -1.85648,1.85648 -10.886,2.09524 -79.23809,2.09524 -68.352088,0 -77.381615,-0.23876 -79.238091,-2.09524 z m 23.238094,-45.63809 c 0,-27.05185 0.432295,-37.49896 1.6,-38.66667 2.298198,-2.2982 106.501797,-2.2982 108.799997,0 1.16771,1.16771 1.6,11.61482 1.6,38.66667 v 37.06666 h 7.33333 7.33333 v -35.63177 -35.63177 l -8.99999,-27.26693 -9,-27.26692 -25.47007,-12.43463 c -14.00853,-6.83905 -26.22099,-12.43464 -27.13879,-12.43464 -2.04407,0 -49.461208,22.60605 -51.564788,24.58343 -0.828839,0.77911 -5.478839,13.41693 -10.333333,28.08403 l -8.826352,26.66746 v 35.66588 35.66586 h 7.333333 7.333333 z m 46.957577,-55.81744 c -9.30578,-4.58664 -13.45574,-16.78172 -8.94532,-26.28673 8.54998,-18.01775 35.40823,-13.45804 37.64551,6.39107 1.73316,15.37661 -14.72326,26.78461 -28.70019,19.89566 z m 15.28982,-11.34831 c 3.87368,-3.63913 3.94792,-8.67817 0.18685,-12.68165 -3.63913,-3.87368 -8.67817,-3.94792 -12.68165,-0.18685 -3.87368,3.63914 -3.94792,8.67817 -0.18685,12.68165 3.63914,3.87368 8.67817,3.94792 12.68165,0.18685 z m -16.91407,103.44445 c 0,-0.7864 -31.511102,-49.41061 -33.576982,-51.81203 -0.599324,-0.69667 -1.089678,10.85333 -1.089678,25.66666 v 26.93333 h 17.33333 c 9.53333,0 17.33333,-0.35458 17.33333,-0.78796 z m 56,-26.14537 c 0,-14.81333 -0.49036,-26.36333 -1.08968,-25.66666 -2.06588,2.40142 -33.57698,51.02563 -33.57698,51.81203 0,0.43338 7.8,0.78796 17.33333,0.78796 h 17.33333 z m -51.12346,-39.30124 c -0.28296,-0.28296 -8.13591,-0.34593 -17.45101,-0.13994 l -16.93654,0.37452 17.08884,26.1913 17.08884,26.19129 0.36217,-26.05135 c 0.19919,-14.32824 0.13065,-26.28287 -0.1523,-26.56582 z m 44.48934,2.17375 c 1.3506,-2.52361 0.84622,-2.60584 -15.98564,-2.60584 h -17.38024 v 26.91461 26.91461 l 15.98564,-24.30877 c 8.79211,-13.36981 16.61322,-25.4814 17.38024,-26.91461 z M 63.860196,124.65532 72.143132,99.8046 101.99817,85.32199 c 16.42028,-7.965439 30.42172,-14.482616 31.11431,-14.482616 1.82206,0 58.8237,27.606076 60.56011,29.329456 0.80278,0.79675 5.05959,12.21675 9.45959,25.37778 l 8,23.92916 3.69737,-2.98487 3.69739,-2.98486 -9.17042,-25.15329 -9.17041,-25.15329 -32.98434,-15.846712 c -18.1414,-8.715689 -33.47271,-15.846707 -34.06959,-15.846707 -0.59687,0 -15.92819,7.131018 -34.069578,15.846707 l -32.984354,15.846712 -9.170412,25.15329 -9.170411,25.15329 3.697379,2.99337 c 2.033559,1.64636 3.797523,2.99636 3.919919,3 0.1224,0.004 3.949858,-11.1762 8.505473,-24.84409 z M 128.42028,51.259092 c 4.41851,-2.107044 5.00529,-2.107044 9.42381,0 6.00057,2.861473 5.95476,2.86983 5.95476,-1.086384 0,-3.277778 -0.17778,-3.333334 -10.66667,-3.333334 -10.48889,0 -10.66667,0.05556 -10.66667,3.333334 0,3.956214 -0.0458,3.947857 5.95477,1.086384 z"
     id="path20"
     inkscape:connector-curvature="0" />
</svg>
