<?xml version="1.0" encoding="UTF-8" standalone="no"?>
<!-- Created with Inkscape (http://www.inkscape.org/) -->

<svg
   xmlns:dc="http://purl.org/dc/elements/1.1/"
   xmlns:cc="http://creativecommons.org/ns#"
   xmlns:rdf="http://www.w3.org/1999/02/22-rdf-syntax-ns#"
   xmlns:svg="http://www.w3.org/2000/svg"
   xmlns="http://www.w3.org/2000/svg"
   xmlns:sodipodi="http://sodipodi.sourceforge.net/DTD/sodipodi-0.dtd"
   xmlns:inkscape="http://www.inkscape.org/namespaces/inkscape"
   version="1.1"
   id="svg37"
   width="546.1333"
   height="546.1333"
   viewBox="0 0 546.1333 546.1333"
   sodipodi:docname="farm.svg"
   inkscape:version="0.92.1 r15371">
  <metadata
     id="metadata43">
    <rdf:RDF>
      <cc:Work
         rdf:about="">
        <dc:format>image/svg+xml</dc:format>
        <dc:type
           rdf:resource="http://purl.org/dc/dcmitype/StillImage" />
        <dc:title></dc:title>
      </cc:Work>
    </rdf:RDF>
  </metadata>
  <defs
     id="defs41" />
  <sodipodi:namedview
     pagecolor="#ffffff"
     bordercolor="#666666"
     borderopacity="1"
     objecttolerance="10"
     gridtolerance="10"
     guidetolerance="10"
     inkscape:pageopacity="0"
     inkscape:pageshadow="2"
     inkscape:window-width="1366"
     inkscape:window-height="706"
     id="namedview39"
     showgrid="false"
     inkscape:zoom="0.43212893"
     inkscape:cx="273.06665"
     inkscape:cy="273.06665"
     inkscape:window-x="-8"
     inkscape:window-y="219"
     inkscape:window-maximized="1"
     inkscape:current-layer="svg37" />
  <path
     style="fill:#000000;stroke-width:1.0666666"
     d="m 253.79435,546.75955 c -2.05334,-0.2407 -8.29334,-0.93242 -13.86667,-1.53714 C 204.73474,541.40385 165.76366,528.1982 134.31601,509.43507 94.292711,485.55531 61.76219,453.02478 37.88242,413.00148 19.27292,381.81132 6.91276,345.56478 1.86858,307.38981 0.14162,294.32 0.14162,254.3263 1.86858,241.25649 10.6448,174.83702 39.81658,118.53711 89.26314,72.589868 116.61866,47.170279 150.64442,27.282885 187.66102,15.078207 216.8392,5.457924 240.07385,1.8584266 272.99435,1.8584266 c 24.3541,0 35.11373,1.0275744 56.53333,5.3990974 73.44104,14.988563 139.07241,62.173578 178.57859,128.387296 18.6095,31.19016 30.96966,67.4367 36.01384,105.61167 1.72697,13.06981 1.72697,53.06351 0,66.13332 -5.04418,38.17497 -17.40434,74.42151 -36.01384,105.61167 -23.87976,40.0233 -56.41029,72.55383 -96.43359,96.43359 -30.87237,18.4199 -67.68716,31.0419 -104.545,35.84341 -9.35454,1.21863 -46.72035,2.25628 -53.33333,1.48107 z m 49.06666,-18.69925 c 42.75177,-4.64565 87.43115,-22.55297 123.73333,-49.59183 14.37568,-10.70739 39.83794,-36.16965 50.54533,-50.54533 27.10746,-36.39428 44.36513,-79.47469 49.78022,-124.26666 1.65759,-13.71111 1.65759,-44.95555 0,-58.66666 C 521.5048,200.19785 504.24713,157.11744 477.13967,120.72316 466.43228,106.34748 440.97002,80.885222 426.59434,70.177825 390.20006,43.07037 347.11965,25.812704 302.32768,20.397609 c -5.86666,-0.709246 -19.06666,-1.28954 -29.33334,-1.28954 -29.22168,0 -52.76903,3.705253 -79.46666,12.504345 C 154.19563,44.575598 122.55638,64.157873 92.692722,94.02152 62.82907,123.88518 43.2468,155.52444 30.28361,194.85649 c -8.79909,26.69763 -12.50434,50.24498 -12.50434,79.46666 0,29.22168 3.70525,52.76903 12.50434,79.46666 12.96319,39.33205 32.54546,70.97131 62.409112,100.83496 29.863658,29.86366 61.502908,49.44593 100.834958,62.40912 35.21538,11.60639 70.88831,15.20405 109.33333,11.02641 z M 242.6487,510.5562 C 169.69816,500.1394 108.68945,460.54467 70.12758,398.58981 52.08144,369.59622 40.04049,334.44159 36.25597,299.69852 c -1.52852,-14.03233 -1.35812,-40.64924 0.34285,-53.55322 1.225,-9.29319 1.74574,-10.88012 4.28776,-13.06667 3.36269,-2.89247 3.35997,-2.89235 30.50778,-1.41029 39.76814,2.17102 72.60365,7.29985 110.4,17.24424 22.43958,5.90396 52.54643,16.26717 55.60413,19.13973 4.42223,4.15447 3.0548,11.31065 -2.60962,13.65693 -2.75665,1.14185 -4.95843,0.63902 -20.57409,-4.69857 -33.80215,-11.55388 -65.46315,-19.15606 -99.98031,-24.00646 -13.66923,-1.92081 -41.97587,-4.27225 -51.48359,-4.27673 l -9.17682,-0.004 -0.68985,8.16094 c -0.37942,4.48851 -0.68985,10.8957 -0.68985,14.23821 v 6.07727 l 15.23784,0.71999 c 28.721201,1.35707 55.80072,5.07747 85.56216,11.75518 30.58087,6.86159 35.73333,9.11847 35.73333,15.65186 0,4.5091 -1.5456,6.98297 -5.14717,8.23848 -2.45841,0.857 -6.17945,0.2579 -18.95584,-3.05198 -19.27393,-4.99315 -45.29909,-9.97736 -63.52793,-12.16655 -13.7665,-1.65329 -46.94369,-3.93766 -47.60366,-3.27769 -0.50809,0.50809 1.69673,15.90535 3.29174,22.98762 l 1.32124,5.86667 13.31081,0.78282 c 15.31178,0.90052 33.15081,3.07857 52.24415,6.37874 11.62966,2.01013 13.72408,2.69341 16.39145,5.34759 2.53338,2.52083 2.94464,3.63049 2.39679,6.46691 -0.84011,4.3495 -4.20104,7.15727 -8.56735,7.15727 -1.87518,0 -8.42198,-0.91932 -14.54849,-2.04293 -16.65655,-3.05486 -56.47241,-7.38357 -56.47241,-6.13958 0,2.49576 11.51426,29.51212 12.58325,29.52459 0.41255,0.005 5.05766,0.50221 10.32247,1.10531 11.43457,1.30988 14.42761,3.3141 14.42761,9.66112 0,5.54696 -4.03063,8.74324 -10.38797,8.23762 -2.49995,-0.19883 -4.54536,-0.19649 -4.54536,0.005 0,0.43501 9.79215,14.51408 12.693758,18.25099 l 2.020627,2.6023 19.576145,-19.71241 c 22.25003,-22.40493 37.13107,-35.45266 60.10946,-52.70407 53.02847,-39.81201 113.11215,-69.69025 176.07587,-87.55848 l 10.05746,-2.85418 v -21.58773 -21.58773 h -2.6504 c -3.71304,0 -7.62661,-2.83563 -8.45193,-6.12396 -1.5388,-6.13107 0.5598,-7.79179 26.569,-21.02529 15.9262,-8.10326 25.75268,-12.50039 28.00888,-12.53333 3.82622,-0.0559 50.91729,22.86082 53.5874,26.0781 2.23552,2.69364 1.87176,8.74384 -0.67908,11.29468 -1.20366,1.20366 -3.68234,2.21894 -5.54667,2.27195 l -3.37053,0.0958 v 13.729 13.72899 l 16.26666,-0.82465 c 28.01814,-1.42041 33.44402,-1.19208 36.15539,1.52145 6.76939,6.77481 6.90332,60.30376 0.22632,90.45388 -13.15318,59.39343 -46.38159,109.69011 -95.74084,144.91954 -10.01391,7.14727 -14.93168,7.98982 -18.69678,3.20327 -4.7563,-6.04664 -3.12364,-8.70709 12.48358,-20.34228 17.18522,-12.81157 46.12168,-41.92075 41.66196,-41.91063 -2.85755,0.006 -24.09145,4.39178 -33.95629,7.01279 -43.69619,11.60968 -82.93178,29.92244 -119.46666,55.75964 -11.41334,8.07144 -27.73333,21.18365 -27.73333,22.28221 0,1.0652 31.06674,-0.68863 42.07001,-2.37501 14.81009,-2.26982 32.40836,-7.04464 47.01745,-12.7569 6.83522,-2.67261 13.50309,-4.8593 14.8175,-4.8593 2.45795,0 6.21227,3.38636 7.35774,6.63661 0.92567,2.62658 -1.0489,7.56676 -3.68155,9.21088 -3.79602,2.37065 -25.41609,10.34499 -36.11449,13.32044 -19.63091,5.45979 -33.81975,7.3028 -59.2,7.68956 -16.34791,0.24912 -26.68597,-0.10208 -34.07898,-1.15776 z m 5.27898,-25.13515 c 13.99734,-13.1893 40.82274,-32.79879 61.86667,-45.2248 19.238,-11.35965 47.61412,-24.42113 68.79999,-31.66852 22.29047,-7.62525 56.73141,-15.7972 73.75725,-17.50067 3.89982,-0.39019 7.55163,-1.00819 8.11514,-1.37335 2.28623,-1.48144 18.39427,-33.08107 18.39427,-36.08458 0,-0.21237 -2.28,-0.13905 -5.06666,0.16292 -2.78667,0.30199 -10.10667,1.06385 -16.26667,1.69304 -89.54314,9.14598 -176.77737,50.15039 -244.25875,114.81369 -6.45767,6.18801 -11.74123,11.6317 -11.74123,12.09708 0,1.15165 13.06701,5.05161 26.66666,7.95887 12.47096,2.66599 11.46917,2.9134 19.73333,-4.87368 z m -28.79999,-44.333 c 53.9193,-46.31487 115.57898,-77.86139 183.99999,-94.13868 23.29037,-5.54075 60.20507,-10.75956 76.10665,-10.75956 h 5.76731 l 1.81764,-7.2 c 2.01259,-7.97227 4.83799,-23.22705 4.84026,-26.13333 0.001,-1.61921 -1.09441,-1.86376 -8.2652,-1.84478 -9.78987,0.0259 -34.47842,2.34265 -50.93333,4.77949 -32.9147,4.87442 -72.74209,15.56524 -101.34896,27.20498 -5.75878,2.34317 -11.92019,4.26031 -13.69203,4.26031 -6.82502,0 -10.71921,-8.47764 -6.29234,-13.69843 5.1125,-6.02938 61.21981,-24.14777 96.26666,-31.08681 22.5704,-4.46877 55.27905,-8.48466 69.45112,-8.52701 3.87811,-0.0116 9.27811,-0.32633 12,-0.6994 l 4.94888,-0.67832 v -8.76075 c 0,-4.81841 -0.31044,-12.43316 -0.68986,-16.92167 l -0.68984,-8.16094 -8.11016,0.006 c -4.46057,0.003 -16.51014,0.74121 -26.77681,1.6397 -106.30553,9.30344 -205.79426,50.22707 -287.46666,118.24641 -15.01511,12.50505 -35.96214,32.28206 -48.08452,45.3987 l -10.31179,11.15756 7.86483,7.51128 c 4.32565,4.13121 10.10724,9.33735 12.84797,11.56918 l 4.98314,4.05786 17.40009,-17.75928 c 27.0214,-27.57958 47.23565,-44.55789 76.63362,-64.36626 24.78983,-16.70341 50.06878,-31.06155 54.687,-31.06155 4.19014,0 8.24633,3.85635 8.24633,7.84007 0,5.26773 -2.27975,7.47989 -14.35227,13.92673 -23.75359,12.68464 -48.37948,29.11092 -72.04773,48.05822 -12.86644,10.30005 -55.47368,51.34207 -55.45992,53.42253 0.009,1.21355 3.09467,3.08048 18.65992,11.28638 l 11.73333,6.18574 14.4,-14.17058 c 7.92,-7.79382 17.76,-17.05671 21.86667,-20.58419 z m 174.93332,-199.11967 6.4,-1.32836 0.27291,-11.15844 c 0.30204,-12.35038 1.2571,-15.22879 5.65772,-17.05159 3.52549,-1.4603 6.68642,-0.65314 9.57212,2.4443 1.7777,1.90813 2.09725,3.7832 2.09725,12.30623 v 10.05511 l 6.13333,-0.7353 c 12.11666,-1.45262 10.93333,0.81495 10.93333,-20.95126 v -19.07613 l -12.8,-6.41645 -12.8,-6.41645 -12.72174,6.37723 c -10.07359,5.04974 -12.79355,6.88325 -13.06667,8.80821 -0.18971,1.33706 -0.20564,11.91101 -0.0354,23.49767 0.35097,23.88998 -0.67925,21.9359 10.35717,19.64523 z M 259.42049,144.68152 c -27.3633,-7.36998 -45.22039,-34.4055 -40.83573,-61.825028 3.3636,-21.034299 20.04022,-39.354069 40.87343,-44.900724 7.09539,-1.889088 19.97691,-1.889088 27.07232,0 20.83321,5.546655 37.50982,23.866425 40.87343,44.900724 5.28293,33.036898 -21.28016,63.710758 -54.90037,63.396468 -4.13007,-0.0386 -10.01746,-0.74576 -13.08308,-1.57144 z m 26.51475,-18.1414 c 10.10691,-3.56593 18.22356,-11.8517 22.36655,-22.83259 3.06,-8.11047 2.50911,-20.714017 -1.23289,-28.206666 -4.06872,-8.146813 -9.93723,-14.047194 -17.84161,-17.938506 -6.366,-3.133966 -8.08796,-3.505864 -16.23295,-3.505864 -8.14498,0 -9.86695,0.371898 -16.23295,3.505864 -7.86868,3.873741 -13.70511,9.723659 -17.90338,17.944764 -2.28749,4.479392 -2.66366,6.647138 -2.66366,15.34937 0,8.752938 0.38799,10.961068 2.84819,16.209598 8.26282,17.6277 28.41065,25.99487 46.8927,19.47403 z"
     id="path47"
     inkscape:connector-curvature="0" />
</svg>
