<?xml version="1.0" encoding="UTF-8" standalone="no"?>
<!-- Created with Inkscape (http://www.inkscape.org/) -->

<svg
   xmlns:dc="http://purl.org/dc/elements/1.1/"
   xmlns:cc="http://creativecommons.org/ns#"
   xmlns:rdf="http://www.w3.org/1999/02/22-rdf-syntax-ns#"
   xmlns:svg="http://www.w3.org/2000/svg"
   xmlns="http://www.w3.org/2000/svg"
   xmlns:sodipodi="http://sodipodi.sourceforge.net/DTD/sodipodi-0.dtd"
   xmlns:inkscape="http://www.inkscape.org/namespaces/inkscape"
   width="300.70081"
   height="305.51971"
   viewBox="0 0 79.560417 80.83543"
   version="1.1"
   id="svg5628"
   inkscape:version="0.92.1 r15371"
   sodipodi:docname="farm_final.svg">
  <defs
     id="defs5622" />
  <sodipodi:namedview
     id="base"
     pagecolor="#ffffff"
     bordercolor="#666666"
     borderopacity="1.0"
     inkscape:pageopacity="0.0"
     inkscape:pageshadow="2"
     inkscape:zoom="1.979899"
     inkscape:cx="134.13817"
     inkscape:cy="128.76005"
     inkscape:document-units="mm"
     inkscape:current-layer="layer1"
     showgrid="false"
     units="px"
     inkscape:window-width="1920"
     inkscape:window-height="1017"
     inkscape:window-x="1432"
     inkscape:window-y="-8"
     inkscape:window-maximized="1" />
  <metadata
     id="metadata5625">
    <rdf:RDF>
      <cc:Work
         rdf:about="">
        <dc:format>image/svg+xml</dc:format>
        <dc:type
           rdf:resource="http://purl.org/dc/dcmitype/StillImage" />
        <dc:title />
      </cc:Work>
    </rdf:RDF>
  </metadata>
  <g
     inkscape:label="Layer 1"
     inkscape:groupmode="layer"
     id="layer1"
     transform="translate(0,-216.16455)">
    <path
       style="fill:rgb(249, 235, 210);stroke-width:0.24631944;fill-opacity:0.96984923"
       d="m 13.380351,276.2928 v -5.62669 l 0.82578,0.0748 c 0.726105,0.0657 0.835387,0.1685 0.905397,0.85089 l 0.07962,0.77607 h 4.541345 4.541343 l 0.07962,-0.77607 c 0.07001,-0.68239 0.179295,-0.7851 0.905399,-0.85089 0.792052,-0.0718 0.825778,-0.0401 0.825778,0.77605 v 0.85091 h 4.700588 4.700583 v -0.83577 c 0,-0.76943 0.06048,-0.83576 0.762261,-0.83576 h 0.762255 v 5.61157 5.61159 h -0.746163 c -0.656097,0 -0.755767,-0.0936 -0.825774,-0.77607 l -0.07962,-0.77606 -4.637063,-0.065 -4.637063,-0.065 v 0.84115 c 0,0.80213 -0.04128,0.84116 -0.889298,0.84116 -0.846954,0 -0.889299,-0.0398 -0.889299,-0.83577 v -0.83577 h -4.573546 -4.573542 v 0.83577 c 0,0.79597 -0.04235,0.83577 -0.889299,0.83577 h -0.8893 z m 8.638911,2.41311 c 0,-0.0602 -0.514519,-0.3927 -1.143384,-0.73905 l -1.143385,-0.62973 -1.143385,0.62973 c -0.628863,0.34635 -1.143386,0.67893 -1.143386,0.73905 0,0.0602 1.029049,0.10931 2.286771,0.10931 1.257724,0 2.286769,-0.0491 2.286769,-0.10931 z m 10.721307,-0.18915 c -0.14663,-0.16416 -0.663429,-0.49752 -1.148441,-0.74079 l -0.881841,-0.44231 -1.169442,0.64409 c -0.64319,0.35426 -1.169437,0.68761 -1.169437,0.74079 0,0.0532 1.043045,0.0968 2.317879,0.0968 1.827105,0 2.261434,-0.0632 2.051282,-0.29849 z m -14.906076,-2.10103 c 0.09196,-0.13985 -2.257278,-1.65992 -2.565382,-1.65992 -0.06059,0 -0.110155,0.74775 -0.110155,1.66166 v 1.66168 l 1.284195,-0.75025 c 0.706307,-0.41262 1.332412,-0.82355 1.391347,-0.91317 z m 6.389379,-1.57795 c -0.107309,-0.1008 -2.712777,1.34748 -2.712777,1.508 0,0.0472 0.600277,0.44837 1.333946,0.89145 l 1.333951,0.80564 0.07581,-1.55238 c 0.04171,-0.85382 0.02778,-1.59752 -0.03095,-1.65271 z m 4.650694,1.55034 c 0.0048,-0.15222 -2.413201,-1.63231 -2.666705,-1.63231 -0.06778,0 -0.123226,0.7471 -0.123226,1.66024 v 1.66025 l 1.392461,-0.76478 c 0.765854,-0.42064 1.394716,-0.83616 1.39747,-0.9234 z m 6.611238,-0.0802 c 0,-0.85367 -0.09106,-1.55214 -0.202338,-1.55214 -0.111284,0 -0.806302,0.35789 -1.544476,0.79531 l -1.342141,0.79531 1.226873,0.75403 c 1.747406,1.07393 1.862082,1.02512 1.862082,-0.79251 z M 21.99809,274.1239 c 0.05824,-0.0465 -0.965209,-0.0845 -2.274303,-0.0845 h -2.380171 l 1.130917,0.68828 1.130916,0.68827 1.143387,-0.60384 c 0.628861,-0.33209 1.191029,-0.64181 1.249254,-0.68825 z m 9.946365,-0.0382 c -0.559274,-0.0402 -1.563418,-0.0402 -2.231431,0 l -1.214577,0.0731 1.125527,0.62488 1.125526,0.62489 1.105904,-0.62489 1.105909,-0.62488 z m 7.162068,7.67563 c -0.245959,-0.0933 -0.314865,-2.0147 -0.305466,-8.51792 l 0.01213,-8.39746 2.592242,-4.41763 2.59224,-4.41762 4.319455,-2.0787 c 2.3757,-1.14327 4.548136,-2.07867 4.827627,-2.07867 0.279497,0 2.448559,0.9354 4.82014,2.07867 l 4.311964,2.0787 2.611867,4.51381 2.611867,4.51379 v 8.15404 c 0,6.02364 -0.07965,8.22891 -0.304902,8.44059 -0.230128,0.21627 -3.67278,0.28193 -14.03823,0.26768 -7.553333,-0.0105 -13.876252,-0.0731 -14.050943,-0.13928 z m 10.60903,-4.19978 c 6.91e-4,-2.25928 0.08121,-2.81013 0.505853,-3.46465 1.075062,-1.6571 3.043281,-2.1649 4.600859,-1.18701 1.406336,0.88295 1.751804,1.82359 1.752255,4.77105 l 3.4e-4,2.56701 h 4.573546 4.573541 v -7.1637 -7.16372 H 53.144759 40.567518 v 7.16372 7.16371 h 4.573541 4.573542 l 0.0012,-2.68641 z m 9.400212,1.13425 c 0,-0.76943 0.06049,-0.83577 0.762259,-0.83577 0.701761,0 0.762259,0.0663 0.762259,0.83577 0,0.76945 -0.06049,0.83577 -0.762259,0.83577 -0.701756,0 -0.762259,-0.0663 -0.762259,-0.83577 z m 3.30312,-0.0152 c 0,-0.81614 0.03373,-0.84784 0.825776,-0.77607 0.726104,0.0657 0.835389,0.1685 0.905395,0.85091 0.07636,0.74436 0.04264,0.77605 -0.825772,0.77605 -0.86842,10e-6 -0.905399,-0.0346 -0.905399,-0.85088 z m -20.169442,-5.9662 c -0.32552,-0.79721 -0.171947,-4.57486 0.197694,-4.86317 0.230875,-0.18007 1.23089,-0.25295 2.858466,-0.20834 l 2.503358,0.0687 v 2.6267 2.6267 l -2.701058,0.0675 c -2.294604,0.0574 -2.724742,0.009 -2.85846,-0.31802 z m 4.162044,-2.25674 v -1.19397 h -1.270428 -1.270428 v 1.19397 1.19393 h 1.270428 1.270428 z m 11.992846,2.34013 c -0.380162,-0.35727 -0.413131,-4.09183 -0.04191,-4.74374 0.232936,-0.40905 0.551659,-0.4619 2.786008,-0.4619 3.025505,0 3.049023,0.0218 3.049023,2.83027 0,2.77941 0.127929,2.66192 -2.89835,2.66192 -1.675586,0 -2.697542,-0.10122 -2.894799,-0.28655 z m 4.014552,-2.34013 v -1.19397 h -1.270431 -1.27043 v 1.19397 1.19393 h 1.27043 1.270431 z m -7.62257,7.16369 c 0,-2.3083 -0.06157,-2.68458 -0.508171,-3.10426 -0.617324,-0.58017 -1.700009,-0.61844 -2.330284,-0.0825 -0.398134,0.33862 -0.464654,0.78303 -0.464654,3.10427 v 2.7091 h 1.651553 1.651556 z m -9.782299,-14.80499 c -0.970733,-0.91936 -1.852144,-1.67154 -1.958693,-1.67154 -0.150424,0 -1.370439,1.9944 -1.935461,3.16397 -0.04758,0.0985 1.206248,0.1791 2.786303,0.1791 h 2.872824 z m 6.733274,1.60367 c 0,-0.0373 -0.628863,-0.65153 -1.397472,-1.36491 l -1.397469,-1.29702 v 1.36488 1.36491 h 1.397469 c 0.768609,0 1.397472,-0.0305 1.397472,-0.0677 z m 5.589879,-1.41644 v -1.48428 l -1.397466,1.29705 c -0.768609,0.71334 -1.397469,1.3813 -1.397469,1.48427 0,0.10299 0.62886,0.18726 1.397469,0.18726 h 1.397466 z m 7.468925,0.70822 c -0.231432,-0.42684 -0.708048,-1.24151 -1.059151,-1.81039 l -0.638361,-1.03433 -1.742318,1.6249 c -0.958276,0.89369 -1.742328,1.70838 -1.742328,1.8104 0,0.10205 1.260668,0.1855 2.801473,0.1855 h 2.801469 z m -17.719838,-7.26584 c -0.05704,-0.0535 -0.489442,0.0757 -0.96092,0.28722 -0.531654,0.23858 -1.11346,0.80929 -1.531872,1.50268 l -0.674638,1.11801 1.56394,1.50012 1.563938,1.5001 0.07161,-2.90535 c 0.03937,-1.59794 0.02495,-2.94918 -0.03207,-3.00278 z m 3.530363,1.13335 -1.66427,-1.56408 v 1.66289 1.6629 l 1.588035,1.50744 1.588031,1.50743 0.07622,-1.60624 0.07622,-1.60625 z m 6.72055,0.11683 v -1.67154 l -1.651552,1.53834 -1.651555,1.53834 v 1.67154 1.67153 l 1.651555,-1.53834 1.651552,-1.53833 z m 4.340945,0.62629 c -0.41363,-0.82995 -0.839441,-1.28744 -1.455122,-1.56336 -0.478708,-0.21455 -0.923674,-0.39009 -0.9888,-0.39009 -0.06513,0 -0.118427,1.36899 -0.118427,3.0422 v 3.0422 l 1.573549,-1.47882 1.57354,-1.47882 z M 52.16557,254.0558 c -0.100805,-0.0947 -1.610553,0.52899 -1.926284,0.79581 -0.0608,0.0514 0.33939,0.52733 0.889301,1.05766 l 0.999828,0.96424 0.07706,-1.3539 c 0.04239,-0.74462 0.02441,-1.40334 -0.03991,-1.46381 z m 3.901175,0.87621 c 0,-0.13445 -1.643585,-0.95092 -1.914264,-0.95092 -0.06513,0 -0.118419,0.66653 -0.118419,1.48121 v 1.48121 l 1.016342,-0.9327 c 0.558988,-0.51298 1.016341,-0.99842 1.016341,-1.0788 z m -29.93251,13.19742 0.07743,-1.13424 2.477333,-0.0684 2.477338,-0.0685 v 0.72501 c 0,0.4581 -0.129404,0.72503 -0.351496,0.72503 -0.19332,0 -0.411296,0.21491 -0.484384,0.47757 -0.09677,0.34774 -0.346577,0.47758 -0.918934,0.47758 -0.616654,0 -0.786043,-0.10289 -0.786043,-0.47758 0,-0.26266 -0.158173,-0.47757 -0.351494,-0.47757 -0.193326,0 -0.411296,0.21491 -0.484386,0.47757 -0.09739,0.35002 -0.346578,0.47758 -0.932854,0.47758 -0.795827,0 -0.799564,-0.005 -0.722524,-1.13425 z m -6.909914,-1.7313 c 0,-0.26533 -0.169389,-0.47759 -0.381128,-0.47759 -0.254085,0 -0.381129,-0.23878 -0.381129,-0.71637 v -0.71637 h 2.386631 c 2.628062,0 2.695082,0.0389 2.695082,1.57168 0,0.77364 -0.04642,0.81623 -0.889299,0.81623 -0.719909,0 -0.889298,-0.091 -0.889298,-0.47758 0,-0.26533 -0.169393,-0.47759 -0.381129,-0.47759 -0.21174,0 -0.381129,0.21226 -0.381129,0.47759 0,0.38661 -0.169391,0.47758 -0.889301,0.47758 -0.719908,0 -0.8893,-0.091 -0.8893,-0.47758 z m 11.942028,-3.22368 c 0,-0.197 -0.17151,-0.35818 -0.381128,-0.35818 -0.268193,0 -0.381132,-0.2547 -0.381132,-0.85953 v -0.85954 l 2.265913,0.0834 c 1.246253,0.046 2.342085,0.15518 2.435179,0.24283 0.0931,0.0876 0.231874,0.59808 0.308401,1.13426 l 0.139135,0.97487 h -0.922755 c -0.65084,0 -0.922756,-0.10557 -0.922756,-0.35818 0,-0.197 -0.171509,-0.35818 -0.381128,-0.35818 -0.209623,0 -0.381131,0.16118 -0.381131,0.35818 0,0.25017 -0.2682,0.35818 -0.889301,0.35818 -0.621095,0 -0.889297,-0.10807 -0.889297,-0.35818 z m -14.482884,-0.71637 c 0,-0.19699 -0.171507,-0.35819 -0.381129,-0.35819 -0.266184,0 -0.381127,-0.25205 -0.381127,-0.83576 v -0.83578 h 2.235953 c 2.544339,0 2.84576,0.15682 2.84576,1.48051 0,0.87785 -0.02897,0.90741 -0.889301,0.90741 -0.621097,0 -0.8893,-0.10806 -0.8893,-0.35819 0,-0.19699 -0.171507,-0.35819 -0.381128,-0.35819 -0.209622,0 -0.381129,0.1612 -0.381129,0.35819 0,0.25017 -0.268202,0.35819 -0.889298,0.35819 -0.621099,0 -0.889301,-0.10806 -0.889301,-0.35819 z m 5.081715,-5.32504 c 0,-1.32367 0.301419,-1.48048 2.845757,-1.48048 h 2.235955 v 0.83576 c 0,0.58369 -0.114944,0.83577 -0.38113,0.83577 -0.20962,0 -0.381127,0.16118 -0.381127,0.35817 0,0.25016 -0.268199,0.3582 -0.889301,0.3582 -0.621099,0 -0.889297,-0.10807 -0.889297,-0.3582 0,-0.19699 -0.171509,-0.35817 -0.381128,-0.35817 -0.209623,0 -0.381132,0.16118 -0.381132,0.35817 0,0.25016 -0.268198,0.3582 -0.889299,0.3582 -0.860322,0 -0.889298,-0.0296 -0.889298,-0.90742 z m 8.688511,-3.33112 0.07743,-1.13426 2.477337,-0.0684 2.477333,-0.0685 v 0.74737 c 0,0.54656 -0.136548,0.78094 -0.508172,0.87226 -0.279492,0.0687 -0.508171,0.27355 -0.508171,0.45523 0,0.20786 -0.282647,0.33034 -0.762255,0.33034 -0.508172,0 -0.762259,-0.11941 -0.762259,-0.35817 0,-0.19902 -0.225851,-0.3582 -0.508171,-0.3582 -0.282316,0 -0.508172,0.15918 -0.508172,0.3582 0,0.24019 -0.255632,0.35817 -0.776178,0.35817 -0.767448,0 -0.775305,-0.0128 -0.698735,-1.13425 z m -17.02374,-0.71637 0.07744,-1.13426 2.477335,-0.0685 2.477335,-0.0685 v 0.72503 c 0,0.4581 -0.129404,0.72501 -0.351495,0.72501 -0.193321,0 -0.411294,0.21491 -0.484384,0.47759 -0.09677,0.34774 -0.346575,0.47758 -0.918932,0.47758 -0.616656,0 -0.786044,-0.10289 -0.786044,-0.47758 0,-0.26268 -0.158174,-0.47759 -0.351496,-0.47759 -0.193321,0 -0.411295,0.21491 -0.484385,0.47759 -0.09739,0.35001 -0.346576,0.47758 -0.932855,0.47758 -0.795823,0 -0.799565,-0.005 -0.722522,-1.13427 z m 26.9571,0.65667 c -0.07306,-0.26267 -0.291058,-0.47756 -0.484384,-0.47756 -0.222089,0 -0.351489,-0.26694 -0.351489,-0.72504 v -0.72502 l 2.477332,0.0685 2.477337,0.0684 0.07742,1.13425 c 0.07702,1.12838 0.07331,1.13426 -0.722522,1.13426 -0.58628,0 -0.835467,-0.12757 -0.932858,-0.47759 -0.07309,-0.26267 -0.291063,-0.47757 -0.484381,-0.47757 -0.193323,0 -0.351492,0.2149 -0.351492,0.47757 0,0.37467 -0.169394,0.47759 -0.786047,0.47759 -0.572358,0 -0.822172,-0.12983 -0.918936,-0.47759 z m -27.0067,-5.13399 v -0.83577 H 31.862816 50.34528 l -5.330634,-5.01401 -5.330627,-5.01402 -3.182505,2.98431 c -1.778478,1.6677 -3.389984,2.98427 -3.652797,2.98427 -0.258662,0 -1.34814,-0.80284 -2.421061,-1.78409 l -1.950763,-1.7841 -3.415849,3.21684 c -1.878714,1.76927 -3.533491,3.21684 -3.677277,3.21684 -0.143787,0 -1.687228,-1.34318 -3.429873,-2.98487 -2.529565,-2.38303 -3.310107,-2.98488 -3.870995,-2.98488 -0.633521,0 -0.702548,-0.0821 -0.702548,-0.83577 0,-0.80823 0.03176,-0.83577 0.963441,-0.83577 0.80675,0 1.146621,0.17542 2.089772,1.07856 l 1.126333,1.07857 5.3444,-5.0186 c 2.939418,-2.76025 5.513592,-5.01862 5.720383,-5.01862 0.206789,0 2.095231,1.61323 4.19654,3.58497 l 3.820555,3.58496 1.254584,-1.19706 c 0.690021,-0.65839 1.428802,-1.19707 1.641733,-1.19707 0.212927,0 1.846447,1.36842 3.630029,3.04091 l 3.242887,3.04092 2.862683,-2.68272 c 1.574475,-1.4755 2.964202,-2.68274 3.088283,-2.68274 0.124079,0 1.498777,1.18053 3.054887,2.62342 l 2.82928,2.62341 1.889452,-1.78765 c 1.039194,-0.98319 2.061553,-1.78765 2.271904,-1.78765 0.210354,0 1.382766,0.93575 2.605363,2.07942 l 2.222896,2.07942 -0.553486,0.55369 -0.553479,0.55368 -1.795905,-1.67652 -1.795899,-1.67654 -4.05792,3.81923 -4.057924,3.81926 h 6.539724 6.539726 v 0.83577 0.83576 H 40.440474 13.380351 Z m 41.290713,-3.46416 2.277954,-2.15079 -2.346776,-2.20552 -2.34678,-2.2055 -2.346783,2.2055 -2.346779,2.20552 2.277962,2.15079 c 1.252877,1.18294 2.339897,2.15082 2.4156,2.15082 0.07571,0 1.162721,-0.96788 2.415602,-2.15082 z M 28.62316,238.22083 c 0.20472,0 1.235709,0.80676 2.291088,1.79279 l 1.918871,1.7928 1.256261,-1.19867 1.256261,-1.19866 -3.420607,-3.22134 -3.420609,-3.22132 -4.767095,4.47547 c -2.621901,2.46153 -4.767094,4.58031 -4.767094,4.70843 0,0.12813 0.540207,0.74839 1.200459,1.37837 l 1.200461,1.14542 3.439893,-3.22665 c 1.891941,-1.77463 3.607391,-3.22664 3.812111,-3.22664 z m 17.011231,-0.94296 c -1.809571,-0.51555 -2.526015,-1.43671 -2.526015,-3.24789 0,-0.94045 0.129854,-1.23232 0.848914,-1.90809 0.970297,-0.91189 1.831059,-1.18298 3.065306,-0.96537 2.684731,0.47334 3.596208,3.67118 1.531909,5.37455 -0.489647,0.40404 -1.048446,0.73462 -1.241775,0.73462 -0.193332,0 -0.503787,0.0444 -0.689895,0.0987 -0.186118,0.0542 -0.630912,0.0154 -0.988444,-0.0865 z m 1.736905,-1.81665 c 0.685179,-0.45103 0.760829,-1.65552 0.144201,-2.29587 -0.554826,-0.57617 -1.739564,-0.55577 -2.374438,0.0409 -0.649246,0.61017 -0.643747,1.20638 0.01843,1.99752 0.59603,0.71213 1.382106,0.8036 2.211799,0.25746 z m 9.203619,0.37171 c 0,-0.63677 0.0847,-0.71636 0.762254,-0.71636 0.677563,0 0.762258,0.0797 0.762258,0.71636 0,0.63679 -0.08471,0.71637 -0.762258,0.71637 -0.677561,0 -0.762254,-0.0796 -0.762254,-0.71637 z m 5.08171,0 c 0,-0.63677 0.08471,-0.71636 0.76226,-0.71636 0.677564,0 0.762254,0.0797 0.762254,0.71636 0,0.63679 -0.08469,0.71637 -0.762254,0.71637 -0.677565,0 -0.76226,-0.0796 -0.76226,-0.71637 z m -7.622563,-3.22366 c 0,-0.76945 0.06048,-0.83577 0.762253,-0.83577 0.701763,0 0.762261,0.0663 0.762261,0.83577 0,0.76942 -0.06048,0.83576 -0.762261,0.83576 -0.701757,0 -0.762253,-0.0662 -0.762253,-0.83576 z m 5.081703,0 c 0,-0.76945 0.06049,-0.83577 0.762259,-0.83577 0.701761,0 0.762259,0.0663 0.762259,0.83577 0,0.76942 -0.06049,0.83576 -0.762259,0.83576 -0.701756,0 -0.762259,-0.0662 -0.762259,-0.83576 z m 5.081716,0 c 0,-0.76945 0.06049,-0.83577 0.762255,-0.83577 0.70176,0 0.762261,0.0663 0.762261,0.83577 0,0.76942 -0.06049,0.83576 -0.762261,0.83576 -0.701755,0 -0.762255,-0.0662 -0.762255,-0.83576 z"
       id="path20"
       inkscape:connector-curvature="0" />
  </g>
</svg>
