<?xml version="1.0" encoding="UTF-8" standalone="no"?>
<!-- Created with Inkscape (http://www.inkscape.org/) -->

<svg
   xmlns:dc="http://purl.org/dc/elements/1.1/"
   xmlns:cc="http://creativecommons.org/ns#"
   xmlns:rdf="http://www.w3.org/1999/02/22-rdf-syntax-ns#"
   xmlns:svg="http://www.w3.org/2000/svg"
   xmlns="http://www.w3.org/2000/svg"
   xmlns:sodipodi="http://sodipodi.sourceforge.net/DTD/sodipodi-0.dtd"
   xmlns:inkscape="http://www.inkscape.org/namespaces/inkscape"
   version="1.1"
   id="svg10"
   width="69.440002"
   height="69.440002"
   viewBox="0 0 69.440002 69.440002"
   sodipodi:docname="131917.svg"
   inkscape:version="0.92.1 r15371">
  <metadata
     id="metadata16">
    <rdf:RDF>
      <cc:Work
         rdf:about="">
        <dc:format>image/svg+xml</dc:format>
        <dc:type
           rdf:resource="http://purl.org/dc/dcmitype/StillImage" />
        <dc:title></dc:title>
      </cc:Work>
    </rdf:RDF>
  </metadata>
  <defs
     id="defs14" />
  <sodipodi:namedview
     pagecolor="#ffffff"
     bordercolor="#666666"
     borderopacity="1"
     objecttolerance="10"
     gridtolerance="10"
     guidetolerance="10"
     inkscape:pageopacity="0"
     inkscape:pageshadow="2"
     inkscape:window-width="1366"
     inkscape:window-height="706"
     id="namedview12"
     showgrid="false"
     inkscape:zoom="7.7332947"
     inkscape:cx="34.720001"
     inkscape:cy="34.720001"
     inkscape:window-x="-8"
     inkscape:window-y="219"
     inkscape:window-maximized="1"
     inkscape:current-layer="svg10" />
  <path
     style="fill:#000000;stroke-width:0.32000002"
     d="M 29.15051,69.193887 C 16.560991,67.078393 5.8274514,57.860015 1.8825371,45.7751 -4.7298648,25.518559 8.3344081,4.1287708 29.406409,0.71099128 52.55185,-3.0430905 72.855988,17.267163 69.10112,40.417663 66.025091,59.382815 48.005536,72.362214 29.15051,69.193887 Z m 9.223147,-4.027033 C 54.93929,63.145241 67.03234,48.006364 65.089405,31.722313 63.627383,19.468857 55.481856,9.5859061 43.813657,5.9084925 27.941491,0.90613398 10.866308,9.9314831 5.8020287,26.00012 0.77703606,41.944104 9.8943681,59.071154 26.05623,64.047954 c 4.385868,1.350564 7.844592,1.664749 12.317427,1.1189 z m -4.64,-12.348807 c -1.226374,-0.438294 -1.28,-0.905405 -1.28,-11.149492 0,-9.251645 0.04213,-10.007364 0.585197,-10.498839 0.858128,-0.776594 2.472243,-0.681318 3.076659,0.181606 0.424272,0.605733 0.498144,2.150171 0.498144,10.414545 v 9.703345 l -0.785456,0.785452 c -0.782192,0.782196 -1.181654,0.889642 -2.094544,0.563383 z M 33.129091,23.74083 c -1.924511,-1.619369 -1.537355,-4.707446 0.725462,-5.786508 2.417254,-1.152708 4.999104,0.523593 4.999104,3.245734 0,2.965039 -3.417648,4.481917 -5.724566,2.540774 z"
     id="path20"
     inkscape:connector-curvature="0" />
</svg>
