<?xml version="1.0" encoding="UTF-8" standalone="no"?>
<!-- Created with Inkscape (http://www.inkscape.org/) -->

<svg
   xmlns:dc="http://purl.org/dc/elements/1.1/"
   xmlns:cc="http://creativecommons.org/ns#"
   xmlns:rdf="http://www.w3.org/1999/02/22-rdf-syntax-ns#"
   xmlns:svg="http://www.w3.org/2000/svg"
   xmlns="http://www.w3.org/2000/svg"
   xmlns:sodipodi="http://sodipodi.sourceforge.net/DTD/sodipodi-0.dtd"
   xmlns:inkscape="http://www.inkscape.org/namespaces/inkscape"
   version="1.1"
   id="svg10"
   width="720.51611"
   height="624"
   viewBox="0 0 720.51611 624"
   sodipodi:docname="noun_665035_cc.svg"
   inkscape:version="0.92.1 r15371">
  <metadata
     id="metadata16">
    <rdf:RDF>
      <cc:Work
         rdf:about="">
        <dc:format>image/svg+xml</dc:format>
        <dc:type
           rdf:resource="http://purl.org/dc/dcmitype/StillImage" />
        <dc:title></dc:title>
      </cc:Work>
    </rdf:RDF>
  </metadata>
  <defs
     id="defs14" />
  <sodipodi:namedview
     pagecolor="#ffffff"
     bordercolor="#666666"
     borderopacity="1"
     objecttolerance="10"
     gridtolerance="10"
     guidetolerance="10"
     inkscape:pageopacity="0"
     inkscape:pageshadow="2"
     inkscape:window-width="1366"
     inkscape:window-height="706"
     id="namedview12"
     showgrid="false"
     inkscape:zoom="0.86057692"
     inkscape:cx="360.25806"
     inkscape:cy="312"
     inkscape:window-x="-8"
     inkscape:window-y="219"
     inkscape:window-maximized="1"
     inkscape:current-layer="svg10" />
  <path
     style="fill:#000000;stroke-width:0.95789492"
     d="m 493.31478,558.18921 c -1.55667,-1.4812 -1.70837,-7.36173 -1.70837,-66.22222 0,-63.41149 0.0379,-64.62929 2.06451,-66.37445 2.65836,-2.28914 5.36986,-2.25699 7.84001,0.093 1.88871,1.7968 1.97797,4.35328 2.25795,64.66667 0.16035,34.53776 0.0435,63.66795 -0.25961,64.73376 -1.28198,4.50765 -6.91611,6.22271 -10.19449,3.10328 z M 190.60863,484.16924 c -1.92535,-1.83202 -1.96996,-6.1267 -1.96996,-189.68782 0,-183.44352 0.0457,-187.85688 1.96644,-189.68445 1.94235,-1.84819 2.52259,-1.8711 47.36835,-1.8711 h 45.40192 l -0.6857,-6.000004 c -0.37715,-3.3 -0.96112,-7.870551 -1.29772,-10.15679 -0.53829,-3.656091 -0.292,-4.432346 2.04463,-6.444445 2.64491,-2.277566 2.73374,-2.287654 20.14433,-2.287654 h 17.4877 l 3.22185,-4.323489 c 4.67516,-6.273711 14.6022,-14.050003 21.47726,-16.824093 5.1758,-2.088436 7.26903,-2.407974 15.77417,-2.407974 8.49359,0 10.60144,0.320816 15.74466,2.396344 7.07373,2.854577 16.25149,10.033427 21.0848,16.492545 l 3.49204,4.666667 h 17.56358 c 17.49212,0 17.5744,0.0093 20.22022,2.287654 2.33663,2.012099 2.58292,2.788354 2.04463,6.444445 -0.3366,2.286239 -0.92057,6.85679 -1.29772,10.15679 l -0.6857,6.000004 h 44.93141 c 42.70117,0 45.05238,0.0844 47.36836,1.69924 l 2.43694,1.69924 v 126.20744 c 0,122.86181 -0.0521,126.25704 -1.96644,128.07853 -2.41902,2.30174 -5.92325,2.40827 -8.19247,0.24907 -1.56455,-1.4887 -1.7262,-11.62763 -1.96644,-123.33333 l -0.26175,-121.7113 -42.06452,-0.2322 c -39.56498,-0.21839 -42.06681,-0.13916 -42.10328,1.33334 -0.0213,0.86104 -0.62263,5.6432 -1.33624,10.62701 -2.03899,14.24011 6.94986,12.71629 -75.01208,12.71629 -81.96195,0 -72.9731,1.52382 -75.01209,-12.71629 -0.71361,-4.98381 -1.31492,-9.76597 -1.33624,-10.62701 -0.0364,-1.4725 -2.5383,-1.55173 -42.10328,-1.33334 l -42.06452,0.2322 v 178.66666 178.66667 l 128.2958,0.44445 c 112.52446,0.38981 128.41919,0.60834 129.29945,1.77777 2.21261,2.93945 2.28855,5.48581 0.23429,7.85516 l -2.05228,2.36707 -132.11221,0.22557 -132.11222,0.22558 z M 425.96136,112.92587 c 0.98286,-8.18889 2.04886,-16.578733 2.36888,-18.644084 l 0.58185,-3.7552 -16.79741,-0.2448 -16.79742,-0.244809 -4.05552,-5.777778 C 382.93478,72.396041 372.85072,66.303644 361.5419,66.303644 c -11.30883,0 -21.39289,6.092397 -29.71985,17.955555 l -4.05552,5.777778 -16.79742,0.244809 -16.79741,0.2448 0.57282,3.7552 c 0.31505,2.065351 1.37526,10.455194 2.35601,18.644084 l 1.7832,14.88889 h 62.6453 62.64531 z m 67.32291,297.09562 c -2.26673,-1.95191 -2.1479,-6.89823 0.20987,-8.73563 5.29284,-4.12468 12.45412,1.4253 9.26615,7.18126 -1.64671,2.97318 -6.83924,3.82493 -9.47602,1.55437 z"
     id="path20"
     inkscape:connector-curvature="0" />
</svg>
