<?xml version="1.0" encoding="UTF-8" standalone="no"?>
<!-- Created with Inkscape (http://www.inkscape.org/) -->

<svg
   xmlns:dc="http://purl.org/dc/elements/1.1/"
   xmlns:cc="http://creativecommons.org/ns#"
   xmlns:rdf="http://www.w3.org/1999/02/22-rdf-syntax-ns#"
   xmlns:svg="http://www.w3.org/2000/svg"
   xmlns="http://www.w3.org/2000/svg"
   xmlns:sodipodi="http://sodipodi.sourceforge.net/DTD/sodipodi-0.dtd"
   xmlns:inkscape="http://www.inkscape.org/namespaces/inkscape"
   version="1.1"
   id="svg10"
   width="712.85107"
   height="614.75232"
   viewBox="0 0 712.85107 614.75232"
   sodipodi:docname="noun_941161_cc.svg"
   inkscape:version="0.92.1 r15371">
  <metadata
     id="metadata16">
    <rdf:RDF>
      <cc:Work
         rdf:about="">
        <dc:format>image/svg+xml</dc:format>
        <dc:type
           rdf:resource="http://purl.org/dc/dcmitype/StillImage" />
        <dc:title></dc:title>
      </cc:Work>
    </rdf:RDF>
  </metadata>
  <defs
     id="defs14" />
  <sodipodi:namedview
     pagecolor="#ffffff"
     bordercolor="#666666"
     borderopacity="1"
     objecttolerance="10"
     gridtolerance="10"
     guidetolerance="10"
     inkscape:pageopacity="0"
     inkscape:pageshadow="2"
     inkscape:window-width="1366"
     inkscape:window-height="706"
     id="namedview12"
     showgrid="false"
     inkscape:zoom="0.87352253"
     inkscape:cx="356.42554"
     inkscape:cy="307.37616"
     inkscape:window-x="-8"
     inkscape:window-y="219"
     inkscape:window-maximized="1"
     inkscape:current-layer="svg10" />
  <path
     style="fill:#000000;stroke-width:0.9484055"
     d="m 335.15207,574.63522 c -1.40426,-0.20488 -6.68936,-0.81174 -11.74468,-1.34857 C 294.46754,570.21344 258.51586,558.72268 230.74442,543.67 201.27338,527.69612 172.50713,504.02099 151.432,478.3945 97.62826,412.97135 78.51351,326.70622 99.40425,243.59248 c 7.32581,-29.14571 21.63199,-60.35354 39.16452,-85.43438 72.0329,-103.045263 205.80164,-141.847656 320.66841,-93.016503 27.37288,11.636519 49.63121,25.438648 70.97872,44.013053 39.40649,34.28748 68.18663,79.45121 82.16476,128.93847 4.22667,14.96387 7.77872,34.6778 6.69225,37.14217 -1.73269,3.93018 -7.21144,4.89986 -10.19104,1.80371 -0.64794,-0.67328 -1.84385,-5.04609 -2.65756,-9.71734 C 596.48134,211.39092 567.85843,159.61509 525.82555,121.88878 439.96086,44.821567 315.9298,34.884346 218.89111,97.297559 c -13.54359,8.710941 -35.40268,27.020111 -46.84294,39.235621 -69.04685,73.72587 -87.67453,179.5253 -48.14084,273.42505 5.36091,12.73315 19.36468,37.17333 28.2788,49.35379 15.25724,20.84785 40.04163,45.01052 60.41275,58.8973 32.62498,22.24011 69.74297,36.76437 108.76596,42.5601 14.83359,2.20309 55.04474,2.20765 70.17652,0.008 48.88314,-7.10614 92.56663,-26.90555 129.54499,-58.71584 16.08129,-13.83379 24.19244,-22.35573 36.76564,-38.6276 23.90552,-30.93783 41.20403,-69.93575 47.85609,-107.88718 2.46623,-14.07034 4.14265,-30.20374 4.15686,-40.00436 0.009,-6.08421 0.34277,-7.55257 2.05309,-9.02753 2.86754,-2.47292 6.72528,-2.25709 8.81489,0.49318 1.49453,1.96706 1.63153,4.01733 1.07406,16.07339 -1.94873,42.14343 -13.412,81.11511 -34.8931,118.6261 -40.61611,70.92515 -110.02163,118.40683 -191.37024,130.92013 -9.12,1.40286 -17.22081,1.89175 -34.85966,2.10382 -12.63829,0.15194 -24.12765,0.10864 -25.53191,-0.0962 z M 309.184,450.45326 c -3.27253,-2.82218 -2.83421,-8.15532 0.84436,-10.27355 0.61804,-0.35589 9.97052,-0.65314 20.78328,-0.66055 l 19.65958,-0.0135 v -92.44098 -92.44099 l -20.00693,-0.25626 c -19.86538,-0.25446 -20.02132,-0.27161 -22.04152,-2.42502 -1.31574,-1.40252 -1.88441,-3.05116 -1.60953,-4.66628 0.8622,-5.06614 1.11227,-5.10892 28.35541,-4.85074 l 24.92767,0.23623 1.36579,2.20183 c 1.11717,1.80105 1.35656,19.71264 1.3151,98.40341 l -0.0507,96.20157 19.87982,0.2388 c 16.59979,0.1994 20.14891,0.47106 21.51071,1.64646 2.3146,1.9978 2.23112,6.7229 -0.15512,8.78077 -1.89089,1.63068 -3.87057,1.70148 -47.57381,1.70148 -40.07508,0 -45.7951,-0.16755 -47.20414,-1.38269 z m 36.5319,-233.81215 c -9.77473,-1.66223 -17.72783,-7.47927 -22.6811,-16.58938 -2.34542,-4.31369 -2.69124,-6.0815 -2.69124,-13.75708 0,-7.80852 0.32743,-9.41835 2.88722,-14.19516 5.38057,-10.04066 16.08484,-16.54023 27.24044,-16.54023 11.1556,0 21.85986,6.49957 27.24044,16.54023 2.55979,4.77681 2.88722,6.38664 2.88722,14.19516 0,7.69644 -0.34271,9.4378 -2.71702,13.80564 -6.53399,12.02013 -19.51027,18.69296 -32.16596,16.54082 z m 14.91062,-14.89832 c 1.98325,-1.21786 4.43388,-4.05641 5.92177,-6.85914 8.65066,-16.29524 -9.24247,-33.69283 -25.2543,-24.55489 -13.3448,7.61587 -11.4594,28.28551 3.04957,33.43249 3.47837,1.23392 12.88554,0.0678 16.28296,-2.01846 z"
     id="path20"
     inkscape:connector-curvature="0" />
</svg>
