<?xml version="1.0" encoding="UTF-8" standalone="no"?>
<!-- Created with Inkscape (http://www.inkscape.org/) -->

<svg
   xmlns:dc="http://purl.org/dc/elements/1.1/"
   xmlns:cc="http://creativecommons.org/ns#"
   xmlns:rdf="http://www.w3.org/1999/02/22-rdf-syntax-ns#"
   xmlns:svg="http://www.w3.org/2000/svg"
   xmlns="http://www.w3.org/2000/svg"
   xmlns:sodipodi="http://sodipodi.sourceforge.net/DTD/sodipodi-0.dtd"
   xmlns:inkscape="http://www.inkscape.org/namespaces/inkscape"
   version="1.1"
   id="svg10"
   width="720.51611"
   height="621.33331"
   viewBox="0 0 720.51611 621.33331"
   sodipodi:docname="noun_923359_cc.svg"
   inkscape:version="0.92.1 r15371">
  <metadata
     id="metadata16">
    <rdf:RDF>
      <cc:Work
         rdf:about="">
        <dc:format>image/svg+xml</dc:format>
        <dc:type
           rdf:resource="http://purl.org/dc/dcmitype/StillImage" />
        <dc:title></dc:title>
      </cc:Work>
    </rdf:RDF>
  </metadata>
  <defs
     id="defs14" />
  <sodipodi:namedview
     pagecolor="#ffffff"
     bordercolor="#666666"
     borderopacity="1"
     objecttolerance="10"
     gridtolerance="10"
     guidetolerance="10"
     inkscape:pageopacity="0"
     inkscape:pageshadow="2"
     inkscape:window-width="1366"
     inkscape:window-height="706"
     id="namedview12"
     showgrid="false"
     inkscape:zoom="0.86427041"
     inkscape:cx="360.25806"
     inkscape:cy="310.66666"
     inkscape:window-x="-8"
     inkscape:window-y="219"
     inkscape:window-maximized="1"
     inkscape:current-layer="svg10" />
  <path
     style="fill:#000000;stroke-width:0.95789492"
     d="M 343.09423,619.48736 C 271.37398,614.89795 207.00758,588.24407 154.19101,541.26324 106.11519,498.49937 72.87532,442.13894 58.32478,378.71564 53.15674,356.18905 51.59667,340.96756 51.53759,312.49342 51.47819,283.86169 52.33861,273.69757 56.72611,251.20255 69.77627,184.2934 105.62041,122.64007 157.63874,77.628852 216.41262,26.772086 291.0357,0.188061 368.38126,2.55308 c 69.09217,2.112653 134.39226,26.570536 186.73371,69.940354 61.83137,51.233106 99.19192,118.416126 110.7259,199.111096 2.59529,18.15738 2.59529,60.95373 0,79.11111 -10.97744,76.80129 -45.45959,141.46826 -102.28492,191.82263 -40.92614,36.26571 -90.90433,60.91505 -145.26548,71.64523 -19.8386,3.91588 -56.48884,6.50095 -75.19624,5.30386 z M 399.26759,597.895 c 16.75959,-2.55629 23.21526,-3.90295 36.89285,-7.69587 C 536.26486,562.43923 614.10573,483.56249 639.7707,383.87931 665.61245,283.50947 637.46129,180.36874 563.83495,105.66451 526.82922,68.117028 471.69866,38.251204 419.99745,27.743575 c -25.17664,-5.11684 -28.97444,-5.460005 -60.38709,-5.45651 -31.77717,0.0036 -36.4796,0.44485 -62.06372,5.824568 -34.35452,7.223916 -73.98119,24.527076 -103.66453,45.26557 -36.56658,25.547527 -69.49466,62.800117 -90.23622,102.087107 -52.91046,100.21878 -42.57383,222.88082 26.26734,311.70719 13.53333,17.46218 24.87692,29.46878 40.7507,43.13253 45.7908,39.41552 100.5375,62.80485 162.10772,69.25694 13.71521,1.43726 52.52547,0.46491 66.49594,-1.66597 z M 296.95129,490.71288 c -2.7948,-1.68567 -4.84626,-6.90749 -3.9461,-10.04445 0.37835,-1.31848 1.90296,-3.49724 3.38804,-4.84168 l 2.70015,-2.44445 h 28.7101 28.7101 V 371.60453 269.82676 h -28.37081 -28.37081 l -3.1768,-2.44445 c -5.9886,-4.60804 -4.44554,-13.90635 2.69577,-16.24438 1.51631,-0.49643 16.53284,-0.86673 35.14757,-0.86673 34.89029,0 36.74445,0.21596 39.41546,4.59084 0.97748,1.60103 1.32329,26.7783 1.51187,110.07582 l 0.24452,108 22.15918,0.24046 22.15917,0.24046 2.82293,2.32891 c 3.49229,2.88113 4.48475,6.44922 2.92548,10.51767 -2.32249,6.05981 0.83263,5.78361 -66.06675,5.78361 -52.11263,0 -60.7492,-0.18416 -62.65907,-1.33609 z m 56.98165,-288.34464 c -26.47084,-5.93468 -35.16705,-37.93099 -15.0119,-55.23384 6.80388,-5.84099 11.38259,-7.50103 20.68932,-7.50103 9.30987,0 13.89366,1.66278 20.67812,7.50103 17.76781,15.28981 13.39327,43.45247 -8.21409,52.88101 -5.48665,2.39414 -13.387,3.41877 -18.14145,2.35283 z"
     id="path20"
     inkscape:connector-curvature="0" />
</svg>
