<?xml version="1.0" encoding="UTF-8" standalone="no"?>
<!-- Created with Inkscape (http://www.inkscape.org/) -->

<svg
   xmlns:dc="http://purl.org/dc/elements/1.1/"
   xmlns:cc="http://creativecommons.org/ns#"
   xmlns:rdf="http://www.w3.org/1999/02/22-rdf-syntax-ns#"
   xmlns:svg="http://www.w3.org/2000/svg"
   xmlns="http://www.w3.org/2000/svg"
   xmlns:sodipodi="http://sodipodi.sourceforge.net/DTD/sodipodi-0.dtd"
   xmlns:inkscape="http://www.inkscape.org/namespaces/inkscape"
   version="1.1"
   id="svg10"
   width="720.51611"
   height="617.39447"
   viewBox="0 0 720.51611 617.39447"
   sodipodi:docname="noun_662059_cc.svg"
   inkscape:version="0.92.1 r15371">
  <metadata
     id="metadata16">
    <rdf:RDF>
      <cc:Work
         rdf:about="">
        <dc:format>image/svg+xml</dc:format>
        <dc:type
           rdf:resource="http://purl.org/dc/dcmitype/StillImage" />
        <dc:title></dc:title>
      </cc:Work>
    </rdf:RDF>
  </metadata>
  <defs
     id="defs14" />
  <sodipodi:namedview
     pagecolor="#ffffff"
     bordercolor="#666666"
     borderopacity="1"
     objecttolerance="10"
     gridtolerance="10"
     guidetolerance="10"
     inkscape:pageopacity="0"
     inkscape:pageshadow="2"
     inkscape:window-width="1366"
     inkscape:window-height="706"
     id="namedview12"
     showgrid="false"
     inkscape:zoom="0.86978427"
     inkscape:cx="360.25806"
     inkscape:cy="308.69724"
     inkscape:window-x="-8"
     inkscape:window-y="219"
     inkscape:window-maximized="1"
     inkscape:current-layer="svg10" />
  <path
     style="fill:#000000;stroke-width:0.95349079"
     d="m 132.48614,575.2421 c -1.48665,-0.68931 -3.46084,-2.61591 -4.3871,-4.28132 -1.54562,-2.77904 -1.68411,-24.65732 -1.68411,-266.05792 0,-287.424125 -0.46633,-265.70764 5.79601,-269.910521 2.72389,-1.828103 3.20656,-1.839154 79.76256,-1.826249 59.53882,0.01004 77.60082,0.262846 79.57173,1.113749 1.40232,0.60542 3.64988,2.482146 4.99458,4.170502 2.06016,2.586638 2.37787,3.886805 2.01882,8.261597 -0.38074,4.639067 -0.82849,5.506478 -4.20524,8.146788 l -3.77911,2.95493 H 220.88171 151.18913 V 304.85951 551.90538 h 68.16218 c 56.9873,0 68.74536,0.20789 71.71933,1.26809 8.90149,3.17334 10.57023,15.19567 2.946,21.22436 l -2.74189,2.1681 -78.04281,-0.0352 c -65.48339,-0.0296 -78.47781,-0.23696 -80.7458,-1.28856 z M 440.85609,451.42394 c -5.83726,-3.91759 -7.64186,-11.92157 -3.85463,-17.09654 1.06352,-1.45321 21.18156,-20.2789 44.70675,-41.83486 23.5252,-21.55596 51.4255,-47.11927 62.00068,-56.80734 l 19.2276,-17.61468 -152.45433,-0.44036 c -118.46296,-0.34219 -152.9516,-0.68335 -154.68465,-1.53015 -8.24798,-4.03012 -8.6676,-15.97595 -0.74787,-21.29117 l 2.74048,-1.83923 H 410.4251 c 91.81788,0 152.63498,-0.32168 152.63498,-0.80735 0,-0.44403 -0.38278,-0.93944 -0.85063,-1.10091 -1.96209,-0.67716 -125.34212,-114.81129 -126.20477,-116.74717 -2.82547,-6.3407 0.29319,-14.06827 6.73546,-16.68942 6.64238,-2.70257 8.28039,-1.6727 32.55681,20.46974 78.67804,71.76196 128.78333,118.06454 130.34378,120.45142 2.40048,3.67182 2.32294,10.01138 -0.16342,13.35947 -2.77046,3.73064 -150.48047,138.92525 -153.20681,140.22566 -3.43467,1.63827 -8.37588,1.33217 -11.41441,-0.70711 z"
     id="path20"
     inkscape:connector-curvature="0" />
</svg>
