<?xml version="1.0" encoding="UTF-8" standalone="no"?>
<!-- Created with Inkscape (http://www.inkscape.org/) -->

<svg
   xmlns:dc="http://purl.org/dc/elements/1.1/"
   xmlns:cc="http://creativecommons.org/ns#"
   xmlns:rdf="http://www.w3.org/1999/02/22-rdf-syntax-ns#"
   xmlns:svg="http://www.w3.org/2000/svg"
   xmlns="http://www.w3.org/2000/svg"
   xmlns:sodipodi="http://sodipodi.sourceforge.net/DTD/sodipodi-0.dtd"
   xmlns:inkscape="http://www.inkscape.org/namespaces/inkscape"
   version="1.1"
   id="svg10"
   width="266.66666"
   height="266.66666"
   viewBox="0 0 266.66666 266.66666"
   sodipodi:docname="1046390-200.svg"
   inkscape:version="0.92.1 r15371">
  <metadata
     id="metadata16">
    <rdf:RDF>
      <cc:Work
         rdf:about="">
        <dc:format>image/svg+xml</dc:format>
        <dc:type
           rdf:resource="http://purl.org/dc/dcmitype/StillImage" />
        <dc:title></dc:title>
      </cc:Work>
    </rdf:RDF>
  </metadata>
  <defs
     id="defs14" />
  <sodipodi:namedview
     pagecolor="#ffffff"
     bordercolor="#666666"
     borderopacity="1"
     objecttolerance="10"
     gridtolerance="10"
     guidetolerance="10"
     inkscape:pageopacity="0"
     inkscape:pageshadow="2"
     inkscape:window-width="1366"
     inkscape:window-height="706"
     id="namedview12"
     showgrid="false"
     inkscape:zoom="2.0137501"
     inkscape:cx="133.33333"
     inkscape:cy="133.33333"
     inkscape:window-x="-8"
     inkscape:window-y="219"
     inkscape:window-maximized="1"
     inkscape:current-layer="svg10" />
  <path
     style="fill:#000000;stroke-width:1.33333325"
     d="m 9.349466,235.82744 c 0,-3.25925 0.222222,-3.33333 10,-3.33333 5.5,0 10,0.33944 10,0.75432 0,0.41488 -0.621111,1.91488 -1.380246,3.33333 -1.146098,2.14151 -2.842508,2.57901 -9.999999,2.57901 -8.305517,0 -8.619755,-0.12152 -8.619755,-3.33333 z m 25.333333,2.72175 c 0,-0.33638 10.2,-18.04368 22.666666,-39.34958 12.466665,-21.30589 22.666665,-39.03067 22.666665,-39.38841 0,-0.35773 -15.899999,-0.65042 -35.333331,-0.65042 H 9.349466 v -3.33334 -3.33333 h 124.000004 124 v 3.33333 3.33334 h -35.33334 c -19.43333,0 -35.33333,0.32521 -35.33333,0.7227 0,0.39748 10.2,18.12464 22.66667,39.39368 12.46666,21.26904 22.66666,38.94383 22.66666,39.27731 0,0.33346 -1.65,0.58141 -3.66666,0.55098 -3.38767,-0.0511 -5.43224,-3.09472 -26.8703,-39.99999 l -23.20363,-39.94468 h -8.46303 c -4.65468,0 -8.44679,0.45 -8.42693,1 0.0199,0.55 4.44877,18.55 9.84202,39.99999 l 9.80592,39 h -3.58602 -3.58604 l -9.75687,-40 -9.75687,-39.99999 h -8.49912 -8.49913 v 39.99999 40 h -4 -4 v -40 -39.99999 h -8.52159 -8.52158 l -9.73403,39.99999 -9.73401,40 h -3.58642 -3.58643 l 9.80591,-39 c 5.39325,-21.44999 9.82217,-39.44999 9.84203,-39.99999 0.0199,-0.55 -3.79953,-1 -8.48753,-1 h -8.52364 l -23.143026,39.95046 c -21.400955,36.94323 -23.419026,39.95419 -26.809689,40 -2.016666,0.0272 -3.666666,-0.22568 -3.666666,-0.56205 z m 204.046911,-1.96743 c -0.75914,-1.41845 -1.38024,-2.91845 -1.38024,-3.33333 0,-0.41488 4.5,-0.75432 10,-0.75432 9.77777,0 10,0.0741 10,3.33333 0,3.21181 -0.31424,3.33333 -8.61976,3.33333 -7.15748,0 -8.8539,-0.4375 -10,-2.57901 z M 9.349466,186.49411 v -3.33333 h 24.638081 24.638081 l -1.518768,3.33333 -1.518768,3.33333 H 32.468779 9.349466 Z m 200.242604,0 -1.51876,-3.33333 h 24.63808 24.63808 v 3.33333 3.33333 H 234.23016 211.11084 Z M 73.34946,113.82743 V 81.827437 h 10.58618 10.58618 l 0.41382,-5 c 0.37999,-4.591201 0.79413,-5.054507 5.06535,-5.666667 3.03024,-0.4343 4.80706,-1.47995 5.09777,-3 0.38537,-2.015076 -0.65827,-2.333333 -7.65153,-2.333333 h -8.09777 v -7.333333 -7.333333 h 8.57682 c 9.78358,0 9.4126,0.462369 10.80948,-13.472292 0.4855,-4.843094 1.31688,-9.508078 1.84749,-10.366633 0.6904,-1.117093 7.38242,-1.456746 23.53215,-1.194376 l 22.5674,0.366634 1.55204,12 c 0.85363,6.6 1.60363,12.15 1.66667,12.333333 0.0631,0.183334 4.01463,0.333334 8.78129,0.333334 h 8.66667 v 7.333333 7.333333 h -7.25464 c -3.99005,0 -7.55047,0.478648 -7.91203,1.063661 -1.21914,1.972612 1.14971,4.026142 5.171,4.482695 3.55748,0.403895 4.04106,1.001975 4.4095,5.453644 l 0.41381,5 h 10.58619 10.58617 v 31.999993 32.00001 h -3.33333 -3.33334 V 117.16077 88.494103 h -7.33333 c -4.03333,0 -7.33333,0.253847 -7.33333,0.564103 0,0.310256 1.8,2.364102 4,4.564102 2.43478,2.434783 4,5.384612 4,7.538462 0,2.15384 -1.56522,5.10368 -4,7.53846 l -4,4 v 16.56411 16.5641 h -3.33334 c -3.15152,0 -3.33333,-0.4 -3.33333,-7.33333 v -7.33333 h -32 -32.00001 v 7.33333 c 0,6.93333 -0.18182,7.33333 -3.33333,7.33333 H 94.6828 v -16.5641 -16.56411 l -4,-4 c -2.43479,-2.43478 -4,-5.38462 -4,-7.53846 0,-2.15385 1.56521,-5.103679 4,-7.538462 2.2,-2.2 4,-4.253846 4,-4.564102 0,-0.310256 -3.3,-0.564103 -7.33334,-0.564103 h -7.33333 v 28.666667 28.66667 H 76.6828 73.34946 Z m 92.00001,4.96358 c 0,-4.66789 -0.72607,-6.34019 -4,-9.21302 -5.62412,-4.93508 -5.58712,-11.784604 0.0917,-16.971378 3.44826,-3.1495 4.02484,-4.552926 3.66667,-8.924838 l -0.42507,-5.187671 h -31.3333 -31.33334 l -0.41702,5.053552 c -0.34698,4.204873 0.26879,5.694185 3.66667,8.86828 5.66121,5.288352 5.69429,12.170415 0.0837,17.411495 -2.94167,2.74794 -4,4.94734 -4,8.31273 0,2.51689 0.4,4.97616 0.88889,5.46505 0.48889,0.48889 14.8889,0.88889 32.00001,0.88889 h 31.11111 z M 117.63616,101.4941 c 0.36213,-13.024596 0.52092,-13.686681 3.37998,-14.092732 2.94876,-0.41879 3,-0.185374 3,13.666662 v 14.09274 h -3.37998 -3.37998 z m 12.31878,11.98799 c -0.39376,-1.02614 -0.54108,-7.21822 -0.32737,-13.76018 0.38205,-11.694932 0.44449,-11.894474 3.7219,-11.894474 h 3.33333 v 13.333334 c 0,12.81988 -0.11573,13.34977 -3.00596,13.76018 -1.67623,0.23803 -3.32266,-0.39847 -3.7219,-1.43886 z m 12.72786,-12.32132 v -14 h 3.33334 3.33333 v 14 14 h -3.33333 -3.33334 z m -40.25582,0.44778 c 0.30622,-2.64758 -0.30429,-3.779183 -2.39732,-4.443484 -4.98115,-1.580958 -8.60199,3.540574 -5.0291,7.113464 2.78968,2.78968 6.96873,1.28721 7.42642,-2.66998 z m 70.09032,1.2439 c 1.11825,-1.77573 0.94436,-2.81759 -0.75371,-4.51566 -3.99428,-3.99427 -9.95349,1.22596 -6.35257,5.56481 2.07318,2.49804 5.1594,2.0424 7.10628,-1.04915 z M 153.82655,58.160771 c -0.94295,-7.15 -1.73604,-13.45 -1.76243,-14 -0.0264,-0.55 -8.44798,-1 -18.71465,-1 -16.85542,0 -18.67519,0.226405 -18.75451,2.333333 -0.0483,1.283333 -0.83222,7.583333 -1.74202,14 l -1.65418,11.666666 h 22.17112 22.17112 z m -48.79488,0.08389 c -1.27478,-0.333724 -3.67478,-0.345832 -5.33333,-0.02691 -1.65855,0.318923 -0.61554,0.59197 2.31779,0.60677 2.93333,0.0148 4.29033,-0.24614 3.01554,-0.579863 z m 64.00001,0 c -1.27478,-0.333724 -3.67478,-0.345832 -5.33333,-0.02691 -1.65855,0.318924 -0.61555,0.591971 2.31779,0.606771 2.93333,0.0148 4.29033,-0.24614 3.01554,-0.579864 z M 150.6828,34.4941 c 0,-1.675213 -2.81481,-2 -17.33333,-2 -14.51852,0 -17.33333,0.324787 -17.33333,2 0,1.675215 2.81481,2.000001 17.33333,2.000001 14.51852,0 17.33333,-0.324786 17.33333,-2.000001 z"
     id="path20"
     inkscape:connector-curvature="0" />
</svg>
