<?xml version="1.0" encoding="UTF-8" standalone="no"?>
<!-- Created with Inkscape (http://www.inkscape.org/) -->

<svg
   xmlns:dc="http://purl.org/dc/elements/1.1/"
   xmlns:cc="http://creativecommons.org/ns#"
   xmlns:rdf="http://www.w3.org/1999/02/22-rdf-syntax-ns#"
   xmlns:svg="http://www.w3.org/2000/svg"
   xmlns="http://www.w3.org/2000/svg"
   xmlns:sodipodi="http://sodipodi.sourceforge.net/DTD/sodipodi-0.dtd"
   xmlns:inkscape="http://www.inkscape.org/namespaces/inkscape"
   version="1.1"
   id="svg10"
   width="266.66666"
   height="266.66666"
   viewBox="0 0 266.66666 266.66666"
   sodipodi:docname="565187-200.svg"
   inkscape:version="0.92.1 r15371">
  <metadata
     id="metadata16">
    <rdf:RDF>
      <cc:Work
         rdf:about="">
        <dc:format>image/svg+xml</dc:format>
        <dc:type
           rdf:resource="http://purl.org/dc/dcmitype/StillImage" />
        <dc:title></dc:title>
      </cc:Work>
    </rdf:RDF>
  </metadata>
  <defs
     id="defs14" />
  <sodipodi:namedview
     pagecolor="#ffffff"
     bordercolor="#666666"
     borderopacity="1"
     objecttolerance="10"
     gridtolerance="10"
     guidetolerance="10"
     inkscape:pageopacity="0"
     inkscape:pageshadow="2"
     inkscape:window-width="1366"
     inkscape:window-height="706"
     id="namedview12"
     showgrid="false"
     inkscape:zoom="2.0137501"
     inkscape:cx="133.33333"
     inkscape:cy="133.33333"
     inkscape:window-x="-8"
     inkscape:window-y="219"
     inkscape:window-maximized="1"
     inkscape:current-layer="svg10" />
  <path
     style="fill:#000000;stroke-width:1.33333325"
     d="m 40.602208,238.27375 c -8.309872,-2.94247 -18.083521,-12.3647 -21.850037,-21.06439 l -3.182736,-7.35132 -7.056095,-0.0228 -7.056095,-0.0228 0.389429,-39.66666 c 0.380204,-38.72713 0.460705,-39.76659 3.398734,-43.88556 4.095293,-5.7414 13.374062,-9.95841 23.743029,-10.79073 l 8.580997,-0.6888 V 94.009121 73.237467 l -6.289703,-6.385724 -6.289704,-6.385724 2.952089,-2.952089 2.952089,-2.952089 7.337615,7.246467 7.337614,7.246468 v 23.045546 23.045548 h 36.576815 c 33.678201,0 36.632571,-0.18491 37.280281,-2.33333 0.96707,-3.20775 19.47624,-81.415204 19.47624,-82.29366 0,-0.388489 -3.6,-0.706343 -8,-0.706343 h -8 v -4 -4 h 71.33334 71.33333 v 4 c 0,3.911111 -0.14815,4 -6.66667,4 h -6.66667 v 54.695252 54.695251 l 3.39526,5.13058 c 19.2507,29.08978 8.96688,70.34098 -22.06192,88.49625 -11.73815,6.8681 -30.94179,9.51873 -45.18045,6.23614 -13.45952,-3.10297 -29.71819,-14.17526 -36.18875,-24.64485 l -2.84829,-4.60863 H 121.67174 93.99153 l -1.66643,5.56204 c -2.344811,7.82631 -14.694957,19.93479 -23.326518,22.8701 -7.986203,2.71585 -20.771672,2.72893 -28.396374,0.0291 z m 27.817202,-9.16828 c 26.68177,-13.47394 22.14898,-52.94921 -6.792655,-59.15608 -30.009184,-6.43581 -50.485056,29.7881 -29.571771,52.31552 9.012297,9.70788 24.803926,12.67846 36.364426,6.84056 z m -25.673505,-16.4694 c -4.444121,-4.44412 -5.173689,-6.00038 -5.156815,-11 0.02507,-7.42817 2.172976,-11.60839 7.99977,-15.569 3.790113,-2.57624 5.861574,-3.04563 11.231207,-2.545 5.464184,0.50945 7.335032,1.43341 11,5.43257 3.799603,4.1461 4.416033,5.77396 4.416033,11.66184 0,6.17129 -0.508198,7.35131 -5.17647,12.01959 -4.69472,4.69472 -5.826104,5.17646 -12.156863,5.17646 -6.330758,0 -7.462142,-0.48174 -12.156862,-5.17646 z m 18.726755,-6.33668 c 1.519892,-1.93223 2.76344,-4.65951 2.76344,-6.0606 0,-3.39809 -5.845402,-9.09292 -9.333333,-9.09292 -3.48793,0 -9.333333,5.69483 -9.333333,9.09292 0,4.32778 5.114216,9.57374 9.333333,9.57374 2.52408,0 4.73744,-1.18356 6.569893,-3.51314 z m 152.36448,24.70154 c 42.24382,-8.83826 57.41835,-61.49237 26.28099,-91.19238 -10.0224,-9.55975 -20.01261,-14.05495 -33.28171,-14.97547 -11.33882,-0.7866 -22.05434,1.65098 -31.44189,7.15244 -7.88505,4.62096 -17.41577,15.3076 -21.58501,24.20292 -3.19703,6.82104 -3.57341,9.16895 -3.57341,22.29076 0,13.52434 0.30516,15.28976 3.91809,22.66667 4.51095,9.21048 15.10277,20.42596 23.18329,24.54833 12.1007,6.17332 24.05228,7.91097 36.49965,5.30673 z m -26.66003,-21.2618 c -33.42114,-16.70073 -21.68055,-66.63589 15.65411,-66.58023 27.53267,0.0411 44.29915,28.05952 31.19675,52.13293 -9.32928,17.14097 -29.19887,23.26812 -46.85086,14.4473 z m 30.28881,-8.97229 c 16.18618,-9.93978 16.36837,-33.61308 0.34536,-44.87448 -4.87056,-3.42316 -6.98015,-4.03474 -13.98868,-4.05545 -10.36317,-0.0307 -17.41727,3.41928 -22.91983,11.20923 -3.56453,5.04629 -4,6.72546 -4,15.42416 0,8.8999 0.35983,10.20596 4.07718,14.79888 2.24245,2.77061 5.61613,6.18647 7.49708,7.59079 7.79114,5.81694 19.42567,5.77956 28.98889,-0.0932 z M 15.411263,194.14587 c 3.07236,-22.83723 27.801637,-38.41705 50.502893,-31.81763 14.398904,4.18588 26.635364,17.8215 28.481474,31.73815 l 0.85068,6.41281 h 24.63756 c 22.42468,0 24.56113,-0.19913 23.78674,-2.21715 -0.46793,-1.21942 -1.53725,-6.22026 -2.37626,-11.11298 -3.29511,-19.21555 4.22809,-40.08381 19.65214,-54.51225 L 169.667,124.4792 H 96.21867 c -79.840856,0 -77.835114,-0.17905 -83.86484,7.48651 -2.650599,3.36969 -2.784395,5.10085 -2.784395,36.02664 0,30.85238 0.125522,32.48685 2.494892,32.48685 1.967889,0 2.674872,-1.33781 3.346936,-6.33333 z M 242.90277,79.812536 V 29.812537 h -47.24348 c -43.82977,0 -47.29566,0.168602 -47.9657,2.333333 -1.15987,3.747264 -19.45748,80.65196 -19.45748,81.77959 0,0.56338 19.35,1.25577 43,1.53866 47.54674,0.56871 49.90118,0.92018 63.66666,9.50413 4.03333,2.51513 7.48333,4.63401 7.66667,4.70862 0.18333,0.0746 0.33333,-22.36433 0.33333,-49.864334 z m -89.33333,22.000004 v -4.000005 h 20 20 V 73.145869 48.479203 h 4.66667 4.66666 v 28.666666 28.666671 h -24.66666 -24.66667 z"
     id="path20"
     inkscape:connector-curvature="0" />
</svg>
