<?xml version="1.0" encoding="UTF-8" standalone="no"?>
<!-- Created with Inkscape (http://www.inkscape.org/) -->

<svg
   xmlns:dc="http://purl.org/dc/elements/1.1/"
   xmlns:cc="http://creativecommons.org/ns#"
   xmlns:rdf="http://www.w3.org/1999/02/22-rdf-syntax-ns#"
   xmlns:svg="http://www.w3.org/2000/svg"
   xmlns="http://www.w3.org/2000/svg"
   xmlns:sodipodi="http://sodipodi.sourceforge.net/DTD/sodipodi-0.dtd"
   xmlns:inkscape="http://www.inkscape.org/namespaces/inkscape"
   version="1.1"
   id="svg10"
   width="501.44"
   height="501.44"
   viewBox="0 0 501.44 501.44"
   sodipodi:docname="98466.svg"
   inkscape:version="0.92.1 r15371">
  <metadata
     id="metadata16">
    <rdf:RDF>
      <cc:Work
         rdf:about="">
        <dc:format>image/svg+xml</dc:format>
        <dc:type
           rdf:resource="http://purl.org/dc/dcmitype/StillImage" />
        <dc:title></dc:title>
      </cc:Work>
    </rdf:RDF>
  </metadata>
  <defs
     id="defs14" />
  <sodipodi:namedview
     pagecolor="#ffffff"
     bordercolor="#666666"
     borderopacity="1"
     objecttolerance="10"
     gridtolerance="10"
     guidetolerance="10"
     inkscape:pageopacity="0"
     inkscape:pageshadow="2"
     inkscape:window-width="1366"
     inkscape:window-height="706"
     id="namedview12"
     showgrid="false"
     inkscape:zoom="1.0709158"
     inkscape:cx="250.72"
     inkscape:cy="250.72"
     inkscape:window-x="-8"
     inkscape:window-y="219"
     inkscape:window-maximized="1"
     inkscape:current-layer="svg10" />
  <path
     style="fill:#000000;stroke-width:0.31999999"
     d="m 112.67556,442.4411 c -22.31705,-1.30653 -41.49255,-7.605 -59.36,-19.49764 C 42.88868,416.0033 32.65642,406.30954 24.9515,396.0722 -2.443805,359.67268 -5.782804,310.06524 16.48819,270.33302 c 5.36527,-9.57184 11.05783,-17.01579 19.36511,-25.32308 6.6287,-6.62869 10.7079,-9.99586 17.94226,-14.81035 15.53693,-10.33991 31.76545,-16.23934 51.36,-18.6705 4.44242,-0.55119 20.47965,-0.55307 24.96,-0.003 19.79418,2.43052 35.74939,8.29391 52,19.10951 5.95505,3.96339 10.53767,7.69401 16.11086,13.11555 17.7934,17.30921 29.47178,39.40164 33.48262,63.34031 1.28124,7.64706 1.58679,11.50015 1.57494,19.86066 -0.0123,8.64544 -0.49041,13.97322 -1.9242,21.44 -9.59123,49.94871 -50.81792,87.99005 -101.24422,93.4216 -4.45638,0.48 -14.05707,0.82535 -17.44,0.6273 z m 16.48,-16.64359 c 18.70817,-2.11475 36.16673,-9.48134 51.36,-21.67117 4.08583,-3.27814 11.4347,-10.64832 14.72714,-14.76985 5.2195,-6.53389 10.21789,-14.67011 13.42547,-21.8536 12.13109,-27.16797 11.61775,-57.92924 -1.40949,-84.4626 -9.74768,-19.85368 -25.00707,-35.35732 -44.66312,-45.37803 -13.21826,-6.73871 -26.97115,-10.20734 -42.08,-10.61303 -14.66102,-0.39367 -27.57989,1.92142 -40.69581,7.29278 -38.382,15.71857 -63.32466,54.11617 -61.92546,95.33019 0.89953,26.49606 11.684,50.75661 30.63523,68.91642 21.73018,20.82272 50.68353,30.5936 80.62604,27.20889 z m -17.92,-36.96912 c -21.50343,-2.20387 -40.43218,-15.55965 -49.92242,-35.22435 -4.14777,-8.59459 -6.07758,-17.17821 -6.07758,-27.03245 0,-30.95201 22.79969,-57.22212 53.54412,-61.69422 4.5711,-0.66492 13.19697,-0.6599 17.71049,0.0103 26.80647,3.98038 47.97013,24.50177 52.62149,51.02454 0.83094,4.73815 1.11812,12.55008 0.62937,17.12 -2.08852,19.52771 -13.07602,36.86608 -29.84524,47.09603 -11.40494,6.95751 -25.25412,10.07415 -38.66023,8.70016 z m 15.36,-16.59363 c 13.30565,-2.70858 24.60544,-10.84525 31.31721,-22.55066 8.6541,-15.09286 8.06572,-34.06012 -1.50427,-48.4919 -5.8516,-8.82436 -14.22602,-15.21228 -24.33413,-18.56185 -5.65153,-1.87277 -9.20856,-2.35024 -15.98174,-2.14525 -5.88479,0.17809 -8.17893,0.54188 -12.69707,2.01344 -13.89283,4.52487 -25.22154,15.70425 -29.7575,29.36524 -1.66137,5.00356 -2.10405,7.57037 -2.29869,13.32842 -0.15001,4.43792 -0.0737,5.89274 0.47877,9.12182 2.90441,16.97735 14.95367,31.08746 31.09742,36.4162 2.863,0.94502 6.13794,1.66102 10.4,2.27382 2.32794,0.33472 10.05585,-0.11296 13.28,-0.76928 z m 277.22186,70.06426 c -18.9864,-1.39533 -36.72202,-8.31584 -51.62186,-20.14304 -4.0113,-3.1841 -11.50262,-10.61469 -14.52144,-14.40378 -10.33443,-12.9713 -17.12039,-28.49478 -19.54805,-44.71789 -0.26978,-1.80285 -0.49051,-3.78285 -0.49051,-4.4 v -1.12211 h -7.98326 -7.98326 l -0.0967,12.88 c -0.087,11.58854 -0.15452,13.00835 -0.67296,14.16 -0.72473,1.60992 -2.24811,3.21299 -3.90378,4.10803 -1.27519,0.68938 -1.35933,0.69197 -22.4,0.69197 h -21.12 l -1.71136,-0.94794 c -5.40273,-2.99257 -5.5248,-10.48662 -0.2242,-13.76448 l 1.56465,-0.96758 16.26545,-0.0885 16.26546,-0.0885 v -7.98029 -7.98025 l -16.08,-0.0912 -16.08,-0.0913 -1.71136,-0.94794 c -2.01102,-1.11388 -3.41399,-2.97324 -3.92989,-5.20828 -0.28487,-1.23412 -0.25405,-2.28832 0.14798,-5.06128 1.06094,-7.31767 1.30854,-11.07168 1.29688,-19.6625 -0.0163,-12.01651 -0.98223,-20.2029 -3.6707,-31.11044 -12.4359,-50.45421 -53.36397,-89.03182 -104.29295,-98.30343 -8.78791,-1.59984 -12.89673,-1.93571 -23.68,-1.93571 -10.79647,0 -14.93624,0.3392 -23.68,1.9403 -19.76322,3.61891 -39.74125,12.37688 -55.29696,24.24112 -5.56217,4.24222 -7.13562,5.21243 -8.87681,5.47354 -3.10116,0.46505 -6.66686,-1.45836 -8.23757,-4.44351 -1.01108,-1.92156 -0.96643,-4.97377 0.10342,-7.07037 1.7738,-3.47613 16.19418,-13.67349 27.59171,-19.51146 l 3.74844,-1.92 0.004,-71.06192 c 0.004,-78.584234 -0.1503,-72.9612 2.07753,-75.563923 0.62043,-0.724839 1.81168,-1.654551 2.64721,-2.066023 l 1.51913,-0.748131 h 128.8 128.8 l 1.66016,0.875334 c 2.73238,1.440682 4.25984,3.99538 4.25984,7.124666 0,2.205648 -0.63942,3.792218 -2.17563,5.398147 -2.20686,2.307053 -2.76521,2.426893 -11.34437,2.434826 l -7.6,0.007 v 59.999994 c 0,39.84599 0.10765,60 0.32048,60 0.17626,0 4.96426,0.43525 10.64,0.96722 5.67573,0.53197 13.41552,1.25594 17.19952,1.60883 3.784,0.35288 9.02416,0.85364 11.64483,1.11278 2.62067,0.25914 4.8848,0.47117 5.03146,0.47117 0.14662,0 0.30646,-9.828 0.35517,-21.84 0.0879,-21.6824 0.0935,-21.84924 0.77923,-23.12 0.90419,-1.67565 2.17389,-2.85044 3.94931,-3.65411 1.32022,-0.59761 2.08634,-0.65242 9.21027,-0.65886 8.31747,-0.008 8.96112,0.0925 11.10071,1.72439 0.54198,0.41339 1.40473,1.52203 1.91721,2.46365 2.37229,4.35866 0.087,9.89502 -4.6672,11.30687 -0.92243,0.27393 -2.73101,0.49806 -4.01907,0.49806 h -2.34192 v 17.44 c 0,15.01918 0.0644,17.44 0.46387,17.44 0.25511,0 18.93911,1.72803 41.52,3.84007 40.56448,3.79409 41.07722,3.85061 42.8161,4.72 2.19737,1.09862 3.66483,2.97449 4.14813,5.30266 0.2447,1.1787 0.32742,7.61917 0.26409,20.56669 -0.0811,16.58797 -0.15459,18.98781 -0.61216,19.99385 -2.81171,6.18223 -11.51814,6.52049 -14.48694,0.56285 l -0.83309,-1.67175 v -15.14721 c 0,-11.83201 -0.0876,-15.17694 -0.4,-15.28303 -0.22,-0.0747 -16.024,-1.58746 -35.12,-3.3617 -19.096,-1.77423 -35.404,-3.31115 -36.24,-3.41537 l -1.52,-0.18948 -0.003,23.00122 -0.003,23.00123 -0.74666,1.6 c -2.52073,5.40159 -9.17248,6.45541 -13.10915,2.07685 -0.75741,-0.84242 -1.54832,-2.10305 -1.75753,-2.80139 -0.27895,-0.93104 -0.38042,-7.55463 -0.38042,-24.83259 0,-22.22604 -0.0317,-23.56309 -0.56,-23.56669 -0.308,-0.002 -10.42099,-0.92911 -22.47331,-2.06004 -12.0523,-1.13091 -21.9523,-2.0172 -21.99999,-1.96951 -0.0475,0.0477 -0.0865,32.72922 -0.0865,72.62563 v 72.53891 l 7.91348,-0.0856 7.91348,-0.0856 0.41178,-3.52 c 3.12325,-26.69858 18.82116,-51.57234 42.07128,-66.66309 3.66544,-2.37909 12.69235,-6.99908 16.67926,-8.53647 14.73165,-5.68067 31.43203,-7.53409 47.09072,-5.22617 30.17872,4.44803 56.36394,23.55421 69.87648,50.98573 4.84368,9.83306 7.58275,19.02579 8.96464,30.08672 0.68259,5.46374 0.61846,18.29891 -0.1167,23.35328 -1.59453,10.96269 -4.38141,19.78224 -9.34231,29.56531 -13.02339,25.68263 -37.07072,43.91994 -65.12704,49.39184 -7.27414,1.41872 -17.06435,2.03063 -24.15321,1.50967 z m 16.53814,-16.50682 c 13.20154,-1.64634 26.64771,-7.3777 37.8185,-16.12 3.2736,-2.56195 9.04864,-8.27098 11.75814,-11.62381 7.0521,-8.72649 12.63011,-20.06669 15.21699,-30.93645 4.63488,-19.4751 1.26355,-40.64358 -9.18256,-57.65689 -3.36166,-5.47507 -6.47485,-9.38041 -11.44397,-14.356 -12.0951,-12.11085 -26.35609,-19.30362 -43.5271,-21.95365 -4.60563,-0.7108 -16.31962,-0.80161 -20.64,-0.16 -15.4521,2.29473 -28.2927,7.99712 -39.88989,17.71475 -14.49817,12.14843 -24.16093,29.79451 -26.68499,48.73205 -0.66016,4.95306 -0.74246,14.19453 -0.16816,18.88 4.13693,33.75085 29.49178,60.79306 62.72451,66.89888 7.98583,1.46723 15.4624,1.64813 24.01853,0.58112 z m -15.30358,-36.9208 c -11.21024,-1.58198 -21.49063,-7.94342 -27.62893,-17.09661 -2.35328,-3.50912 -3.43095,-5.61785 -4.67229,-9.14259 -5.61994,-15.95776 -0.37872,-34.02976 12.84275,-44.28227 7.11229,-5.5152 14.18247,-8.11142 22.96112,-8.43147 11.69143,-0.42625 21.36154,3.3514 29.60151,11.56395 7.68627,7.66067 11.63942,17.1855 11.63942,28.04425 0,10.54468 -3.99309,20.21892 -11.47965,27.81232 -5.54957,5.62884 -12.4015,9.35159 -20.36035,11.06208 -2.74032,0.58896 -10.14925,0.85901 -12.90358,0.47034 z m 11.62358,-16.6505 c 4.12515,-1.27545 7.09734,-3.06144 10.08,-6.05696 4.67539,-4.69558 6.68019,-9.18262 6.96131,-15.58051 0.1984,-4.51443 -0.4112,-7.51952 -2.32697,-11.47123 -2.43236,-5.01731 -5.86295,-8.44832 -10.87434,-10.87558 -3.95334,-1.91485 -6.95818,-2.52407 -11.47123,-2.32573 -6.3145,0.27747 -10.84083,2.27213 -15.43373,6.80131 -4.2968,4.23722 -6.6839,9.39891 -7.06234,15.27104 -0.44384,6.88656 1.95677,13.1568 6.94813,18.14813 3.50154,3.50157 7.36029,5.60733 12.09319,6.59939 2.96963,0.62243 8.2022,0.38179 11.08598,-0.50986 z m -131.04,-50.0687 v -19.36 h -11.0809 -11.0809 l 0.22171,1.36 c 1.66411,10.20803 2.14125,23.42998 1.25295,34.72 l -0.20772,2.64 h 10.44743 10.44743 z m -0.0795,-148.56 -0.0804,-113.199997 -79.92,-0.08063 -79.92,-0.08063 v 7.320397 c 0,7.90641 -0.18079,9.038854 -1.77712,11.131754 -0.44251,0.580163 -1.48369,1.454051 -2.31372,1.941974 -1.28705,0.756511 -1.86265,0.887135 -3.90926,0.887135 -2.04661,0 -2.62221,-0.130624 -3.90916,-0.887136 -0.83003,-0.487923 -1.8909,-1.387629 -2.35748,-1.999347 -1.56254,-2.048599 -1.70421,-2.951322 -1.71932,-10.955904 l -0.014,-7.442384 -20.24,0.08238 -20.24004,0.08239 -0.0808,63.279998 c -0.0444,34.804 -0.002,63.28 0.095,63.28 0.0967,0 2.07706,-0.58627 4.40079,-1.30283 10.86987,-3.35188 23.85177,-5.77241 34.62496,-6.45595 l 1.28,-0.0812 0.16,-37.92 0.16,-37.92 0.88714,-1.50916 c 2.67986,-4.558878 8.66952,-5.427128 12.40838,-1.798688 2.57376,2.497748 2.36532,-0.89252 2.54448,41.387848 l 0.16,37.76 1.44,0.0803 c 7.32488,0.40864 17.75357,2.01551 25.6,3.94448 49.38438,12.14069 89.62126,49.50386 105.25227,97.73518 0.91262,2.816 1.71969,5.3 1.79348,5.52 0.10435,0.3111 2.98115,0.4 12.94465,0.4 h 12.8105 z"
     id="path20"
     inkscape:connector-curvature="0" />
</svg>
