<?xml version="1.0" encoding="UTF-8" standalone="no"?>
<!-- Created with Inkscape (http://www.inkscape.org/) -->

<svg
   xmlns:dc="http://purl.org/dc/elements/1.1/"
   xmlns:cc="http://creativecommons.org/ns#"
   xmlns:rdf="http://www.w3.org/1999/02/22-rdf-syntax-ns#"
   xmlns:svg="http://www.w3.org/2000/svg"
   xmlns="http://www.w3.org/2000/svg"
   xmlns:sodipodi="http://sodipodi.sourceforge.net/DTD/sodipodi-0.dtd"
   xmlns:inkscape="http://www.inkscape.org/namespaces/inkscape"
   version="1.1"
   id="svg10"
   width="713.87231"
   height="620.44446"
   viewBox="0 0 713.87231 620.44446"
   sodipodi:docname="machines_final.svg"
   inkscape:version="0.92.1 r15371">
  <metadata
     id="metadata16">
    <rdf:RDF>
      <cc:Work
         rdf:about="">
        <dc:format>image/svg+xml</dc:format>
        <dc:type
           rdf:resource="http://purl.org/dc/dcmitype/StillImage" />
        <dc:title></dc:title>
      </cc:Work>
    </rdf:RDF>
  </metadata>
  <defs
     id="defs14" />
  <sodipodi:namedview
     pagecolor="#ffffff"
     bordercolor="#666666"
     borderopacity="1"
     objecttolerance="10"
     gridtolerance="10"
     guidetolerance="10"
     inkscape:pageopacity="0"
     inkscape:pageshadow="2"
     inkscape:window-width="1920"
     inkscape:window-height="1017"
     id="namedview12"
     showgrid="false"
     inkscape:zoom="0.86550858"
     inkscape:cx="169.18528"
     inkscape:cy="310.22223"
     inkscape:window-x="1432"
     inkscape:window-y="-8"
     inkscape:window-maximized="1"
     inkscape:current-layer="svg10" />
  <path
     style="fill:rgb(249, 235, 210);stroke-width:0.95278615;fill-opacity:0.96862745"
     d="m 89.704659,544.93991 c -5.399938,-3.69697 -5.399938,-12.22215 0,-15.91912 2.597313,-1.77822 3.812453,-1.81822 55.230031,-1.81822 39.94271,0 53.22112,0.26696 55.26652,1.11111 1.48073,0.61111 3.55579,2.65018 4.61124,4.53127 1.63525,2.91443 1.74487,3.92601 0.74138,6.8412 -0.6477,1.88158 -2.37747,4.24251 -3.84397,5.24651 -2.61225,1.78845 -3.74825,1.82547 -56.00789,1.82547 -52.190545,0 -53.398875,-0.0392 -55.997311,-1.81822 z m 139.914881,0 c -5.13273,-3.51403 -5.43504,-11.7718 -0.57126,-15.60408 2.03979,-1.6072 4.7362,-1.70067 55.79254,-1.93417 59.78787,-0.27343 57.14366,-0.52941 60.19525,5.82732 1.9512,4.06453 0.50638,9.02149 -3.41132,11.70368 -2.61225,1.78845 -3.74826,1.82547 -56.0079,1.82547 -52.19054,0 -53.39887,-0.0392 -55.99731,-1.81822 z m 141.6385,0.97045 c -5.8152,-2.13189 -7.55182,-11.16979 -3.02617,-15.74913 1.95432,-1.97752 3.30783,-2.47381 6.74668,-2.47381 3.43885,0 4.79236,0.49629 6.74669,2.47381 3.36138,3.40127 3.43555,10.18452 0.14693,13.43717 -2.54591,2.51807 -7.2544,3.54367 -10.61413,2.31196 z m 37.12366,-0.94391 c -1.43935,-0.98542 -3.14547,-3.18542 -3.7914,-4.88889 -1.49232,-3.93562 0.0847,-8.54555 3.7914,-11.08331 2.47217,-1.69254 4.09436,-1.79168 29.31584,-1.79168 29.66921,0 30.09975,0.0775 32.90756,5.92646 1.88519,3.92703 0.3689,9.24842 -3.36336,11.80366 -2.5356,1.73594 -3.97958,1.82544 -29.45468,1.82544 -25.31124,0 -26.93268,-0.0988 -29.40536,-1.79168 z m 86.76975,-0.0266 c -5.13285,-3.51412 -5.43504,-11.77204 -0.57103,-15.60409 2.05433,-1.61848 4.98714,-1.69883 70.42265,-1.92937 l 68.27906,-0.24057 3.35884,2.6121 c 2.97655,2.31484 3.35885,3.13459 3.35885,7.20241 0,4.06124 -0.38439,4.8892 -3.33527,7.18403 l -3.33525,2.59375 h -67.76106 c -66.71691,0 -67.80197,-0.028 -70.41679,-1.81822 z M 69.197009,504.91214 c -1.956979,-2.02424 -2.643977,-3.73876 -2.643977,-6.59846 0,-2.8597 0.686998,-4.57421 2.643977,-6.59846 l 2.643975,-2.73487 h 37.605666 37.60566 l 2.64398,2.73487 c 1.95697,2.02425 2.64397,3.73876 2.64397,6.59846 0,2.8597 -0.687,4.57422 -2.64397,6.59846 l -2.64398,2.73488 H 109.44665 71.840984 Z m 106.878671,0.73488 c -3.24932,-3.01904 -4.37487,-6.32354 -3.28277,-9.63785 2.35655,-7.15167 9.78428,-9.29269 15.37059,-4.43053 6.37539,5.54894 2.36949,16.06838 -6.11898,16.06838 -2.639,0 -4.48034,-0.61699 -5.96884,-2 z m 39.2332,0.70202 c -1.03534,-0.68278 -2.47408,-2.73928 -3.19718,-4.56998 -1.55453,-3.93565 -0.62385,-7.65786 2.68006,-10.71883 l 2.24497,-2.07988 h 143.3899 143.38989 l 2.98526,2.59829 c 4.06047,3.5341 4.2089,9.33295 0.3413,13.3335 l -2.64398,2.73488 -143.65388,-0.0283 C 239.4953,507.59482 216.89906,507.3977 215.30888,506.34901 Z m 317.92676,-0.5153 c -4.85226,-4.22326 -4.98351,-10.4602 -0.30579,-14.53154 l 2.66765,-2.32185 h 58.65128 c 38.27357,0 59.33393,0.31799 60.61612,0.91523 2.49573,1.16255 5.04981,5.42022 5.04981,8.4181 0,2.99789 -2.55408,7.25556 -5.04981,8.4181 -1.28234,0.59732 -22.3863,0.91524 -60.75539,0.91524 -57.81246,0 -58.8252,-0.0301 -60.87387,-1.81328 z M 50.934905,467.63311 c -9.374952,-6.4184 -2.09247,-20.68266 8.59264,-16.83048 3.781677,1.36337 6.00421,4.97523 6.00421,9.7575 0,7.1511 -8.480567,11.2604 -14.59685,7.07298 z m 32.901269,-0.80661 c -2.484919,-2.1628 -2.981464,-3.31742 -2.962561,-6.88889 0.024,-4.535 1.782588,-7.29505 5.782491,-9.07545 1.369402,-0.60954 8.566017,-0.99292 18.638296,-0.99292 9.02417,0 16.40757,-0.21177 16.40757,-0.4706 0,-0.25883 -1.91098,-2.55883 -4.24659,-5.11111 -5.09499,-5.56761 -12.34996,-18.56062 -14.56597,-26.08635 -8.289162,-28.15066 0.66036,-57.77978 23.0973,-76.46813 3.61164,-3.00824 8.83571,-6.72182 11.60903,-8.25239 l 5.0424,-2.78288 0.51063,-60.19205 0.51064,-60.19205 2.69055,-4.88889 c 3.14029,-5.70612 8.74835,-10.91526 14.60675,-13.5677 3.40594,-1.54208 6.47576,-1.94698 17.13126,-2.25956 l 12.98177,-0.38081 0.29483,-50.34041 c 0.27068,-46.21427 0.44533,-50.630845 2.13082,-53.883835 2.33052,-4.497906 5.32984,-7.292383 10.12333,-9.431969 3.12379,-1.394309 6.01358,-1.691273 16.45802,-1.691273 11.23282,0 12.97116,0.206927 15.33525,1.825465 6.44447,4.412095 5.40945,13.803047 -1.81068,16.428748 -2.29247,0.833688 -7.0768,1.301343 -13.31335,1.301343 h -9.73493 v 48.000001 48 h 82.58331 82.58331 l 10.01295,-10 c 5.50714,-5.5 10.91761,-10.88352 12.0233,-11.9634 l 2.01033,-1.9634 -7.26818,-7.27296 c -8.4401,-8.44568 -9.76739,-11.76682 -6.69326,-16.74808 2.3002,-3.7272 6.38222,-5.67593 10.16051,-4.85056 1.84299,0.40259 9.27812,7.1289 23.36649,21.13889 11.36484,11.30162 21.20058,21.4221 21.85719,22.48996 4.28839,6.97436 -3.41178,16.31437 -11.29843,13.70456 -1.33168,-0.44068 -5.38486,-3.81427 -9.00705,-7.49688 -3.62219,-3.68261 -6.88144,-6.72272 -7.24277,-6.75579 -0.36133,-0.0331 -5.98285,5.23988 -12.49226,11.71766 -13.23481,13.17048 -13.18244,13.04999 -10.29951,23.69505 2.03766,7.52388 7.00957,15.46768 12.87771,20.57513 4.5582,3.96733 18.67848,11.50759 21.5497,11.50759 0.75501,0 3.18943,-1.64005 5.4098,-3.64456 4.33131,-3.91019 17.72328,-13.16867 24.55507,-16.97601 15.16349,-8.45062 37.37099,-15.28828 55.5785,-17.11258 l 5.62844,-0.56394 5.45719,-29.18555 c 3.00145,-16.05204 6.26778,-30.76134 7.25849,-32.68733 2.47647,-4.81434 7.57456,-9.65803 13.1888,-12.53066 4.4486,-2.27622 5.54944,-2.42738 19.76514,-2.71405 l 15.05416,-0.30357 0.26499,43.6903 0.265,43.69031 7.14893,3.30329 c 9.30078,4.29759 11.65945,5.63963 21.44681,12.20283 13.84083,9.28138 30.34973,25.74238 36.99086,36.88354 2.38524,4.00151 2.52371,4.76394 1.43799,7.91802 -1.89357,5.50088 -7.49558,8.37765 -12.83882,6.59304 -0.90248,-0.30141 -4.49303,-4.20141 -7.97902,-8.66667 -12.13525,-15.54418 -32.2548,-31.15217 -50.29186,-39.01454 -6.7725,-2.95213 -23.1887,-7.47337 -31.2888,-8.61733 -8.43075,-1.19067 -28.44908,-1.1892 -36.1832,0.003 -7.72977,1.19119 -23.95663,5.77354 -30.57055,8.63293 -17.38246,7.51493 -39.25527,24.31022 -50.05228,38.43323 -23.14212,30.27099 -31.51801,67.72832 -23.43639,104.80854 2.38413,10.93888 -0.3295,16.08033 -8.48711,16.08033 -6.10531,0 -9.38743,-4.56173 -11.09819,-15.42503 l -0.65047,-4.13053 h -69.8812 -69.88121 l 0.82854,4.22223 c 0.4557,2.32222 0.81106,9.62222 0.78971,16.22222 -0.0309,9.55957 -0.50477,13.50847 -2.32993,19.41742 -2.96422,9.59663 -8.21966,19.15882 -14.49729,26.37759 l -5.00953,5.76055 111.02289,0.0131 c 86.41716,0.0102 111.58875,0.25801 113.57608,1.11813 1.40426,0.60777 3.41674,2.64094 4.47219,4.51817 1.6354,2.90871 1.74496,3.91873 0.74138,6.83418 -0.6477,1.88158 -2.37747,4.24251 -3.84397,5.24651 l -2.66634,1.8255 H 265.99631 86.821444 Z M 185.09107,448.45283 c 23.5777,-6.02042 39.75983,-26.96956 39.75983,-51.47248 0,-16.26789 -5.71454,-28.59409 -18.34861,-39.57776 -8.86687,-7.70857 -15.7736,-10.992 -26.48456,-12.59064 -26.28697,-3.92337 -51.50752,12.11032 -58.98918,37.50173 -2.27554,7.72279 -2.28611,21.80463 -0.0221,29.33333 0.95565,3.17778 3.39488,8.72782 5.42052,12.33342 6.37918,11.35482 21.27403,22.36253 33.69303,24.9001 6.45735,1.31942 18.96795,1.10513 24.97099,-0.4277 z M 163.17198,424.4755 c -6.53121,-2.08324 -12.4538,-6.97805 -15.97431,-13.20223 -7.01363,-12.39991 -4.32742,-23.62626 5.65323,-23.62626 5.73743,0 9.70213,4.18714 9.70213,10.24646 0,6.15709 8.12661,10.40594 14.35444,7.50497 2.49573,-1.16254 5.04981,-5.42021 5.04981,-8.41809 0,-2.92036 -2.54053,-7.25825 -4.86163,-8.3011 -0.97717,-0.43903 -3.47236,-1.06449 -5.54489,-1.38991 -4.93054,-0.77417 -8.99773,-4.88217 -8.99773,-9.08801 0,-12.69121 17.33043,-13.42174 29.89331,-1.26009 7.66411,7.41934 10.40615,17.56512 7.46655,27.62694 -4.66848,15.97949 -21.11589,24.8912 -36.74091,19.90732 z m 216.91295,-73.27293 v -7.11111 h -79.0858 -79.0858 l 5.80266,7.11111 5.80266,7.11111 h 73.28314 73.28314 z m 5.15081,-36.88889 c 4.70655,-16.4331 13.70008,-34.76211 22.85011,-46.56894 2.04216,-2.63513 3.5859,-4.87385 3.43052,-4.97493 -0.15537,-0.10108 -2.81016,-1.34506 -5.89952,-2.7644 -3.08936,-1.41934 -9.07321,-5.58062 -13.29744,-9.24729 -10.88693,-9.44995 -16.95113,-20.14948 -19.82019,-34.97028 l -1.23178,-6.36305 -100.01678,-0.24417 c -55.00924,-0.1343 -101.06508,-0.0236 -102.34633,0.24608 -3.29451,0.69331 -6.34294,5.49498 -6.34748,9.99809 l -0.004,3.77777 h 14.29787 14.29787 v 9.77778 9.77778 h -14.29787 -14.29787 v 7.11111 7.11111 h 14.29787 14.29787 v 9.77778 9.77778 h -14.29787 -14.29787 v 7.11111 7.11111 h 14.29787 14.29787 v 9.77778 9.77778 h -14.29787 -14.29787 v 7.11509 7.1151 l 109.94114,-0.22621 109.94116,-0.2262 z m 173.33068,-132.22223 -0.26873,-30.44443 -3.60636,-0.26429 c -2.78401,-0.20402 -4.16381,0.25217 -6.05102,2.00061 -2.15641,1.99785 -3.02765,5.32903 -7.38903,28.25209 -2.71939,14.29296 -4.7215,26.49268 -4.44911,27.11049 0.27238,0.61783 2.00329,1.16188 3.84645,1.20903 1.84316,0.0471 5.87886,0.59191 8.96822,1.2106 10.29232,2.06121 9.25418,5.4338 8.94958,-29.0741 z m 37.69141,285.51513 c -5.75137,-3.93758 -5.38843,-12.79484 0.65573,-16.00248 3.01824,-1.60179 5.31107,-1.7275 31.34158,-1.71844 20.31569,0.007 28.79142,0.31548 30.63829,1.1148 1.40426,0.60777 3.41675,2.64095 4.47219,4.51817 1.6354,2.90871 1.74497,3.91874 0.74138,6.83419 -0.64769,1.88157 -2.37747,4.24251 -3.84396,5.24651 -2.54903,1.74515 -3.95726,1.82546 -32.0079,1.82546 -28.01265,0 -29.46185,-0.0823 -31.99731,-1.81821 z m -80.6468,-3.18685 c -0.39467,-0.34351 -0.71759,-2.5145 -0.71759,-4.82441 v -4.19986 l -7.27422,-1.42978 c -4.00081,-0.78637 -7.66349,-1.42978 -8.13931,-1.42978 -0.4758,0 -1.47596,1.82345 -2.2226,4.05211 -0.74663,2.22866 -1.56479,4.09923 -1.81814,4.15682 -0.25335,0.0576 -4.28577,-1.25653 -8.96096,-2.92025 -7.96227,-2.83349 -8.46284,-3.16694 -7.90799,-5.26793 1.99512,-7.55468 2.11221,-7.29244 -5.03069,-11.2671 l -6.63275,-3.6908 -3.19207,3.50786 -3.19207,3.50787 -6.77205,-5.59484 c -3.72462,-3.07717 -6.9331,-5.91537 -7.12994,-6.30713 -0.19684,-0.39175 0.88035,-2.26744 2.39376,-4.16821 l 2.75166,-3.45592 -4.88316,-6.05402 c -2.68575,-3.3297 -4.99658,-6.1944 -5.1352,-6.366 -0.13861,-0.1716 -1.87086,0.7627 -3.84943,2.0762 -1.97858,1.3135 -4.08919,2.12365 -4.69026,1.80033 -1.16683,-0.62765 -9.20819,-14.09954 -9.20819,-15.42669 0,-0.43478 1.79625,-1.82512 3.99167,-3.08964 l 3.99167,-2.29914 -2.49805,-6.84667 c -1.37392,-3.76567 -2.7079,-7.14222 -2.96441,-7.50344 -0.25649,-0.36123 -2.368,-0.28489 -4.69223,0.16963 -2.32423,0.45453 -4.40687,0.66888 -4.62808,0.47635 -0.74819,-0.65119 -3.48778,-16.92731 -3.02564,-17.97551 0.2522,-0.57205 2.35338,-1.3038 4.66925,-1.62612 l 4.21071,-0.58603 -0.29341,-8.18033 -0.2934,-8.18033 -4.34042,-0.74507 c -4.82014,-0.82741 -4.73086,-0.59307 -3.29178,-8.64044 2.08354,-11.65132 1.55504,-10.88857 7.08582,-10.2265 l 4.87223,0.58323 2.80869,-7.37006 2.80868,-7.37005 -2.36298,-1.36387 c -6.86,-3.95947 -6.77186,-3.2566 -1.54446,-12.31573 l 4.73048,-8.19799 3.79012,2.2416 c 2.08456,1.23287 4.25789,2.21302 4.82963,2.17809 0.57174,-0.0349 3.2311,-2.66791 5.9097,-5.85108 l 4.87018,-5.78758 -3.08294,-3.38795 c -1.69563,-1.86337 -3.08295,-3.74194 -3.08295,-4.1746 0,-1.13042 12.60466,-11.8464 13.93432,-11.8464 0.61237,0 2.34077,1.61426 3.8409,3.58725 1.70555,2.24317 3.19135,3.35085 3.9655,2.95632 0.6809,-0.34702 3.84134,-2.15301 7.02321,-4.01333 l 5.78519,-3.38237 -1.64197,-4.46897 c -1.02232,-2.78248 -1.27849,-4.76852 -0.67882,-5.26273 1.64094,-1.35233 16.03869,-6.36831 16.68895,-5.8142 0.33805,0.28806 1.31667,2.32522 2.17471,4.52702 0.85805,2.20181 2.00699,3.99279 2.5532,3.97997 0.54621,-0.0128 4.09523,-0.47872 7.88672,-1.03534 l 6.89362,-1.01202 v -5.25303 -5.25302 h 9.70213 9.70212 v 5.25302 5.25303 l 6.89362,1.01202 c 3.79149,0.55662 7.34052,1.02253 7.88673,1.03534 0.54621,0.0128 1.75385,-1.90645 2.68363,-4.26504 1.05691,-2.68113 2.21577,-4.18935 3.09198,-4.02417 4.14602,0.78157 15.48053,5.14114 15.91223,6.1203 0.27623,0.62655 -0.20082,2.93509 -1.06011,5.13008 l -1.56236,3.99089 6.61543,4.02505 c 3.63849,2.21377 6.7607,4.02504 6.93825,4.02504 0.17755,0 1.59675,-1.6 3.15379,-3.55556 1.55704,-1.95555 3.35622,-3.55555 3.99819,-3.55555 1.32245,0 13.87415,10.76209 13.87415,11.896 0,0.40538 -1.39683,2.27208 -3.10408,4.14823 l -3.10406,3.41116 4.72717,5.60564 c 2.59994,3.0831 5.16861,5.74561 5.70812,5.91668 0.53952,0.17109 2.79044,-0.73118 5.00205,-2.00503 l 4.02109,-2.31609 4.72222,8.18366 c 5.21771,9.04236 5.30564,8.34287 -1.54589,12.29743 l -2.35612,1.3599 2.58451,7.08454 2.58451,7.08454 5.07314,-0.27606 5.07314,-0.27606 1.0631,5.60939 c 2.69132,14.20065 2.78656,12.92407 -1.01386,13.59112 -6.82261,1.19751 -6.4726,0.68758 -6.25895,9.11875 l 0.19736,7.78842 4.0654,0.89538 c 2.23599,0.49245 4.34248,1.13652 4.68112,1.43126 0.33863,0.29474 -0.0842,4.29182 -0.93952,8.8824 -0.85537,4.59059 -1.55706,8.67829 -1.55932,9.08381 -0.004,0.6563 -3.67249,0.29298 -8.2672,-0.81868 -1.55691,-0.37669 -2.05352,0.67052 -6.80272,14.34508 -0.17771,0.5117 1.53089,1.83729 3.79688,2.94576 2.266,1.10848 4.12,2.19781 4.12,2.42074 0,0.87353 -9.2454,16.36981 -9.76656,16.36981 -0.30502,0 -2.19909,-0.97262 -4.20904,-2.16137 l -3.65447,-2.16137 -4.25673,5.05026 c -2.34119,2.77764 -4.6222,5.57334 -5.0689,6.21267 -0.50003,0.71566 0.24468,2.55241 1.9376,4.77898 l 2.74977,3.61655 -6.9661,6.10992 c -3.83136,3.36046 -7.20822,6.09473 -7.50414,6.07618 -0.29591,-0.0186 -1.77817,-1.59494 -3.2939,-3.50308 l -2.75588,-3.46934 -6.69205,3.7253 c -7.20885,4.01298 -7.08656,3.74147 -5.08999,11.3016 0.55485,2.10099 0.0542,2.43444 -7.90799,5.26793 -4.67519,1.66372 -8.73013,2.95439 -9.01098,2.86814 -0.28085,-0.0862 -1.14803,-1.85682 -1.92705,-3.93459 -0.77903,-2.07778 -1.55848,-3.92286 -1.73211,-4.10017 -0.17363,-0.17732 -2.75327,0.1456 -5.73252,0.71759 -2.97926,0.57199 -6.42696,1.21946 -7.66155,1.43882 -1.9166,0.34055 -2.2898,1.0802 -2.55319,5.06019 l -0.30847,4.66134 -8.72922,0.25421 c -4.80106,0.1398 -9.05213,-0.0269 -9.44681,-0.37038 z m 24.76806,-29.778 c 15.97357,-3.02504 32.58563,-12.19963 43.6949,-24.13201 28.27865,-30.3739 30.05366,-75.30785 4.25784,-107.7857 -22.16472,-27.90617 -61.26221,-38.02734 -94.5398,-24.47353 -49.44795,20.13993 -66.70336,80.64642 -35.44674,124.2948 15.50117,21.64663 43.32096,34.95638 69.82474,33.40605 4.21277,-0.24642 9.70684,-0.83575 12.20906,-1.30961 z m -23.4431,-32.8538 c -13.78212,-2.32539 -27.75652,-12.23037 -34.37892,-24.36761 -3.61964,-6.63389 -6.42745,-16.30483 -6.45059,-22.21775 -0.0257,-6.57421 5.82773,-11.87509 11.69716,-10.59292 4.64528,1.01476 6.76908,4.16252 7.83087,11.60638 1.66492,11.672 6.88818,19.3808 16.0833,23.73667 16.08133,7.61797 34.02568,0.23798 40.13091,-16.50467 3.71104,-10.17696 0.82502,-22.23964 -7.2317,-30.22625 -4.32874,-4.29107 -12.54905,-7.79699 -18.28155,-7.79699 -3.75293,0 -5.0721,-0.50025 -7.96969,-3.02222 -3.91165,-3.40459 -4.60666,-7.60132 -1.98859,-12.00783 2.35124,-3.9574 6.65975,-5.04379 15.04168,-3.79277 8.98682,1.34131 16.0572,4.47541 23.11557,10.2465 12.03632,9.84118 17.84669,21.82843 17.94442,37.02076 0.0948,14.73111 -5.28763,26.67963 -16.54001,36.71755 -5.53505,4.93766 -16.52939,9.98279 -24.58906,11.28353 -6.26172,1.01057 -7.99476,1.00067 -14.4138,-0.0824 z"
     id="path20"
     inkscape:connector-curvature="0" />
</svg>
