<?xml version="1.0" encoding="UTF-8" standalone="no"?>
<!-- Created with Inkscape (http://www.inkscape.org/) -->

<svg
   xmlns:dc="http://purl.org/dc/elements/1.1/"
   xmlns:cc="http://creativecommons.org/ns#"
   xmlns:rdf="http://www.w3.org/1999/02/22-rdf-syntax-ns#"
   xmlns:svg="http://www.w3.org/2000/svg"
   xmlns="http://www.w3.org/2000/svg"
   xmlns:sodipodi="http://sodipodi.sourceforge.net/DTD/sodipodi-0.dtd"
   xmlns:inkscape="http://www.inkscape.org/namespaces/inkscape"
   version="1.1"
   id="svg10"
   width="717.95746"
   height="626.24298"
   viewBox="0 0 717.95746 626.24298"
   sodipodi:docname="noun_1046379_cc.svg"
   inkscape:version="0.92.1 r15371">
  <metadata
     id="metadata16">
    <rdf:RDF>
      <cc:Work
         rdf:about="">
        <dc:format>image/svg+xml</dc:format>
        <dc:type
           rdf:resource="http://purl.org/dc/dcmitype/StillImage" />
        <dc:title></dc:title>
      </cc:Work>
    </rdf:RDF>
  </metadata>
  <defs
     id="defs14" />
  <sodipodi:namedview
     pagecolor="#ffffff"
     bordercolor="#666666"
     borderopacity="1"
     objecttolerance="10"
     gridtolerance="10"
     guidetolerance="10"
     inkscape:pageopacity="0"
     inkscape:pageshadow="2"
     inkscape:window-width="1366"
     inkscape:window-height="706"
     id="namedview12"
     showgrid="false"
     inkscape:zoom="0.85749464"
     inkscape:cx="358.97873"
     inkscape:cy="313.12149"
     inkscape:window-x="-8"
     inkscape:window-y="219"
     inkscape:window-maximized="1"
     inkscape:current-layer="svg10" />
  <path
     style="fill:#000000;stroke-width:0.95722806"
     d="m 79.67743,478.82917 v -7.64596 h 23.57632 23.57632 l -4.60447,7.40186 -4.60448,7.40187 -18.97184,0.2441 -18.97185,0.2441 z m 51.38986,6.93347 c 0.94161,-1.41879 50.82818,-83.72708 80.72421,-133.18756 17.2096,-28.47185 31.29019,-51.9896 31.29019,-52.26168 0,-0.27207 -36.76596,-0.49468 -81.70213,-0.49468 H 79.67743 v -7.62617 -7.62616 H 367.1668 654.65616 v 7.62616 7.62617 h -81.19149 c -56.59678,0 -81.19149,0.28858 -81.19149,0.95264 0,0.73853 58.44453,98.12218 105.90673,176.46792 l 5.57114,9.19626 h -9.19931 -9.19932 l -4.03741,-6.50467 c -2.22057,-3.57757 -25.75926,-42.43738 -52.30819,-86.35514 -63.00713,-104.2276 -55.8964,-93.24892 -60.61847,-93.59249 -5.6286,-0.40953 -6.9599,0.22072 -5.74787,2.72112 0.54626,1.12692 17.27869,42.2209 37.18318,91.31997 19.9045,49.09906 36.50819,89.97757 36.8971,90.84112 0.6399,1.42082 -0.11726,1.57009 -7.96388,1.57009 -7.37963,0 -8.74827,-0.23383 -9.18975,-1.57009 -1.9432,-5.88145 -74.67439,-183.03326 -75.51208,-183.92523 -0.57986,-0.61744 -3.2921,-1.1215 -6.03457,-1.1215 -3.86136,0 -4.98134,0.31906 -4.98134,1.41909 0,0.78051 10.57021,42.29767 23.48936,92.26038 12.91915,49.96269 23.48936,91.32987 23.48936,91.92705 0,0.77837 -2.2298,1.01159 -7.87554,0.82374 l -7.87556,-0.26204 -24.04723,-92.85981 -24.04724,-92.85981 h -6.11977 -6.11977 l 0.26022,2.69159 c 0.55953,5.78794 22.71963,177.81829 23.25893,180.56074 l 0.57341,2.91589 h -8.21649 c -4.51907,0 -8.21649,-0.37232 -8.21649,-0.82737 0,-2.28246 -23.56251,-183.71216 -23.98892,-184.71305 -0.34825,-0.81739 -2.25846,-1.08595 -6.3817,-0.89719 l -5.8847,0.26939 -0.26007,93.08411 -0.26007,93.08411 h -7.65007 -7.65008 l -0.26007,-93.08411 -0.26007,-93.08411 -5.87234,-0.26907 c -3.22978,-0.14799 -5.90697,-0.14799 -5.9493,0 -0.0423,0.14799 -5.45967,42.05599 -12.03855,93.12888 l -11.96158,92.85981 -7.87635,0.26204 c -4.33199,0.14412 -7.87635,-0.0678 -7.87635,-0.4709 0,-0.40312 5.28511,-41.81535 11.74469,-92.02719 6.45957,-50.21184 11.74468,-91.88778 11.74468,-92.61321 0,-1.00122 -1.35839,-1.31896 -5.63892,-1.31896 -4.8865,0 -5.7652,0.26936 -6.5853,2.01869 -0.52052,1.11028 -3.48076,11.91028 -6.57832,24 -3.09757,12.08972 -13.69163,53.00254 -23.54236,90.91737 -9.85073,37.91483 -17.91042,69.10361 -17.91042,69.30841 0,0.20479 -3.68535,0.37235 -8.18967,0.37235 -7.9702,0 -8.17538,-0.0541 -7.65626,-2.01869 3.49218,-13.21602 46.65348,-181.81319 46.79822,-182.80373 0.15387,-1.05312 -1.0167,-1.3458 -5.38244,-1.3458 h -5.57908 l -3.19923,7.62617 c -1.75957,4.19439 -18.73792,45.77944 -37.72966,92.41121 -18.99176,46.63178 -34.84595,85.1052 -35.23156,85.49651 -0.3856,0.3913 -4.39799,0.59317 -8.91643,0.44859 l -8.21533,-0.26286 6.9753,-17.04673 c 30.93877,-75.61037 68.36869,-167.83565 68.36869,-168.45673 0,-0.41719 -2.33677,-0.6365 -5.19283,-0.48735 l -5.19283,0.27119 -46.41857,76.71028 c -25.53021,42.19065 -50.87001,84.0785 -56.31065,93.08411 l -9.89207,16.37383 h -9.53552 c -5.24454,0 -9.33456,-0.3028 -9.08895,-0.6729 z m 481.97185,-6.39247 c -2.38723,-3.88499 -4.34042,-7.31637 -4.34042,-7.62529 0,-0.30892 10.34042,-0.56167 22.97872,-0.56167 h 22.97872 v 7.62616 7.62617 l -18.63829,-8.9e-4 -18.6383,-8.8e-4 z M 79.67743,415.10844 v -7.62617 h 42.46808 c 25.14483,0 42.32923,0.33374 42.12766,0.81816 -0.18723,0.44998 -2.17872,3.8774 -4.42553,7.61649 l -4.0851,6.79834 -38.04256,0.01 -38.04255,0.01 z m 495.36732,1.1215 c -2.25845,-3.57757 -4.11234,-7.00935 -4.11977,-7.62617 -0.0106,-0.87916 9.03462,-1.1215 41.85884,-1.1215 h 41.87234 v 7.62617 7.62617 H 616.90359 579.15102 Z M 79.67743,363.96825 v -7.62616 h 57.70213 c 37.77732,0 57.70213,0.30973 57.70213,0.89696 0,0.49333 -1.92781,3.92511 -4.28402,7.62617 l -4.28401,6.7292 H 133.09554 79.67743 Z m 464.17022,0.80849 c -2.24681,-3.7391 -4.2383,-7.16651 -4.42553,-7.6165 -0.20248,-0.48662 23.07587,-0.81815 57.44681,-0.81815 h 57.78723 v 7.62616 7.62617 l -53.3617,-0.01 -53.3617,-0.01 -4.08511,-6.79834 z M 79.67743,324.49821 v -7.63276 h 69.44681 c 54.88504,0 69.44349,0.23516 69.43097,1.1215 -0.009,0.61682 -1.76623,3.94766 -3.90559,7.40187 l -3.88975,6.28037 -65.54122,0.23089 -65.54122,0.2309 z m 440.36913,0.89037 c -2.35621,-3.70106 -4.28402,-7.13283 -4.28402,-7.62617 0,-0.58902 23.84174,-0.89696 69.44681,-0.89696 h 69.44681 v 7.62617 7.62617 h -65.16279 -65.1628 z M 92.66079,264.15517 c -2.57757,-4.81121 -7.68326,-14.29906 -11.34596,-21.08411 l -6.65946,-12.33645 91.61741,6e-5 91.61742,6e-5 0.06,7.62611 0.0601,7.62611 h -7.46433 c -4.10533,0 -7.46428,0.20725 -7.46428,0.46056 0,0.2533 3.21702,6.10212 7.14893,12.99738 3.93192,6.89526 7.14894,12.74408 7.14894,12.99739 0,0.2533 -3.93737,0.46056 -8.74969,0.46056 h -8.74971 l -7.3354,-13.43478 -7.33541,-13.43478 -14.62202,-0.0232 -14.62201,-0.0232 0.7154,2.01869 c 0.39347,1.11028 3.41167,6.75641 6.70712,12.54695 3.29545,5.79055 5.99172,10.93821 5.99172,11.43925 0,0.54377 -3.43665,0.911 -8.52561,0.911 h -8.5256 l -7.29194,-13.45795 -7.29194,-13.45794 h -14.82075 c -8.15142,0 -14.82076,0.20725 -14.82076,0.46056 0,0.2533 3.21702,6.10212 7.14894,12.99738 3.93191,6.89526 7.14894,12.74408 7.14894,12.99739 0,0.2533 -3.93737,0.46056 -8.7497,0.46056 h -8.74971 l -7.3354,-13.43478 -7.33541,-13.43478 -14.55319,-0.0231 c -9.1752,-0.0146 -14.55319,0.31312 -14.55319,0.88684 0,0.5005 2.98724,6.14708 6.6383,12.54794 3.65106,6.40086 6.63829,12.04743 6.63829,12.54793 0,0.54254 -3.44308,0.91 -8.52676,0.91 H 97.3473 Z m 189.81976,4.24372 c -2.63756,-2.47717 -6.46037,-7.58367 -8.49516,-11.34778 -3.37112,-6.23615 -3.73951,-7.69456 -4.14896,-16.42476 -0.67652,-14.42465 3.28979,-24.49412 13.3168,-33.8081 4.67856,-4.34587 15.41997,-10.1771 18.74672,-10.1771 1.01678,0 1.37111,-5.82334 1.62411,-26.69158 0.31501,-25.98356 0.38782,-26.80621 2.74519,-31.01247 1.52044,-2.71296 3.96226,-5.21701 6.56173,-6.72897 l 4.14014,-2.4081 34.52703,-0.2582 34.52703,-0.2582 0.27294,22.65992 0.27293,22.65991 40.34043,11.38442 40.34042,11.38443 0.26873,30.58769 0.26873,30.5877 h -13.24222 -13.24221 l -2.12098,4.21229 c -1.16655,2.31675 -3.27953,5.54666 -4.69551,7.17757 l -2.57452,2.96528 -19.09697,-0.002 -19.09696,-0.002 -3.29259,-4.25995 c -1.81091,-2.34297 -3.80906,-5.5721 -4.44032,-7.17583 l -1.14776,-2.91589 h -18.19978 -18.19977 l -2.35549,3.36448 c -1.29551,1.85047 -4.14898,5.08038 -6.34102,7.17757 l -3.98554,3.81309 H 311.5169 287.27609 l -4.79554,-4.50394 z m 136.01473,-5.36037 c 12.47113,-6.67991 8.15353,-25.11963 -5.88167,-25.11963 -14.0352,0 -18.3528,18.43972 -5.88168,25.11963 1.83067,0.98057 4.47742,1.78284 5.88168,1.78284 1.40425,0 4.051,-0.80227 5.88167,-1.78284 z m -97.18266,-0.81807 c 5.48895,-2.18991 10.68663,-6.84189 13.7321,-12.29041 3.35497,-6.00221 3.52432,-17.66173 0.34463,-23.727 -6.1863,-11.80032 -18.67903,-17.41405 -31.42321,-14.12033 -6.23365,1.61109 -15.03077,9.68146 -17.26536,15.83904 -6.42117,17.69405 5.94971,36.01478 24.2958,35.981 3.7719,-0.007 7.73787,-0.6537 10.31604,-1.6823 z m 65.64473,-23.8845 c 2.83888,-5.76084 9.14785,-11.6743 14.93285,-13.99671 5.46209,-2.19278 15.98473,-2.19278 21.44681,0 5.80528,2.33055 12.10162,8.24596 14.93285,14.02944 l 2.42885,4.96151 5.61702,-0.24172 5.61703,-0.24171 V 226.24863 209.6505 l -24.51064,-7.02353 c -13.48085,-3.86294 -31.86383,-9.11154 -40.85107,-11.66355 l -16.34042,-4.64002 -0.27454,-20.42713 -0.27454,-20.42713 -24.74674,0.24021 -24.74674,0.24022 -0.27127,25.36857 c -0.25224,23.58958 -0.14482,25.40139 1.53192,25.83658 18.09077,4.69527 31.93084,22.24842 31.93084,40.49736 v 5.64328 l 15.57447,-0.0153 15.57447,-0.0154 2.42885,-4.92878 z"
     id="path20"
     inkscape:connector-curvature="0" />
</svg>
