<?xml version="1.0" encoding="UTF-8" standalone="no"?>
<!-- Created with Inkscape (http://www.inkscape.org/) -->

<svg
   xmlns:dc="http://purl.org/dc/elements/1.1/"
   xmlns:cc="http://creativecommons.org/ns#"
   xmlns:rdf="http://www.w3.org/1999/02/22-rdf-syntax-ns#"
   xmlns:svg="http://www.w3.org/2000/svg"
   xmlns="http://www.w3.org/2000/svg"
   xmlns:sodipodi="http://sodipodi.sourceforge.net/DTD/sodipodi-0.dtd"
   xmlns:inkscape="http://www.inkscape.org/namespaces/inkscape"
   version="1.1"
   id="svg10"
   width="546.23999"
   height="546.23999"
   viewBox="0 0 546.23999 546.23999"
   sodipodi:docname="199454.svg"
   inkscape:version="0.92.1 r15371">
  <metadata
     id="metadata16">
    <rdf:RDF>
      <cc:Work
         rdf:about="">
        <dc:format>image/svg+xml</dc:format>
        <dc:type
           rdf:resource="http://purl.org/dc/dcmitype/StillImage" />
        <dc:title></dc:title>
      </cc:Work>
    </rdf:RDF>
  </metadata>
  <defs
     id="defs14" />
  <sodipodi:namedview
     pagecolor="#ffffff"
     bordercolor="#666666"
     borderopacity="1"
     objecttolerance="10"
     gridtolerance="10"
     guidetolerance="10"
     inkscape:pageopacity="0"
     inkscape:pageshadow="2"
     inkscape:window-width="1366"
     inkscape:window-height="706"
     id="namedview12"
     showgrid="false"
     inkscape:zoom="0.98308438"
     inkscape:cx="273.12"
     inkscape:cy="273.12"
     inkscape:window-x="-8"
     inkscape:window-y="219"
     inkscape:window-maximized="1"
     inkscape:current-layer="svg10" />
  <path
     style="fill:#000000;stroke-width:0.31999999"
     d="m 90.81387,547.57702 c -4.38469,-0.78547 -8.906607,-2.87987 -12.451256,-5.76704 -3.731011,-3.03897 -7.138969,-8.53328 -8.403062,-13.54739 -0.781731,-3.10077 -0.855232,-8.66784 -0.153725,-11.64333 0.261219,-1.108 6.307091,-21.28989 13.43527,-44.84867 7.128173,-23.55875 12.958603,-43.24422 12.956493,-43.74544 -0.002,-0.50125 -1.78568,-14.87936 -3.9635,-31.95136 -2.17782,-17.072 -3.91025,-31.09385 -3.84983,-31.15968 0.18801,-0.20483 52.94658,13.1736 53.38219,13.53655 0.59121,0.49264 6.62264,48.60867 6.60142,52.66313 -0.009,1.672 -0.23559,3.97207 -0.50409,5.11123 -0.2685,1.1392 -6.82782,23.02263 -14.57629,48.62989 -15.69755,51.87754 -15.08625,50.144 -19.25706,54.61005 -3.42889,3.67161 -7.49315,6.18493 -12.12385,7.49725 -2.71038,0.76812 -8.45834,1.08672 -11.09271,0.61481 z m 209.03485,-0.74867 c -0.89798,-0.41869 -2.15701,-1.2856 -2.79783,-1.92643 -2.79103,-2.79101 -3.5748,-6.28855 -3.55591,-15.86813 0.0115,-5.86221 0.11658,-7.34195 0.70992,-10.00272 4.54799,-20.39475 19.75261,-35.57741 39.9929,-39.93517 2.24051,-0.4824 4.79734,-0.72278 9.04361,-0.85027 l 5.92,-0.17773 1.2458,-3.16755 c 5.4552,-13.87037 17.28841,-26.40864 31.0742,-32.92569 5.97955,-2.82676 11.99552,-4.62772 18.72,-5.60407 5.5249,-0.80217 15.67917,-0.49293 21.04602,0.64096 29.72838,6.2809 50.63398,32.07655 50.63398,62.47782 v 2.98442 h 1.52 c 6.60851,0.006 16.34471,3.3705 23.03344,7.96051 8.50854,5.83885 15.06323,14.83027 17.85677,24.49511 1.36912,4.7368 -0.65603,9.53692 -5.03111,11.92499 -1.01427,0.55363 -5.43459,0.58141 -104.4191,0.65603 l -103.36,0.0779 -1.63269,-0.76131 z m -8.79588,-71.48425 c -4.29965,-4.69818 -9.87111,-11.89476 -14.64274,-18.91383 -1.56219,-2.29798 -2.90789,-4.11062 -2.99044,-4.02806 -0.0826,0.0826 -1.29044,0.44416 -2.68417,0.80358 -3.4427,0.88778 -8.9397,0.89968 -12.32396,0.0266 -3.16728,-0.81705 -6.26324,-2.23785 -8.76256,-4.02134 -1.1754,-0.83875 -19.30527,-18.90445 -43.63906,-43.48464 l -41.62828,-42.04979 -2.17011,-0.54544 c -1.19356,-0.29997 -26.6255,-6.43952 -56.51544,-13.64346 -43.964416,-10.5961 -54.804461,-13.31018 -56.748886,-14.20855 -9.746217,-4.50304 -15.601411,-14.08899 -15.053705,-24.64547 0.174761,-3.36836 26.909833,-155.4483 27.930495,-158.88 2.126342,-7.14924 7.512368,-14.05351 13.708691,-17.57295 5.00783,-2.8444 11.741025,-4.47783 16.828745,-4.08254 3.05667,0.23749 56.33763,9.61592 59.45232,10.46471 12.76144,3.47763 21.77571,15.18695 21.91786,28.47078 0.0327,3.06046 -0.19585,4.98879 -1.35788,11.4541 -1.10604,6.15383 -1.49056,7.7383 -1.84491,7.60232 -0.24622,-0.0945 -14.4426,-8.68662 -31.54753,-19.09365 -17.10492,-10.40693 -31.24386,-18.9974 -31.41986,-19.08983 -0.176,-0.0924 1.34366,1.54537 3.37703,3.63955 2.03336,2.09419 14.82363,15.29177 28.42282,29.32797 20.69389,21.35889 24.83949,25.49378 25.42298,25.35733 0.38344,-0.0897 17.04117,-3.20059 37.01717,-6.91313 39.42037,-7.32629 39.98466,-7.40563 44.48,-6.25411 3.78896,0.97058 7.19486,2.90182 9.89538,5.61094 4.35378,4.36765 6.08294,8.3063 6.34249,14.44686 0.18701,4.42449 -0.25981,6.5642 -2.19532,10.51274 -1.54392,3.14968 -4.95285,6.9373 -7.77588,8.6397 -3.54695,2.13896 -4.33597,2.33137 -25.62667,6.24924 -23.55389,4.33434 -57.65024,10.65616 -62.72,11.62893 -7.80147,1.49693 -11.77237,1.57145 -15.68,0.29424 -3.22179,-1.05303 -5.97268,-2.67731 -8.43081,-4.97801 -1.05486,-0.9873 -15.12618,-15.83509 -31.2696,-32.99509 -34.281712,-36.44049 -30.398691,-32.36652 -29.89017,-31.36 0.861802,1.70576 42.04925,73.22917 43.22881,75.06831 5.32783,8.30696 19.61552,15.72194 30.67591,15.92009 1.6438,0.0294 2.88112,0.18714 2.88284,0.3674 0.007,0.78422 -2.65394,15.38966 -2.84198,15.5963 -0.11617,0.12766 -17.24306,0.98916 -38.05976,1.91445 -20.8167,0.92529 -37.733055,1.72023 -37.591896,1.76653 0.141161,0.0463 24.306826,4.8973 53.701476,10.78 34.66517,6.93748 54.23023,10.99069 55.68,11.53498 1.22935,0.46154 3.24318,1.43231 4.47518,2.15726 2.64588,1.55694 4.30912,3.20061 48.34345,47.77467 48.4995,49.09395 45.6361,46.13648 47.14479,48.69351 l 1.35322,2.29353 1.38746,-0.47277 1.38746,-0.47276 -4.94798,-14.78074 c -4.90738,-14.65949 -4.94697,-14.80058 -4.82503,-17.19302 0.0974,-1.91101 0.31761,-2.77027 1.05978,-4.1352 1.14998,-2.11488 3.40893,-3.96083 5.75023,-4.69885 0.96064,-0.30282 1.74661,-0.70429 1.74661,-0.89213 0,-0.18787 -7.13106,-21.73475 -15.84681,-47.88201 l -15.84682,-47.54046 -4.23318,-0.3664 c -7.56071,-0.65442 -13.5353,-2.68238 -19.33979,-6.56453 -4.43069,-2.96332 -10.5887,-9.10584 -9.8234,-9.7987 0.1595,-0.14441 2.45001,-0.65385 5.09001,-1.13209 23.23284,-4.20867 25.05445,-4.64954 30.52351,-7.38736 9.97553,-4.99376 17.66738,-13.77312 21.15851,-24.15001 0.8954,-2.66146 1.90069,-7.19483 1.91595,-8.64 0.0183,-1.73205 0.35208,-2.03615 1.96884,-1.7937 3.34226,0.5012 6.79398,3.03526 8.1939,6.0155 0.89742,1.91046 1.90984,5.81193 2.30907,8.8982 0.93653,7.23994 -0.26316,14.93319 -3.39011,21.73979 -2.39069,5.20392 -7.62826,11.77889 -11.72876,14.72364 -0.831,0.59678 -1.51092,1.24065 -1.51092,1.43081 0,0.72047 31.74524,95.54575 31.98644,95.54575 0.1392,0 0.8832,-0.22422 1.65333,-0.4983 0.77013,-0.27405 2.39862,-0.49683 3.61886,-0.49507 3.72324,0.005 6.90611,1.97795 8.57363,5.31337 0.26397,0.528 2.60742,7.368 5.20765,15.2 2.60022,7.832 4.7519,14.27191 4.78147,14.31091 0.0294,0.039 4.86989,-1.53411 10.75622,-3.4958 9.21568,-3.0713 10.99133,-3.56717 12.7824,-3.56976 3.36762,-0.005 6.42813,1.77056 8.16695,4.73763 1.2032,2.05309 3.00787,12.08438 3.51481,19.53702 0.10775,1.584 0.26132,3.20061 0.34128,3.59248 0.12112,0.59367 -0.13548,0.85456 -1.53881,1.56448 -5.11373,2.58688 -12.23639,7.60727 -17.55936,12.37674 -5.19347,4.65337 -10.62663,11.16422 -14.64487,17.54963 l -1.86281,2.96026 -4.28861,0.84953 c -12.82049,2.53965 -24.04216,8.02055 -33.94863,16.58119 l -3.73348,3.22627 z M 126.39222,122.2717 c -13.4492,-1.9335 -25.02057,-9.82708 -32.38651,-22.09294 -0.83431,-1.38931 -1.48597,-1.0679 5.39571,-2.66123 20.95717,-4.85226 47.78702,-13.94895 68.07423,-23.08065 8.5965,-3.86946 9.05341,-4.0621 9.22581,-3.8897 0.0902,0.0902 0.32286,1.89181 0.51703,4.00357 0.29974,3.26001 0.43076,3.8212 0.86798,3.71787 3.92268,-0.92711 32.10486,-6.19482 33.1422,-6.19482 1.77468,0 2.96252,0.44396 4.12132,1.54036 3.56794,3.37582 2.10173,9.08914 -2.66857,10.39844 -0.968,0.26569 -8.24,1.73747 -16.16,3.27063 -7.92,1.53316 -15.9022,3.09424 -17.73821,3.46907 l -3.33821,0.6815 -1.00714,2.56 c -5.91094,15.02487 -18.65874,25.4564 -34.37283,28.12731 -3.26975,0.55575 -10.31483,0.63335 -13.67281,0.15059 z M 52.521421,88.83753 C 45.11081,88.05044 41.567482,86.57571 40.174842,83.6989 39.647184,82.6089 39.535252,81.96592 39.697034,80.95419 40.751712,74.3586 52.62537,64.56735 71.998758,54.31755 l 3.946992,-2.08821 0.181501,-4.23777 c 0.642565,-15.00296 7.872416,-28.498001 19.954129,-37.245828 3.26243,-2.362178 9.34895,-5.462232 13.08004,-6.662065 5.33156,-1.714509 8.51947,-2.194309 14.72,-2.215452 8.13982,-0.02775 13.63071,1.156155 20.49501,4.418992 7.53833,3.583234 12.93871,7.918519 18.07181,14.507594 l 0.80682,1.035668 5.20964,-0.955977 c 17.66236,-3.241071 31.87728,-3.575219 38.12707,-0.896249 3.13842,1.345285 4.48965,2.998522 4.48965,5.493131 0,4.670786 -5.93118,11.010606 -17.36698,18.563516 -29.84624,19.71231 -87.09497,39.9989 -124.713019,44.19315 -4.418192,0.49261 -14.18096,0.85367 -16.48,0.60948 z"
     id="path20"
     inkscape:connector-curvature="0" />
</svg>
