<?xml version="1.0" encoding="UTF-8" standalone="no"?>
<!-- Created with Inkscape (http://www.inkscape.org/) -->

<svg
   xmlns:dc="http://purl.org/dc/elements/1.1/"
   xmlns:cc="http://creativecommons.org/ns#"
   xmlns:rdf="http://www.w3.org/1999/02/22-rdf-syntax-ns#"
   xmlns:svg="http://www.w3.org/2000/svg"
   xmlns="http://www.w3.org/2000/svg"
   xmlns:sodipodi="http://sodipodi.sourceforge.net/DTD/sodipodi-0.dtd"
   xmlns:inkscape="http://www.inkscape.org/namespaces/inkscape"
   version="1.1"
   id="svg10"
   width="48.377953"
   height="48.377953"
   viewBox="0 0 48.377953 48.377953"
   sodipodi:docname="353819.svg"
   inkscape:version="0.92.1 r15371">
  <metadata
     id="metadata16">
    <rdf:RDF>
      <cc:Work
         rdf:about="">
        <dc:format>image/svg+xml</dc:format>
        <dc:type
           rdf:resource="http://purl.org/dc/dcmitype/StillImage" />
        <dc:title></dc:title>
      </cc:Work>
    </rdf:RDF>
  </metadata>
  <defs
     id="defs14" />
  <sodipodi:namedview
     pagecolor="#ffffff"
     bordercolor="#666666"
     borderopacity="1"
     objecttolerance="10"
     gridtolerance="10"
     guidetolerance="10"
     inkscape:pageopacity="0"
     inkscape:pageshadow="2"
     inkscape:window-width="1366"
     inkscape:window-height="706"
     id="namedview12"
     showgrid="false"
     inkscape:zoom="11.100098"
     inkscape:cx="24.188976"
     inkscape:cy="24.188976"
     inkscape:window-x="-8"
     inkscape:window-y="219"
     inkscape:window-maximized="1"
     inkscape:current-layer="svg10" />
  <path
     style="fill:#000000;stroke-width:0.09448819"
     d="M 7.0190572,48.304943 C 6.6229972,48.163456 6.2561032,47.893845 5.9773142,47.539421 5.5068882,46.941372 5.5212112,47.43146 5.5212112,31.933163 v -14.48892 h 4.8661408 4.866142 l -0.0021,14.622047 c -0.0021,14.513688 -0.0035,14.625199 -0.194841,15.047244 -0.106021,0.233859 -0.285796,0.526494 -0.3995,0.650301 -0.311984,0.339706 -1.090135,0.670688 -1.576812,0.670688 -0.825331,0 -1.717679,-0.605779 -2.045815,-1.38882 -0.103877,-0.247897 -0.12741,-1.971171 -0.12741,-9.330709 V 28.688337 H 10.437324 9.9676122 l -0.02635,9.047245 -0.02635,9.047244 -0.205018,0.382952 c -0.555064,1.036799 -1.663647,1.506117 -2.690837,1.139165 z M 12.31551,23.934973 c 0.177022,-0.06203 0.41088,-0.232702 0.519686,-0.379277 0.180711,-0.243444 0.200502,-0.415937 0.228757,-1.993815 0.02696,-1.505476 0.01092,-1.747323 -0.124859,-1.883107 -0.136538,-0.136537 -0.451896,-0.155791 -2.551742,-0.155791 -2.0898018,0 -2.4156518,0.0197 -2.5501428,0.154192 -0.133651,0.133652 -0.150285,0.384519 -0.124859,1.883161 0.04204,2.477789 0.05239,2.487414 2.6750018,2.487414 1.00176,0 1.727433,-0.04245 1.928158,-0.112777 z M 2.2141245,42.200148 c -0.103937,-0.103937 -0.1889763,-0.285524 -0.1889763,-0.403526 0,-0.179863 1.735853,-4.666337 1.85153,-4.78545 0.02103,-0.02165 0.03823,1.179528 0.03823,2.669291 v 2.708662 h -0.755906 c -0.629921,0 -0.787401,-0.0315 -0.9448817,-0.188977 z M 16.859793,37.349613 v -5.039511 l 0.874016,0.0013 c 0.629212,9.44e-4 0.976122,-0.04472 1.23856,-0.162874 0.200498,-0.09027 0.375186,-0.151012 0.388195,-0.134975 0.01301,0.01604 -0.176156,1.262228 -0.420367,2.769315 -0.244211,1.507086 -0.606582,3.756974 -0.805269,4.99975 -0.391041,2.445938 -0.452146,2.60655 -0.99167,2.60655 h -0.283465 z m 4.800661,4.874158 c -0.07811,-0.09094 -0.165433,-0.232023 -0.194054,-0.313507 -0.02862,-0.08148 0.02873,-1.144476 0.12746,-2.362204 0.729216,-8.994564 1.407666,-17.508449 1.407666,-17.664839 0,-0.172502 -0.06597,-0.18701 -0.850394,-0.18701 h -0.850394 v -0.803149 -0.80315 h 0.425197 0.425197 v -0.614173 -0.614173 h -0.425197 -0.425197 v -0.797717 -0.797716 l 0.398189,-0.02905 c 0.370821,-0.02706 0.402772,-0.05163 0.464873,-0.357491 0.139963,-0.68934 0.90486,-0.90082 1.349012,-0.372976 0.13454,0.159892 0.244619,0.395539 0.244619,0.523659 0,0.22958 0.01037,0.232547 0.717742,0.205349 l 0.717742,-0.0276 0.123842,-0.361095 c 0.150512,-0.438851 0.376499,-0.624043 0.766372,-0.628026 0.356936,-0.0036 0.768089,0.370032 0.810464,0.736593 0.02847,0.246311 0.04695,0.253203 0.750253,0.279923 l 0.72106,0.02739 0.06198,-0.330386 c 0.1705,-0.908838 1.371633,-0.949669 1.554313,-0.05284 l 0.0669,0.328435 0.717458,0.0274 0.717458,0.02739 0.06198,-0.330386 c 0.112552,-0.599957 0.783924,-0.904489 1.259566,-0.571337 0.114009,0.07986 0.253139,0.315465 0.309178,0.523575 l 0.101888,0.378384 0.723992,-0.02751 0.723992,-0.02751 0.0669,-0.328435 c 0.130821,-0.642238 0.783167,-0.864112 1.281491,-0.435856 l 0.265111,0.227836 0.02959,1.709172 0.02959,1.709173 h 0.797184 0.797186 V 16.92456 13.759205 h -0.61085 c -0.640956,0 -0.806473,-0.110367 -0.806473,-0.537763 0,-0.09932 1.050269,-1.221943 2.480971,-2.651882 1.921467,-1.9204396 2.534246,-2.4796457 2.717204,-2.4796457 0.183028,0 0.794698,0.5587644 2.71588,2.4809717 1.659402,1.66029 2.479646,2.546234 2.479646,2.678268 0,0.328938 -0.285765,0.496842 -0.899139,0.528298 l -0.565428,0.029 v 3.11811 3.11811 l 0.83543,0.04724 c 0.733339,0.04147 0.857467,0.0745 1.015748,0.27031 0.202882,0.25098 0.232848,0.740057 0.0592,0.966225 -0.271339,0.353408 -0.452142,0.369764 -4.087507,0.369764 -2.810195,0 -3.549567,0.02487 -3.511844,0.118111 0.02628,0.06496 1.183918,2.945669 2.572526,6.401574 1.388608,3.455906 3.157481,7.852678 3.930829,9.770605 0.788997,1.956738 1.406087,3.6194 1.406087,3.788505 0,0.601936 -0.05791,0.614119 -2.919163,0.614119 -1.516523,0 -2.645318,-0.0384 -2.748245,-0.09348 -0.204705,-0.109555 -0.306279,-0.410062 -1.64515,-4.86715 -0.546381,-1.818898 -1.435962,-4.774016 -1.976845,-6.566929 -0.540884,-1.792914 -1.382396,-4.588583 -1.870028,-6.212599 l -0.886603,-2.952756 h -1.215572 -1.215574 l 0.066,0.259843 c 0.08221,0.323664 4.188621,17.344574 4.538883,18.813504 l 0.255936,1.073347 -0.186217,0.249487 -0.186216,0.249489 -2.69046,0.02504 c -2.598391,0.02419 -2.696386,0.0185 -2.863673,-0.166356 C 31.992483,42.059643 31.865945,41.504806 31.640222,40.09678 31.471604,39.044968 30.75494,34.570222 30.047636,30.152899 29.34033,25.735576 28.740384,22.025734 28.71442,21.908805 28.66911,21.704745 28.62717,21.696206 27.67009,21.696206 h -0.997125 l 0.05656,0.496063 c 0.03111,0.272835 0.290215,3.429922 0.575789,7.015748 0.285574,3.585827 0.624596,7.825543 0.753385,9.421592 0.281506,3.48867 0.279576,3.336141 0.04518,3.570534 -0.181187,0.181187 -0.31496,0.188977 -3.245198,0.188977 -2.793594,0 -3.068425,-0.01421 -3.198236,-0.165354 z m 3.608788,-22.748032 v -0.614173 h -0.755905 -0.755906 v 0.614173 0.614173 h 0.755906 0.755905 z m 3.11811,0 v -0.614173 h -0.755905 -0.755906 v 0.614173 0.614173 h 0.755906 0.755905 z m 3.118111,0 v -0.614173 h -0.755906 -0.755905 v 0.614173 0.614173 h 0.755905 0.755906 z m 3.193485,-0.02362 0.02813,-0.590551 H 33.966665 33.20625 v 0.618147 0.618148 l 0.732284,-0.0276 0.732283,-0.0276 z M 2.3908992,30.619235 C 1.7795963,30.431008 1.3186434,29.901131 1.1783608,29.225394 c -0.077284,-0.372273 -0.099064,-2.524575 -0.076348,-7.544707 0.029949,-6.618636 0.042102,-7.051056 0.2106614,-7.495512 0.3796495,-1.001056 0.9600983,-1.770182 1.713169,-2.270042 0.798969,-0.530325 1.436612,-0.709407 2.755211,-0.773797 l 1.15748,-0.05652 v 2.376565 2.376565 h -0.702675 -0.702675 l -0.02961,-0.29756 c -0.03608,-0.362551 -0.284992,-0.552126 -0.525671,-0.400351 -0.154402,0.09737 -0.168484,0.576111 -0.212599,7.227863 -0.03841,5.791679 -0.07149,7.167756 -0.176899,7.359809 -0.248435,0.452625 -0.621763,0.761282 -1.088403,0.89986 -0.554076,0.164542 -0.547501,0.164592 -1.109104,-0.0083 z m 15.1775558,0.103533 c -0.05197,-0.01851 -0.208141,-0.05861 -0.347049,-0.08913 -0.366918,-0.0806 -0.834901,-0.510069 -1.034401,-0.949266 -0.163169,-0.359214 -0.173578,-0.792699 -0.17553,-7.309333 -0.0014,-4.590651 -0.03507,-6.989123 -0.09989,-7.110236 -0.199361,-0.37251 -0.658093,-0.157415 -0.658093,0.308574 v 0.264567 h -0.708661 -0.708662 v -2.376565 -2.376565 l 1.157481,0.05652 c 1.25047,0.06106 1.912201,0.232753 2.620556,0.679918 1.056933,0.667213 1.815407,1.878928 1.982577,3.167304 0.131897,1.016531 0.126353,13.651147 -0.0063,14.269507 -0.110896,0.517088 -0.499176,1.048202 -0.925859,1.266446 -0.259507,0.132735 -0.936425,0.255161 -1.09621,0.198257 z M 8.6393212,13.475739 v -2.362205 h 1.7480308 1.748032 v 2.362205 2.362205 H 10.387352 8.6393212 Z m 0.519685,-3.76524 C 7.8471422,9.262226 6.6550692,7.7972685 6.6550692,6.6333704 c 0,-0.3934739 -0.104641,-0.4783753 -0.755905,-0.6133093 -1.606154,-0.3327752 -2.64567,-0.8976266 -2.64567,-1.4376026 0,-0.6408496 1.251718,-1.2693344 3.102585,-1.5578012 0.250456,-0.039035 0.429446,-0.1229161 0.460552,-0.2158326 0.376125,-1.1235066 0.997531,-1.85655557 1.989316,-2.34672247 0.674482,-0.3333471 0.776945,-0.3564419 1.5814048,-0.3564419 0.804461,0 0.906924,0.023095 1.581406,0.3564419 0.995487,0.4919962 1.477765,1.05024687 1.942707,2.24873727 0.08188,0.211077 0.184766,0.2591488 0.783679,0.3661804 0.77188,0.1379427 1.896977,0.4986496 2.224278,0.7131054 1.082999,0.7096083 0.705351,1.4114734 -1.056843,1.9641558 C 15.44963,5.883796 14.933501,6.0191635 14.715627,6.0550978 14.229534,6.1352698 14.162011,6.216492 14.084448,6.8143217 14.013278,7.3628986 13.681154,8.0848849 13.274159,8.5757699 12.903422,9.0229245 12.068108,9.573842 11.499053,9.746511 10.896521,9.929339 9.7476992,9.91166 9.1590062,9.710501 Z"
     id="path20"
     inkscape:connector-curvature="0" />
</svg>
