<?xml version="1.0" encoding="UTF-8" standalone="no"?>
<!-- Created with Inkscape (http://www.inkscape.org/) -->

<svg
   xmlns:dc="http://purl.org/dc/elements/1.1/"
   xmlns:cc="http://creativecommons.org/ns#"
   xmlns:rdf="http://www.w3.org/1999/02/22-rdf-syntax-ns#"
   xmlns:svg="http://www.w3.org/2000/svg"
   xmlns="http://www.w3.org/2000/svg"
   xmlns:sodipodi="http://sodipodi.sourceforge.net/DTD/sodipodi-0.dtd"
   xmlns:inkscape="http://www.inkscape.org/namespaces/inkscape"
   version="1.1"
   id="svg10"
   width="501.44"
   height="501.44"
   viewBox="0 0 501.44 501.44"
   sodipodi:docname="98419.svg"
   inkscape:version="0.92.1 r15371">
  <metadata
     id="metadata16">
    <rdf:RDF>
      <cc:Work
         rdf:about="">
        <dc:format>image/svg+xml</dc:format>
        <dc:type
           rdf:resource="http://purl.org/dc/dcmitype/StillImage" />
        <dc:title></dc:title>
      </cc:Work>
    </rdf:RDF>
  </metadata>
  <defs
     id="defs14" />
  <sodipodi:namedview
     pagecolor="#ffffff"
     bordercolor="#666666"
     borderopacity="1"
     objecttolerance="10"
     gridtolerance="10"
     guidetolerance="10"
     inkscape:pageopacity="0"
     inkscape:pageshadow="2"
     inkscape:window-width="1366"
     inkscape:window-height="706"
     id="namedview12"
     showgrid="false"
     inkscape:zoom="1.0709158"
     inkscape:cx="250.72"
     inkscape:cy="250.72"
     inkscape:window-x="-8"
     inkscape:window-y="219"
     inkscape:window-maximized="1"
     inkscape:current-layer="svg10" />
  <path
     style="fill:#000000;stroke-width:0.31999999"
     d="m 84.95916,501.82745 c -1.89057,-0.71239 -3.5443,-2.12436 -4.49207,-3.83546 l -0.94793,-1.71136 -0.0813,-150.62112 -0.0813,-150.62113 -18.478658,-0.12396 C 40.874757,194.78022 41.154891,194.80241 35.288453,192.88741 22.862179,188.83107 12.443639,178.06485 8.689305,165.40063 6.958786,159.5632 7.03867,163.60653 7.046271,82.23871 7.053271,7.23736 7.055371,6.996095 7.705135,5.560626 8.958175,2.792482 11.220192,1.164329 14.246991,0.851936 17.43816,0.522578 20.330245,2.080157 21.947632,4.99924 l 0.931611,1.681386 0.08356,69.520004 0.08356,69.52 h 16.156442 16.156438 l 0.007,-69.36 c 0.007,-69.087679 0.0096,-69.365658 0.658864,-70.800004 2.829568,-6.250919 11.165811,-6.378925 14.456794,-0.221988 l 0.717342,1.341988 0.08356,69.520004 0.08356,69.52 H 87.5228 103.67924 l 0.007,-69.36 c 0.007,-69.087679 0.01,-69.365658 0.65886,-70.800004 2.82957,-6.250919 11.16582,-6.378925 14.4568,-0.221988 l 0.71734,1.341988 0.0836,69.520004 0.0836,69.52 h 16.15636 16.15644 l 0.007,-69.36 c 0.007,-69.087679 0.01,-69.365658 0.65886,-70.800004 2.82957,-6.250919 11.16582,-6.378925 14.4568,-0.221988 l 0.71734,1.341988 V 82.36063 c 0,71.70021 -0.0304,75.82933 -0.57775,78.51968 -1.77891,8.74341 -5.17001,15.32154 -11.00364,21.34512 -5.89833,6.09039 -12.49709,9.84664 -20.89861,11.89623 -2.5572,0.62385 -3.83565,0.67125 -21.36,0.79207 l -18.64,0.12851 -0.007,150.45919 -0.007,150.4592 -0.65183,1.44 c -1.31317,2.90096 -3.64055,4.4912 -6.8447,4.6768 -1.06118,0.0614 -2.36141,-0.051 -2.88941,-0.24998 z m 48,-323.58623 c 4.82347,-1.45448 9.79858,-4.54765 12.53585,-7.7939 2.20655,-2.61682 4.90415,-7.25565 4.90415,-8.43322 0,-0.17697 -25.02588,-0.29347 -63.04,-0.29347 -34.671997,0 -63.039997,0.0679 -63.039997,0.15088 0,0.083 0.358304,0.96106 0.796232,1.95129 3.274238,7.40363 10.385563,13.09436 18.370232,14.70049 1.704365,0.34283 10.383949,0.41273 44.833533,0.36102 40.19084,-0.0603 42.83367,-0.0984 44.64,-0.64309 z m 17.28,323.59285 c -1.04267,-0.3857 -2.95595,-1.7119 -3.60721,-2.50042 -0.888,-1.07513 -1.64848,-2.87731 -1.84263,-4.36659 -0.25219,-1.93456 0.34035,-13.83904 0.97383,-19.56502 6.34962,-57.39338 40.19131,-107.50845 91.19601,-135.04928 22.07248,-11.9184 46.53559,-18.80877 72.48,-20.41499 3.25135,-0.20129 3.39621,-0.24258 4.48,-1.27695 1.51212,-1.44318 3.12657,-2.06019 5.39064,-2.06019 2.23781,0 3.78587,0.58328 5.4165,2.04079 l 1.19286,1.06625 5.28,0.37919 c 23.47123,1.68564 44.90858,7.51534 65.6,17.83943 17.89382,8.9282 31.47261,18.73293 45.77414,33.05181 7.03792,7.04647 11.30509,11.92106 16.40701,18.74253 21.64375,28.93853 33.67706,63.26733 34.68407,98.94714 0.16998,6.02275 0.12761,6.95456 -0.37616,8.27363 -2.45271,6.42237 -11.12685,7.05481 -14.40858,1.05059 -0.92259,-1.68794 -0.9385,-1.80336 -1.16221,-8.43136 -0.59872,-17.74099 -3.80793,-34.33824 -9.71437,-50.24042 -6.46944,-17.41795 -16.3766,-34.2599 -28.32953,-48.15958 -2.54906,-2.96422 -7.30167,-8 -7.55015,-8 -0.0683,0 -0.12422,24.89389 -0.12422,55.31978 0,60.25836 0.11021,56.5998 -1.77955,59.0774 -0.46439,0.60887 -1.63648,1.49456 -2.60467,1.96826 -4.05357,1.98323 -8.57364,0.48598 -10.76381,-3.56544 l -0.69197,-1.28 -0.0897,-63.04 -0.0897,-63.04 -3.59028,-2.6047 c -4.39472,-3.18826 -9.89529,-6.77684 -14.12601,-9.21581 -2.98922,-1.72323 -11.1809,-5.93949 -11.53971,-5.93949 -0.0905,0 -0.16458,15.52371 -0.16458,34.49718 v 34.49716 l -0.82886,1.66332 c -0.45591,0.91485 -1.35591,2.10007 -2,2.63383 -2.45824,2.03709 1.59264,1.92326 -65.18429,1.83177 -58.58257,-0.0802 -60.82746,-0.10486 -61.90685,-0.6791 -1.56341,-0.83171 -3.13233,-2.37523 -3.94804,-3.88416 l -0.69196,-1.28 -0.0869,-34.64 c -0.0478,-19.052 -0.17987,-34.64 -0.29347,-34.64 -0.1136,0 -2.30649,1.09859 -4.87308,2.44134 -7.78138,4.07092 -15.3163,8.76608 -21.38653,13.3264 l -2.96,2.22375 -0.0125,62.76425 c -0.011,55.0496 -0.0715,62.9002 -0.49224,63.87008 -0.8137,1.87578 -2.02361,3.18736 -3.74491,4.05962 -3.23847,1.64106 -7.2126,0.92262 -9.5363,-1.7239 -2.22508,-2.53424 -2.03698,2.48704 -2.21403,-59.10359 l -0.16,-55.66205 -3.21062,3.50205 c -18.44425,20.11847 -31.16642,43.61104 -37.56867,69.37383 -2.84663,11.45488 -4.17488,21.23593 -4.67802,34.44822 -0.17151,4.50387 -0.33498,5.88186 -0.83513,7.04 -1.23956,2.8703 -3.60156,4.49046 -6.81815,4.6768 -1.06117,0.0614 -2.36141,-0.0481 -2.88941,-0.24336 z m 220.32,-124.74368 v -32.95024 l -4.08,-1.27507 c -8.77491,-2.74231 -17.26707,-4.62231 -26.05974,-5.76909 -3.88887,-0.5072 -11.49575,-1.27382 -12.82026,-1.29206 -0.132,-0.003 -0.24,4.79456 -0.24,10.65862 0,11.94781 -0.12915,12.89222 -2.07363,15.16394 -3.86445,4.51472 -11.13521,3.27488 -13.46275,-2.29572 -0.37495,-0.89737 -0.46362,-3.25836 -0.46362,-12.34534 v -11.23574 l -2,0.18259 c -7.53179,0.68765 -9.84504,0.94333 -13.68,1.51197 -7.88898,1.16979 -15.67647,2.96972 -23.6,5.45472 l -4.24,1.32976 v 32.90595 32.90595 h 51.36 51.36 z m -112.64207,80.65126 c -3.59577,-1.09379 -5.87074,-4.07257 -5.88148,-7.70102 -0.0104,-3.50214 2.00446,-6.37718 5.27868,-7.53238 1.85266,-0.65367 24.77814,-0.66317 26.60552,-0.0109 5.55141,1.98108 7.0986,8.95363 2.91511,13.13715 -2.33655,2.33654 -2.84795,2.41065 -16.41384,2.37875 -6.43606,-0.015 -12.06285,-0.13728 -12.50399,-0.27146 z m 52.74979,-0.20492 c -0.91596,-0.28192 -2.04217,-0.99373 -2.91616,-1.84317 -4.22798,-4.10912 -2.67371,-11.21165 2.88779,-13.19635 0.97414,-0.34765 7.66017,-0.42983 35.44065,-0.43549 33.7703,-0.007 34.25974,0.003 35.68,0.6448 1.93379,0.87536 3.12826,2.0511 4.03734,3.97411 2.00983,4.25133 -0.16342,9.34698 -4.63641,10.87107 -2.08928,0.71191 -68.17728,0.69786 -70.49321,-0.015 z m 2.13228,-162.57806 c -19.05459,-1.58636 -36.13819,-8.3612 -50.8792,-20.17715 -16.10041,-12.9056 -27.92873,-32.279 -32.00785,-52.42507 -1.38349,-6.83282 -1.81571,-11.92515 -1.69891,-20.01621 l 0.10596,-7.34011 -18.3658,2.5e-4 c -11.56356,1.6e-4 -18.81794,-0.1215 -19.58655,-0.32846 -1.80025,-0.48476 -3.82115,-2.18042 -4.75018,-3.9857 -0.63588,-1.23564 -0.81535,-2.05244 -0.80792,-3.67705 0.0114,-2.49083 0.69301,-4.08414 2.49554,-5.83344 2.25774,-2.19106 2.07908,-2.1751 24.35431,-2.1751 h 19.86324 l 10.03726,-39.12 c 5.52049,-21.516 10.44916,-40.2 10.9526,-41.52 1.48896,-3.90403 3.09962,-6.33217 6.36801,-9.6 4.18783,-4.18714 8.78595,-6.72851 14.146,-7.81845 3.0396,-0.61809 8.35411,-0.63995 11.13349,-0.0458 1.144,0.24456 9.58708,2.69005 18.76239,5.43445 9.17532,2.74438 16.93844,4.98979 17.25137,4.98979 0.31293,0 8.04035,-2.24088 17.172,-4.97972 9.13165,-2.73885 17.56854,-5.18435 18.74864,-5.43445 2.78637,-0.59051 8.07267,-0.59017 10.8816,6.4e-4 5.1968,1.09318 9.63248,3.40949 13.4215,7.00869 2.89533,2.75026 4.83472,5.39864 6.34132,8.65944 1.23251,2.66764 1.34921,3.13075 13.1278,52.09632 l 7.29124,30.31098 20.34108,0.089 c 20.237,0.0886 20.34778,0.0926 21.65136,0.79016 1.52557,0.81635 3.22205,2.64308 3.84973,4.1453 0.63549,1.52094 0.54855,4.80925 -0.168,6.35355 -0.76662,1.65233 -2.36819,3.15769 -4.23817,3.98361 -1.44215,0.63695 -2.0297,0.65639 -19.84,0.65638 l -18.35386,-1e-5 -0.0198,8.56001 c -0.0166,7.18283 -0.13475,9.30652 -0.73341,13.20001 -3.03897,19.76426 -11.26771,36.45062 -24.98214,50.65912 -14.24403,14.75719 -32.33056,23.87425 -53.46448,26.95038 -3.26723,0.47556 -15.18013,0.85661 -18.4,0.58854 z m 13.12,-16.1167 c 14.82819,-1.3401 30.05286,-7.61405 41.28,-17.01107 3.90557,-3.26894 9.43811,-9.06036 12.18032,-12.75027 8.55053,-11.50556 13.55882,-24.54855 14.87363,-38.73498 0.38631,-4.1682 0.26029,-13.61798 -0.1975,-14.81099 -0.19056,-0.49659 -5.43731,-0.53403 -74.84611,-0.53403 h -74.64119 l -0.2018,1.68 c -0.31763,2.64446 -0.24092,12.6187 0.12004,15.60839 2.69635,22.33241 14.79455,42.07 33.27261,54.28255 14.20132,9.38596 31.4498,13.7806 48.16,12.2704 z m 64.67005,-100.40134 c -0.0952,-0.308 -4.136,-17.03308 -8.97955,-37.16684 -5.0721,-21.08374 -9.13575,-37.32604 -9.58295,-38.30288 -0.99936,-2.1829 -3.09149,-4.2618 -5.45033,-5.41588 -1.46266,-0.71561 -2.43092,-0.9415 -4.4626,-1.04112 -2.58563,-0.12678 -2.65996,-0.1076 -21.47462,5.54274 -13.30842,3.99672 -19.35216,5.67294 -20.48,5.68009 -1.16891,0.007 -6.71724,-1.52334 -20.59275,-5.68139 l -18.99274,-5.69154 -2.60726,0.1442 c -2.1043,0.11639 -2.97762,0.33438 -4.52725,1.13004 -2.28518,1.17334 -4.22586,3.02854 -5.37316,5.13652 -0.70004,1.28621 -9.07892,33.18298 -19.37214,73.74606 l -0.62932,2.48 h 71.34887 c 67.80393,0 71.34028,-0.0278 71.1758,-0.56 z"
     id="path20"
     inkscape:connector-curvature="0" />
</svg>
