<?xml version="1.0" encoding="UTF-8" standalone="no"?>
<!-- Created with Inkscape (http://www.inkscape.org/) -->

<svg
   xmlns:dc="http://purl.org/dc/elements/1.1/"
   xmlns:cc="http://creativecommons.org/ns#"
   xmlns:rdf="http://www.w3.org/1999/02/22-rdf-syntax-ns#"
   xmlns:svg="http://www.w3.org/2000/svg"
   xmlns="http://www.w3.org/2000/svg"
   xmlns:sodipodi="http://sodipodi.sourceforge.net/DTD/sodipodi-0.dtd"
   xmlns:inkscape="http://www.inkscape.org/namespaces/inkscape"
   version="1.1"
   id="svg10"
   width="703"
   height="593.8407"
   viewBox="0 0 703 593.8407"
   sodipodi:docname="farmer_final.svg"
   inkscape:version="0.92.1 r15371">
  <metadata
     id="metadata16">
    <rdf:RDF>
      <cc:Work
         rdf:about="">
        <dc:format>image/svg+xml</dc:format>
        <dc:type
           rdf:resource="http://purl.org/dc/dcmitype/StillImage" />
        <dc:title></dc:title>
      </cc:Work>
    </rdf:RDF>
  </metadata>
  <defs
     id="defs14" />
  <sodipodi:namedview
     pagecolor="#ffffff"
     bordercolor="#666666"
     borderopacity="1"
     objecttolerance="10"
     gridtolerance="10"
     guidetolerance="10"
     inkscape:pageopacity="0"
     inkscape:pageshadow="2"
     inkscape:window-width="1920"
     inkscape:window-height="1017"
     id="namedview12"
     showgrid="false"
     inkscape:zoom="0.90428292"
     inkscape:cx="171.7996"
     inkscape:cy="296.92035"
     inkscape:window-x="1432"
     inkscape:window-y="-8"
     inkscape:window-maximized="1"
     inkscape:current-layer="svg10" />
  <path
     style="fill:#ffffff;stroke-width:0.92171443;fill-opacity:0.96862745"
     d="m 114.08628,520.89902 c -8.10029,-2.37907 -14.4088,-7.56207 -18.80126,-15.4469 -2.10859,-3.78511 -2.13466,-4.54617 -2.62971,-76.77067 l -0.5,-72.94766 -4.305655,-0.32931 c -2.368113,-0.18111 -5.590114,-0.8936 -7.160002,-1.58328 -3.818284,-1.67746 -8.850817,-6.96659 -10.11864,-10.63456 -0.675628,-1.95467 -0.922911,-24.65888 -0.721732,-66.26549 l 0.306033,-63.29203 2.316439,-4.87267 c 5.383281,-11.32383 14.81714,-19.855 26.369377,-23.8462 5.04704,-1.74371 7.13735,-1.85028 41.58212,-2.12006 24.37694,-0.19092 38.05531,0.0312 41.71948,0.67742 13.10924,2.31204 24.49292,10.04695 30.38807,20.6479 3.07969,5.53805 4.23569,9.30061 11.92805,38.82334 l 4.7592,18.26549 h 8.96864 8.96863 l 0.26884,-19.34796 c 0.20925,-15.05988 -0.0124,-19.41604 -1,-19.65518 -0.69786,-0.16898 -3.29384,-0.77285 -5.76884,-1.34193 -5.75646,-1.3236 -12.13595,-6.8189 -14.36341,-12.37264 -1.33524,-3.32917 -1.63659,-7.80709 -1.63659,-24.31859 V 163.93 h 7.5 7.5 v 19.00048 c 0,17.93587 0.11613,19.12589 2.07258,21.23894 1.13992,1.23115 2.93992,2.23846 4,2.23846 1.85183,0 1.92742,-0.83297 1.92742,-21.23894 V 163.93 h 7.5 7.5 v 21.23894 c 0,22.93459 0.0475,23.11601 5.13922,19.61627 2.34046,-1.60871 2.36338,-1.79156 2.66304,-21.23894 L 270.75984,163.93 h 7.51014 7.51015 l -0.31241,21.45133 -0.3124,21.45133 -2.73542,4.40749 c -3.27356,5.27458 -8.22642,8.69169 -14.58513,10.06267 l -4.67945,1.00892 -0.25221,19.02153 -0.25221,19.02151 6.20275,2.54867 c 5.28093,2.16991 6.63748,3.21808 9.12807,7.05299 4.06799,6.26371 4.17203,13.26591 0.29708,19.9945 -2.97431,5.16469 -6.237,7.63522 -11.66002,8.82902 l -3.46346,0.76244 -0.25386,106.77787 -0.25386,106.77787 h -7.99614 -7.99614 V 406.47867 299.85921 h -14.32186 c -18.1952,0 -21.96954,-0.97314 -29.90933,-7.71151 l -5.73119,-4.86397 -0.26881,106.32314 -0.26881,106.32313 -2.41263,5.09108 c -3.49166,7.36805 -11.84852,14.27312 -19.58707,16.18434 -9.34746,2.30856 -17.74925,0.48207 -25.96192,-5.64394 l -3.51723,-2.62356 -4.65663,3.48227 c -4.77708,3.57236 -12.12152,6.04664 -17.79603,5.99535 -1.68768,-0.0153 -5.34956,-0.69769 -8.13753,-1.51652 z m 60.28676,-16.07099 c 1.23588,-0.68795 3.26748,-2.6449 4.51467,-4.34877 l 2.26761,-3.09793 0.26104,-149.04141 c 0.20876,-119.19526 0.009,-149.1776 -1,-149.72151 -0.69357,-0.37405 -2.94854,-0.68594 -5.01104,-0.6931 l -3.75,-0.013 v 19.53982 19.53982 h -26.48124 -26.48122 l -0.26878,-19.32743 -0.26877,-19.32744 -2.87083,-0.27872 c -1.57896,-0.1533 -3.82896,-0.0744 -5,0.17522 l -2.12917,0.45395 0.5,149.77168 0.5,149.77168 2.32884,2.77388 c 3.31644,3.95021 7.52731,5.57954 13.05252,5.05045 5.42972,-0.51992 10.34149,-4.45899 12.03999,-9.65562 0.71348,-2.18293 1.06935,-24.74867 1.07307,-68.04482 l 0.006,-64.77876 h 7.5 7.5 v 65.10497 c 0,48.53087 0.30848,65.97969 1.21174,68.54095 1.377,3.90459 6.58467,8.76637 9.99658,9.33262 3.17787,0.52741 7.83467,-0.23763 10.50941,-1.72653 z M 91.455314,338.76894 c 0.912956,-0.77561 1.194676,-16.67721 1.177766,-66.47787 -0.0221,-65.12303 -0.0323,-65.44753 -1.977893,-63.33452 -1.07561,1.16814 -2.753104,4.0354 -3.727764,6.37168 -1.631451,3.91063 -1.772109,8.95361 -1.772109,63.53518 0,51.77539 0.190057,59.38948 1.5,60.09318 2.01969,1.08498 3.363866,1.03243 4.8,-0.18765 z m 173.000006,-56.0708 c 0.66,-0.5607 1.2,-1.8223 1.2,-2.80354 0,-3.56929 -1.44338,-3.823 -21.74966,-3.823 -20.75866,0 -23.39701,-0.44391 -26.49244,-4.4574 -0.8465,-1.09757 -4.77415,-14.33264 -8.7281,-29.41128 -3.95396,-15.07863 -7.94069,-28.82317 -8.85941,-30.54342 -1.65185,-3.093 -1.67346,-2.9721 -1.9465,10.88997 l -0.27611,14.0177 4.58876,16.14159 c 6.49297,22.83995 6.24513,22.16248 9.19839,25.14421 5.17843,5.22837 8.37525,5.82516 31.31507,5.84599 14.6758,0.0133 20.89302,-0.27276 21.75,-1.00082 z M 155.65531,209.77829 v -11.92163 l -11.00402,0.24021 c -6.05221,0.13212 -11.00221,0.52694 -11,0.87738 0.002,0.35044 0.004,5.60708 0.004,11.68142 v 11.04425 h 11 11 v -11.92163 z m 165.49055,303.10746 c -0.24568,-0.58407 -6.73647,-24.3823 -14.42398,-52.88495 -7.68751,-28.50266 -18.04738,-66.6965 -23.02192,-84.87522 l -9.04464,-33.05221 V 325.31178 308.5502 l 2.46482,-1.37205 c 1.35565,-0.75463 2.81815,-1.36822 3.25,-1.36355 0.43185,0.004 3.18149,8.89317 6.11031,19.75222 2.92882,10.85904 12.46355,46.31362 21.1883,78.78796 8.72474,32.47434 18.81593,69.87232 22.42487,83.10664 3.60893,13.23431 6.5617,24.60776 6.5617,25.27433 0,1.62675 -14.82796,1.77017 -15.50946,0.15 z m 48.5664,-73.06194 c -17.21261,-40.30089 -37.03832,-86.65487 -44.05713,-103.00885 -7.01881,-16.35398 -18.04668,-42.15929 -24.50637,-57.34513 -6.45968,-15.18584 -12.19341,-28.0885 -12.74161,-28.67257 -0.6101,-0.65003 -3.47048,-1.06195 -7.37427,-1.06195 h -6.37756 v -7.64601 -7.64602 h 182.5 182.5 v 7.64602 7.64601 H 492.54833 c -131.66229,0 -147.04532,0.13654 -146.5196,1.30042 0.32306,0.71523 10.20635,16.48515 21.96288,35.04425 11.75652,18.55911 36.48921,57.63763 54.96154,86.84117 18.47233,29.20354 45.92173,72.59469 60.99865,96.42478 l 27.4126,43.32743 -8.52737,0.24761 c -6.01731,0.17472 -8.86872,-0.0754 -9.68701,-0.84956 -0.96278,-0.91091 -54.69303,-85.48588 -149.12047,-234.72548 l -17.20113,-27.18584 -10.58655,-0.24113 c -6.02074,-0.13713 -10.58655,0.0977 -10.58655,0.54443 0,0.6602 48.92029,115.0642 97.95571,229.07723 7.03362,16.35398 13.1013,30.59469 13.48373,31.64602 0.68292,1.87737 0.54547,1.9115 -7.69576,1.9115 h -8.39109 z m 155.18121,72.21238 c -1.63267,-1.72219 -8.40251,-13.52408 -7.969,-13.89237 0.21863,-0.18574 27.92252,-0.33771 61.56418,-0.33771 h 61.16667 v 7.64601 7.64602 h -56.87756 c -44.29844,0 -57.1002,-0.23486 -57.88429,-1.06195 z m -60.65635,-95.45873 c -2.51999,-4.02442 -4.5818,-7.46513 -4.5818,-7.64602 0,-0.18088 40.5,-0.32887 90,-0.32887 h 90 v 7.64602 7.64601 h -85.4182 -85.41821 z m -45.89107,-72.54963 -4.80926,-7.63765 h 113.05926 113.05927 v 7.64602 7.64601 l -108.25,-0.008 -108.25,-0.009 -4.80927,-7.63765 z m -30.43918,-48.6288 c -1.38226,-1.47773 -9.25155,-13.82403 -9.25155,-14.51495 0,-0.31059 58.725,-0.5647 130.5,-0.5647 h 130.5 v 8.0708 8.0708 H 514.27776 c -99.10559,0 -125.5857,-0.22253 -126.37089,-1.06195 z m -64.02186,-113.84071 0.34938,-41.8407 2.76896,-8.49558 c 9.4599,-29.02438 31.01574,-50.080696 60.15197,-58.758067 l 8,-2.382564 60.35738,-0.263544 c 58.10162,-0.253695 60.66037,-0.198452 68.46439,1.478126 29.82616,6.407704 53.58151,26.877459 64.12221,55.253479 5.0052,13.47421 5.60232,20.2177 5.31681,60.04501 l -0.26079,36.37977 h -7.5 -7.5 l -0.26313,-29.09734 -0.26313,-29.09735 h -40.48687 -40.48687 v 29.30974 29.30973 h -7.5 -7.5 l -0.003,-34.61947 c -0.002,-19.79425 -0.47082,-37.89375 -1.0957,-42.26548 -2.46151,-17.22113 -11.06278,-32.779 -24.40899,-44.15065 -12.93953,-11.02515 -26.31403,-16.4371 -42.60537,-17.24012 -33.03247,-1.62823 -61.99824,19.18814 -72.07356,51.79596 -2.05516,6.65131 -2.19849,9.27164 -2.55785,46.76295 l -0.38069,39.71681 h -7.49736 -7.49736 l 0.34939,-41.84071 z m 253.20296,-36.95575 c -1.16506,-6.81478 -5.26386,-17.80754 -9.04006,-24.24494 -9.22605,-15.72794 -23.81604,-27.12727 -41.89259,-32.73118 -6.7911,-2.10531 -7.87289,-2.18007 -36.25,-2.505 -16.0875,-0.1842 -29.24928,-0.20905 -29.24841,-0.0552 8.7e-4,0.15384 2.95111,2.93664 6.55607,6.18401 14.51404,13.07432 24.05471,29.5069 27.40003,47.19304 0.66285,3.50442 1.40212,7.23186 1.6428,8.28319 l 0.43761,1.9115 h 40.54222 40.54223 z m -204.96053,77.76675 c -0.27442,-0.60754 -0.38041,-14.29166 -0.23553,-30.40914 l 0.26341,-29.30451 h 38 38 v 30.15929 30.15929 l -13,0.19985 -13,0.19985 -17,-17.191 -17,-17.191 -0.5,16.99115 -0.5,16.99115 -7.26446,0.24986 c -5.25839,0.18086 -7.40225,-0.0552 -7.76342,-0.85479 z m 60.52788,-27.43047 v -16.56637 h -16.08333 c -8.84584,0 -15.93334,0.3339 -15.75,0.742 0.34372,0.76513 31.13683,32.32106 31.58333,32.36573 0.1375,0.0138 0.25,-7.42985 0.25,-16.54136 z M 137.65868,174.3998 c -1.37314,-0.24651 -5.33114,-1.54007 -8.79556,-2.87459 -11.07019,-4.26433 -20.61737,-14.51055 -24.69006,-26.49786 l -1.65966,-4.88496 H 92.08436 81.655314 v -7.64601 -7.64602 h 10.461456 10.46146 l 1.07607,-3.61062 c 8.80794,-29.55388 43.84152,-40.810801 67.60031,-21.72119 6.60939,5.31048 9.89033,9.80769 13.50208,18.50741 l 2.65685,6.39962 10.54835,0.24051 10.54836,0.2405 0.32253,7.26777 c 0.1774,3.99727 0.13504,7.42533 -0.0941,7.6179 -0.22919,0.19258 -5.20154,0.35013 -11.04969,0.35013 h -10.633 l -2.1515,6.21274 c -5.46846,15.79096 -21.07334,27.38963 -37.90527,28.17395 -3.76415,0.1754 -7.96739,0.11722 -9.34054,-0.12928 z m 13.9101,-16.04879 c 6.4296,-1.62214 13.28274,-6.72284 16.67603,-12.41175 1.32577,-2.2227 2.41051,-4.43627 2.41051,-4.91907 0,-0.58151 -8.77566,-0.8778 -26.00001,-0.8778 -14.3,0 -26,0.21483 -26,0.4774 0,0.26255 1.15,2.54256 2.55555,5.06667 3.12662,5.61485 10.13765,11.04922 16.35357,12.67596 6.02434,1.57659 7.71548,1.57522 14.00435,-0.0114 z m 18.52724,-36.26171 c -3.5123,-9.673 -14.03299,-16.77876 -24.84237,-16.77876 -11.34234,0 -20.13879,5.4411 -25.06549,15.50442 l -1.55969,3.18584 h 26.08081 26.08082 z m 229.98294,6.72136 c -0.28247,-0.62537 -0.38085,-4.16165 -0.21861,-7.8584 l 0.29497,-6.72137 10.75,-0.24113 10.75,-0.24113 v 8.09954 8.09953 h -10.53138 c -7.87357,0 -10.661,-0.28695 -11.04498,-1.13704 z"
     id="path20"
     inkscape:connector-curvature="0" />
</svg>
