<?xml version="1.0" encoding="UTF-8" standalone="no"?>
<!-- Created with Inkscape (http://www.inkscape.org/) -->

<svg
   xmlns:dc="http://purl.org/dc/elements/1.1/"
   xmlns:cc="http://creativecommons.org/ns#"
   xmlns:rdf="http://www.w3.org/1999/02/22-rdf-syntax-ns#"
   xmlns:svg="http://www.w3.org/2000/svg"
   xmlns="http://www.w3.org/2000/svg"
   xmlns:sodipodi="http://sodipodi.sourceforge.net/DTD/sodipodi-0.dtd"
   xmlns:inkscape="http://www.inkscape.org/namespaces/inkscape"
   version="1.1"
   id="svg10"
   width="710.40002"
   height="621.33331"
   viewBox="0 0 710.40002 621.33331"
   sodipodi:docname="noun_1097304_cc.svg"
   inkscape:version="0.92.1 r15371">
  <metadata
     id="metadata16">
    <rdf:RDF>
      <cc:Work
         rdf:about="">
        <dc:format>image/svg+xml</dc:format>
        <dc:type
           rdf:resource="http://purl.org/dc/dcmitype/StillImage" />
        <dc:title></dc:title>
      </cc:Work>
    </rdf:RDF>
  </metadata>
  <defs
     id="defs14" />
  <sodipodi:namedview
     pagecolor="#ffffff"
     bordercolor="#666666"
     borderopacity="1"
     objecttolerance="10"
     gridtolerance="10"
     guidetolerance="10"
     inkscape:pageopacity="0"
     inkscape:pageshadow="2"
     inkscape:window-width="1366"
     inkscape:window-height="706"
     id="namedview12"
     showgrid="false"
     inkscape:zoom="0.86427041"
     inkscape:cx="355.20001"
     inkscape:cy="310.66666"
     inkscape:window-x="-8"
     inkscape:window-y="219"
     inkscape:window-maximized="1"
     inkscape:current-layer="svg10" />
  <path
     style="fill:#000000;stroke-width:0.9477582"
     d="m 236.11343,492.93246 -2.18102,-1.55556 0.30663,-51.11111 0.30665,-51.11111 2.63888,-6.8148 c 4.19466,-10.8325 9.4077,-18.19638 18.47104,-26.09194 8.73379,-7.60848 11.92109,-9.23514 37.48863,-19.13249 6.66947,-2.58179 12.29319,-4.80928 12.49716,-4.94996 0.20396,-0.1407 -2.08491,-2.85826 -5.08638,-6.03904 -17.75759,-18.81848 -29.3124,-48.60782 -27.96412,-72.09399 l 0.37479,-6.52861 -11.63703,-3.26352 c -6.40039,-1.79493 -14.70645,-4.67301 -18.45794,-6.39571 -27.11389,-12.45091 -26.35572,-30.61696 1.77344,-42.49257 8.48517,-3.58227 28.76473,-9.30846 32.96639,-9.30846 2.17678,0 2.23519,-0.27679 4.87739,-23.11111 1.10311,-9.53333 2.74337,-19.23101 3.64502,-21.5504 2.04939,-5.27178 9.22227,-12.3931 14.93158,-14.82425 4.22137,-1.79754 5.73239,-1.84705 55.80927,-1.82805 57.7821,0.022 55.75506,-0.19137 63.57785,6.68979 6.92616,6.09245 8.48162,10.59276 11.28091,32.6383 1.38024,10.86993 2.82436,20.29844 3.20917,20.95226 0.3848,0.65383 5.54709,2.28521 11.47175,3.62531 27.14661,6.14029 43.2475,15.98564 45.00636,27.52043 0.429,2.81348 -0.0625,4.73064 -2.19602,8.56658 -5.07025,9.11577 -19.39429,16.25109 -43.59594,21.71668 l -4.14791,0.93676 -0.61068,13.11162 c -0.65214,14.00162 -2.65474,23.56851 -7.30325,34.8894 -5.1964,12.65521 -12.74008,23.9505 -21.51766,32.21877 l -4.47864,4.21877 5.43988,2.13 c 21.07311,8.25121 33.32784,13.5527 37.38772,16.1742 12.33017,7.96168 22.43227,20.93214 27.30691,35.06036 2.24144,6.49638 2.2996,7.71759 2.64648,55.57288 0.35363,48.78453 0.34827,48.93771 -1.79399,51.33333 l -2.14867,2.40279 H 357.35126 c -111.88289,0 -119.18822,-0.0937 -121.23783,-1.55555 z m 27.18394,-69.33333 -0.0364,-58.44444 -2.5774,2.66666 c -5.15923,5.33789 -9.49834,12.01246 -12.2346,18.81971 l -2.79688,6.95807 -0.31392,44.22222 -0.31392,44.22222 h 9.1547 9.15471 l -0.0364,-58.44444 z m 174.8574,-3.61315 V 357.92839 L 434.7209,356.488 c -1.88863,-0.79221 -3.70758,-1.19963 -4.04211,-0.90537 -0.33453,0.29426 -0.60823,16.40636 -0.60823,35.80466 0,34.72712 -0.0327,35.29569 -2.12715,36.96296 -2.04806,1.63037 -4.69253,1.69332 -71.13601,1.69332 -66.44348,0 -69.08795,-0.0629 -71.13601,-1.69332 -2.09555,-1.66817 -2.12715,-2.22598 -2.12715,-37.55556 0,-19.72422 -0.24996,-35.86223 -0.55545,-35.86223 -0.30549,0 -1.89707,0.61028 -3.53684,1.35616 l -2.9814,1.35616 v 62.1994 62.19939 h 80.84211 80.84211 z m 30.10692,17.39092 -0.29639,-44.66666 -2.69764,-6.49492 c -2.7243,-6.5591 -9.35854,-16.41151 -13.0061,-19.31516 -1.96503,-1.56427 -1.98047,-1.12165 -1.98047,56.78342 v 58.35999 h 9.1385 9.1385 z m -50.31745,-54.28052 v -34.0583 l -10.88834,-4.16123 -10.88834,-4.16121 -7.83934,3.46421 c -10.88396,4.80963 -20.19174,6.70449 -32.53135,6.62267 -8.53824,-0.0566 -11.56917,-0.50133 -19.5456,-2.86787 -5.19217,-1.54048 -11.45936,-3.84167 -13.92705,-5.11377 l -4.48674,-2.3129 -9.8203,3.84043 c -5.40117,2.11223 -10.38873,4.20671 -11.08347,4.65441 -0.972,0.62637 -1.26316,8.5745 -1.26316,34.48292 v 33.66894 h 61.13685 61.13684 z M 370.90192,337.5739 c 18.19342,-4.16839 35.87979,-18.08045 46.29963,-36.41921 7.05362,-12.4143 11.84612,-30.25421 11.85442,-44.12773 l 0.004,-6.79441 -3.88526,0.76788 c -30.26762,5.98208 -105.52216,5.96913 -135.84257,-0.0234 -5.02274,-0.99269 -5.2348,-0.48197 -4.34244,10.45824 0.86783,10.6394 3.46521,21.34998 7.60975,31.37957 8.96703,21.69977 29.13857,39.85538 49.68031,44.71528 7.21751,1.70756 21.26645,1.72904 28.6221,0.0437 z m 24.30548,-95.60149 c 39.42502,-2.91515 77.53287,-13.08413 82.83579,-22.1045 1.60929,-2.7374 0.53282,-5.0738 -3.67481,-7.976 -5.65469,-3.90028 -19.92385,-9.01524 -33.6873,-12.07564 -14.26677,-3.17231 -17.64777,-4.75987 -17.7095,-8.31559 -0.0139,-0.8014 -1.33233,-11.15503 -2.92981,-23.00807 -3.09507,-22.9649 -4.20174,-26.43 -9.56661,-29.95418 -2.70826,-1.77906 -4.12012,-1.83458 -52.55391,-2.06658 l -49.77088,-0.23842 -3.46096,2.0506 c -6.54859,3.87999 -7.55038,6.81844 -10.87409,31.89631 -1.66226,12.54187 -3.51242,23.60901 -4.11149,24.59364 -0.77736,1.27765 -3.18939,2.20183 -8.4244,3.22782 -26.20994,5.13677 -46.24046,13.62597 -46.24046,19.59735 0,4.22956 10.28108,10.00105 26.14179,14.67525 32.88271,9.69063 84.05234,13.39321 134.02664,9.69801 z"
     id="path20"
     inkscape:connector-curvature="0" />
</svg>
