<?xml version="1.0" encoding="UTF-8" standalone="no"?>
<!-- Created with Inkscape (http://www.inkscape.org/) -->

<svg
   xmlns:dc="http://purl.org/dc/elements/1.1/"
   xmlns:cc="http://creativecommons.org/ns#"
   xmlns:rdf="http://www.w3.org/1999/02/22-rdf-syntax-ns#"
   xmlns:svg="http://www.w3.org/2000/svg"
   xmlns="http://www.w3.org/2000/svg"
   xmlns:sodipodi="http://sodipodi.sourceforge.net/DTD/sodipodi-0.dtd"
   xmlns:inkscape="http://www.inkscape.org/namespaces/inkscape"
   version="1.1"
   id="svg10"
   width="501.44"
   height="501.44"
   viewBox="0 0 501.44 501.44"
   sodipodi:docname="124736.svg"
   inkscape:version="0.92.1 r15371">
  <metadata
     id="metadata16">
    <rdf:RDF>
      <cc:Work
         rdf:about="">
        <dc:format>image/svg+xml</dc:format>
        <dc:type
           rdf:resource="http://purl.org/dc/dcmitype/StillImage" />
        <dc:title></dc:title>
      </cc:Work>
    </rdf:RDF>
  </metadata>
  <defs
     id="defs14" />
  <sodipodi:namedview
     pagecolor="#ffffff"
     bordercolor="#666666"
     borderopacity="1"
     objecttolerance="10"
     gridtolerance="10"
     guidetolerance="10"
     inkscape:pageopacity="0"
     inkscape:pageshadow="2"
     inkscape:window-width="1366"
     inkscape:window-height="706"
     id="namedview12"
     showgrid="false"
     inkscape:zoom="1.0709158"
     inkscape:cx="250.72"
     inkscape:cy="250.72"
     inkscape:window-x="-8"
     inkscape:window-y="219"
     inkscape:window-maximized="1"
     inkscape:current-layer="svg10" />
  <path
     style="fill:white;stroke-width:0.31999999"
     d="m 34.1288,502.14432 c -1.77084,-0.63316 -3.310544,-1.93111 -4.312216,-3.63511 l -0.887135,-1.50915 -0.08089,-228.4425 c -0.05523,-155.97291 0.02367,-228.830815 0.248711,-229.666546 0.485395,-1.802621 2.180177,-3.823815 3.985819,-4.753482 l 1.587741,-0.817472 13.87225,-0.16 13.87225,-0.16 1.02331,-2.72 C 65.66103,24.372836 68.70412,19.773874 73.72173,14.73942 80.63566,7.802272 88.06734,3.786881 97.48308,1.900991 c 4.28062,-0.857371 12.92788,-0.767144 17.3525,0.18106 15.18944,3.255121 27.84594,14.009661 33.18488,28.198009 l 1.02351,2.72 116.90274,0.16 116.90274,0.16 1.32563,0.708963 c 1.67661,0.896691 3.42211,2.920666 3.90298,4.525738 0.28,0.934493 0.37062,46.395376 0.36825,184.722429 l -0.003,183.48287 -0.76409,1.6 c -0.61946,1.29722 -9.4152,10.23898 -46.47687,47.24861 -25.14204,25.10675 -46.2168,45.91475 -46.8328,46.24 -1.08333,0.57203 -5.34218,0.59357 -130.08,0.65817 -107.17806,0.0555 -129.16279,-0.006 -130.16065,-0.36252 z m 248.79485,-57.38426 0.0858,-41.84 0.93161,-1.68138 c 0.51239,-0.92476 1.41009,-2.04633 1.9949,-2.49241 2.40381,-1.83347 0.14952,-1.74621 45.11371,-1.74621 h 41.39978 v -173.92 -173.92 H 261.73873 151.02802 l -0.093,30.48 -0.093,30.48 -0.72082,2.56 c -4.8028,17.05703 -23.02391,26.21523 -39.22786,19.71649 -8.47542,-3.39915 -14.74407,-10.39348 -17.52746,-19.55649 -0.71825,-2.36451 -0.73066,-2.68617 -0.83906,-21.751088 -0.0988,-17.375174 -0.0561,-19.492154 0.4176,-20.732637 2.42452,-6.348534 11.09812,-6.943542 14.3971,-0.987635 l 0.94793,1.71136 0.16,18.72 0.16,18.72 1.02676,2.16763 c 1.25164,2.6424 3.73938,5.22289 6.17324,6.40339 6.92342,3.3581 14.81162,0.45798 18.15132,-6.67338 l 0.88868,-1.89764 0.088,-29.68 0.088,-29.68 H 89.89744 44.76945 v 218.72 218.72 h 119.0342 119.03421 z M 98.10389,369.28064 c -0.99129,-0.30455 -2.03749,-0.96679 -2.9173,-1.8466 -4.15847,-4.15846 -2.58517,-11.20489 2.94221,-13.1774 0.99394,-0.35472 20.04244,-0.43037 110.64065,-0.4394 l 109.44,-0.0109 1.6178,0.75335 c 6.49961,3.02656 6.0038,12.44109 -0.77688,14.75149 -1.2766,0.43497 -13.46031,0.48646 -110.41792,0.46662 -95.39715,-0.0195 -109.17567,-0.0815 -110.52856,-0.49712 z m 0.0533,-47.98448 c -2.07842,-0.63971 -4.1826,-2.75298 -4.90414,-4.92533 -1.3742,-4.13733 0.60421,-8.35977 4.72337,-10.08087 1.04505,-0.43665 13.07796,-0.48956 110.70277,-0.48677 l 109.53028,0.003 1.6178,0.75333 c 6.58249,3.06516 5.95849,12.70676 -0.95588,14.7696 -2.35334,0.70211 -218.43085,0.66973 -220.7142,-0.0331 z m 0.30585,-47.92069 c -1.97891,-0.62617 -3.92842,-2.23219 -4.73693,-3.90235 -2.01861,-4.16989 -0.5334,-8.74603 3.50294,-10.79306 l 1.73518,-0.88 109.62262,0.003 109.62262,0.003 1.6178,0.75333 c 6.58249,3.06516 5.95849,12.70676 -0.95588,14.76961 -1.37629,0.41061 -15.49287,0.46766 -110.4,0.44622 -82.30914,-0.0186 -109.11097,-0.11606 -110.00835,-0.4 z m 0.0288,-48.0172 c -3.86025,-1.37945 -6.01943,-4.58713 -5.62968,-8.36343 0.31104,-3.01368 1.94346,-5.27777 4.70735,-6.52889 1.43961,-0.65166 1.4699,-0.65184 110.84287,-0.65886 84.97832,-0.005 109.69693,0.0798 110.72,0.38213 1.7577,0.51933 4.40865,3.17026 4.92797,4.92797 1.3202,4.46827 -0.95675,8.94943 -5.18892,10.21206 -1.37599,0.41052 -15.51395,0.46901 -110.4,0.45677 -88.14052,-0.0114 -109.04193,-0.0927 -109.97959,-0.42775 z m 0,-48 c -3.86025,-1.37945 -6.01943,-4.58713 -5.62968,-8.36343 0.31104,-3.01368 1.94346,-5.27777 4.70735,-6.52889 1.43961,-0.65166 1.4699,-0.65184 110.84287,-0.65886 84.97832,-0.005 109.69693,0.0798 110.72,0.38213 1.75226,0.51772 4.49988,3.24024 4.9666,4.92123 1.25475,4.51916 -1.01859,8.96309 -5.22755,10.2188 -1.37599,0.41052 -15.51395,0.46901 -110.4,0.45677 -88.14052,-0.0114 -109.04193,-0.0927 -109.97959,-0.42775 z m 231.55766,266.68179 31.03875,-31.04 H 329.96889 298.8495 v 31.04 c 0,17.072 0.0363,31.04 0.0806,31.04 0.0443,0 14.04806,-13.968 31.11938,-31.04 z m -198.59735,-411.6 c -1.01441,-1.922699 -3.16944,-4.748857 -5.07162,-6.651035 -3.7472,-3.747207 -8.21712,-6.308041 -13.47242,-7.718413 -3.88648,-1.04302 -10.50497,-1.033611 -14.37861,0.02044 -7.83422,2.131759 -15.03084,7.706412 -18.5239,14.349008 l -0.37862,0.72 h 26.10252 26.10252 z m 196.19527,469.86102 c -6.91488,-2.10342 -7.81589,-11.40873 -1.43792,-14.85033 l 1.28,-0.69069 43.92,-0.0845 43.92,-0.0845 V 267.90949 49.227826 l -2.48,-0.125347 c -2.76298,-0.139651 -4.23626,-0.711827 -5.8201,-2.260323 -3.93488,-3.847059 -2.93068,-10.165546 2.03828,-12.82527 1.23129,-0.659069 1.70928,-0.696826 8.82182,-0.696826 6.74154,0 7.64656,0.06285 8.74253,0.607158 1.55597,0.772746 2.92921,2.145975 3.82982,3.829818 l 0.70765,1.323024 v 228.8 228.8 l -0.71731,1.34198 c -0.39453,0.73812 -1.23507,1.84484 -1.86791,2.45943 -2.32992,2.26278 1.18845,2.1216 -52.11177,2.09107 -26.41267,-0.015 -48.38394,-0.13728 -48.82509,-0.27146 z m 125.44,0.0109 c -6.92301,-2.1991 -7.82666,-11.52144 -1.43792,-14.83414 0.8495,-0.44048 2.11411,-0.7135 3.76,-0.81181 l 2.48,-0.14809 V 267.88016 49.242386 l -2.48,-0.148102 c -1.64589,-0.09829 -2.9105,-0.371325 -3.76,-0.811808 -5.73693,-2.974726 -5.73693,-11.175952 0,-14.271626 1.20781,-0.651744 1.70451,-0.690694 8.80794,-0.690694 7.44464,0 7.5455,0.0091 9.11702,0.817472 1.78848,0.920013 3.48544,2.928301 3.98045,4.710611 0.22665,0.816138 0.32717,73.074341 0.31875,229.191921 -0.0102,189.64521 -0.0843,228.20198 -0.44074,229.20064 -0.63164,1.77001 -1.92972,3.31024 -3.63427,4.31222 l -1.50915,0.88714 -7.2,0.0633 c -3.96,0.0348 -7.56093,-0.0514 -8.00208,-0.19149 z"
     id="path20"
     inkscape:connector-curvature="0" />
</svg>
