<?xml version="1.0" encoding="UTF-8" standalone="no"?>
<!-- Created with Inkscape (http://www.inkscape.org/) -->

<svg
   xmlns:dc="http://purl.org/dc/elements/1.1/"
   xmlns:cc="http://creativecommons.org/ns#"
   xmlns:rdf="http://www.w3.org/1999/02/22-rdf-syntax-ns#"
   xmlns:svg="http://www.w3.org/2000/svg"
   xmlns="http://www.w3.org/2000/svg"
   xmlns:sodipodi="http://sodipodi.sourceforge.net/DTD/sodipodi-0.dtd"
   xmlns:inkscape="http://www.inkscape.org/namespaces/inkscape"
   version="1.1"
   id="svg10"
   width="720.51611"
   height="608"
   viewBox="0 0 720.51611 608"
   sodipodi:docname="noun_1020903_cc.svg"
   inkscape:version="0.92.1 r15371">
  <metadata
     id="metadata16">
    <rdf:RDF>
      <cc:Work
         rdf:about="">
        <dc:format>image/svg+xml</dc:format>
        <dc:type
           rdf:resource="http://purl.org/dc/dcmitype/StillImage" />
        <dc:title></dc:title>
      </cc:Work>
    </rdf:RDF>
  </metadata>
  <defs
     id="defs14" />
  <sodipodi:namedview
     pagecolor="#ffffff"
     bordercolor="#666666"
     borderopacity="1"
     objecttolerance="10"
     gridtolerance="10"
     guidetolerance="10"
     inkscape:pageopacity="0"
     inkscape:pageshadow="2"
     inkscape:window-width="1366"
     inkscape:window-height="706"
     id="namedview12"
     showgrid="false"
     inkscape:zoom="0.88322368"
     inkscape:cx="360.25806"
     inkscape:cy="304"
     inkscape:window-x="-8"
     inkscape:window-y="219"
     inkscape:window-maximized="1"
     inkscape:current-layer="svg10" />
  <path
     style="fill:#000000;stroke-width:0.94486177"
     d="m 118.14475,531.08135 c -8.5951,-3.60266 -15.33007,-9.29279 -19.82029,-16.74542 -6.64912,-11.03586 -6.2343,2.92713 -6.2343,-209.84802 0,-211.457177 -0.35941,-198.5321 5.82781,-209.577307 3.80942,-6.800449 13.81949,-14.925371 21.64647,-17.569906 l 6.04359,-2.041976 59.12434,-0.243335 c 37.827,-0.155682 60.53077,0.07397 63.02881,0.637543 6.88901,1.554204 13.5372,6.073776 21.58585,14.674487 4.26306,4.55546 8.67206,8.963744 9.79778,9.796174 1.92469,1.42324 9.32684,1.51351 124.10234,1.51351 h 122.05556 l 3.41259,1.94595 c 6.32443,3.60636 7.73143,6.06973 7.73143,13.53615 0,6.05815 -0.28763,7.02254 -2.97478,9.97428 -5.54757,6.0938 3.34341,5.73062 -134.06327,5.47617 l -124.12323,-0.22985 -5.90306,-2.4287 c -5.90271,-2.42856 -12.61105,-7.95369 -22.77801,-18.76048 l -4.47512,-4.75676 -55.67997,-0.23382 c -40.86611,-0.17159 -56.28547,0.0343 -57.95584,0.77386 -5.81893,2.57638 -5.46606,-10.17423 -5.46606,197.51401 0,211.63812 -0.55961,195.10597 6.70203,197.99305 3.11666,1.23913 24.89321,1.34875 228.02945,1.14791 l 224.58374,-0.22204 3.37463,-2.82738 3.37465,-2.82738 0.27131,-146.79424 c 0.2014,-108.97618 -0.0341,-147.41452 -0.91392,-149.20193 -0.65188,-1.32424 -2.34628,-3.17289 -3.76536,-4.10811 -2.54494,-1.67723 -5.28125,-1.70042 -200.63446,-1.70042 H 185.99513 v 121.54797 c 0,120.6422 -0.0157,121.57375 -2.10616,125.00691 -5.56424,9.13814 -20.16446,9.12906 -25.73291,-0.016 -2.10933,-3.46415 -2.11507,-3.88657 -1.84809,-136.18683 l 0.2678,-132.7119 2.15944,-2.44169 c 1.18768,-1.34294 3.70164,-3.32108 5.58657,-4.39587 l 3.42715,-1.95417 209.63923,0.22444 209.63922,0.22444 6.19354,2.4203 c 10.69771,4.18041 19.55282,12.74556 24.58892,23.78371 l 2.24979,4.93113 0.27506,150.72277 c 0.30268,165.8575 0.65192,156.15343 -6.0184,167.22448 -4.49537,7.46117 -11.22745,13.15034 -19.82563,16.75429 l -7.22453,3.02819 H 356.31771 125.36928 Z"
     id="path20"
     inkscape:connector-curvature="0" />
</svg>
