<?xml version="1.0" encoding="UTF-8" standalone="no"?>
<!-- Created with Inkscape (http://www.inkscape.org/) -->

<svg
   xmlns:dc="http://purl.org/dc/elements/1.1/"
   xmlns:cc="http://creativecommons.org/ns#"
   xmlns:rdf="http://www.w3.org/1999/02/22-rdf-syntax-ns#"
   xmlns:svg="http://www.w3.org/2000/svg"
   xmlns="http://www.w3.org/2000/svg"
   xmlns:sodipodi="http://sodipodi.sourceforge.net/DTD/sodipodi-0.dtd"
   xmlns:inkscape="http://www.inkscape.org/namespaces/inkscape"
   version="1.1"
   id="svg10"
   width="720.51611"
   height="619.15594"
   viewBox="0 0 720.51611 619.15594"
   sodipodi:docname="noun_989330_cc.svg"
   inkscape:version="0.92.1 r15371">
  <metadata
     id="metadata16">
    <rdf:RDF>
      <cc:Work
         rdf:about="">
        <dc:format>image/svg+xml</dc:format>
        <dc:type
           rdf:resource="http://purl.org/dc/dcmitype/StillImage" />
        <dc:title></dc:title>
      </cc:Work>
    </rdf:RDF>
  </metadata>
  <defs
     id="defs14" />
  <sodipodi:namedview
     pagecolor="#ffffff"
     bordercolor="#666666"
     borderopacity="1"
     objecttolerance="10"
     gridtolerance="10"
     guidetolerance="10"
     inkscape:pageopacity="0"
     inkscape:pageshadow="2"
     inkscape:window-width="1366"
     inkscape:window-height="706"
     id="namedview12"
     showgrid="false"
     inkscape:zoom="0.86730977"
     inkscape:cx="360.25806"
     inkscape:cy="355.6976"
     inkscape:window-x="-8"
     inkscape:window-y="219"
     inkscape:window-maximized="1"
     inkscape:current-layer="svg10" />
  <path
     style="fill:#000000;stroke-width:0.95349079"
     d="m 171.03211,619.23548 c -7.5872,-1.73958 -13.06924,-4.6079 -18.80347,-9.8384 -8.90874,-8.12611 -12.21629,-15.63445 -13.08507,-29.70383 l -0.65261,-10.56881 -14.45162,-0.47275 c -12.06865,-0.39481 -15.13246,-0.78187 -18.58064,-2.34739 -5.91122,-2.68378 -11.318586,-7.81741 -14.655727,-13.9138 -2.591803,-4.73479 -2.892658,-6.24623 -2.892658,-14.53211 0,-8.33518 0.293908,-9.79066 2.97851,-14.75008 3.078772,-5.68758 9.006105,-11.13851 15.226015,-14.00223 2.77139,-1.27597 6.44416,-1.66355 18.18257,-1.91875 l 14.70968,-0.31979 v -25.34181 -25.3418 l -13.16129,-0.45879 c -8.14672,-0.28398 -14.83909,-0.98666 -17.56485,-1.84425 -13.698237,-4.3098 -21.735504,-16.72527 -20.628428,-31.86557 0.885503,-12.11007 7.239001,-21.13461 18.075748,-25.67494 5.4229,-2.27205 7.08088,-2.50792 19.6014,-2.78858 l 13.67742,-0.3066 v -25.37041 -25.37041 l -14.19355,-0.30919 c -12.62959,-0.27514 -14.7429,-0.54812 -19.17912,-2.4775 -14.912843,-6.48583 -21.971135,-23.57703 -16.307246,-39.48696 1.62721,-4.57086 3.404344,-7.29178 6.976726,-10.68188 7.74318,-7.34809 10.82722,-8.33296 27.73544,-8.85712 l 14.45162,-0.44801 v -25.54128 -25.54129 l -14.45162,-0.47275 c -12.06865,-0.39481 -15.13246,-0.78187 -18.58064,-2.34739 -5.91122,-2.68378 -11.318586,-7.81741 -14.655727,-13.9138 -2.591803,-4.73479 -2.892658,-6.24623 -2.892658,-14.53211 0,-8.15133 0.322494,-9.83453 2.720171,-14.19744 3.515841,-6.39757 8.760784,-11.29524 15.003934,-14.01048 4.43622,-1.92938 6.54953,-2.20236 19.17912,-2.47749 l 14.19355,-0.30919 v -25.35482 -25.3548 l -13.70217,-0.34164 c -12.5077,-0.31185 -14.22254,-0.55885 -19.67162,-2.8335 C 87.601407,105.48855 81.666651,81.852989 93.735618,65.63241 100.20106,56.942922 107.22352,54.328884 125.8458,53.67973 l 13.16129,-0.458789 v -8.597669 c 0,-18.003225 9.1977,-32.216852 25.34615,-39.168532 l 6.13772,-2.6422 h 210.06452 210.06451 l 6.19354,2.76419 c 7.33327,3.27285 15.7606,10.56608 19.5166,16.890153 6.19259,10.426662 5.77373,-10.488613 5.77373,288.303847 0,196.40019 -0.32212,274.99774 -1.14073,278.34706 -3.81322,15.60144 -17.62965,28.00711 -34.17337,30.68402 -3.23534,0.5235 -82.33208,0.82349 -207.6655,0.7876 -174.80329,-0.05 -203.2114,-0.23488 -208.09215,-1.35393 z M 230.87806,311.06941 V 22.62905 h -26.16855 c -16.81907,0 -27.42219,0.358124 -29.67742,1.002366 -10.36382,2.96059 -15.35396,10.103379 -15.36976,22.000001 l -0.0103,7.589524 13.31467,0.410213 c 11.86065,0.365416 13.94486,0.673272 19.08528,2.819071 6.44717,2.691292 11.73121,7.605197 15.32226,14.248982 1.98513,3.672693 2.34231,5.810847 2.34231,14.021584 0,8.59539 -0.30283,10.238945 -2.68501,14.572297 -3.70263,6.735312 -8.29232,10.906762 -15.14996,13.769392 -5.22807,2.18239 -7.17142,2.46651 -19.02618,2.78165 l -13.20313,0.351 v 25.43714 25.43714 h 11.68361 c 7.41394,0 13.60158,0.48597 16.93197,1.32981 7.34226,1.86035 14.64869,7.6827 18.44588,14.69913 2.73974,5.06248 3.00306,6.39853 3.00306,15.23712 0,8.78681 -0.26408,10.14661 -2.83881,14.61727 -3.64154,6.32303 -9.04563,11.03997 -15.65796,13.66698 -4.64742,1.84637 -6.74506,2.08484 -18.40646,2.09246 l -13.16129,0.009 v 25.91508 25.91508 l 14.19354,0.28675 c 11.28203,0.22793 14.98612,0.62289 18.05725,1.92545 5.65463,2.39826 12.07857,8.24433 15.13571,13.77415 2.37613,4.29797 2.67802,5.93616 2.67802,14.53211 0,8.83858 -0.26332,10.17463 -3.00306,15.23712 -3.79719,7.01642 -11.10362,12.83877 -18.44588,14.69912 -3.33039,0.84384 -9.51803,1.32981 -16.93197,1.32981 h -11.68361 v 25.45284 25.45283 l 13.16129,0.30864 c 11.91219,0.27933 13.7179,0.54184 19.02617,2.76595 6.90172,2.89174 11.48627,7.05502 15.19204,13.79606 2.38219,4.33336 2.68502,5.97691 2.68502,14.5723 0,8.21074 -0.35718,10.34889 -2.34232,14.02158 -3.56756,6.60035 -8.87996,11.55973 -15.21549,14.20442 -4.99196,2.08382 -7.25592,2.41937 -19.08526,2.82873 l -13.42145,0.46445 v 25.33026 25.33027 l 14.19354,0.30463 c 13.27641,0.28496 14.5038,0.46026 18.9947,2.71275 7.11586,3.56909 12.77544,9.54307 15.38894,16.24382 1.85398,4.75341 2.1577,7.13561 1.75988,13.80335 -0.57075,9.56611 -2.79309,14.49823 -9.20831,20.43631 -7.3726,6.82426 -10.53578,7.78265 -26.93521,8.16094 l -14.19354,0.3274 0.0227,8.06234 c 0.0253,9.00084 1.67708,13.29042 6.79733,17.65233 5.49485,4.68105 6.91386,4.87032 36.79291,4.90763 l 27.61286,0.0345 z m 357.51516,287.23385 c 4.55493,-1.62381 10.48765,-7.71451 11.94349,-12.26156 0.88508,-2.76435 1.11285,-73.11079 0.89625,-276.80286 l -0.29039,-273.096619 -3.1018,-4.334567 c -2.33055,-3.2568 -4.49564,-4.937453 -8.70756,-6.759254 l -5.60575,-2.424685 -165.74405,0.222851 -165.74406,0.222851 -0.25962,288.220173 -0.25963,288.22017 h 166.74439 c 138.84257,0 167.3107,-0.20189 170.12873,-1.2065 z M 305.05638,279.31259 c -6.04456,-1.59952 -14.6766,-8.13133 -17.84897,-13.50621 -1.31734,-2.23194 -2.91744,-6.15832 -3.5558,-8.72528 -1.63227,-6.56367 -1.63339,-173.453218 -0.001,-180.02338 2.35449,-9.477742 9.50088,-17.518999 18.73522,-21.081203 l 5.39548,-2.081413 h 118.70968 118.70967 l 5.38195,2.076379 c 6.37998,2.461423 13.89126,8.992187 17.10239,14.869866 l 2.28986,4.191369 v 92.036692 92.0367 l -2.68502,4.88422 c -3.56722,6.48899 -8.37332,11.00793 -14.77045,13.88793 l -5.25421,2.36546 -118.70968,0.16812 c -100.77528,0.14273 -119.43324,-0.0233 -123.49909,-1.09925 z m 241.77204,-22.34057 3.01737,-2.57445 V 167.06941 79.741257 l -3.01737,-2.574453 -3.01736,-2.574453 H 427.6512 c -84.66547,0 -116.85924,0.27188 -118.73935,1.002766 -5.98225,2.325599 -5.77573,-0.943212 -5.77573,91.415503 0,90.05429 -0.0485,89.13049 4.80651,91.53839 1.32235,0.65583 37.6046,0.95207 118.88579,0.97068 l 116.98264,0.0268 z m -219.15988,-20.25238 -3.37113,-2.56996 V 167.06941 99.989141 l 3.37113,-2.569955 3.37112,-2.569955 h 33.6674 33.6674 l 15.29657,5.284399 15.29657,5.28441 h 31.30619 c 27.27218,0 31.61586,0.18507 33.70943,1.4362 4.52859,2.70635 5.28193,6.0775 5.28193,23.63642 v 16.32187 h 11.45806 11.45807 l 3.50968,2.9945 c 2.82248,2.40817 3.50967,3.68486 3.50967,6.52037 0,5.27315 -31.33492,78.34539 -34.72617,80.98054 l -2.55024,1.98165 h -80.44228 -80.44228 z m 31.54508,-21.43005 c 0.90656,-2.05871 7.4918,-17.61468 14.63386,-34.5688 7.14206,-16.95413 13.67961,-31.42019 14.52789,-32.14679 1.30534,-1.11813 8.23758,-1.38876 45.11927,-1.76147 l 43.57696,-0.44037 v -10.12844 -10.12844 l -27.35484,-0.46214 -27.35483,-0.46215 -13.63157,-4.60207 -13.63156,-4.60208 h -25.33618 -25.33618 v 51.52294 51.52293 h 6.56944 6.56943 z m 123.1952,0.44037 c 2.53025,-5.16179 19.9531,-46.95774 19.9531,-47.8658 0,-0.48685 -20.07443,-0.72007 -50.17874,-0.58294 l -50.17873,0.22856 -10.59759,25.10091 c -5.82867,13.80551 -10.39501,25.39817 -10.14744,25.76147 0.24759,0.3633 22.74322,0.66055 49.99029,0.66055 h 49.54014 z M 183.93915,547.37499 c 7.72769,-3.00412 7.52159,-16.35386 -0.29512,-19.11637 -2.1111,-0.74609 -12.37314,-0.96812 -36.26358,-0.78461 l -33.31928,0.25594 -3.12665,2.9868 c -2.85986,2.73194 -3.08628,3.4021 -2.65353,7.85436 0.3977,4.09192 0.99447,5.26506 3.74491,7.36184 l 3.27182,2.49425 h 32.9674 c 23.36129,0 33.75606,-0.3066 35.67403,-1.05221 z m 2.63121,-115.13692 c 2.62342,-2.23832 3.01738,-3.22461 3.01738,-7.55399 0,-4.32938 -0.39396,-5.31567 -3.01738,-7.55398 l -3.01737,-2.57446 h -34.60248 c -34.40296,0 -34.61808,0.0115 -37.30453,1.98303 -4.91419,3.60652 -4.80857,12.18765 0.19875,16.14708 l 2.68963,2.12677 h 34.50932 34.50931 z m 0.34497,-113.75 c 2.16617,-2.19646 2.67241,-3.62742 2.67241,-7.55399 0,-4.17981 -0.41384,-5.1973 -3.01738,-7.41866 l -3.01737,-2.57445 H 149.9924 c -18.87119,0 -34.69791,0.36893 -36.15899,0.84289 -7.052,2.2876 -7.66992,15.09385 -0.89086,18.4627 1.12685,0.55998 14.87878,0.9078 36.55342,0.9245 l 34.74694,0.0268 2.67242,-2.70978 z m 0.18221,-112.93566 c 2.77235,-2.75112 3.43899,-9.32067 1.34392,-13.24388 -2.33369,-4.37003 -3.86166,-4.54187 -40.3865,-4.54187 h -33.99217 l -3.01172,2.87628 c -2.49052,2.3785 -3.01173,3.65122 -3.01173,7.35413 0,3.92798 0.43586,4.84973 3.54946,7.50628 l 3.54948,3.02845 34.73453,-0.25413 34.73453,-0.25413 z M 186.57036,92.274775 c 2.62342,-2.238318 3.01738,-3.2246 3.01738,-7.553984 0,-4.329384 -0.39396,-5.315666 -3.01738,-7.553987 l -3.01737,-2.574453 h -34.60248 c -34.54403,0 -34.60712,0.0034 -37.34225,2.010712 -5.04591,3.703201 -4.49563,13.716493 0.93206,16.960147 1.78233,1.065141 8.06559,1.286021 36.58231,1.286021 h 34.43036 z"
     id="path20"
     inkscape:connector-curvature="0" />
</svg>
