<?xml version="1.0" encoding="UTF-8" standalone="no"?>
<!-- Created with Inkscape (http://www.inkscape.org/) -->

<svg
   xmlns:dc="http://purl.org/dc/elements/1.1/"
   xmlns:cc="http://creativecommons.org/ns#"
   xmlns:rdf="http://www.w3.org/1999/02/22-rdf-syntax-ns#"
   xmlns:svg="http://www.w3.org/2000/svg"
   xmlns="http://www.w3.org/2000/svg"
   xmlns:sodipodi="http://sodipodi.sourceforge.net/DTD/sodipodi-0.dtd"
   xmlns:inkscape="http://www.inkscape.org/namespaces/inkscape"
   version="1.1"
   id="svg10"
   width="720.51611"
   height="620.03668"
   viewBox="0 0 720.51611 620.03668"
   sodipodi:docname="noun_217869_cc.svg"
   inkscape:version="0.92.1 r15371">
  <metadata
     id="metadata16">
    <rdf:RDF>
      <cc:Work
         rdf:about="">
        <dc:format>image/svg+xml</dc:format>
        <dc:type
           rdf:resource="http://purl.org/dc/dcmitype/StillImage" />
        <dc:title></dc:title>
      </cc:Work>
    </rdf:RDF>
  </metadata>
  <defs
     id="defs14" />
  <sodipodi:namedview
     pagecolor="#ffffff"
     bordercolor="#666666"
     borderopacity="1"
     objecttolerance="10"
     gridtolerance="10"
     guidetolerance="10"
     inkscape:pageopacity="0"
     inkscape:pageshadow="2"
     inkscape:window-width="1366"
     inkscape:window-height="706"
     id="namedview12"
     showgrid="false"
     inkscape:zoom="0.86607779"
     inkscape:cx="360.25806"
     inkscape:cy="310.01834"
     inkscape:window-x="-8"
     inkscape:window-y="219"
     inkscape:window-maximized="1"
     inkscape:current-layer="svg10" />
  <path
     style="fill:#000000;stroke-width:0.95349079"
     d="m 110.1986,563.83156 c -7.9649,-1.88179 -15.169497,-5.81612 -22.055612,-12.04425 -7.622929,-6.89455 -12.333191,-14.6186 -14.565739,-23.8854 -1.67804,-6.96515 -23.138617,-247.65709 -23.138617,-259.51205 0,-15.32951 9.011415,-29.58326 23.182743,-36.66913 10.134963,-5.06764 -6.149789,-4.79227 283.914025,-4.80089 164.0077,-0.005 268.63091,0.31464 272.33111,0.83168 19.51591,2.72706 33.24007,15.64561 36.79569,34.63578 0.89353,4.77221 -0.72124,25.77582 -10.27977,133.71182 -7.4004,83.56626 -11.89733,129.87551 -12.94469,133.3043 -4.24691,13.9033 -15.44991,26.16358 -29.20905,31.96565 l -7.81172,3.29411 -245.73111,0.14604 c -196.48743,0.11677 -246.68422,-0.0792 -250.48726,-0.97766 z m 499.49863,-24.57644 c 4.70308,-2.78085 10.78394,-9.91529 12.49962,-14.66533 0.61238,-1.69542 3.20575,-25.87156 5.76306,-53.72477 2.55731,-27.85321 7.65011,-78.38532 11.31733,-112.29358 9.15381,-84.63875 9.48115,-88.81992 7.42578,-94.85229 -2.07133,-6.07925 -4.63009,-8.86905 -10.27175,-11.19924 l -4.45092,-1.83837 H 361.22015 90.459954 l -4.901908,2.27632 c -7.088791,3.29186 -9.629168,7.58375 -10.120907,17.09894 -0.478187,9.25292 20.268139,247.8068 22.125559,254.41314 1.139901,4.05431 4.190222,8.38503 8.272342,11.7447 7.86679,6.47454 -15.594374,5.94744 255.40158,5.7381 L 605.45396,541.7641 Z M 77.510955,146.62357 77.79347,77.57861 81.191662,71.689978 c 3.703493,-6.41768 9.053385,-10.961718 16.971561,-14.415133 10.962617,-4.781208 10.514127,-4.758444 93.746517,-4.758444 73.29383,0 77.42411,0.0844 84.99652,1.736807 15.36557,3.352993 28.93892,11.369411 35.24709,20.816936 5.55976,8.326647 12.38139,12.948236 23.11779,15.662076 5.02208,1.26943 19.08089,1.41721 134.82685,1.41721 82.22373,0 131.24236,0.322 134.78038,0.88538 8.84271,1.40807 17.58847,5.55739 23.78856,11.2862 6.97471,6.44454 10.69229,12.30481 13.27811,20.93119 1.8936,6.31709 2.04196,9.84885 2.04196,48.60872 v 41.7967 l -2.32258,-0.5745 c -1.27742,-0.31597 -6.15484,-1.04452 -10.83871,-1.61898 l -8.51613,-1.04447 v -38.83765 c 0,-43.471 -0.16843,-44.72871 -6.88687,-51.42555 -7.70735,-7.68258 4.61375,-7.06676 -141.82676,-7.08862 -89.07697,-0.0133 -131.53258,-0.31981 -135.74193,-0.98001 -16.59724,-2.60318 -32.66062,-10.87974 -39.62282,-20.41541 -6.01453,-8.237716 -9.9929,-11.805423 -15.88424,-14.24458 -12.0543,-4.990776 -11.43207,-4.959253 -92.68133,-4.695376 l -74.71087,0.242642 -5.12357,2.015291 c -9.75653,3.8376 -8.81191,-3.658591 -8.81191,69.928673 0,51.30229 -0.27294,65.13006 -1.29033,65.3709 -0.70967,0.168 -5.006448,0.74053 -9.548384,1.27229 -4.541935,0.53174 -9.314228,1.22319 -10.605095,1.53653 l -2.34703,0.56973 z m 47.690535,65.89498 c -0.3084,-0.6857 -0.4175,-15.46578 -0.24244,-32.84463 l 0.31829,-31.59788 2.97944,-4.58728 c 1.68017,-2.58688 4.79264,-5.65941 7.13743,-7.04587 l 4.15801,-2.4586 176.38456,-0.22767 176.38458,-0.22768 2.29586,1.98915 c 3.89008,3.37037 76.57303,75.6543 76.95126,76.52881 0.21096,0.48779 -4.39439,0.7207 -11.32041,0.57252 l -11.67604,-0.24981 -25.32477,-25.00067 -25.32477,-25.00067 -0.2739,25.22085 -0.27389,25.22086 h -8.24224 -8.24223 V 181.54392 150.27787 H 312.75856 c -139.04417,0 -168.32973,0.20363 -169.27657,1.17702 -0.77728,0.7991 -1.23217,10.90896 -1.41671,31.48624 l -0.27181,30.30922 -8.01563,0.25747 c -6.16766,0.19811 -8.1449,-0.03 -8.57635,-0.98927 z m 99.68875,-10.52177 c 0,-11.72772 0.86505,-14.04774 5.83961,-15.66143 3.54542,-1.1501 8.08674,1.02278 9.53234,4.56095 0.6293,1.54021 1.14418,7.10088 1.14418,12.35703 v 9.55665 h -8.25807 -8.25806 z m 90.83871,0.7262 c 0,-11.17719 0.7986,-13.55574 5.3158,-15.83243 2.63825,-1.32969 3.52409,-1.3914 6.23255,-0.4342 4.69104,1.65787 6.00003,5.28754 6.00003,16.63727 v 9.71636 h -8.77419 -8.77419 z m 91.20855,8.75824 c -0.32869,-0.73082 -0.42298,-5.68214 -0.20953,-11.00293 0.36506,-9.09986 0.55195,-9.81397 3.1481,-12.02904 3.46359,-2.95516 8.27943,-3.13364 11.45861,-0.42466 2.05762,1.75332 2.29641,2.97756 2.60533,13.3578 l 0.3401,11.42759 h -8.3725 c -6.51141,0 -8.50533,-0.29536 -8.97011,-1.32876 z"
     id="path20"
     inkscape:connector-curvature="0" />
</svg>
