<?xml version="1.0" encoding="UTF-8" standalone="no"?>
<!-- Created with Inkscape (http://www.inkscape.org/) -->

<svg
   xmlns:dc="http://purl.org/dc/elements/1.1/"
   xmlns:cc="http://creativecommons.org/ns#"
   xmlns:rdf="http://www.w3.org/1999/02/22-rdf-syntax-ns#"
   xmlns:svg="http://www.w3.org/2000/svg"
   xmlns="http://www.w3.org/2000/svg"
   xmlns:sodipodi="http://sodipodi.sourceforge.net/DTD/sodipodi-0.dtd"
   xmlns:inkscape="http://www.inkscape.org/namespaces/inkscape"
   version="1.1"
   id="svg445"
   width="720.51611"
   height="622.22223"
   viewBox="0 0 720.51611 622.22223"
   sodipodi:docname="vacc1.svg"
   inkscape:version="0.91 r13725">
  <metadata
     id="metadata451">
    <rdf:RDF>
      <cc:Work
         rdf:about="">
        <dc:format>image/svg+xml</dc:format>
        <dc:type
           rdf:resource="http://purl.org/dc/dcmitype/StillImage" />
        <dc:title />
      </cc:Work>
    </rdf:RDF>
  </metadata>
  <defs
     id="defs449" />
  <sodipodi:namedview
     pagecolor="#ffffff"
     bordercolor="#666666"
     borderopacity="1"
     objecttolerance="10"
     gridtolerance="10"
     guidetolerance="10"
     inkscape:pageopacity="0"
     inkscape:pageshadow="2"
     inkscape:window-width="1920"
     inkscape:window-height="1021"
     id="namedview447"
     showgrid="false"
     inkscape:zoom="0.37928571"
     inkscape:cx="360.25806"
     inkscape:cy="311.11111"
     inkscape:window-x="1080"
     inkscape:window-y="420"
     inkscape:window-maximized="1"
     inkscape:current-layer="svg445" />
  <path
     style="fill:#ffffff;stroke-width:0.95789492"
     d="M 187.80053,620.71857 C 184.68534,618.98474 69.08386,508.69075 65.99044,504.50102 c -1.50778,-2.04215 -1.8795,-3.86597 -1.5872,-7.78766 0.3259,-4.37261 0.88506,-5.56823 3.82609,-8.18116 4.41302,-3.9207 8.29083,-4.68918 12.87347,-2.55116 1.92286,0.8971 8.22671,6.13109 14.00855,11.63109 5.78184,5.5 10.81626,9.97404 11.18759,9.9423 0.37134,-0.0317 10.33075,-10.06956 22.13201,-22.30629 l 21.45685,-22.24861 -9.06975,-8.42837 c -13.67189,-12.70508 -14.98539,-14.43792 -14.98539,-19.76971 0,-2.72726 0.68429,-5.42093 1.72432,-6.78777 1.60528,-2.10969 44.47137,-46.74512 189.4699,-197.29044 32.01957,-33.24445 63.26847,-65.70706 69.44202,-72.13914 6.39883,-6.66679 12.41524,-12.08389 13.99395,-12.59994 2.2083,-0.72187 102.14258,-5.59549 112.90571,-5.50621 2.43666,0.0202 10.64908,-8.16597 66.2331,-66.02137 36.16729,-37.64523 64.62058,-66.50311 66.17024,-67.11112 3.84774,-1.50965 6.76521,-1.32333 10.57143,0.67512 4.35922,2.28882 6.50173,6.06498 6.50173,11.45933 0,3.83397 -0.59032,5.06987 -4.58518,9.5997 -2.52185,2.85955 -31.07007,32.99918 -63.4405,66.97696 l -58.85533,61.77778 -0.0434,57.94213 c -0.0274,36.54328 -0.42618,58.80918 -1.07993,60.28982 -0.5701,1.29124 -8.14854,9.61728 -16.84096,18.50232 -37.80864,38.64641 -119.25076,123.2085 -198.3344,205.9324 -58.60777,61.30552 -56.63739,59.36207 -60.87931,60.04732 -5.19506,0.83925 -8.26688,-1.03387 -20.21713,-12.32793 -5.95137,-5.62458 -11.11761,-10.1624 -11.48053,-10.08406 -0.36293,0.0783 -10.27175,10.0279 -22.01961,22.11011 -14.18256,14.58621 -21.09145,22.35188 -20.56127,23.11111 0.43918,0.6289 4.7738,4.83929 9.63252,9.35643 13.11647,12.19435 14.5674,15.45381 10.2767,23.08618 -3.4195,6.08267 -10.66893,8.22849 -16.61624,4.91839 z m -3.17648,-77.33512 c 11.22801,-11.61467 20.99633,-21.75681 21.70737,-22.53809 1.10932,-1.21893 -1.42769,-4.05631 -17.87698,-19.99354 -10.54338,-10.21517 -19.71868,-18.66428 -20.38957,-18.7758 -1.54965,-0.25762 -43.33744,42.95443 -42.82324,44.28279 0.33605,0.86813 38.14701,38.08168 38.73726,38.1252 0.12682,0.009 9.41715,-9.4859 20.64516,-21.10056 z m 88.14618,-34.43799 c 9.75052,-10.26666 20.25308,-21.35054 23.33902,-24.63084 l 5.61082,-5.96418 -25.4054,-24.69251 c -17.65785,-17.16236 -25.75103,-25.68592 -26.5388,-27.95008 -1.61105,-4.63039 -0.27669,-9.26144 3.76195,-13.05629 3.01125,-2.82948 4.08618,-3.26165 8.11251,-3.26165 3.51895,0 5.31563,0.53737 7.42985,2.22222 2.56813,2.04657 45.42652,43.34629 49.01955,47.23681 1.49405,1.61775 2.3653,0.88334 16.51613,-13.92216 8.21638,-8.5965 15.07945,-15.97219 15.25126,-16.39042 0.17181,-0.41823 -11.08926,-11.84353 -25.0246,-25.38954 -27.19628,-26.43645 -28.56946,-28.24257 -26.46433,-34.80779 1.60124,-4.99382 6.86348,-9.17135 11.55269,-9.17135 2.11315,0 4.63156,0.26087 5.59646,0.57971 0.96489,0.31884 13.12874,11.61884 27.03079,25.11111 13.90204,13.49228 25.63692,24.53141 26.07752,24.53141 0.4406,0 6.72973,-6.2 13.97585,-13.77778 7.24613,-7.57778 14.03734,-14.60369 15.09158,-15.61313 1.89927,-1.81857 1.69259,-2.05308 -22.59964,-25.64219 -13.48404,-13.09376 -25.32934,-25.06161 -26.32289,-26.59522 -3.72353,-5.74754 -1.381,-14.13836 4.8769,-17.46879 3.97411,-2.115 6.8291,-2.25564 10.70982,-0.52756 1.56148,0.69531 14.16079,12.30605 27.99846,25.80163 13.83768,13.49558 25.47053,24.22667 25.85077,23.84689 0.38024,-0.37978 7.30421,-7.59527 15.38658,-16.0344 l 14.69523,-15.34387 -2.40405,-2.45762 c -1.32222,-1.35169 -12.39113,-12.1762 -24.59758,-24.05446 -12.20646,-11.87827 -22.99428,-23.06759 -23.97294,-24.86518 -2.29005,-4.20633 -2.25036,-6.83616 0.17255,-11.4316 2.22888,-4.22741 6.37065,-6.50339 11.83469,-6.50339 4.62848,0 5.6596,0.86789 34.05797,28.66666 12.36098,12.1 22.78247,21.97814 23.15886,21.95141 0.37639,-0.0268 10.09466,-10.09557 21.59616,-22.37519 l 20.9118,-22.32661 -0.26664,-49.39953 -0.26665,-49.39953 -3.6129,0.23292 c -7.49127,0.48297 -90.42158,4.64484 -92.60309,4.6473 -1.77123,0.002 -30.41903,29.27794 -128.28209,131.09491 -69.30088,72.10079 -126.24068,131.62885 -126.53289,132.28458 -0.55075,1.23592 95.39549,94.15545 96.79187,93.73849 0.41725,-0.12458 8.73633,-8.62652 18.48685,-18.89319 z"
     id="path464"
     inkscape:connector-curvature="0" />
  <g
     transform="matrix(7.263636,0,0,7.0195657,19.847097,18.199631)"
     id="g5448"
     style="fill:#ffffff">
    <g
       id="g5450"
       style="fill:#ffffff">
      <path
         inkscape:connector-curvature="0"
         d="m 29.375,1.25 -1.123,0 C 28.281,1.157 28.311,1.064 28.311,0.961 28.311,0.43 27.879,0 27.348,0 c -0.531,0 -0.961,0.431 -0.961,0.961 0,0.103 0.028,0.196 0.059,0.289 l -3.68,0 C 22.795,1.157 22.825,1.064 22.825,0.961 22.824,0.43 22.393,0 21.861,0 21.332,0 20.9,0.431 20.9,0.961 c 0,0.103 0.029,0.196 0.06,0.289 l -3.681,0 C 17.308,1.157 17.337,1.064 17.337,0.961 17.337,0.43 16.907,0 16.376,0 c -0.531,0 -0.961,0.431 -0.961,0.961 0,0.103 0.028,0.196 0.058,0.289 l -3.681,0 C 11.821,1.157 11.851,1.064 11.851,0.961 11.851,0.43 11.42,0 10.89,0 10.359,0 9.928,0.431 9.928,0.961 c 0,0.103 0.028,0.196 0.058,0.289 l -3.68,0 C 6.336,1.157 6.365,1.064 6.365,0.961 6.365,0.43 5.935,0 5.404,0 4.873,0 4.442,0.431 4.442,0.961 4.442,1.064 4.47,1.157 4.5,1.25 l -1.125,0 C 1.857,1.25 0.625,2.483 0.625,4 l 0,26 c 0,1.518 1.232,2.75 2.75,2.75 l 22.895,0 5.855,-5.855 0,-22.895 c 0,-1.516 -1.232,-2.75 -2.75,-2.75 z m 1.25,25.023 -0.311,0.311 -2.355,0 c -1.102,0 -2,0.9 -2,2 l 0,2.355 -0.311,0.311 -22.273,0 c -0.689,0 -1.25,-0.561 -1.25,-1.25 l 0,-25 28.5,0 0,21.273 z"
         id="path5452"
         style="fill:#ffffff" />
      <rect
         x="9.8920002"
         y="7.5349998"
         width="3.536"
         height="3.536"
         id="rect5454"
         style="fill:#ffffff" />
      <rect
         x="14.607"
         y="7.5349998"
         width="3.536"
         height="3.536"
         id="rect5456"
         style="fill:#ffffff" />
      <rect
         x="19.322001"
         y="7.5349998"
         width="3.5350001"
         height="3.536"
         id="rect5458"
         style="fill:#ffffff" />
      <rect
         x="24.037001"
         y="7.5349998"
         width="3.5369999"
         height="3.536"
         id="rect5460"
         style="fill:#ffffff" />
      <rect
         x="5.1760001"
         y="12.25"
         width="3.5369999"
         height="3.5369999"
         id="rect5462"
         style="fill:#ffffff" />
      <rect
         x="9.8920002"
         y="12.25"
         width="3.536"
         height="3.5369999"
         id="rect5464"
         style="fill:#ffffff" />
      <rect
         x="14.607"
         y="12.25"
         width="3.536"
         height="3.5369999"
         id="rect5466"
         style="fill:#ffffff" />
      <rect
         x="19.322001"
         y="12.25"
         width="3.5350001"
         height="3.5369999"
         id="rect5468"
         style="fill:#ffffff" />
      <rect
         x="24.037001"
         y="12.25"
         width="3.5369999"
         height="3.5369999"
         id="rect5470"
         style="fill:#ffffff" />
      <rect
         x="5.1760001"
         y="16.965"
         width="3.5369999"
         height="3.5369999"
         id="rect5472"
         style="fill:#ffffff" />
      <rect
         x="9.8920002"
         y="16.965"
         width="3.536"
         height="3.5369999"
         id="rect5474"
         style="fill:#ffffff" />
      <rect
         x="14.607"
         y="16.965"
         width="3.536"
         height="3.5369999"
         id="rect5476"
         style="fill:#ffffff" />
      <rect
         x="19.322001"
         y="16.965"
         width="3.5350001"
         height="3.5369999"
         id="rect5478"
         style="fill:#ffffff" />
      <rect
         x="24.037001"
         y="16.965"
         width="3.5369999"
         height="3.5369999"
         id="rect5480"
         style="fill:#ffffff" />
      <rect
         x="5.1760001"
         y="21.68"
         width="3.5369999"
         height="3.536"
         id="rect5482"
         style="fill:#ffffff" />
      <rect
         x="9.8920002"
         y="21.68"
         width="3.536"
         height="3.536"
         id="rect5484"
         style="fill:#ffffff" />
      <rect
         x="14.607"
         y="21.68"
         width="3.536"
         height="3.536"
         id="rect5486"
         style="fill:#ffffff" />
      <rect
         x="19.322001"
         y="21.68"
         width="3.5350001"
         height="3.536"
         id="rect5488"
         style="fill:#ffffff" />
      <rect
         x="24.037001"
         y="21.68"
         width="3.5369999"
         height="3.536"
         id="rect5490"
         style="fill:#ffffff" />
      <rect
         x="5.1760001"
         y="26.983999"
         width="8.2510004"
         height="1.768"
         id="rect5492"
         style="fill:#ffffff" />
    </g>
  </g>
</svg>
