<?xml version="1.0"?>
<svg xmlns="http://www.w3.org/2000/svg" xmlns:xlink="http://www.w3.org/1999/xlink" version="1.1" id="Capa_1" x="0px" y="0px" viewBox="0 0 480 480" style="enable-background:new 0 0 480 480;" xml:space="preserve" width="512px" height="512px" class=""><g><g>
	<g>
		<path d="M456.888,51.872C461.272,46.392,464,39.544,464,32c0-17.648-14.352-32-32-32s-32,14.352-32,32    c0,7.544,2.728,14.392,7.112,19.872C393.504,58.264,384,72,384,88v16c0,4.424,3.576,8,8,8h80c4.424,0,8-3.576,8-8V88    C480,72,470.496,58.264,456.888,51.872z M432,16c8.824,0,16,7.176,16,16s-7.176,16-16,16c-8.824,0-16-7.176-16-16    S423.176,16,432,16z M464,96h-64v-8c0-13.232,10.768-24,24-24h16c13.232,0,24,10.768,24,24V96z" data-original="#000000" class="active-path" data-old_color="#F9F7F7" fill="#FCFBFB"/>
	</g>
</g><g>
	<g>
		<path d="M392.888,243.872C397.272,238.392,400,231.544,400,224c0-17.648-14.352-32-32-32c-6.512,0-12.568,1.976-17.624,5.336    c-3.152-11.296-11.04-20.56-21.488-25.464C333.272,166.392,336,159.544,336,152c0-17.648-14.352-32-32-32    c-6.512,0-12.568,1.976-17.624,5.336c-3.152-11.296-11.04-20.56-21.488-25.464C269.272,94.392,272,87.544,272,80    c0-17.648-14.352-32-32-32s-32,14.352-32,32c0,7.544,2.728,14.392,7.112,19.872C201.504,106.264,192,120,192,136v16    c0,4.424,3.576,8,8,8h73.136c1.144,4.416,3.208,8.416,5.976,11.872C265.504,178.264,256,192,256,208v16c0,4.424,3.576,8,8,8    h73.136c1.144,4.416,3.208,8.416,5.976,11.872C329.504,250.264,320,264,320,280v16c0,4.424,3.576,8,8,8h80c4.424,0,8-3.576,8-8    v-16C416,264,406.496,250.264,392.888,243.872z M240,64c8.824,0,16,7.176,16,16s-7.176,16-16,16c-8.824,0-16-7.176-16-16    S231.176,64,240,64z M272,144h-64v-8c0-13.232,10.768-24,24-24h16c13.232,0,24,10.768,24,24V144z M304,136c8.824,0,16,7.176,16,16    c0,8.824-7.176,16-16,16c-8.824,0-16-7.176-16-16C288,143.176,295.176,136,304,136z M336,216h-64v-8c0-13.232,10.768-24,24-24h16    c13.232,0,24,10.768,24,24V216z M368,208c8.824,0,16,7.176,16,16c0,8.824-7.176,16-16,16c-8.824,0-16-7.176-16-16    C352,215.176,359.176,208,368,208z M400,288h-64v-8c0-13.232,10.768-24,24-24h16c13.232,0,24,10.768,24,24V288z" data-original="#000000" class="active-path" data-old_color="#F9F7F7" fill="#FCFBFB"/>
	</g>
</g><g>
	<g>
		<rect x="348.683" y="111.976" transform="matrix(0.7071 -0.7071 0.7071 0.7071 20.6043 289.6952)" width="22.624" height="16" data-original="#000000" class="active-path" data-old_color="#F9F7F7" fill="#FCFBFB"/>
	</g>
</g><g>
	<g>
		<rect x="416" y="160" width="16" height="24" data-original="#000000" class="active-path" data-old_color="#F9F7F7" fill="#FCFBFB"/>
	</g>
</g><g>
	<g>
		<rect x="296" y="48" width="24" height="16" data-original="#000000" class="active-path" data-old_color="#F9F7F7" fill="#FCFBFB"/>
	</g>
</g><g>
	<g>
		<rect x="220.683" y="240.002" transform="matrix(0.7071 -0.7071 0.7071 0.7071 -107.4138 236.6833)" width="22.624" height="16" data-original="#000000" class="active-path" data-old_color="#F9F7F7" fill="#FCFBFB"/>
	</g>
</g><g>
	<g>
		<rect x="288" y="288" width="16" height="24" data-original="#000000" class="active-path" data-old_color="#F9F7F7" fill="#FCFBFB"/>
	</g>
</g><g>
	<g>
		<rect x="168" y="176" width="24" height="16" data-original="#000000" class="active-path" data-old_color="#F9F7F7" fill="#FCFBFB"/>
	</g>
</g><g>
	<g>
		<path d="M328.888,419.872C333.272,414.392,336,407.544,336,400c0-17.648-14.352-32-32-32c-5.992,0-11.544,1.76-16.344,4.632    c-1.24-14.536-10.144-26.832-22.776-32.76c4.392-5.48,7.12-12.328,7.12-19.872c0-17.648-14.352-32-32-32    c-6.512,0-12.568,1.976-17.624,5.336c-3.152-11.296-11.04-20.56-21.488-25.464C205.272,262.392,208,255.544,208,248    c0-17.648-14.352-32-32-32c-6.512,0-12.568,1.976-17.624,5.336c-3.152-11.296-11.04-20.56-21.488-25.464    C141.272,190.392,144,183.544,144,176c0-17.648-14.352-32-32-32c-6.512,0-12.568,1.976-17.624,5.336    c-3.152-11.296-11.04-20.56-21.488-25.464C77.272,118.392,80,111.544,80,104c0-17.648-14.352-32-32-32s-32,14.352-32,32    c0,7.544,2.728,14.392,7.112,19.872C9.504,130.264,0,144,0,160v16c0,4.424,3.576,8,8,8h73.136    c1.144,4.416,3.208,8.416,5.976,11.872c-10.448,4.904-18.336,14.168-21.488,25.464C60.568,217.976,54.512,216,48,216    c-17.648,0-32,14.352-32,32c0,7.544,2.728,14.392,7.112,19.872C9.504,274.264,0,288,0,304v16c0,4.424,3.576,8,8,8h73.136    c1.144,4.416,3.208,8.416,5.976,11.872c-8.456,3.976-15.272,10.784-19.24,19.24C62.392,354.728,55.544,352,48,352    c-17.648,0-32,14.352-32,32c0,7.544,2.728,14.392,7.112,19.872C9.504,410.264,0,424,0,440v16c0,4.424,3.576,8,8,8h80    c4.424,0,8-3.576,8-8v-16c0-16-9.504-29.736-23.112-36.128c0.984-1.224,1.872-2.504,2.664-3.872h69.584    c1.144,4.416,3.208,8.416,5.976,11.872C137.504,418.264,128,432,128,448v16c0,4.424,3.576,8,8,8h80c4.424,0,8-3.576,8-8v-16    c0-16-9.504-29.736-23.112-36.128c2.768-3.456,4.832-7.456,5.976-11.872H272c0,7.544,2.728,14.392,7.112,19.872    C265.504,426.264,256,440,256,456v16c0,4.424,3.576,8,8,8h80c4.424,0,8-3.576,8-8v-16C352,440,342.496,426.264,328.888,419.872z     M48,88c8.824,0,16,7.176,16,16s-7.176,16-16,16s-16-7.176-16-16C32,95.176,39.176,88,48,88z M80,168H16v-8    c0-13.232,10.768-24,24-24h16c13.232,0,24,10.768,24,24V168z M48,368c8.824,0,16,7.176,16,16c0,8.824-7.176,16-16,16    s-16-7.176-16-16C32,375.176,39.176,368,48,368z M80,440v8H16v-8c0-13.232,10.768-24,24-24h16C69.232,416,80,426.768,80,440z     M240,304c8.824,0,16,7.176,16,16c0,8.824-7.176,16-16,16c-8.824,0-16-7.176-16-16C224,311.176,231.176,304,240,304z M176,232    c8.824,0,16,7.176,16,16c0,8.824-7.176,16-16,16c-8.824,0-16-7.176-16-16C160,239.176,167.176,232,176,232z M168,280h16    c13.232,0,24,10.768,24,24v8h-64v-8C144,290.768,154.768,280,168,280z M112,160c8.824,0,16,7.176,16,16c0,8.824-7.176,16-16,16    c-8.824,0-16-7.176-16-16C96,167.176,103.176,160,112,160z M80,232c0-13.232,10.768-24,24-24h16c13.232,0,24,10.768,24,24v8H80    V232z M48,232c8.824,0,16,7.176,16,16c0,8.824-7.176,16-16,16s-16-7.176-16-16C32,239.176,39.176,232,48,232z M80,312H16v-8    c0-13.232,10.768-24,24-24h16c13.232,0,24,10.768,24,24V312z M72.888,267.872c2.768-3.456,4.832-7.456,5.976-11.872h66.272    c1.144,4.416,3.208,8.416,5.976,11.872c-10.448,4.904-18.336,14.168-21.488,25.464C124.568,289.976,118.512,288,112,288    c-6.512,0-12.568,1.976-17.624,5.336C91.224,282.04,83.336,272.776,72.888,267.872z M128,320c0,8.824-7.176,16-16,16    c-8.824,0-16-7.176-16-16c0-8.824,7.176-16,16-16C120.824,304,128,311.176,128,320z M144,384H80v-8c0-13.232,10.768-24,24-24h16    c13.232,0,24,10.768,24,24V384z M208,448v8h-64v-8c0-13.232,10.768-24,24-24h16C197.232,424,208,434.768,208,448z M160,392    c0-8.824,7.176-16,16-16c8.824,0,16,7.176,16,16c0,8.824-7.176,16-16,16C167.176,408,160,400.824,160,392z M193.624,365.336    C188.568,361.976,182.512,360,176,360c-6.512,0-12.568,1.976-17.624,5.336c-3.152-11.296-11.04-20.56-21.488-25.464    c2.768-3.456,4.832-7.456,5.976-11.872h66.272c1.144,4.416,3.208,8.416,5.976,11.872    C204.664,344.776,196.776,354.04,193.624,365.336z M272,384h-64v-8c0-13.232,10.768-24,24-24h16c13.232,0,24,10.768,24,24V384z     M304,384c8.824,0,16,7.176,16,16c0,8.824-7.176,16-16,16c-8.824,0-16-7.176-16-16C288,391.176,295.176,384,304,384z M336,464h-64    v-8c0-13.232,10.768-24,24-24h16c13.232,0,24,10.768,24,24V464z" data-original="#000000" class="active-path" data-old_color="#F9F7F7" fill="#FCFBFB"/>
	</g>
</g></g> </svg>
