<?xml version="1.0" encoding="UTF-8" standalone="no"?>
<!-- Created with Inkscape (http://www.inkscape.org/) -->

<svg
   xmlns:dc="http://purl.org/dc/elements/1.1/"
   xmlns:cc="http://creativecommons.org/ns#"
   xmlns:rdf="http://www.w3.org/1999/02/22-rdf-syntax-ns#"
   xmlns:svg="http://www.w3.org/2000/svg"
   xmlns="http://www.w3.org/2000/svg"
   xmlns:sodipodi="http://sodipodi.sourceforge.net/DTD/sodipodi-0.dtd"
   xmlns:inkscape="http://www.inkscape.org/namespaces/inkscape"
   version="1.1"
   id="svg10"
   width="720.51611"
   height="628.93457"
   viewBox="0 0 720.51611 628.93457"
   sodipodi:docname="noun_733962_cc.svg"
   inkscape:version="0.92.1 r15371">
  <metadata
     id="metadata16">
    <rdf:RDF>
      <cc:Work
         rdf:about="">
        <dc:format>image/svg+xml</dc:format>
        <dc:type
           rdf:resource="http://purl.org/dc/dcmitype/StillImage" />
        <dc:title></dc:title>
      </cc:Work>
    </rdf:RDF>
  </metadata>
  <defs
     id="defs14" />
  <sodipodi:namedview
     pagecolor="#ffffff"
     bordercolor="#666666"
     borderopacity="1"
     objecttolerance="10"
     gridtolerance="10"
     guidetolerance="10"
     inkscape:pageopacity="0"
     inkscape:pageshadow="2"
     inkscape:window-width="1366"
     inkscape:window-height="706"
     id="namedview12"
     showgrid="false"
     inkscape:zoom="0.85382491"
     inkscape:cx="360.25806"
     inkscape:cy="314.46729"
     inkscape:window-x="-8"
     inkscape:window-y="219"
     inkscape:window-maximized="1"
     inkscape:current-layer="svg10" />
  <path
     style="fill:#000000;stroke-width:0.96236068"
     d="m 90.98022,570.27176 c -5.34847,-1.65721 -9.69612,-5.36854 -12.64926,-10.79793 l -2.44,-4.48598 -0.0101,-191.89591 c -0.008,-143.05692 0.29481,-192.78041 1.18791,-195.37128 1.60068,-4.64357 7.52537,-10.50099 12.67988,-12.5359 3.32347,-1.31205 6.78484,-1.65688 16.78873,-1.67253 l 12.60212,-0.0197 0.30114,-37.00935 0.30114,-37.00934 3.20272,-5.874273 c 4.23522,-7.768031 8.26581,-11.59267 16.11576,-15.292294 l 6.48797,-3.057732 73.54868,-0.252816 c 59.50606,-0.204547 74.04725,-0.02578 76.1599,0.936322 1.43616,0.654026 10.06107,10.255644 19.16647,21.336928 l 16.55526,20.14779 132.3171,0.448598 132.31709,0.448598 4.75713,1.912069 c 5.11892,2.0575 9.219,6.12306 11.10032,11.00685 0.73535,1.90894 1.17481,10.38325 1.17481,22.65421 v 19.60444 l 9.54839,0.0197 c 7.03452,0.0145 10.65063,0.45485 13.73503,1.67252 5.1545,2.03491 11.07919,7.89233 12.67987,12.53591 0.8931,2.59087 1.19543,52.31435 1.18791,195.37128 l -0.0103,191.8959 -2.40699,4.49252 c -2.87236,5.36109 -8.43925,9.85991 -13.80269,11.15447 -2.67635,0.64598 -87.74496,0.93036 -271.25401,0.90676 C 137.9774,571.51269 94.32589,571.30846 90.98,570.27175 Z M 630.70949,362.53925 v -189.757 H 362.83853 94.96756 l -0.26467,188.85981 c -0.14557,103.87289 -0.0437,189.36525 0.22642,189.98301 0.39188,0.89629 54.56148,1.07754 268.13563,0.89719 l 267.64455,-0.226 z m -185.36972,144.51761 -3.01738,-2.62257 v -24.29332 -24.29331 h -11.64128 c -19.91983,0 -19.32825,1.26964 -19.3207,-41.46651 0.003,-18.93396 0.43762,-33.90344 1.03805,-35.78216 1.8488,-5.78479 3.86226,-6.60079 17.12594,-6.94068 l 11.76574,-0.30151 v -11.51751 c 0,-11.08182 0.10105,-11.62192 2.6724,-14.27792 l 2.67241,-2.76043 h 53.40572 53.40572 l 2.50252,2.3125 c 2.34968,2.17127 2.52316,3.04797 2.84056,14.35514 l 0.33804,12.04264 h 10.29386 c 10.90238,0 15.35437,1.13594 17.38655,4.43628 0.6788,1.1024 1.06286,14.85939 1.06286,38.07152 v 36.3454 l -2.48891,2.51733 c -2.43465,2.46245 -2.76089,2.52384 -14.96774,2.81675 l -12.47884,0.29944 v 23.29652 c 0,24.70662 -0.44853,27.2956 -5.10411,29.46119 -1.28559,0.598 -20.05777,0.92379 -53.23001,0.92379 h -51.24404 z m 94.01488,-48.06901 v -31.85047 h -39.22581 -39.2258 v 31.85047 31.85047 h 39.2258 39.22581 z m -67.1749,19.66604 c -1.93674,-1.79183 -2.50252,-3.2968 -2.50252,-6.65669 0,-3.3599 0.56578,-4.86487 2.50252,-6.6567 l 2.50252,-2.31527 h 24.8807 c 27.65784,0 28.33624,0.12976 30.50241,5.83456 0.90024,2.37085 0.90024,3.90396 0,6.27481 -2.16617,5.7048 -2.84457,5.83456 -30.50241,5.83456 h -24.8807 z m 3.69103,-23.6544 c -7.99215,-2.84313 -8.6198,-14.58842 -0.91561,-17.1343 3.77418,-1.24719 47.15932,-1.1069 50.36568,0.16286 2.67616,1.05981 5.77859,5.64723 5.77187,8.53465 -0.006,2.64038 -3.88405,7.45531 -6.77349,8.41013 -3.17791,1.05015 -45.5059,1.07345 -48.44845,0.0267 z m -33.54839,-28.80386 c 0,-11.21353 1.15601,-15.26569 4.69141,-16.44485 0.91905,-0.30653 25.04978,-0.55732 53.62383,-0.55732 h 51.95285 l 2.67241,2.76043 c 2.5612,2.64555 2.6724,3.22425 2.6724,13.90654 v 11.14611 h 5.67742 5.67742 v -23.3271 -23.3271 H 499.61271 429.9353 v 22.72897 c 0,12.50094 0.30967,22.99813 0.68817,23.3271 0.37849,0.32897 3.16559,0.59813 6.19355,0.59813 h 5.50537 z m 97.85796,-59.84329 -0.30957,-5.15888 -40,-0.23483 -40,-0.23484 v 5.39371 5.39372 h 40.30957 40.30959 z M 134.6301,276.47743 c -5.42216,-4.71273 -3.54223,-13.1513 3.39833,-15.25422 4.43861,-1.34486 130.05785,-1.33778 134.74804,0.007 6.78869,1.94733 8.7431,10.63025 3.43178,15.24662 l -3.01736,2.623 h -67.77172 -67.77171 z m 1.0222,-45.18166 c -4.75538,-3.17336 -5.40688,-9.86071 -1.36717,-14.03347 l 2.67241,-2.76043 h 92.89087 92.89086 l 3.01737,2.62258 c 4.03824,3.50987 4.17807,8.60156 0.34497,12.56092 l -2.67242,2.76043 -93.06952,-0.0285 c -71.53314,-0.022 -93.44852,-0.28145 -94.70737,-1.1215 z M 593.82764,135.3243 593.5482,117.15608 458.91553,116.92842 c -126.44225,-0.21382 -134.75476,-0.32298 -136.63964,-1.7944 -1.10383,-0.8617 -9.41327,-10.55811 -18.46543,-21.54758 l -16.45847,-19.980859 -70.06032,0.242541 -70.06033,0.24254 -3.29129,2.691589 c -6.09908,4.987802 -6.13378,5.228686 -6.13378,42.587999 v 34.12228 h 228.15041 228.15039 z"
     id="path20"
     inkscape:connector-curvature="0" />
</svg>
