<?xml version="1.0" encoding="UTF-8" standalone="no"?>
<!-- Created with Inkscape (http://www.inkscape.org/) -->

<svg
   xmlns:dc="http://purl.org/dc/elements/1.1/"
   xmlns:cc="http://creativecommons.org/ns#"
   xmlns:rdf="http://www.w3.org/1999/02/22-rdf-syntax-ns#"
   xmlns:svg="http://www.w3.org/2000/svg"
   xmlns="http://www.w3.org/2000/svg"
   xmlns:sodipodi="http://sodipodi.sourceforge.net/DTD/sodipodi-0.dtd"
   xmlns:inkscape="http://www.inkscape.org/namespaces/inkscape"
   version="1.1"
   id="svg10"
   width="720.51611"
   height="623.11108"
   viewBox="0 0 720.51611 623.11108"
   sodipodi:docname="noun_1084940_cc.svg"
   inkscape:version="0.92.1 r15371">
  <metadata
     id="metadata16">
    <rdf:RDF>
      <cc:Work
         rdf:about="">
        <dc:format>image/svg+xml</dc:format>
        <dc:type
           rdf:resource="http://purl.org/dc/dcmitype/StillImage" />
        <dc:title></dc:title>
      </cc:Work>
    </rdf:RDF>
  </metadata>
  <defs
     id="defs14" />
  <sodipodi:namedview
     pagecolor="#ffffff"
     bordercolor="#666666"
     borderopacity="1"
     objecttolerance="10"
     gridtolerance="10"
     guidetolerance="10"
     inkscape:pageopacity="0"
     inkscape:pageshadow="2"
     inkscape:window-width="1366"
     inkscape:window-height="706"
     id="namedview12"
     showgrid="false"
     inkscape:zoom="0.8618046"
     inkscape:cx="360.25806"
     inkscape:cy="311.55554"
     inkscape:window-x="-8"
     inkscape:window-y="219"
     inkscape:window-maximized="1"
     inkscape:current-layer="svg10" />
  <path
     style="fill:#000000;stroke-width:0.95789492"
     d="m 216.47328,480.09887 v -72.38279 l -35.87095,-0.28387 -35.87097,-0.28388 -7.06805,-2.8826 c -3.88743,-1.58544 -8.89106,-4.12593 -11.11917,-5.64553 -5.56927,-3.79831 -13.09392,-13.13618 -16.30232,-20.23066 l -2.67175,-5.90787 -0.28429,-81.75034 c -0.19873,-57.14863 0.0592,-83.17478 0.85684,-86.48371 3.04745,-12.64064 14.90448,-26.13263 27.75567,-31.58288 l 6.71941,-2.84973 36.92779,-0.25425 36.92779,-0.25426 V 118.22743 67.148353 h 142.95929 142.95928 l 0.26652,50.888887 0.26652,50.88888 42.86328,0.44445 42.86327,0.44444 6.80687,2.8868 c 12.86655,5.45673 24.60518,18.84049 27.66822,31.54581 0.79772,3.30893 1.05557,29.33508 0.85684,86.48371 l -0.28429,81.75034 -2.84196,6.11326 c -3.41466,7.34518 -10.57808,16.23735 -16.13211,20.02527 -2.22811,1.5196 -7.23174,4.06009 -11.11917,5.64553 l -7.06805,2.8826 -42.06451,0.27646 -42.06452,0.27646 v 72.3902 72.39021 H 359.44102 216.47328 Z M 483.82812,448.92611 V 364.03722 H 359.44102 235.05393 v 84.88889 84.88888 h 124.38709 124.3871 z m -218.70531,50.62692 c -5.30803,-3.84608 -5.22019,-11.17671 0.17767,-14.82938 2.11191,-1.4291 8.76398,-1.53716 95.75235,-1.55555 l 93.48278,-0.0198 2.32239,1.86314 c 5.06148,4.06056 5.30501,10.36893 0.54882,14.21692 l -2.64775,2.14216 -93.23814,0.23606 -93.23815,0.23606 z m 0.23855,-42.59152 c -5.23436,-3.15708 -5.64534,-10.8534 -0.78936,-14.78213 l 2.64775,-2.14216 92.56225,-0.2168 c 72.26615,-0.16926 93.11571,0.026 95.08638,0.89088 6.55848,2.8781 7.84643,11.09081 2.41862,15.42248 l -2.66358,2.12566 h -93.55506 c -80.35526,0 -93.85868,-0.18313 -95.707,-1.29793 z m 2.73643,-42.14705 c -3.08769,-0.75773 -7.23741,-5.7636 -7.23741,-8.73061 0,-2.84361 2.64003,-7.10692 5.10411,-8.2425 1.29441,-0.59654 22.15535,-0.91524 59.9072,-0.91524 h 57.92124 l 2.46531,2.12291 c 3.29544,2.83774 4.26779,7.5773 2.24543,10.94496 -3.25148,5.41437 -0.0832,5.1411 -61.47852,5.30264 -30.99708,0.0816 -57.51439,-0.13542 -58.92736,-0.48216 z m 150.00516,-0.47817 c -4.11855,-1.59215 -5.50064,-3.79759 -5.50064,-8.7775 0,-2.93814 0.63822,-4.52164 2.53136,-6.28066 l 2.53135,-2.35202 h 18.67686 c 18.31263,0 18.72493,0.0414 21.14216,2.12291 4.71258,4.05805 4.19513,11.04196 -1.09882,14.83072 -2.6011,1.86153 -33.68884,2.23228 -38.28227,0.45655 z M 216.47328,376.48167 v -12.44445 h -17.40916 c -16.02311,0 -17.62471,-0.14599 -20.11635,-1.83369 -5.24702,-3.55407 -5.30293,-10.92511 -0.11252,-14.83297 l 2.6564,-2 H 360.09412 538.6966 l 3.01737,2.59829 c 2.47051,2.12738 3.01737,3.34803 3.01737,6.73504 0,3.38701 -0.54686,4.60766 -3.01737,6.73504 l -3.01737,2.59829 H 520.52355 502.3505 l 0.28719,12.22223 0.2872,12.22222 h 41.80645 c 40.86574,0 41.89936,-0.0432 45.93548,-1.9186 5.13159,-2.38443 8.85906,-5.78767 12.01547,-10.97029 l 2.43615,-4 0.27889,-81.91872 c 0.27784,-81.61236 0.27069,-81.93757 -1.91228,-86.96173 -2.73776,-6.30104 -6.85953,-10.40318 -13.12166,-13.05916 l -4.85786,-2.06038 H 365.63457 145.76362 l -4.85786,2.06038 c -6.24894,2.65039 -10.38309,6.75626 -13.10084,13.01122 -2.1465,4.94023 -2.17042,5.8758 -2.17744,85.18396 -0.008,89.23445 -0.2633,85.81478 6.9514,93.07286 3.76006,3.78268 7.99168,6.08507 13.18474,7.17373 1.70322,0.35706 18.30968,0.69014 36.90322,0.74018 l 33.80644,0.091 z m -26.45233,-37.74845 c -0.31961,-0.71721 -0.42116,-1.70178 -0.22567,-2.18794 0.19549,-0.48616 7.09092,-7.69052 15.32318,-16.00969 11.0606,-11.17739 15.50664,-15.07288 17.03224,-14.92317 4.99893,0.49053 2.87007,3.76585 -12.47154,19.18787 -14.73773,14.81498 -18.17843,17.2536 -19.65821,13.93293 z m 19.95824,0.74891 c -0.40244,-0.34655 -0.73171,-1.29675 -0.73171,-2.11157 0,-0.81482 10.9579,-12.44815 24.3509,-25.85185 17.89373,-17.90803 24.94218,-24.37037 26.58065,-24.37037 5.68519,0 3.03902,3.44787 -21.52595,28.04765 -13.39925,13.41823 -25.16775,24.51366 -26.15222,24.65651 -0.98448,0.14284 -2.11922,-0.0238 -2.52167,-0.37037 z m 21.28466,-0.8553 c -0.37624,-0.84428 -0.0258,-2.464 0.77881,-3.59936 2.33909,-3.30072 44.67101,-45.45244 46.23888,-46.04204 1.67701,-0.63065 4.25626,0.98862 4.25626,2.67209 0,1.84616 -46.4583,47.90059 -48.64268,48.21983 -1.11628,0.16313 -2.23911,-0.37049 -2.63127,-1.25052 z m 20.34373,0.116 c -0.68613,-0.71192 -0.89331,-1.81192 -0.46039,-2.44445 0.43293,-0.63252 9.85975,-10.26698 20.94848,-21.40989 15.54578,-15.62172 20.64398,-20.20036 22.26948,-20 5.06757,0.62463 2.80356,3.69884 -18.02981,24.48207 -11.3941,11.36667 -21.33837,20.66667 -22.09839,20.66667 -0.76001,0 -1.94323,-0.58248 -2.62937,-1.2944 z m 25.10997,-0.0389 c -0.32681,-0.73333 -0.36047,-1.83333 -0.0748,-2.44444 0.28564,-0.61111 7.80133,-8.41111 16.70152,-17.33333 15.74154,-15.78053 19.0693,-18.17701 20.56863,-14.8125 0.8859,1.988 0.78251,2.10954 -16.92628,19.89768 -15.40261,15.47163 -18.81847,17.94772 -20.26905,14.69259 z m 25.08907,0.74074 c -2.03612,-1.75332 0.7751,-5.41847 15.56989,-20.29941 11.92395,-11.99339 16.80842,-16.30531 18.32258,-16.17481 1.26551,0.10907 2.19094,0.94388 2.3912,2.15707 0.24367,1.47623 -3.82199,6.1462 -16,18.37816 -14.93808,15.00428 -18.30065,17.64659 -20.28367,15.93899 z m 20.33028,-0.74074 c -0.3268,-0.73333 -0.36172,-1.83333 -0.0776,-2.44444 1.37315,-2.95366 29.03721,-32.25722 30.67813,-32.49627 2.14545,-0.31254 3.69803,2.65762 2.37947,4.55206 -0.46043,0.66153 -7.05293,8.0696 -14.65002,16.46239 -13.53225,14.94957 -16.77578,17.41385 -18.32995,13.92626 z m -148.54164,-60.325 c -10.74162,-4.30725 -18.08064,-14.41282 -18.80751,-25.89726 -0.58809,-9.29167 1.93913,-15.36224 9.2714,-22.27065 6.91363,-6.51398 11.97076,-8.74978 19.89802,-8.79708 7.45786,-0.0445 13.23619,2.50921 20.02232,8.84878 7.01474,6.55316 8.88009,10.9428 8.87516,20.88562 -0.004,7.51122 -0.32135,8.9637 -2.87411,13.14302 -8.54976,13.99755 -22.82559,19.52482 -36.38528,14.08757 z m 17.26558,-17.76343 c 2.91247,-1.56624 4.21707,-5.50802 3.73244,-11.2774 -0.61464,-7.31725 -2.90822,-9.30087 -10.75416,-9.30087 -5.00731,0 -6.05541,0.31764 -8.22939,2.49401 -2.0343,2.03653 -2.49127,3.47131 -2.49127,7.82192 0,6.68868 2.02644,10.25226 6.4646,11.36822 3.62135,0.91057 8.39938,0.44205 11.27778,-1.10588 z m 260.88788,-23.62101 c -2.22565,-1.91651 -3.01738,-3.44414 -3.01738,-5.82192 0,-4.21242 2.53927,-8.33015 5.79407,-9.39575 1.49122,-0.48821 19.53767,-0.8507 42.35253,-0.8507 h 39.75415 l 3.01736,2.59829 c 2.47051,2.12738 3.01737,3.34803 3.01737,6.73504 0,3.38702 -0.54686,4.60766 -3.01737,6.73504 l -3.01736,2.5983 h -40.93301 -40.933 z m 100.99141,0.36345 c -3.33491,-2.87173 -4.24562,-6.84601 -2.42744,-10.59314 2.23832,-4.61304 5.14032,-5.83868 13.82451,-5.83868 7.01443,0 7.82108,0.19756 10.60902,2.59829 2.47052,2.12738 3.01738,3.34803 3.01738,6.73504 0,3.38702 -0.54686,4.60766 -3.01738,6.73504 -2.82832,2.43551 -3.5309,2.5983 -11.21407,2.5983 -7.37915,0 -8.45556,-0.22291 -10.79202,-2.23485 z M 483.31199,127.14835 V 85.370574 H 359.44102 235.57006 l -0.26904,40.888886 c -0.14796,22.48889 -0.0457,41.3905 0.22727,42.0036 0.39486,0.88685 25.77057,1.06855 124.14,0.88888 l 123.6437,-0.22582 z m -236.17936,32.77146 c -2.29953,-1.98015 1.17573,-6.11658 24.87157,-29.60345 14.02574,-13.90205 26.05053,-25.42636 26.72178,-25.60958 0.67123,-0.18321 1.74941,0.518 2.39594,1.55827 0.92238,1.48412 0.8423,2.30924 -0.37188,3.8318 -4.02265,5.04432 -49.96616,49.96082 -51.33543,50.1879 -0.85697,0.14211 -1.88386,-0.0221 -2.28198,-0.36494 z m 18.85322,-0.80863 c -1.67971,-1.74283 -0.99355,-2.55859 18.50599,-22.00158 11.44024,-11.40707 15.47059,-14.86609 17.08915,-14.66667 4.64339,0.57211 2.16436,4.10432 -14.80498,21.0947 -9.30769,9.31922 -17.49598,16.94405 -18.19619,16.94405 -0.7002,0 -1.8675,-0.61673 -2.59397,-1.3705 z m 23.39301,0.0115 c -0.35614,-0.79918 -0.64751,-1.80331 -0.64751,-2.23142 0,-0.42811 4.94198,-5.6954 10.9822,-11.70508 11.18539,-11.12885 14.94642,-13.30338 15.65157,-9.04934 0.218,1.31516 -2.96664,5.17484 -10.6347,12.88889 -10.74755,10.812 -14.06158,12.99169 -15.35156,10.09694 z m 24.81486,0.76644 c -1.80075,-1.55063 -0.16254,-4.56161 5.65175,-10.38781 7.10769,-7.12224 7.56951,-7.40252 9.69477,-5.88368 2.51969,1.80072 1.79886,3.19239 -5.26719,10.16902 -6.36527,6.28473 -8.42178,7.52982 -10.07933,6.10247 z m -70.67528,-18.25185 c -0.68129,-0.58667 -1.2387,-1.39398 -1.2387,-1.79403 0,-0.82035 43.48314,-44.720219 46.70509,-47.15269 2.35324,-1.776622 4.90781,-0.735386 4.90781,2.000409 0,1.867574 -45.96811,48.012971 -47.8285,48.012971 -0.71885,0 -1.86441,-0.48 -2.5457,-1.06666 z m -0.0774,-15.61462 c -1.3845,-2.22764 -0.58018,-3.2115 16.78127,-20.52705 15.5162,-15.475183 18.7026,-17.580383 18.7026,-12.356525 0,1.826533 -3.86555,6.293658 -15.95001,18.432275 -8.7725,8.81181 -16.5368,16.02147 -17.254,16.02147 -0.7172,0 -1.74314,-0.70658 -2.27986,-1.57017 z m -0.53808,-16.73226 c -0.34645,-0.77746 -0.31051,-1.87746 0.0799,-2.44445 1.46199,-2.12344 19.08559,-19.253114 19.80823,-19.253114 1.26009,0 3.23059,2.056862 3.23059,3.372178 0,0.68136 -4.06452,5.37528 -9.03226,10.430916 -9.00814,9.16753 -12.61768,11.19042 -14.08646,7.89447 z"
     id="path20"
     inkscape:connector-curvature="0" />
</svg>
