<?xml version="1.0" encoding="UTF-8" standalone="no"?>
<!-- Created with Inkscape (http://www.inkscape.org/) -->

<svg
   xmlns:dc="http://purl.org/dc/elements/1.1/"
   xmlns:cc="http://creativecommons.org/ns#"
   xmlns:rdf="http://www.w3.org/1999/02/22-rdf-syntax-ns#"
   xmlns:svg="http://www.w3.org/2000/svg"
   xmlns="http://www.w3.org/2000/svg"
   xmlns:sodipodi="http://sodipodi.sourceforge.net/DTD/sodipodi-0.dtd"
   xmlns:inkscape="http://www.inkscape.org/namespaces/inkscape"
   version="1.1"
   id="svg10"
   width="720.51611"
   height="615.63306"
   viewBox="0 0 720.51611 615.63306"
   sodipodi:docname="noun_582808_cc.svg"
   inkscape:version="0.92.1 r15371">
  <metadata
     id="metadata16">
    <rdf:RDF>
      <cc:Work
         rdf:about="">
        <dc:format>image/svg+xml</dc:format>
        <dc:type
           rdf:resource="http://purl.org/dc/dcmitype/StillImage" />
        <dc:title></dc:title>
      </cc:Work>
    </rdf:RDF>
  </metadata>
  <defs
     id="defs14" />
  <sodipodi:namedview
     pagecolor="#ffffff"
     bordercolor="#666666"
     borderopacity="1"
     objecttolerance="10"
     gridtolerance="10"
     guidetolerance="10"
     inkscape:pageopacity="0"
     inkscape:pageshadow="2"
     inkscape:window-width="1366"
     inkscape:window-height="706"
     id="namedview12"
     showgrid="false"
     inkscape:zoom="0.87227285"
     inkscape:cx="360.25806"
     inkscape:cy="307.81653"
     inkscape:window-x="-8"
     inkscape:window-y="219"
     inkscape:window-maximized="1"
     inkscape:current-layer="svg10" />
  <path
     style="fill:#000000;stroke-width:0.95349079"
     d="m 459.56461,539.5121 c -44.92632,-8.65039 -80.13637,-37.70081 -95.80332,-79.04352 l -3.91757,-10.33784 -110.50758,-0.0108 -110.50757,-0.0108 -4.72106,-2.55452 c -3.4325,-1.8573 -5.46791,-3.85695 -7.4574,-7.32644 l -2.73635,-4.77193 0.28756,-41.84465 0.28757,-41.84466 3.09678,-4.26512 c 2.03324,-2.80033 4.65919,-4.96914 7.64622,-6.31513 l 4.54946,-2.05003 H 260.67798 381.5746 l 5.65069,-6.29896 c 3.10788,-3.46443 6.50233,-7.22957 7.54324,-8.36697 l 1.89255,-2.06802 -126.79577,-0.005 c -85.29345,-0.004 -128.07204,-0.30731 -130.69495,-0.92878 -5.17921,-1.22715 -10.35644,-5.23227 -13.02511,-10.07623 -2.11148,-3.83225 -2.17249,-5.09791 -2.17249,-45.06902 0,-39.7763 0.0701,-41.2495 2.13464,-44.88832 2.66831,-4.7029 7.97615,-8.74664 13.06296,-9.95189 5.97328,-1.41531 325.37655,-1.28643 330.93131,0.13352 2.29619,0.58698 5.76965,2.42789 7.7188,4.09093 6.86842,5.86021 6.87187,5.8799 7.44261,42.40149 l 0.51612,33.02752 6.9698,0.58795 c 15.0554,1.27002 29.63319,5.40334 43.0241,12.19888 11.87892,6.02824 17.98769,10.19293 28.17023,19.20521 18.74338,16.58922 31.53203,37.95193 38.18665,63.78864 2.04754,7.94959 2.31988,11.44376 2.28241,29.28355 -0.0368,17.52288 -0.34743,21.42661 -2.30144,28.92368 -12.19971,46.80732 -46.02229,80.65133 -92.58981,92.64847 -8.14293,2.09786 -11.39389,2.43155 -26.32258,2.70181 -12.25456,0.22186 -18.88409,-0.0482 -23.63395,-0.96278 z m 43.88869,-13.21603 c 36.89104,-7.95365 67.05834,-33.17208 81.22665,-67.9016 6.35709,-15.58259 7.39911,-21.51513 7.41111,-42.19355 0.0118,-20.27697 -1.00169,-26.42879 -6.81929,-41.3945 -18.23024,-46.89715 -65.77264,-75.9552 -116.02289,-70.91352 -48.57957,4.87407 -87.86157,39.93198 -99.23069,88.56016 -2.52242,10.78893 -2.53513,35.41845 -0.0242,46.87456 7.68053,35.04236 31.4911,64.62603 63.96536,79.4744 14.85043,6.79013 27.99716,9.52427 46.26813,9.62247 10.66958,0.0573 14.87543,-0.32809 23.22581,-2.12842 z m -69.72821,-45.92034 c -2.01277,-2.18324 -2.13943,-3.43457 -2.13943,-21.13762 v -18.817 h -13.7755 c -12.03451,0 -13.99141,-0.20356 -15.48387,-1.61064 -1.52215,-1.43507 -1.70837,-5.02024 -1.70837,-32.89102 0,-28.96476 0.13709,-31.38624 1.8519,-32.71033 1.46763,-1.13322 4.62696,-1.48136 15.2258,-1.67779 l 13.37391,-0.24784 0.29975,-8.33692 c 0.22163,-6.1642 0.73412,-8.74644 1.96644,-9.90826 1.55118,-1.46244 4.80313,-1.57134 46.92605,-1.57134 54.01237,0 49.3884,-1.11318 49.3884,11.88991 v 8.36697 h 13.87696 c 13.16985,0 13.95882,0.0998 15.48387,1.95744 2.29219,2.79219 2.42482,61.9238 0.14486,64.58983 -1.28984,1.50827 -3.14384,1.76149 -15.74193,2.14999 l -14.27989,0.44036 -0.25825,19.37615 c -0.24659,18.50188 -0.35655,19.44569 -2.43693,20.91743 -2.00012,1.41495 -5.8015,1.54129 -46.37651,1.54129 h -44.19782 z m 82.50573,-36.87206 v -26.86238 h -36.12903 -36.12904 v 26.86238 26.86239 h 36.12904 36.12903 z m -64.4576,13.45541 c -2.31136,-2.81553 -1.98254,-5.72875 0.92681,-8.21103 l 2.53372,-2.16181 h 25.10756 c 27.22252,0 28.76799,0.24843 30.11912,4.84157 0.66008,2.24389 -0.76829,5.60007 -2.90027,6.81467 -0.62469,0.35589 -13.07074,0.65314 -27.65791,0.66056 -26.24555,0.0133 -26.53886,-0.007 -28.12903,-1.94396 z m 0,-19.37615 c -2.31136,-2.81553 -1.98254,-5.72875 0.92681,-8.21103 l 2.53372,-2.1618 h 25.10756 c 27.22252,0 28.76799,0.24842 30.11912,4.84156 0.66008,2.2439 -0.76829,5.60007 -2.90027,6.81468 -0.62469,0.35588 -13.07074,0.65313 -27.65791,0.66055 -26.24555,0.0134 -26.53886,-0.007 -28.12903,-1.94396 z m -20.18756,-18.79771 c 0,-8.86406 0.87335,-12.29842 3.50937,-13.80017 0.62469,-0.35589 21.07341,-0.65314 45.4416,-0.66055 39.79241,-0.0122 44.49812,0.135 46.19355,1.44412 1.62641,1.25582 1.88773,2.90178 1.88773,11.88991 v 10.4323 h 9.80645 9.80646 v -22.01835 -22.01835 h -67.61291 -67.6129 v 22.01835 22.01835 h 9.29033 9.29032 z m 85.67741,-51.02467 v -3.9633 h -36.64516 -36.64516 v 3.9633 3.9633 h 36.64516 36.64516 z m -160.76198,66.27523 c -1.44813,-6.89287 -0.75688,-33.99664 1.0838,-42.49541 2.30103,-10.62438 6.12565,-21.65123 10.59405,-30.54396 2.02507,-4.03018 3.93101,-7.82302 4.23542,-8.42852 0.74455,-1.48102 -228.84084,-1.6287 -232.08072,-0.14929 -4.70561,2.1487 -5.00604,4.67638 -5.00604,42.11871 0,35.47001 0.26295,38.32183 3.84474,41.6987 1.53943,1.45135 8.05866,1.54289 109.87584,1.54289 h 108.2393 z M 166.97553,403.38303 c -5.91667,-3.97089 -5.91667,-13.54929 0,-17.52018 5.74542,-3.85596 13.68738,-1.22874 15.97449,5.2844 2.41506,6.87753 -2.65991,14.0445 -9.945,14.0445 -1.83397,0 -4.54724,-0.81393 -6.02949,-1.80872 z m 7.40583,-8.76009 c -0.18924,-0.48441 -0.8086,-0.88074 -1.37634,-0.88074 -0.56774,0 -1.1871,0.39633 -1.37634,0.88074 -0.18926,0.4844 0.4301,0.88073 1.37634,0.88073 0.94624,0 1.56559,-0.39633 1.37634,-0.88073 z m 37.1067,8.51875 c -1.42594,-1.12754 -3.16815,-3.53797 -3.87158,-5.35654 -1.08291,-2.79959 -1.01187,-3.90322 0.4634,-7.19912 3.13322,-6.99993 10.06392,-8.6883 16.26369,-3.96194 3.11629,2.37568 3.37113,2.98034 3.37113,7.99885 0,5.01851 -0.25484,5.62317 -3.37113,7.99885 -4.24895,3.23916 -9.16513,3.43798 -12.85551,0.5199 z m 7.45244,-9.03251 c 0,-0.76698 -0.55162,-1.23762 -1.2258,-1.04587 -1.91404,0.54435 -2.2315,2.44036 -0.4086,2.44036 0.89892,0 1.6344,-0.62752 1.6344,-1.39449 z m 36.54194,8.08807 c -3.09148,-2.63768 -3.50968,-3.54021 -3.50968,-7.57431 0,-4.03411 0.4182,-4.93663 3.50968,-7.57431 6.20276,-5.29227 13.385,-3.73744 16.67355,3.60953 1.66915,3.72902 1.67109,4.1962 0.0326,7.85664 -3.24646,7.25293 -10.61722,8.87763 -16.70619,3.68245 z m 8.70537,-7.57431 c -0.18924,-0.48441 -0.8086,-0.88074 -1.37634,-0.88074 -0.56774,0 -1.1871,0.39633 -1.37634,0.88074 -0.18926,0.4844 0.4301,0.88073 1.37634,0.88073 0.94624,0 1.56559,-0.39633 1.37634,-0.88073 z m 158.22045,-89.35847 c 14.20449,-7.30625 30.1481,-12.15444 43.9336,-13.35949 l 6.53412,-0.57117 v -31.65255 -31.65255 l -3.01737,-2.57444 -3.01737,-2.57446 H 305.16219 c -179.85099,0 -166.66173,-0.46476 -168.74851,5.94636 -1.44632,4.44347 -1.44806,70.85112 -0.002,75.29382 2.05324,6.30804 -8.23993,5.87807 141.65343,5.91722 l 134.9956,0.0352 9.34753,-4.80801 z M 169.90824,276.66404 c -3.64351,-1.31931 -6.86351,-5.07281 -7.42706,-8.65759 -1.10593,-7.03501 5.71734,-13.64919 12.56741,-12.1823 5.79317,1.24057 9.96697,7.86961 8.37095,13.2952 -1.52256,5.17588 -8.812,9.2463 -13.5113,7.54469 z m 4.4086,-10.46313 c 0.22474,-0.57523 -0.32687,-1.04587 -1.2258,-1.04587 -0.89892,0 -1.63441,0.62752 -1.63441,1.39449 0,1.55532 2.22221,1.28446 2.86021,-0.34862 z m 38.3247,9.27056 c -8.66111,-4.97283 -6.5885,-17.46779 3.24248,-19.54769 11.83649,-2.50419 17.2909,15.32636 6.18704,20.22553 -4.04412,1.78432 -5.29823,1.69417 -9.42952,-0.67784 z m 6.29896,-8.99533 c 0,-0.7266 -0.4371,-1.3211 -0.97133,-1.3211 -1.30166,0 -2.23391,1.37535 -1.40921,2.07899 1.16252,0.99187 2.38054,0.60409 2.38054,-0.75789 z m 39.55067,9.74007 c -8.46503,-3.19272 -8.69674,-15.73436 -0.35865,-19.41323 4.27012,-1.88403 6.6343,-1.67121 10.24697,0.92244 10.34361,7.42598 2.02384,22.98365 -9.88832,18.49079 z m 4.83643,-9.74007 c 0,-0.4844 -0.46452,-1.01284 -1.03226,-1.17431 -0.56774,-0.16147 -1.03226,0.36697 -1.03226,1.17431 0,0.80734 0.46452,1.33579 1.03226,1.17431 0.56774,-0.16146 1.03226,-0.6899 1.03226,-1.17431 z m -123.59883,-78.7954 c -5.23931,-1.07215 -10.58223,-5.11893 -13.27636,-10.05566 l -2.45948,-4.50674 -0.0103,-40.76224 c -0.0109,-44.438158 -0.0171,-44.387433 5.98016,-49.844237 1.53117,-1.393193 4.64201,-3.267057 6.91298,-4.164144 3.96412,-1.56592 10.66381,-1.631065 167.74193,-1.631065 157.59271,0 163.76924,0.06058 167.86177,1.646261 4.74237,1.837474 9.22487,6.31739 11.31061,11.304092 1.07547,2.571285 1.38718,12.098813 1.4048,42.937573 0.0217,38.01094 -0.0634,39.79523 -2.08006,43.59633 -2.41741,4.55648 -6.30463,8.32518 -10.75519,10.42725 -2.84572,1.34408 -16.31904,1.47375 -166.19354,1.59944 -89.70322,0.0752 -164.60011,-0.17086 -166.43754,-0.54686 z m 330.65602,-14.39133 2.49119,-2.47113 V 132.48771 94.157147 L 469.85861,91.5827 466.84124,89.008244 H 304.13427 141.42731 l -2.45104,2.09125 c -1.46913,1.253478 -2.71577,3.635089 -3.11184,5.944955 -0.36344,2.119539 -0.51677,19.566701 -0.34075,38.771481 0.30682,33.47365 0.40544,34.9987 2.38457,36.87459 1.13548,1.07625 2.99354,2.28319 4.12903,2.68208 1.13548,0.3989 74.91766,0.64937 163.96042,0.5566 l 161.89589,-0.16866 z M 167.55138,141.35846 c -7.45284,-4.45392 -6.77395,-15.32428 1.15862,-18.55179 4.36519,-1.77607 8.19109,-1.11093 11.58561,2.01417 4.79199,4.41164 4.55366,11.0246 -0.55437,15.38282 -3.40052,2.90136 -8.46452,3.3811 -12.18986,1.1548 z m 6.29273,-10.15172 c -0.8081,-0.68949 -1.31633,-0.68949 -1.81576,0 -1.07385,1.48247 0.44511,3.0844 1.81576,1.91494 0.80809,-0.68947 0.80809,-1.22547 0,-1.91494 z m 37.51854,9.71758 c -5.78389,-3.88178 -5.54392,-12.75904 0.46144,-17.07047 5.27296,-3.78562 11.50082,-2.51372 14.86424,3.03568 3.01506,4.97464 1.47449,11.32194 -3.57143,14.71456 -2.53154,1.70207 -8.74027,1.34302 -11.75425,-0.67977 z m 7.57785,-8.31974 c 0,-0.72661 -0.69677,-1.32111 -1.54839,-1.32111 -1.61194,0 -2.04796,1.04165 -0.86021,2.05505 1.18775,1.01341 2.4086,0.64138 2.4086,-0.73394 z m 38.14618,8.99951 c -5.04592,-3.39262 -6.58649,-9.73992 -3.57143,-14.71456 3.36342,-5.5494 9.59128,-6.8213 14.86424,-3.03568 8.66122,6.21815 4.63842,18.93075 -5.9653,18.85116 -2.05247,-0.0154 -4.44984,-0.51083 -5.32751,-1.10092 z m 6.75705,-9.29309 c 0,-1.59295 -2.02044,-1.30214 -2.42116,0.34849 -0.22296,0.91835 0.164,1.32098 1.03225,1.07404 0.76389,-0.21725 1.38891,-0.8574 1.38891,-1.42253 z"
     id="path20"
     inkscape:connector-curvature="0" />
</svg>
