<?xml version="1.0" encoding="UTF-8" standalone="no"?>
<!-- Created with Inkscape (http://www.inkscape.org/) -->

<svg
   xmlns:dc="http://purl.org/dc/elements/1.1/"
   xmlns:cc="http://creativecommons.org/ns#"
   xmlns:rdf="http://www.w3.org/1999/02/22-rdf-syntax-ns#"
   xmlns:svg="http://www.w3.org/2000/svg"
   xmlns="http://www.w3.org/2000/svg"
   xmlns:sodipodi="http://sodipodi.sourceforge.net/DTD/sodipodi-0.dtd"
   xmlns:inkscape="http://www.inkscape.org/namespaces/inkscape"
   version="1.1"
   id="svg10"
   width="720.51611"
   height="620.44446"
   viewBox="0 0 720.51611 620.44446"
   sodipodi:docname="noun_172109_cc.svg"
   inkscape:version="0.92.1 r15371">
  <metadata
     id="metadata16">
    <rdf:RDF>
      <cc:Work
         rdf:about="">
        <dc:format>image/svg+xml</dc:format>
        <dc:type
           rdf:resource="http://purl.org/dc/dcmitype/StillImage" />
        <dc:title></dc:title>
      </cc:Work>
    </rdf:RDF>
  </metadata>
  <defs
     id="defs14" />
  <sodipodi:namedview
     pagecolor="#ffffff"
     bordercolor="#666666"
     borderopacity="1"
     objecttolerance="10"
     gridtolerance="10"
     guidetolerance="10"
     inkscape:pageopacity="0"
     inkscape:pageshadow="2"
     inkscape:window-width="1366"
     inkscape:window-height="706"
     id="namedview12"
     showgrid="false"
     inkscape:zoom="0.86550858"
     inkscape:cx="360.25806"
     inkscape:cy="310.22223"
     inkscape:window-x="-8"
     inkscape:window-y="219"
     inkscape:window-maximized="1"
     inkscape:current-layer="svg10" />
  <path
     style="fill:#000000;stroke-width:0.95789492"
     d="m 267.99249,534.94091 c -1.26044,-0.43674 -2.54814,-1.71139 -2.86156,-2.83255 -0.31342,-1.12117 -0.55958,-47.32024 -0.54701,-102.66463 l 0.0229,-100.62613 -17.50599,-0.26276 c -16.08173,-0.24137 -17.63678,-0.40738 -19.11354,-2.04052 -0.92446,-1.02235 -1.46841,-3.01112 -1.28011,-4.68024 0.67664,-5.99735 -10.04291,-5.57203 134.16171,-5.32318 146.13125,0.25216 134.39975,-0.31913 133.74466,6.51304 -0.50196,5.2351 -2.61732,5.80887 -21.22389,5.75671 l -15.73328,-0.0441 -0.26672,101.85639 -0.26672,101.8564 -2.43693,1.69916 c -2.35957,1.64521 -5.32579,1.69738 -93.41936,1.64282 -50.83853,-0.0315 -91.99357,-0.4067 -93.27411,-0.8504 z m 177.00593,-109.09326 0.26264,-97.11111 h -84.1336 -84.1336 v 97.33856 97.33857 l 83.87097,-0.22745 83.87097,-0.22745 z m -262.21413,-8.26818 c -10.26596,-2.16803 -17.86525,-7.74924 -22.82585,-16.76417 l -3.22264,-5.85654 V 292.73654 190.51431 l 2.8222,-5.18745 c 4.14142,-7.61232 8.15944,-11.48369 15.45337,-14.88935 l 6.49863,-3.03431 31.74193,-0.29002 31.74193,-0.29003 v -38.15442 c 0,-36.96924 0.0641,-38.20964 2.06452,-39.9322 2.0389,-1.75571 3.44086,-1.77777 112.95733,-1.77777 h 110.89282 l 2.13944,2.34209 c 2.08782,2.2856 2.13944,3.24914 2.13944,39.94211 v 37.60001 l 31.74193,0.28012 31.74194,0.28011 5.84313,2.47092 c 7.00755,2.96331 12.52377,7.98438 16.21088,14.75574 l 2.72018,4.99557 v 103.11111 103.11111 l -2.72018,4.99557 c -3.68876,6.77438 -9.20586,11.79451 -16.21088,14.75063 -5.46038,2.30428 -6.71039,2.46614 -19.08289,2.47091 -14.754,0.006 -16.1796,-0.54209 -16.1796,-6.21711 0,-5.14381 1.22746,-5.61136 15.57329,-5.93191 12.35265,-0.27601 13.20265,-0.41567 17.25614,-2.83525 2.66306,-1.58961 5.24506,-4.24109 6.87833,-7.06341 l 2.61482,-4.51848 v -98.76206 -98.76206 l -2.70752,-4.67865 c -1.76298,-3.04648 -4.1665,-5.51061 -6.88968,-7.06343 l -4.18216,-2.38475 -36.50416,-0.44445 c -30.93787,-0.37667 -36.65321,-0.64776 -37.48161,-1.77777 -0.5755,-0.78504 -0.98394,-17.14236 -0.99326,-39.77778 L 462.80031,99.4032 H 360.09064 257.38096 v 33.77778 33.77778 h 52.12903 c 50.75269,0 52.18355,0.0469 54.19355,1.77778 1.26165,1.08641 2.06452,2.96296 2.06452,4.82539 0,6.24711 6.30148,5.84073 -90.65438,5.84623 -60.30733,0.004 -88.6904,0.30783 -91.53917,0.98175 -5.2447,1.24072 -12.01957,7.19056 -13.70565,12.03659 -1.82558,5.24693 -1.82558,195.37314 0,200.62008 1.68608,4.84603 8.46095,10.79587 13.70565,12.03659 2.27097,0.53724 10.2507,0.97903 17.73272,0.98175 15.21591,0.005 16.84793,0.55539 16.84793,5.67633 0,5.82807 -1.2756,6.30952 -17.20491,6.49386 -7.85343,0.0909 -16.02812,-0.20416 -18.16596,-0.65564 z M 218.07575,249.6938 c -5.03031,-4.33166 -3.76421,-12.99305 2.29363,-15.6906 4.08236,-1.81786 6.49039,-1.57627 10.05857,1.00914 3.73677,2.70758 4.94438,6.97944 3.23433,11.44128 -2.40437,6.2735 -10.1855,7.89106 -15.58653,3.24018 z"
     id="path20"
     inkscape:connector-curvature="0" />
</svg>
