<?xml version="1.0" encoding="UTF-8" standalone="no"?>
<!-- Created with Inkscape (http://www.inkscape.org/) -->

<svg
   xmlns:dc="http://purl.org/dc/elements/1.1/"
   xmlns:cc="http://creativecommons.org/ns#"
   xmlns:rdf="http://www.w3.org/1999/02/22-rdf-syntax-ns#"
   xmlns:svg="http://www.w3.org/2000/svg"
   xmlns="http://www.w3.org/2000/svg"
   xmlns:sodipodi="http://sodipodi.sourceforge.net/DTD/sodipodi-0.dtd"
   xmlns:inkscape="http://www.inkscape.org/namespaces/inkscape"
   version="1.1"
   id="svg10"
   width="720.51611"
   height="622.22223"
   viewBox="0 0 720.51611 622.22223"
   sodipodi:docname="noun_588326_cc.svg"
   inkscape:version="0.92.1 r15371">
  <metadata
     id="metadata16">
    <rdf:RDF>
      <cc:Work
         rdf:about="">
        <dc:format>image/svg+xml</dc:format>
        <dc:type
           rdf:resource="http://purl.org/dc/dcmitype/StillImage" />
        <dc:title></dc:title>
      </cc:Work>
    </rdf:RDF>
  </metadata>
  <defs
     id="defs14" />
  <sodipodi:namedview
     pagecolor="#ffffff"
     bordercolor="#666666"
     borderopacity="1"
     objecttolerance="10"
     gridtolerance="10"
     guidetolerance="10"
     inkscape:pageopacity="0"
     inkscape:pageshadow="2"
     inkscape:window-width="1366"
     inkscape:window-height="706"
     id="namedview12"
     showgrid="false"
     inkscape:zoom="0.8630357"
     inkscape:cx="360.25806"
     inkscape:cy="311.11111"
     inkscape:window-x="-8"
     inkscape:window-y="219"
     inkscape:window-maximized="1"
     inkscape:current-layer="svg10" />
  <path
     style="fill:#000000;stroke-width:0.95789492"
     d="m 444.02227,501.58107 c -15.00845,-2.39523 -31.49454,-8.64974 -45.20351,-17.14938 -14.76284,-9.15303 -33.82012,-28.14146 -40.57245,-40.42588 l -1.83222,-3.33334 h -95.43098 c -71.90936,0 -96.47821,-0.26644 -99.67977,-1.08099 -5.74427,-1.46148 -14.13551,-8.73307 -16.71198,-14.48211 -1.92774,-4.30148 -1.99765,-8.669 -2.29055,-143.10356 -0.1981,-90.92221 0.0614,-141.04201 0.75366,-145.56551 0.58068,-3.79436 1.8138,-8.19436 2.74026,-9.77778 2.36666,-4.04482 7.44139,-8.47657 12.29207,-10.73461 4.01644,-1.8697 5.30451,-1.92916 47.23853,-2.18108 49.82032,-0.29928 48.54746,-0.4764 56.58815,7.87433 2.50822,2.60493 6.24769,6.25712 8.30993,8.11599 l 3.74953,3.37977 h 89.2244 c 98.61138,0 96.38523,-0.11986 102.73569,5.5312 6.7672,6.0219 10.71832,19.47472 7.11182,24.21446 -3.61755,4.75426 -10.95054,1.81948 -10.96383,-4.3879 -0.0103,-4.58571 -2.01011,-9.19579 -4.81416,-11.09511 -2.65796,-1.80036 -3.57479,-1.81821 -93.41696,-1.81821 -74.71543,0 -91.33322,-0.21608 -94.13469,-1.22404 -1.87114,-0.67322 -6.15298,-3.94211 -9.51524,-7.2642 -3.36225,-3.32209 -7.35486,-7.17127 -8.87249,-8.55374 l -2.7593,-2.51358 -41.62779,0.004 c -39.46629,0.004 -41.79938,0.0934 -44.93251,1.73847 -1.8176,0.95433 -4.14018,3.05284 -5.16129,4.66334 -1.76527,2.78399 -1.85656,9.89936 -1.85656,144.70575 0,134.80638 0.0913,141.92176 1.85656,144.70597 1.02111,1.61051 3.34369,3.70902 5.16129,4.66334 3.21244,1.6867 5.88057,1.73525 95.54419,1.73848 87.42639,0.004 92.20296,-0.0779 91.53975,-1.55224 -7.63857,-16.98147 -11.44109,-44.06145 -8.89315,-63.33333 4.41843,-33.41972 19.97181,-61.32581 45.89442,-82.34437 31.17478,-25.27713 73.73256,-34.20822 111.40727,-23.37969 5.00004,1.43712 9.29681,2.61295 9.54838,2.61295 0.25156,0 0.4574,-14.63955 0.4574,-32.53233 0,-35.96333 -0.10654,-36.62074 -6.57888,-40.59629 l -3.22758,-1.98249 H 345.95775 194.21583 l -0.51613,99.55555 -0.51613,99.55556 -2.84269,4.16413 c -3.28921,4.81822 -6.8312,7.23319 -12.64118,8.61893 -6.05133,1.44329 -9.25002,1.2197 -11.36689,-0.79454 -4.25288,-4.04668 -1.03141,-10.65519 5.19412,-10.65519 4.39652,0 8.43591,-2.87245 9.74437,-6.92932 0.6987,-2.16632 1.06402,-37.40735 1.0678,-103.00719 0.005,-89.4599 0.17258,-99.85793 1.62789,-101.11111 1.46041,-1.25758 17.2587,-1.39682 158.48475,-1.39682 173.18457,0 160.69195,-0.4165 167.98528,5.6006 1.89585,1.56412 4.68295,4.84384 6.19354,7.28828 l 2.74654,4.44445 0.35108,37.77778 0.35109,37.77778 7.32036,4 c 9.94935,5.43654 27.85571,20.88895 35.0217,30.22222 11.47483,14.94526 19.05591,30.44887 23.7937,48.6591 1.9635,7.5469 2.25679,11.33127 2.25679,29.11868 0,22.44946 -1.08657,28.98464 -7.60451,45.73736 -15.71189,40.38338 -53.23258,70.76769 -96.01984,77.75699 -10.25622,1.67535 -30.58207,1.71564 -40.8252,0.0809 z m 46.58403,-13.66749 c 37.00143,-9.32319 66.49094,-35.72454 79.66318,-71.32082 8.86333,-23.95202 8.85989,-53.12887 -0.009,-77.25362 -10.82988,-29.45861 -32.39303,-52.18877 -61.14728,-64.45666 -14.91197,-6.36212 -24.52381,-8.49312 -40.83275,-9.05283 -10.36217,-0.35561 -14.85854,-0.0942 -22.83212,1.32742 -25.68858,4.58005 -48.8257,17.47699 -65.44945,36.48241 -42.60317,48.70691 -36.15503,122.05964 14.28896,162.54828 14.37841,11.54076 32.295,19.73549 50.25068,22.98377 10.2456,1.85348 36.57247,1.13459 46.0679,-1.25795 z m -70.59904,-43.70355 c -1.28568,-0.45275 -2.79536,-1.85995 -3.35484,-3.12712 -0.55949,-1.26716 -1.01725,-10.4779 -1.01725,-20.4683 v -18.16436 h -13.77549 c -12.03452,0 -13.99141,-0.20544 -15.48387,-1.62554 -1.5212,-1.44745 -1.70838,-5.03585 -1.70838,-32.75113 0,-28.80552 0.13803,-31.23314 1.8519,-32.56875 1.46764,-1.14372 4.62696,-1.49508 15.22581,-1.69333 l 13.3739,-0.25014 0.29975,-8.41411 c 0.22163,-6.22127 0.73412,-8.82743 1.96644,-10 1.55098,-1.47579 4.79518,-1.58589 46.72876,-1.58589 37.23638,0 45.41006,0.2186 47.06582,1.25871 1.67666,1.05325 2.088,2.68562 2.51987,10 l 0.51613,8.74129 13.41936,0.22974 c 12.19723,0.2088 13.58386,0.39992 15.2258,2.09847 1.64309,1.69975 1.80646,4.62417 1.80646,32.33846 0,27.71404 -0.16338,30.63878 -1.80646,32.33908 -1.64951,1.70697 -3.01706,1.88928 -15.74193,2.09848 l -13.93548,0.22911 -0.51613,19.73545 c -0.37944,14.50857 -0.87131,20.04093 -1.8572,20.88888 -1.04985,0.90296 -10.80105,1.19261 -44.90323,1.3338 -24.89262,0.10307 -44.56398,-0.17243 -45.89974,-0.6428 z m 80.27307,-38.64867 V 378.45025 H 464.1513 428.02227 v 26.51852 c 0,14.58519 0.30967,26.78519 0.68817,27.11111 0.37849,0.32593 16.63655,0.59259 36.12903,0.59259 h 35.44086 z m -64.4576,13.57999 c -2.15161,-2.6452 -2.02565,-5.38183 0.3648,-7.92596 1.95888,-2.08481 2.13233,-2.1002 26.63784,-2.36445 15.22637,-0.1642 25.7377,0.0848 27.46615,0.65072 3.07096,1.00541 5.22789,4.68425 4.27006,7.28296 -1.57033,4.26049 -2.07467,4.3323 -30.42548,4.3323 -26.42749,0 -26.72323,-0.0206 -28.31337,-1.97557 z m 0.92681,-18.87292 c -2.90934,-2.50526 -3.23817,-5.44546 -0.92681,-8.28706 1.59014,-1.95493 1.88588,-1.97556 28.31337,-1.97556 28.35081,0 28.85515,0.0718 30.42548,4.3323 0.9422,2.55631 -1.1806,6.27149 -4.13639,7.23919 -1.47029,0.48137 -13.53888,0.87295 -26.90414,0.87295 h -24.23779 z m -21.11437,-20.0808 c 0,-9.23906 0.14945,-9.94688 2.53373,-12 l 2.53372,-2.18182 h 43.91789 c 52.96221,0 48.04692,-1.4095 48.04692,13.77777 v 10.22223 h 9.82448 9.82449 l -0.2761,-22 -0.2761,-22 -67.35484,-0.22866 -67.35483,-0.22866 v 22.22866 22.22866 h 9.29032 9.29032 z m 85.47871,-50.40405 0.31742,-3.77777 h -36.70452 -36.70451 v 4.01137 4.01137 l 36.38709,-0.2336 36.3871,-0.23359 z"
     id="path20"
     inkscape:connector-curvature="0" />
</svg>
