<?xml version="1.0" encoding="UTF-8" standalone="no"?>
<!-- Created with Inkscape (http://www.inkscape.org/) -->

<svg
   xmlns:dc="http://purl.org/dc/elements/1.1/"
   xmlns:cc="http://creativecommons.org/ns#"
   xmlns:rdf="http://www.w3.org/1999/02/22-rdf-syntax-ns#"
   xmlns:svg="http://www.w3.org/2000/svg"
   xmlns="http://www.w3.org/2000/svg"
   xmlns:sodipodi="http://sodipodi.sourceforge.net/DTD/sodipodi-0.dtd"
   xmlns:inkscape="http://www.inkscape.org/namespaces/inkscape"
   version="1.1"
   id="svg10"
   width="720.51611"
   height="620.44446"
   viewBox="0 0 720.51611 620.44446"
   sodipodi:docname="noun_582138_cc.svg"
   inkscape:version="0.92.1 r15371">
  <metadata
     id="metadata16">
    <rdf:RDF>
      <cc:Work
         rdf:about="">
        <dc:format>image/svg+xml</dc:format>
        <dc:type
           rdf:resource="http://purl.org/dc/dcmitype/StillImage" />
        <dc:title></dc:title>
      </cc:Work>
    </rdf:RDF>
  </metadata>
  <defs
     id="defs14" />
  <sodipodi:namedview
     pagecolor="#ffffff"
     bordercolor="#666666"
     borderopacity="1"
     objecttolerance="10"
     gridtolerance="10"
     guidetolerance="10"
     inkscape:pageopacity="0"
     inkscape:pageshadow="2"
     inkscape:window-width="1366"
     inkscape:window-height="706"
     id="namedview12"
     showgrid="false"
     inkscape:zoom="0.86550858"
     inkscape:cx="360.25806"
     inkscape:cy="310.22223"
     inkscape:window-x="-8"
     inkscape:window-y="219"
     inkscape:window-maximized="1"
     inkscape:current-layer="svg10" />
  <path
     style="fill:#000000;stroke-width:0.95789492"
     d="m 440.11547,579.66377 c -9.53013,-1.368 -27.37798,-6.85328 -35.84354,-11.016 -29.00624,-14.26307 -50.61423,-37.37804 -62.52816,-66.889 l -3.31941,-8.22222 -85.80608,-0.0146 -85.80607,-0.0147 -4.09851,-1.99891 c -4.61745,-2.25201 -8.2821,-6.4317 -9.82043,-11.20062 -0.68144,-2.11253 -1.03927,-75.81094 -1.04304,-214.83212 -0.005,-183.910001 0.19354,-212.19436 1.51648,-216.03045 1.53606,-4.454075 6.44275,-9.710222 10.33349,-11.069428 1.14386,-0.399602 53.29879,-0.751903 115.89984,-0.782893 l 113.8201,-0.05634 46.94972,47.237256 46.94971,47.237245 0.26245,100.89148 0.26244,100.89147 9.29032,3.21413 c 17.44594,6.03567 30.46292,13.5174 43.66025,25.09446 34.38072,30.15971 49.48481,77.82581 38.80496,122.46231 -10.46479,43.73771 -44.41281,79.23493 -87.19147,91.1704 -6.00588,1.67568 -13.90265,3.46344 -17.54838,3.97281 -7.78676,1.08795 -27.02772,1.0634 -34.74467,-0.0444 z m 34.37811,-12.39476 c 39.33395,-5.99927 74.03339,-33.54645 88.16066,-69.98891 5.66148,-14.60428 7.55936,-24.88476 7.58318,-41.07689 0.0399,-27.08915 -7.36332,-49.09674 -23.71364,-70.49406 -11.12854,-14.5637 -32.10164,-29.54814 -50.67803,-36.20743 -23.79222,-8.52907 -53.86685,-8.27048 -77.36739,0.66524 -55.62132,21.14915 -85.27304,80.58713 -68.53195,137.37485 12.11976,41.11166 46.53907,71.82934 88.86579,79.30872 8.23687,1.4555 27.40803,1.68035 35.68138,0.41848 z m -62.52009,-46.15664 c -1.27418,-0.6924 -1.63979,-4.34994 -2.06452,-20.65306 l -0.51612,-19.81165 -14.27989,-0.44445 c -12.59809,-0.3921 -14.45209,-0.64766 -15.74194,-2.16989 -1.1947,-1.40995 -1.46204,-7.37135 -1.46204,-32.60215 v -30.87671 l 2.71985,-1.84229 c 2.41854,-1.6382 4.13389,-1.84229 15.48387,-1.84229 h 12.76402 v -8.30668 c 0,-6.9185 0.31546,-8.55252 1.88773,-9.77778 1.69637,-1.32197 6.49365,-1.4711 47.32388,-1.4711 42.70685,0 45.53877,0.0976 47.14452,1.62555 1.32826,1.26386 1.70838,3.43944 1.70838,9.77778 v 8.15223 h 12.76402 c 11.34997,0 13.06533,0.20409 15.48387,1.84229 l 2.71985,1.84229 v 30.84881 c 0,26.48195 -0.22747,31.12848 -1.60691,32.82438 -1.52505,1.8749 -2.31402,1.97556 -15.48388,1.97556 h -13.87695 v 18.28066 c 0,17.8493 -0.4977,21.08519 -3.50937,22.81685 -1.71102,0.98379 -89.63454,0.80272 -91.45837,-0.18835 z m 82.58064,-38.25386 v -26.67805 l -36.38709,0.2336 -36.3871,0.2336 -0.27456,25.32193 c -0.151,13.92706 -0.0494,25.82706 0.22567,26.44444 0.38972,0.87453 8.48889,1.12252 36.66166,1.12252 h 36.16142 z m -63.5874,15.33109 c -1.55041,-0.89145 -3.50937,-4.22304 -3.50937,-5.96835 0,-0.7877 1.14018,-2.41399 2.53373,-3.61399 l 2.53372,-2.18183 h 25.38416 25.38417 l 2.53372,2.18183 c 3.06891,2.64266 3.25912,6.08241 0.46921,8.48484 -1.9564,1.68468 -3.42949,1.77707 -28.12903,1.76417 -14.33549,-0.007 -26.57562,-0.30748 -27.20031,-0.66667 z m -0.71752,-19.98639 c -0.95248,-0.61111 -2.0222,-2.38459 -2.37716,-3.94107 -0.52197,-2.28883 -0.13883,-3.26616 2.00369,-5.11111 l 2.64907,-2.28115 h 25.38416 25.38417 l 2.53372,2.18182 c 3.06891,2.64267 3.25912,6.08242 0.46921,8.48485 -1.95576,1.68412 -3.44086,1.77777 -28.1898,1.77777 -19.28844,0 -26.57848,-0.29077 -27.85706,-1.11111 z m -20.56247,-21.07522 c 0.22743,-7.88258 0.67215,-10.54624 1.96644,-11.77777 1.55809,-1.48255 4.72342,-1.59145 46.25579,-1.59145 53.44535,0 48.33856,-1.44943 48.86302,13.86839 l 0.3469,10.13161 h 9.20149 9.20149 v -22.22223 -22.22222 h -67.6129 -67.6129 v 22.25558 22.25558 l 9.54839,-0.25557 9.54839,-0.25559 z m 84.86739,-49.81367 v -3.55555 h -36.64516 -36.64516 v 3.55555 3.55556 h 36.64516 36.64516 z m -159.36462,72.3915 c -1.48079,-3.32292 -2.85046,-22.90137 -2.20386,-31.50261 2.52703,-33.61522 16.56708,-62.82718 40.69203,-84.66447 15.14312,-13.70718 31.11461,-22.64736 50.24896,-28.1273 12.49458,-3.57837 23.98445,-4.8656 38.75456,-4.34179 l 12.26929,0.43513 -0.26269,-95.20635 -0.2627,-95.20634 -43.46294,-0.23177 c -40.41123,-0.21549 -43.5815,-0.34457 -45.15146,-1.83841 -1.5073,-1.43422 -1.71725,-6.32198 -1.9564,-45.546003 l -0.26791,-43.93937 -107.13888,-0.22636 -107.13889,-0.226361 -2.53853,2.185956 -2.53853,2.185957 V 264.66569 c 0,157.42277 0.30224,211.70439 1.18679,213.15151 0.65274,1.06786 1.6979,2.23544 2.32258,2.59463 0.62469,0.35918 38.69516,0.65918 84.60107,0.66666 75.18821,0.0123 83.40401,-0.12386 82.84751,-1.37267 z M 213.2169,399.79917 c -2.90934,-2.50527 -3.23817,-5.44546 -0.92681,-8.28706 l 1.60693,-1.97557 44.58662,0.0136 c 24.52265,0.007 45.13821,0.31563 45.81237,0.68476 3.88845,2.12909 3.51668,8.90949 -0.59234,10.80315 -1.34819,0.62132 -16.69663,0.94294 -44.99955,0.94294 h -42.9535 z m -0.46921,-42.26263 c -2.65354,-2.28499 -2.6258,-5.36802 0.0749,-8.32457 l 2.13942,-2.34209 h 58.58385 58.58385 l 2.24445,2.05728 c 2.6392,2.41912 2.88405,5.64971 0.63754,8.4116 l -1.60693,1.97556 h -59.2963 c -57.91996,0 -59.34422,-0.0412 -61.36082,-1.77778 z m 0.0749,-42.3421 c -2.70074,-2.95654 -2.72848,-6.03957 -0.0749,-8.32457 2.03749,-1.7545 3.44086,-1.77777 107.19485,-1.77777 103.76659,0 105.15453,0.023 106.99588,1.7751 2.55726,2.43328 2.26532,7.13281 -0.56575,9.10686 -2.10492,1.46773 -8.58246,1.56248 -106.82571,1.56248 H 214.96205 l -2.13944,-2.3421 z m -0.53252,-42.30013 c -2.31136,-2.8416 -1.98253,-5.7818 0.92681,-8.28706 l 2.5337,-2.18182 h 104.0753 c 116.3448,0 108.6637,-0.43365 108.6637,6.13486 0,6.81726 8.78508,6.30958 -109.18404,6.30958 H 213.89702 l -1.60693,-1.97556 z M 212.82259,230.75 c -2.70074,-2.95655 -2.72848,-6.03958 -0.0749,-8.32457 2.03749,-1.75451 3.44086,-1.77778 107.19485,-1.77778 100.53759,0 105.20496,0.071 106.8387,1.62555 0.93962,0.89405 1.70838,3.07137 1.70838,4.83849 0,6.38802 7.43319,5.9804 -109.05799,5.9804 H 214.96205 L 212.82261,230.75 Z m -0.53252,-42.30014 c -2.31136,-2.8416 -1.98253,-5.78179 0.92681,-8.28706 l 2.5337,-2.18182 h 104.30499 c 102.92864,0 104.33222,0.0235 106.36949,1.77778 2.97072,2.55812 3.08151,6.39667 0.26298,9.11111 -1.51836,1.46228 -7.94669,1.55556 -107.20313,1.55556 H 213.89702 l -1.60693,-1.97557 z m 253.3608,-60.03034 c 0,-0.61175 -62.53067,-64.086969 -67.1769,-68.191625 -1.95854,-1.730254 -1.98439,-1.293217 -1.98439,33.555558 v 35.308637 h 34.58064 c 19.01936,0 34.58065,-0.30266 34.58065,-0.67257 z"
     id="path20"
     inkscape:connector-curvature="0" />
</svg>
