<?xml version="1.0" encoding="UTF-8" standalone="no"?>
<!-- Created with Inkscape (http://www.inkscape.org/) -->

<svg
   xmlns:dc="http://purl.org/dc/elements/1.1/"
   xmlns:cc="http://creativecommons.org/ns#"
   xmlns:rdf="http://www.w3.org/1999/02/22-rdf-syntax-ns#"
   xmlns:svg="http://www.w3.org/2000/svg"
   xmlns="http://www.w3.org/2000/svg"
   xmlns:sodipodi="http://sodipodi.sourceforge.net/DTD/sodipodi-0.dtd"
   xmlns:inkscape="http://www.inkscape.org/namespaces/inkscape"
   version="1.1"
   id="svg10"
   width="48.377953"
   height="48.377953"
   viewBox="0 0 48.377953 48.377953"
   sodipodi:docname="295942.svg"
   inkscape:version="0.92.1 r15371">
  <metadata
     id="metadata16">
    <rdf:RDF>
      <cc:Work
         rdf:about="">
        <dc:format>image/svg+xml</dc:format>
        <dc:type
           rdf:resource="http://purl.org/dc/dcmitype/StillImage" />
        <dc:title></dc:title>
      </cc:Work>
    </rdf:RDF>
  </metadata>
  <defs
     id="defs14" />
  <sodipodi:namedview
     pagecolor="#ffffff"
     bordercolor="#666666"
     borderopacity="1"
     objecttolerance="10"
     gridtolerance="10"
     guidetolerance="10"
     inkscape:pageopacity="0"
     inkscape:pageshadow="2"
     inkscape:window-width="1366"
     inkscape:window-height="706"
     id="namedview12"
     showgrid="false"
     inkscape:zoom="11.100098"
     inkscape:cx="24.188976"
     inkscape:cy="24.188976"
     inkscape:window-x="-8"
     inkscape:window-y="219"
     inkscape:window-maximized="1"
     inkscape:current-layer="svg10" />
  <path
     style="fill:#000000;stroke-width:0.09448819"
     d="M 21.409902,48.467814 C 20.6113,48.206097 19.859497,47.509827 19.584986,46.777695 l -0.09725,-0.259356 -8.813548,-0.02411 -8.8135467,-0.02411 v -0.755906 -0.755905 l 8.8028287,-0.02411 8.802831,-0.02411 0.19873,-0.410524 c 0.816155,-1.68595 3.069302,-2.150287 4.469323,-0.921053 1.543872,1.355538 1.153164,3.912153 -0.724624,4.741596 -0.571389,0.252391 -1.476419,0.319233 -1.999832,0.147701 z m 1.550918,-1.669406 c 0.791945,-0.482837 0.744455,-1.743692 -0.08238,-2.187128 -0.917454,-0.492037 -1.882763,0.115216 -1.883584,1.184918 -2.83e-4,0.408502 0.04067,0.500957 0.366483,0.826772 0.325814,0.325814 0.41827,0.366796 0.826772,0.366482 0.294484,-1.89e-4 0.572447,-0.06895 0.772709,-0.191044 z m 4.080928,-1.084193 v -0.803149 h 9.92126 9.921261 v 0.803149 0.80315 h -9.921261 -9.92126 z M 7.8125433,42.380419 c -0.632365,-0.305657 -1.116688,-0.797714 -1.387281,-1.409434 l -0.179759,-0.406376 h -2.216051 -2.216051 v -0.755906 -0.755905 h 2.216051 2.216051 l 0.182752,-0.41314 c 0.27698,-0.626159 0.790931,-1.133905 1.44478,-1.427334 0.513727,-0.230548 0.665371,-0.255975 1.300327,-0.218034 0.824904,0.04929 1.3289557,0.265535 1.8624297,0.799008 1.093285,1.093286 1.093285,2.937525 0,4.030811 -0.549215,0.549215 -1.034517,0.752084 -1.8995557,0.794067 -0.682181,0.03311 -0.811282,0.0099 -1.323693,-0.237757 z m 1.905127,-1.485917 C 10.25508,40.542378 10.462851,39.797245 10.177494,39.245425 9.8521283,38.616237 9.1956173,38.369123 8.5430713,38.630219 c -0.706898,0.282845 -1.00245,1.182631 -0.611559,1.861844 0.330326,0.573974 1.218834,0.774164 1.786158,0.402439 z m 4.0957307,-1.085799 v -0.755905 h 16.582678 16.582677 v 0.755905 0.755906 H 30.396079 13.813401 Z M 25.165852,36.686227 C 24.33601,36.517571 23.399843,35.740355 23.163329,35.023709 L 23.058856,34.707154 12.459751,34.683124 1.8606463,34.659094 v -0.755905 -0.755906 l 10.5874627,-0.02403 10.587464,-0.02403 0.11554,-0.319518 c 0.171606,-0.47457 0.825788,-1.166301 1.375043,-1.453971 0.677692,-0.354939 1.774275,-0.366255 2.466853,-0.02546 0.653183,0.321412 1.223784,0.938693 1.469668,1.589901 0.782858,2.07334 -1.100896,4.242339 -3.296824,3.796041 z m 1.280211,-1.692264 c 0.496683,-0.302846 0.63502,-0.613629 0.606144,-1.361731 -0.0069,-0.17997 -0.133643,-0.394141 -0.377295,-0.637795 -0.325815,-0.325814 -0.41827,-0.366796 -0.826772,-0.366483 -1.058937,8.51e-4 -1.672003,0.975362 -1.184917,1.883585 0.331419,0.617968 1.182739,0.84833 1.78284,0.482424 z m 4.15474,-0.350614 c -0.03465,-0.03464 -0.06299,-0.396063 -0.06299,-0.80315 v -0.740157 h 8.173229 8.173229 v 0.80315 0.803149 h -8.110238 c -4.460631,0 -8.138585,-0.02835 -8.17323,-0.06299 z m 4.755906,-3.899382 C 34.54909,30.49741 33.831663,29.87683 33.509131,29.145795 l -0.173043,-0.39221 H 17.570924 1.8057593 l 0.02744,-0.779527 0.02744,-0.779528 15.7516057,-0.0239 15.751606,-0.0239 0.18125,-0.409744 c 0.59421,-1.343311 2.357465,-1.986774 3.726623,-1.359953 1.021121,0.467485 1.587226,1.302565 1.655297,2.441787 0.038,0.636033 0.01268,0.786233 -0.220003,1.304714 -0.317741,0.708022 -0.889905,1.245162 -1.615553,1.516662 -0.518864,0.194132 -1.288057,0.240143 -1.734763,0.103769 z m 1.430297,-1.666382 c 0.372578,-0.192668 0.689402,-0.879195 0.607417,-1.316215 -0.165236,-0.880784 -1.171495,-1.354727 -1.914471,-0.901706 -1.148468,0.700265 -0.716681,2.364852 0.613732,2.366009 0.223447,1.89e-4 0.535441,-0.06645 0.693322,-0.148088 z m 4.144507,-1.128477 v -0.804476 l 3,0.02495 3,0.02495 0.02744,0.779528 0.02744,0.779527 H 43.958955 40.931513 Z M 1.8763943,22.737837 c -0.09653,-0.09653 -0.07485,-2.564194 0.02306,-2.624707 0.06304,-0.03896 4.793888,-0.808364 4.970409,-0.808364 0.01488,0 0.07804,-0.223228 0.140362,-0.496063 0.06232,-0.272834 0.194121,-0.766289 0.292889,-1.096567 0.09877,-0.330277 0.179579,-0.634769 0.179579,-0.676648 0,-0.04188 -0.890201,-0.78713 -1.978225,-1.656113 -1.877514,-1.499532 -1.971793,-1.590155 -1.851884,-1.780045 0.06949,-0.110042 0.66632,-1.135509 1.326294,-2.278816 0.659973,-1.143307 1.213752,-2.0932658 1.230619,-2.1110194 0.01687,-0.017754 1.08942,0.3795364 2.383451,0.8828664 L 10.945731,11.007507 11.796486,10.156753 12.647241,9.3059981 12.048107,7.762075 C 11.718582,6.9129173 11.304596,5.8480904 11.128136,5.3957931 L 10.807299,4.5734345 13.124332,3.2381209 C 14.3987,2.5036986 15.472283,1.938327 15.51007,1.9817395 c 0.03779,0.043413 0.757941,0.9363588 1.600339,1.9843249 l 1.531633,1.9053929 0.302215,-0.092467 c 0.166218,-0.050857 0.684892,-0.1916034 1.152609,-0.31277 L 20.94726,5.2459174 21.325212,2.7556567 21.703165,0.2653959 h 2.687857 2.687859 l 0.384185,2.4902009 0.384186,2.490201 0.849216,0.2203627 c 0.46707,0.1211995 0.985183,0.2619642 1.151365,0.3128106 l 0.302148,0.092448 1.493128,-1.8532286 c 0.82122,-1.0192757 1.538819,-1.9137021 1.594665,-1.9876141 0.08359,-0.1106275 0.512182,0.1022699 2.42431,1.2042363 l 2.322774,1.338622 -0.320836,0.8223586 c -0.17646,0.4522973 -0.590767,1.5179505 -0.920683,2.3681181 l -0.599846,1.5457594 0.857222,0.8466802 0.857223,0.846679 2.347028,-0.912907 c 1.290865,-0.5020992 2.360828,-0.8983818 2.377696,-0.8806282 0.01687,0.017754 0.570645,0.9677122 1.230619,2.1110192 0.659973,1.143307 1.256805,2.168774 1.326293,2.278816 0.119909,0.18989 0.02563,0.280513 -1.851883,1.780045 -1.088024,0.868983 -1.978226,1.614234 -1.978226,1.656113 0,0.04188 0.08081,0.346371 0.17958,0.676648 0.09877,0.330278 0.230568,0.823733 0.292889,1.096567 0.06232,0.272835 0.125483,0.496063 0.140362,0.496063 0.167355,0 4.905642,0.768336 4.965169,0.805126 0.04445,0.02747 0.07254,0.633537 0.06243,1.346818 l -0.01838,1.296875 -0.779528,0.02744 -0.779527,0.02744 V 22.115322 21.422177 L 42.986633,21.0605 c -1.312205,-0.198922 -2.394742,-0.368901 -2.405636,-0.377731 -0.0109,-0.0088 -0.127531,-0.526245 -0.25919,-1.149813 -0.199936,-0.946952 -0.568337,-2.196646 -0.851788,-2.889448 -0.0499,-0.121958 0.363139,-0.500405 1.837699,-1.6838 l 1.902064,-1.526485 -0.301406,-0.536673 c -0.792255,-1.41066 -0.985252,-1.717774 -1.079485,-1.717774 -0.05596,0 -1.072903,0.37766 -2.259877,0.839245 L 37.410875,12.857272 35.855923,11.292845 34.30097,9.7284192 35.108323,7.6425767 C 35.552366,6.4953635 35.940686,5.4890731 35.971256,5.4063758 36.013406,5.2923493 35.764218,5.1039874 34.940003,4.6268483 34.342246,4.2808054 33.812566,3.9976794 33.762935,3.9976794 c -0.04963,0 -0.758463,0.8291338 -1.575186,1.8425197 -0.816721,1.0133858 -1.507401,1.8425197 -1.534839,1.8425197 -0.02744,0 -0.500388,-0.1454309 -1.050998,-0.3231797 C 29.051302,7.1817902 28.133086,6.9404631 27.561433,6.8232566 26.989779,6.70605 26.509373,6.60139 26.493864,6.5906786 26.478355,6.5799673 26.31787,5.5988535 26.13723,4.4104257 25.956592,3.2219979 25.787762,2.1539786 25.762055,2.0370494 25.716305,1.8289602 25.687335,1.824451 24.396078,1.824451 c -1.291342,0 -1.320216,0.00449 -1.365674,0.2125984 -0.02554,0.1169292 -0.176766,1.084252 -0.336051,2.1496064 -0.159286,1.0653543 -0.310587,2.0445204 -0.336224,2.1759246 -0.04347,0.2227873 -0.121328,0.2540323 -1.153303,0.4628123 -0.608679,0.1231424 -1.529896,0.3664172 -2.04715,0.5406107 -0.517253,0.1741934 -0.972206,0.3167154 -1.011006,0.3167154 -0.0388,0 -0.73714,-0.8291339 -1.551868,-1.8425197 -0.814728,-1.0133859 -1.520584,-1.8425197 -1.568569,-1.8425197 -0.08995,0 -2.252201,1.2307637 -2.252201,1.2819621 0,0.015766 0.382677,1.0097805 0.850394,2.2089203 0.467716,1.1991398 0.850394,2.1995119 0.850394,2.2230499 0,0.023538 -0.698824,0.7416193 -1.55294,1.5957363 l -1.552942,1.55294 -2.1470927,-0.840753 c -1.180902,-0.462414 -2.195451,-0.840753 -2.254554,-0.840753 -0.08065,0 -1.15899,1.739246 -1.356321,2.187604 -0.01606,0.03649 0.821201,0.748837 1.860584,1.582984 l 1.889785,1.516632 -0.326283,0.968871 c -0.179456,0.532881 -0.433788,1.478043 -0.565183,2.100361 -0.131395,0.622318 -0.247814,1.138855 -0.258709,1.14786 -0.01089,0.009 -1.093432,0.177931 -2.405637,0.375392 l -2.385826,0.359019 v 0.691662 0.691662 h -0.740158 c -0.407086,0 -0.768504,-0.02835 -0.803149,-0.06299 z M 14.313739,21.974058 c 0.376396,-5.57007 5.47713,-9.852827 11.058478,-9.285091 2.887558,0.293723 5.382233,1.706149 7.168903,4.058869 1.034371,1.362074 1.819263,3.479467 1.937299,5.226222 l 0.05587,0.826771 h -0.764102 -0.764102 l -0.05522,-0.448819 c -0.219619,-1.784883 -0.453766,-2.60852 -1.049853,-3.692967 -1.169178,-2.12706 -3.112097,-3.61535 -5.520676,-4.22888 -0.977878,-0.249092 -3.076697,-0.249486 -4.007767,-7.56e-4 -2.412062,0.644377 -4.319906,2.11653 -5.481412,4.229633 -0.580415,1.055933 -0.895807,2.136991 -1.049836,3.598478 l -0.05726,0.543307 h -0.763098 -0.763092 l 0.05587,-0.826771 z m 4.120821,0.755905 c -0.08629,-0.697835 0.198454,-1.843152 0.696754,-2.802557 0.678287,-1.305948 1.885639,-2.327859 3.390629,-2.86985 0.609533,-0.219513 0.835338,-0.249583 1.874135,-0.249583 1.038798,0 1.264603,0.03007 1.874136,0.249583 0.969286,0.349068 1.644978,0.775797 2.374775,1.499771 1.0043,0.996287 1.698556,2.543752 1.702449,3.794683 l 0.0014,0.448819 H 29.605893 28.862951 L 28.750946,22.106512 C 28.475578,20.399519 27.25018,18.98734 25.630897,18.51089 c -0.657463,-0.193449 -1.812174,-0.193449 -2.469637,0 -1.621165,0.477004 -2.879269,1.933901 -3.130243,3.624855 l -0.09871,0.665084 h -0.744491 c -0.409469,0 -0.748433,-0.03189 -0.753253,-0.07087 z"
     id="path20"
     inkscape:connector-curvature="0" />
</svg>
