<?xml version="1.0" encoding="UTF-8" standalone="no"?>
<!-- Created with Inkscape (http://www.inkscape.org/) -->

<svg
   xmlns:dc="http://purl.org/dc/elements/1.1/"
   xmlns:cc="http://creativecommons.org/ns#"
   xmlns:rdf="http://www.w3.org/1999/02/22-rdf-syntax-ns#"
   xmlns:svg="http://www.w3.org/2000/svg"
   xmlns="http://www.w3.org/2000/svg"
   xmlns:sodipodi="http://sodipodi.sourceforge.net/DTD/sodipodi-0.dtd"
   xmlns:inkscape="http://www.inkscape.org/namespaces/inkscape"
   version="1.1"
   id="svg10"
   width="720.51611"
   height="624"
   viewBox="0 0 720.51611 624"
   sodipodi:docname="noun_1074152_cc.svg"
   inkscape:version="0.92.1 r15371">
  <metadata
     id="metadata16">
    <rdf:RDF>
      <cc:Work
         rdf:about="">
        <dc:format>image/svg+xml</dc:format>
        <dc:type
           rdf:resource="http://purl.org/dc/dcmitype/StillImage" />
        <dc:title></dc:title>
      </cc:Work>
    </rdf:RDF>
  </metadata>
  <defs
     id="defs14" />
  <sodipodi:namedview
     pagecolor="#ffffff"
     bordercolor="#666666"
     borderopacity="1"
     objecttolerance="10"
     gridtolerance="10"
     guidetolerance="10"
     inkscape:pageopacity="0"
     inkscape:pageshadow="2"
     inkscape:window-width="1366"
     inkscape:window-height="706"
     id="namedview12"
     showgrid="false"
     inkscape:zoom="0.86057692"
     inkscape:cx="360.25806"
     inkscape:cy="312"
     inkscape:window-x="-8"
     inkscape:window-y="219"
     inkscape:window-maximized="1"
     inkscape:current-layer="svg10" />
  <path
     style="fill:#000000;stroke-width:0.95789492"
     d="m 458.96966,584.49299 c -2.89517,-1.038 -7.40454,-5.34417 -8.70852,-8.3161 -0.61281,-1.39668 -1.09793,-8.937 -1.09793,-17.06548 v -14.56316 l -7.7671,-4.49312 -7.76709,-4.49311 -12.62001,7.3237 c -11.13165,6.45998 -13.16782,7.3252 -17.26516,7.33637 -8.74533,0.0238 -9.60926,-0.9926 -28.53016,-33.56699 -19.20376,-33.06133 -19.99544,-35.20416 -15.67252,-42.42034 1.97669,-3.29967 4.61022,-5.29033 15.0414,-11.36969 l 12.64516,-7.36969 v -8.81618 -8.81618 l -12.64516,-7.36969 c -10.47909,-6.10728 -13.04302,-8.04907 -14.96775,-11.33581 -4.42045,-7.54851 -4.09862,-8.43329 15.1539,-41.66161 19.36904,-33.42944 20.17367,-34.3836 28.97513,-34.3596 4.09718,0.0112 6.1333,0.87628 17.25974,7.33325 l 12.61458,7.32057 7.77252,-4.54116 7.77252,-4.54115 v -14.59841 c 0,-16.14618 0.63635,-18.53117 6.13295,-22.98576 l 3.29045,-2.66667 35.2883,-0.24375 c 39.91129,-0.27569 40.30833,-0.21759 44.8197,6.5585 2.13649,3.20903 2.30685,4.5754 2.32258,18.62876 l 0.0169,15.16574 7.81282,4.59122 7.81283,4.59122 12.29121,-7.02356 c 13.8055,-7.88886 15.25087,-8.44074 20.06816,-7.66253 6.68318,1.07963 8.32391,3.21908 26.41767,34.44749 18.70019,32.27506 19.22334,33.60918 15.88052,40.49848 -2.25421,4.64579 -3.61716,5.72853 -16.6816,13.25207 l -11.66607,6.7183 v 8.76233 8.76235 l 11.6129,6.60422 c 12.95982,7.37022 14.46276,8.55946 16.73482,13.24203 3.29125,6.78303 2.7213,8.27147 -14.9374,39.00919 -9.08884,15.82053 -17.68886,30.05021 -19.11115,31.62152 -2.87202,3.1729 -9.14598,5.25215 -13.20247,4.37544 -1.41582,-0.30599 -8.16149,-3.74908 -14.99037,-7.65131 l -12.41617,-7.09496 -7.81283,4.59122 -7.81282,4.59122 -0.0169,15.16574 c -0.0157,14.05336 -0.18609,15.41974 -2.32258,18.62876 -4.44067,6.6699 -5.06886,6.76652 -43.57981,6.70285 -18.74434,-0.031 -35.00965,-0.38942 -36.14514,-0.79653 z m 52.14601,-42.9249 c 0.0224,-16.69622 0.76871,-17.9627 14.27397,-24.22222 5.27403,-2.44445 13.07264,-6.94445 17.33025,-10 6.78539,-4.86965 8.27435,-5.55527 12.05997,-5.55327 4.41567,0.003 10.34617,2.56361 20.27153,8.75491 2.46735,1.5391 4.87781,2.79836 5.35657,2.79836 0.87528,0 15.33589,-24.18462 15.33589,-25.64846 0,-0.43079 -4.53876,-3.427 -10.08612,-6.65825 -14.5607,-8.48137 -14.03229,-7.23725 -14.21144,-33.46025 -0.18788,-27.50201 -0.51494,-26.68179 14.0137,-35.14448 5.65612,-3.29461 10.28386,-6.34265 10.28386,-6.77344 0,-1.46384 -14.46061,-25.64846 -15.33589,-25.64846 -0.47876,0 -2.88922,1.25927 -5.35657,2.79836 -9.90321,6.17748 -15.85852,8.75258 -20.2471,8.75492 -4.38949,0.003 -4.21288,0.0971 -17.95125,-9.63025 -1.61337,-1.14234 -7.01263,-3.94234 -11.99835,-6.22223 -12.90041,-5.89912 -13.71676,-7.3206 -13.73902,-23.92302 l -0.017,-12.66666 H 495.6148 480.13093 l -0.0453,11.33333 c -0.047,11.73457 -1.18295,16.52654 -4.71467,19.88703 -1.02272,0.97314 -5.54934,3.42239 -10.05915,5.44278 -4.5098,2.02038 -10.49138,5.2977 -13.29241,7.28292 -11.26179,7.98178 -12.28498,8.49838 -16.83217,8.49838 -3.62366,0 -6.03271,-0.93523 -13.97042,-5.42348 -5.27542,-2.98292 -10.1802,-5.61796 -10.89949,-5.85564 -0.84535,-0.27933 -3.8814,3.99171 -8.5858,12.0783 -4.00289,6.88076 -7.27799,12.85478 -7.27799,13.27563 0,0.42084 4.629,3.41912 10.28666,6.66283 6.6545,3.81524 10.92241,6.92325 12.08716,8.80224 1.5634,2.52203 1.81734,5.83121 1.92821,25.12679 0.15835,27.56088 0.61292,26.43105 -14.00681,34.813 -5.66237,3.24642 -10.29522,6.2469 -10.29522,6.66774 0,0.42085 3.2751,6.39487 7.27799,13.27563 4.7044,8.0866 7.74045,12.35764 8.5858,12.0783 0.71929,-0.23768 5.62407,-2.87272 10.89949,-5.85563 7.93771,-4.48826 10.34676,-5.42349 13.97042,-5.42349 4.54719,0 5.57038,0.51661 16.83218,8.49838 2.80103,1.98522 8.78261,5.26254 13.29241,7.28292 4.50981,2.02039 9.03643,4.46964 10.05915,5.44278 3.53172,3.36049 4.66776,8.15246 4.71467,19.88703 l 0.0453,11.33334 h 15.48387 15.48387 l 0.017,-12.66667 z m -27.88795,-50.27518 c -29.90534,-8.58072 -43.2907,-42.38235 -27.21511,-68.72539 14.89315,-24.40537 47.67494,-29.38124 69.53769,-10.55499 10.34735,8.91022 15.45937,20.3736 15.45937,34.66667 0,4.64445 -0.67429,10.62631 -1.49843,13.29303 -4.00262,12.95156 -14.04558,24.00586 -26.67285,29.35886 -8.75384,3.71096 -20.74562,4.50546 -29.61067,1.96182 z m 19.20493,-31.19213 c 13.86884,-7.28242 8.48233,-28.54169 -7.22854,-28.52937 -8.72551,0.007 -15.07316,6.36909 -15.07316,15.10779 0,11.54894 12.05339,18.8029 22.3017,13.42158 z M 288.31493,568.71065 c -6.85686,-3.25574 -33.93589,-35.53865 -49.79541,-59.36478 -42.75246,-64.22804 -60.62164,-134.11274 -48.97379,-191.53188 1.30699,-6.44291 1.20486,-8.60545 -0.30961,-6.55606 -0.39494,0.53444 -11.40193,11.64081 -24.45999,24.68084 l -23.74194,23.70915 -0.51612,14.84898 c -0.47852,13.76691 -0.70419,15.13401 -3.09678,18.76057 -4.34179,6.58104 -6.78805,7.19951 -28.47641,7.19951 -17.69552,0 -18.88584,-0.10765 -22.11473,-2 -7.61465,-4.46269 -7.69665,-4.74188 -8.04336,-27.38525 -0.28543,-18.64066 -0.1402,-20.70521 1.70989,-24.30675 3.28379,-6.3925 5.48064,-7.1286 22.80522,-7.64133 l 15.017,-0.44445 51.52254,-51.44652 51.52252,-51.44654 -1.93008,-6.33124 c -6.9537,-22.81022 4.29139,-47.01983 26.16143,-56.32309 7.5244,-3.2008 8.29192,-3.34048 18.22766,-3.31718 8.29106,0.0195 11.32276,0.39793 15.10793,1.88611 l 4.73545,1.86179 51.52262,-51.45783 51.52263,-51.457812 0.51613,-15.386237 c 0.48908,-14.57997 0.65135,-15.557078 3.09677,-18.64645 4.30767,-5.442026 6.64441,-5.934999 28.13239,-5.934999 18.05074,0 19.22657,0.104685 22.49785,2.003021 1.89843,1.101661 4.40584,3.401661 5.57201,5.111111 1.97285,2.891913 2.12033,4.530066 2.12033,23.552535 0,19.022468 -0.14748,20.660622 -2.12033,23.552535 -1.16617,1.70945 -3.67358,4.009447 -5.57201,5.111109 -3.16538,1.836889 -4.62898,2.003022 -17.64584,2.003022 h -14.19414 l -25.49735,25.393455 c -14.02354,13.96641 -25.31416,25.55121 -25.09027,25.744 0.22389,0.19279 5.03118,-0.52704 10.68286,-1.59962 8.87667,-1.68463 13.36787,-1.94777 32.98547,-1.93265 20.80602,0.0161 23.83457,0.22284 36.12903,2.46701 55.34991,10.10331 114.06481,39.79092 164.67032,83.26114 13.82488,11.87559 15.87574,14.87827 15.24998,22.32767 -0.51958,6.18555 -4.47852,11.15706 -10.4412,13.11175 -7.01656,2.30017 -9.7148,1.07496 -22.55885,-10.2434 -43.54564,-38.37308 -89.51523,-63.89092 -135.67081,-75.31125 -17.62382,-4.36068 -26.46953,-5.38413 -46.34621,-5.36226 -19.99392,0.0221 -29.59533,1.30824 -46.82944,6.27346 -15.42582,4.44424 -30.40383,11.21573 -44.14885,19.95949 -5.23073,3.32748 -5.4249,3.59535 -4.29141,5.9204 0.6545,1.34254 1.22019,7.22147 1.26072,13.10192 0.0616,8.94728 -0.31116,11.62528 -2.31279,16.61372 -8.55433,21.319 -31.00327,33.60661 -52.66663,28.82754 -3.59325,-0.7927 -6.75121,-1.44126 -7.0177,-1.44126 -1.27689,0 -16.18894,28.26269 -19.46344,36.88888 -12.72086,33.51133 -14.08645,69.97936 -4.07096,108.71427 6.39832,24.74546 20.9535,56.753 37.56896,82.61593 9.58923,14.9262 28.49061,39.62286 39.09174,51.07755 7.62308,8.23683 9.46044,11.47008 9.46044,16.64766 0,3.98834 -3.73654,10.49352 -7.31518,12.73543 -3.94735,2.47292 -10.05745,2.86391 -14.17826,0.90728 z M 272.82247,227.47236 c 6.11002,-4.94654 7.71981,-12.5972 4.09457,-19.45983 -2.22513,-4.21217 -3.99327,-5.59976 -9.0388,-7.09343 -13.72867,-4.06417 -25.10173,11.72282 -16.85626,23.39827 4.82563,6.83301 15.37207,8.3593 21.80049,3.15499 z"
     id="path20"
     inkscape:connector-curvature="0" />
</svg>
